G75*
%MOIN*%
%OFA0B0*%
%FSLAX25Y25*%
%IPPOS*%
%LPD*%
%AMOC8*
5,1,8,0,0,1.08239X$1,22.5*
%
%ADD10C,0.00394*%
%ADD11C,0.05000*%
%ADD12C,0.00400*%
%ADD13C,0.00800*%
%ADD14R,0.10800X0.00150*%
%ADD15R,0.03150X0.00150*%
%ADD16R,0.08100X0.00150*%
%ADD17R,0.03300X0.00150*%
%ADD18R,0.08550X0.00150*%
%ADD19R,0.09000X0.00150*%
%ADD20R,0.09300X0.00150*%
%ADD21R,0.09600X0.00150*%
%ADD22R,0.09750X0.00150*%
%ADD23R,0.10050X0.00150*%
%ADD24R,0.10200X0.00150*%
%ADD25R,0.10350X0.00150*%
%ADD26R,0.10500X0.00150*%
%ADD27R,0.10650X0.00150*%
%ADD28R,0.10950X0.00150*%
%ADD29R,0.11100X0.00150*%
%ADD30R,0.11250X0.00150*%
%ADD31R,0.03000X0.00150*%
%ADD32R,0.04650X0.00150*%
%ADD33R,0.04050X0.00150*%
%ADD34R,0.03900X0.00150*%
%ADD35R,0.03750X0.00150*%
%ADD36R,0.03600X0.00150*%
%ADD37R,0.03450X0.00150*%
%ADD38R,0.09900X0.00150*%
%ADD39R,0.04350X0.00150*%
%ADD40R,0.09450X0.00150*%
%ADD41R,0.09150X0.00150*%
%ADD42R,0.02850X0.00150*%
%ADD43R,0.05700X0.00150*%
%ADD44R,0.05550X0.00150*%
%ADD45R,0.05400X0.00150*%
%ADD46R,0.05100X0.00150*%
%ADD47R,0.04950X0.00150*%
%ADD48R,0.04200X0.00150*%
%ADD49R,0.04800X0.00150*%
%ADD50R,0.04500X0.00150*%
%ADD51R,0.07200X0.00150*%
%ADD52R,0.05250X0.00150*%
%ADD53R,0.05850X0.00150*%
%ADD54R,0.06450X0.00150*%
%ADD55R,0.07050X0.00150*%
%ADD56R,0.07350X0.00150*%
%ADD57R,0.07500X0.00150*%
%ADD58R,0.07950X0.00150*%
%ADD59R,0.08250X0.00150*%
%ADD60R,0.08850X0.00150*%
%ADD61R,0.02700X0.00150*%
%ADD62R,0.02100X0.00150*%
%ADD63R,0.01650X0.00150*%
%ADD64R,0.01350X0.00150*%
%ADD65R,0.00900X0.00150*%
%ADD66R,0.00450X0.00150*%
%ADD67R,0.01500X0.00150*%
%ADD68R,0.01800X0.00150*%
%ADD69R,0.02250X0.00150*%
%ADD70R,0.08400X0.00150*%
%ADD71R,0.07800X0.00150*%
%ADD72R,0.07650X0.00150*%
%ADD73R,0.06900X0.00150*%
%ADD74R,0.06750X0.00150*%
%ADD75R,0.06000X0.00150*%
%ADD76R,0.06150X0.00150*%
%ADD77R,0.02400X0.00150*%
%ADD78R,0.01950X0.00150*%
%ADD79R,0.01050X0.00150*%
%ADD80R,0.00600X0.00150*%
%ADD81R,0.00150X0.00150*%
%ADD82R,0.08700X0.00150*%
%ADD83R,0.00750X0.00150*%
%ADD84R,0.06300X0.00150*%
%ADD85R,0.01500X0.00100*%
%ADD86R,0.01900X0.00100*%
%ADD87R,0.01600X0.00100*%
%ADD88R,0.02500X0.00100*%
%ADD89R,0.02300X0.00100*%
%ADD90R,0.03100X0.00100*%
%ADD91R,0.02800X0.00100*%
%ADD92R,0.03500X0.00100*%
%ADD93R,0.03200X0.00100*%
%ADD94R,0.03700X0.00100*%
%ADD95R,0.04100X0.00100*%
%ADD96R,0.03800X0.00100*%
%ADD97R,0.04300X0.00100*%
%ADD98R,0.04000X0.00100*%
%ADD99R,0.04500X0.00100*%
%ADD100R,0.04200X0.00100*%
%ADD101R,0.04700X0.00100*%
%ADD102R,0.05900X0.00100*%
%ADD103R,0.04900X0.00100*%
%ADD104R,0.06000X0.00100*%
%ADD105R,0.05100X0.00100*%
%ADD106R,0.06100X0.00100*%
%ADD107R,0.05300X0.00100*%
%ADD108R,0.06200X0.00100*%
%ADD109R,0.05500X0.00100*%
%ADD110R,0.06300X0.00100*%
%ADD111R,0.02600X0.00100*%
%ADD112R,0.02100X0.00100*%
%ADD113R,0.02000X0.00100*%
%ADD114R,0.02200X0.00100*%
%ADD115R,0.02400X0.00100*%
%ADD116R,0.01800X0.00100*%
%ADD117R,0.01700X0.00100*%
%ADD118R,0.01400X0.00100*%
%ADD119R,0.01300X0.00100*%
%ADD120R,0.02700X0.00100*%
%ADD121R,0.02900X0.00100*%
%ADD122R,0.05400X0.00100*%
%ADD123R,0.05200X0.00100*%
%ADD124R,0.03600X0.00100*%
%ADD125R,0.05000X0.00100*%
%ADD126R,0.03900X0.00100*%
%ADD127R,0.04400X0.00100*%
%ADD128R,0.03400X0.00100*%
%ADD129R,0.03300X0.00100*%
%ADD130R,0.04600X0.00100*%
%ADD131R,0.04800X0.00100*%
%ADD132R,0.01200X0.00100*%
%ADD133R,0.00100X0.00100*%
%ADD134R,0.03000X0.00100*%
%ADD135R,0.01100X0.00100*%
%ADD136R,0.00300X0.00100*%
%ADD137R,0.00200X0.00100*%
D10*
X0033683Y0069482D02*
X0033935Y0069375D01*
X0034187Y0069268D01*
X0034445Y0069173D01*
X0034973Y0069008D01*
X0035242Y0068938D01*
X0035516Y0068882D01*
X0035790Y0068825D01*
X0035927Y0068797D01*
X0035995Y0068783D01*
X0036064Y0068769D01*
X0036379Y0068752D01*
X0036725Y0068738D01*
X0037332Y0068716D01*
X0037593Y0068709D01*
X0113632Y0068709D01*
X0113928Y0068711D01*
X0114142Y0068714D01*
X0114356Y0068717D01*
X0114489Y0068728D02*
X0114621Y0068732D01*
X0115050Y0068737D01*
X0115345Y0068739D01*
X0123062Y0068739D01*
X0123062Y0016439D01*
X0123125Y0016332D02*
X0123355Y0016062D01*
X0123385Y0015991D01*
X0123422Y0015924D01*
X0123465Y0015861D01*
X0123507Y0015798D01*
X0123556Y0015740D01*
X0123663Y0015633D01*
X0123721Y0015584D01*
X0123784Y0015542D01*
X0123847Y0015499D01*
X0123914Y0015463D01*
X0124055Y0015403D01*
X0124129Y0015379D01*
X0124206Y0015363D01*
X0124283Y0015348D01*
X0124362Y0015339D01*
X0169406Y0015339D01*
X0169486Y0015348D01*
X0169562Y0015363D01*
X0169639Y0015379D01*
X0169713Y0015403D01*
X0169854Y0015463D01*
X0169921Y0015499D01*
X0170047Y0015584D01*
X0170106Y0015633D01*
X0170213Y0015740D01*
X0170261Y0015798D01*
X0170304Y0015861D01*
X0170346Y0015924D01*
X0170383Y0015991D01*
X0170413Y0016062D01*
X0170443Y0016132D02*
X0170666Y0016407D01*
X0170706Y0016439D02*
X0170706Y0068739D01*
X0208871Y0068739D01*
X0209166Y0068737D01*
X0209380Y0068735D01*
X0209594Y0068732D01*
X0209727Y0068728D01*
X0209860Y0068717D02*
X0210074Y0068714D01*
X0210288Y0068711D01*
X0210583Y0068709D01*
X0256176Y0068709D01*
X0256436Y0068716D01*
X0256740Y0068727D01*
X0257043Y0068738D01*
X0257389Y0068752D01*
X0257705Y0068769D01*
X0257773Y0068783D01*
X0257842Y0068797D01*
X0257979Y0068825D01*
X0258253Y0068882D01*
X0258527Y0068938D01*
X0258796Y0069008D01*
X0259323Y0069173D01*
X0259582Y0069268D01*
X0259834Y0069375D01*
X0260086Y0069482D01*
X0260332Y0069601D01*
X0260810Y0069862D01*
X0261042Y0070003D01*
X0261266Y0070155D01*
X0261491Y0070307D01*
X0261708Y0070470D01*
X0261916Y0070642D01*
X0262125Y0070814D01*
X0262325Y0070997D01*
X0262516Y0071188D01*
X0262707Y0071379D01*
X0262889Y0071579D01*
X0263062Y0071788D01*
X0263234Y0071996D01*
X0263397Y0072213D01*
X0263549Y0072438D01*
X0263701Y0072662D01*
X0263842Y0072894D01*
X0263972Y0073133D01*
X0264103Y0073372D01*
X0264222Y0073618D01*
X0264329Y0073870D01*
X0264436Y0074122D01*
X0264531Y0074381D01*
X0264613Y0074644D01*
X0264696Y0074908D01*
X0264766Y0075177D01*
X0264822Y0075451D01*
X0264879Y0075725D01*
X0264907Y0075862D01*
X0264921Y0075931D01*
X0264935Y0075999D01*
X0264951Y0076314D01*
X0264966Y0076661D01*
X0264977Y0076964D01*
X0264988Y0077267D01*
X0264994Y0077528D01*
X0264994Y0234039D01*
X0265003Y0236772D01*
X0264994Y0239280D01*
X0264992Y0239971D01*
X0263114Y0240511D01*
X0262443Y0240345D01*
X0261905Y0240213D01*
X0261716Y0239509D01*
X0263088Y0262159D02*
X0262443Y0262345D01*
X0261910Y0262498D01*
X0261716Y0263182D01*
X0263088Y0262159D02*
X0264650Y0262609D01*
X0264994Y0263186D01*
X0265161Y0263465D01*
X0264994Y0263939D01*
X0264994Y0325168D01*
X0264988Y0325429D01*
X0264977Y0325732D01*
X0264966Y0326035D01*
X0264951Y0326381D01*
X0264935Y0326697D01*
X0264921Y0326765D01*
X0264907Y0326834D01*
X0264879Y0326971D01*
X0264766Y0327519D01*
X0264696Y0327788D01*
X0264613Y0328052D01*
X0264531Y0328315D01*
X0264436Y0328574D01*
X0264329Y0328826D01*
X0264222Y0329078D01*
X0264103Y0329324D01*
X0263972Y0329563D01*
X0263842Y0329802D01*
X0263701Y0330034D01*
X0263549Y0330258D01*
X0263397Y0330483D01*
X0263234Y0330700D01*
X0263062Y0330908D01*
X0262889Y0331117D01*
X0262707Y0331317D01*
X0262325Y0331699D01*
X0262125Y0331881D01*
X0261916Y0332054D01*
X0261708Y0332226D01*
X0261491Y0332389D01*
X0261266Y0332541D01*
X0261042Y0332693D01*
X0260810Y0332834D01*
X0260571Y0332964D01*
X0260332Y0333095D01*
X0260086Y0333214D01*
X0259834Y0333321D01*
X0259582Y0333428D01*
X0259323Y0333523D01*
X0259059Y0333606D01*
X0258796Y0333688D01*
X0258527Y0333758D01*
X0258253Y0333814D01*
X0257979Y0333871D01*
X0257842Y0333899D01*
X0257773Y0333913D01*
X0257705Y0333927D01*
X0257389Y0333943D01*
X0257043Y0333958D01*
X0256740Y0333969D01*
X0256436Y0333980D01*
X0256176Y0333986D01*
X0163361Y0333986D01*
X0130622Y0333986D02*
X0037593Y0333986D01*
X0037332Y0333980D01*
X0037028Y0333969D01*
X0036725Y0333958D01*
X0036379Y0333943D01*
X0036064Y0333927D01*
X0035995Y0333913D01*
X0035927Y0333899D01*
X0035790Y0333871D01*
X0035516Y0333814D01*
X0035242Y0333758D01*
X0034973Y0333688D01*
X0034709Y0333606D01*
X0034445Y0333523D01*
X0034187Y0333428D01*
X0033935Y0333321D01*
X0033683Y0333214D01*
X0033437Y0333095D01*
X0033198Y0332964D01*
X0032959Y0332834D01*
X0032727Y0332693D01*
X0032502Y0332541D01*
X0032277Y0332389D01*
X0032061Y0332226D01*
X0031852Y0332054D01*
X0031643Y0331881D01*
X0031443Y0331699D01*
X0031252Y0331508D01*
X0031061Y0331317D01*
X0030879Y0331117D01*
X0030707Y0330908D01*
X0030534Y0330700D01*
X0030372Y0330483D01*
X0030220Y0330258D01*
X0030068Y0330034D01*
X0029926Y0329802D01*
X0029796Y0329563D01*
X0029666Y0329324D01*
X0029547Y0329078D01*
X0029440Y0328826D01*
X0029333Y0328574D01*
X0029237Y0328315D01*
X0029072Y0327788D01*
X0029003Y0327519D01*
X0028946Y0327245D01*
X0028890Y0326971D01*
X0028861Y0326834D01*
X0028847Y0326765D01*
X0028833Y0326697D01*
X0028817Y0326381D01*
X0028802Y0326035D01*
X0028791Y0325732D01*
X0028781Y0325429D01*
X0028774Y0325168D01*
X0028774Y0197833D01*
X0028694Y0192810D01*
X0028774Y0191333D01*
X0028826Y0190369D01*
X0031608Y0190195D01*
X0032537Y0190461D01*
X0033070Y0190613D01*
X0033340Y0191224D01*
X0044681Y0179733D02*
X0087082Y0179733D01*
X0087082Y0180125D02*
X0045073Y0180125D01*
X0045466Y0180517D02*
X0087082Y0180517D01*
X0087082Y0180909D02*
X0045858Y0180909D01*
X0046250Y0181302D02*
X0087082Y0181302D01*
X0087082Y0181694D02*
X0046642Y0181694D01*
X0047034Y0182086D02*
X0087082Y0182086D01*
X0087082Y0182478D02*
X0047427Y0182478D01*
X0047819Y0182871D02*
X0087082Y0182871D01*
X0087082Y0183263D02*
X0048211Y0183263D01*
X0048603Y0183655D02*
X0087082Y0183655D01*
X0087082Y0184047D02*
X0048995Y0184047D01*
X0049388Y0184439D02*
X0087082Y0184439D01*
X0087082Y0184832D02*
X0049780Y0184832D01*
X0050172Y0185224D02*
X0087082Y0185224D01*
X0087082Y0185616D02*
X0050564Y0185616D01*
X0050956Y0186008D02*
X0087082Y0186008D01*
X0087082Y0186400D02*
X0051349Y0186400D01*
X0051741Y0186793D02*
X0087082Y0186793D01*
X0087082Y0187185D02*
X0052133Y0187185D01*
X0052525Y0187577D02*
X0087082Y0187577D01*
X0087082Y0187969D02*
X0052918Y0187969D01*
X0053310Y0188362D02*
X0087082Y0188362D01*
X0087082Y0188754D02*
X0053702Y0188754D01*
X0054094Y0189146D02*
X0087082Y0189146D01*
X0087082Y0189538D02*
X0054486Y0189538D01*
X0054879Y0189930D02*
X0087082Y0189930D01*
X0087082Y0190323D02*
X0055271Y0190323D01*
X0055663Y0190715D02*
X0087082Y0190715D01*
X0087082Y0191107D02*
X0056055Y0191107D01*
X0056447Y0191499D02*
X0087082Y0191499D01*
X0087082Y0191891D02*
X0056840Y0191891D01*
X0057232Y0192284D02*
X0087082Y0192284D01*
X0087082Y0192676D02*
X0057624Y0192676D01*
X0058016Y0193068D02*
X0087082Y0193068D01*
X0087082Y0193460D02*
X0058409Y0193460D01*
X0058801Y0193852D02*
X0087082Y0193852D01*
X0087082Y0194245D02*
X0059193Y0194245D01*
X0059585Y0194637D02*
X0087082Y0194637D01*
X0087082Y0195029D02*
X0059977Y0195029D01*
X0060370Y0195421D02*
X0087082Y0195421D01*
X0087082Y0195814D02*
X0060762Y0195814D01*
X0061154Y0196206D02*
X0087082Y0196206D01*
X0087082Y0196598D02*
X0061546Y0196598D01*
X0061938Y0196990D02*
X0087082Y0196990D01*
X0087082Y0197382D02*
X0062331Y0197382D01*
X0062723Y0197775D02*
X0087082Y0197775D01*
X0087082Y0198167D02*
X0063115Y0198167D01*
X0063507Y0198559D02*
X0087082Y0198559D01*
X0087082Y0198951D02*
X0063899Y0198951D01*
X0064292Y0199343D02*
X0087082Y0199343D01*
X0087082Y0199736D02*
X0064684Y0199736D01*
X0065076Y0200128D02*
X0087082Y0200128D01*
X0087082Y0200520D02*
X0065468Y0200520D01*
X0065861Y0200912D02*
X0087082Y0200912D01*
X0087082Y0201305D02*
X0066253Y0201305D01*
X0066645Y0201697D02*
X0087082Y0201697D01*
X0087082Y0202089D02*
X0067037Y0202089D01*
X0067429Y0202481D02*
X0087082Y0202481D01*
X0087082Y0202873D02*
X0067822Y0202873D01*
X0068214Y0203266D02*
X0087082Y0203266D01*
X0087082Y0203658D02*
X0068606Y0203658D01*
X0068998Y0204050D02*
X0087082Y0204050D01*
X0087082Y0204442D02*
X0069390Y0204442D01*
X0069783Y0204834D02*
X0087082Y0204834D01*
X0087082Y0205227D02*
X0070175Y0205227D01*
X0070567Y0205619D02*
X0087082Y0205619D01*
X0087082Y0206011D02*
X0070959Y0206011D01*
X0071352Y0206403D02*
X0087082Y0206403D01*
X0087082Y0206795D02*
X0071744Y0206795D01*
X0072136Y0207188D02*
X0087082Y0207188D01*
X0087082Y0207580D02*
X0072528Y0207580D01*
X0072920Y0207972D02*
X0087082Y0207972D01*
X0087082Y0208364D02*
X0073313Y0208364D01*
X0073705Y0208757D02*
X0087082Y0208757D01*
X0087082Y0209149D02*
X0074097Y0209149D01*
X0074489Y0209541D02*
X0087082Y0209541D01*
X0087082Y0209933D02*
X0074881Y0209933D01*
X0075274Y0210325D02*
X0087082Y0210325D01*
X0087082Y0210718D02*
X0075666Y0210718D01*
X0076058Y0211110D02*
X0087082Y0211110D01*
X0087082Y0211502D02*
X0076450Y0211502D01*
X0076842Y0211894D02*
X0087082Y0211894D01*
X0087082Y0212286D02*
X0077235Y0212286D01*
X0077627Y0212679D02*
X0087082Y0212679D01*
X0087082Y0213071D02*
X0078019Y0213071D01*
X0078411Y0213463D02*
X0087082Y0213463D01*
X0087082Y0213855D02*
X0078804Y0213855D01*
X0079196Y0214248D02*
X0087082Y0214248D01*
X0087082Y0214640D02*
X0079588Y0214640D01*
X0079980Y0215032D02*
X0087082Y0215032D01*
X0087082Y0215424D02*
X0080372Y0215424D01*
X0080765Y0215816D02*
X0087082Y0215816D01*
X0087082Y0216209D02*
X0081157Y0216209D01*
X0081549Y0216601D02*
X0087082Y0216601D01*
X0087082Y0216993D02*
X0081941Y0216993D01*
X0082333Y0217385D02*
X0087082Y0217385D01*
X0087082Y0217777D02*
X0082726Y0217777D01*
X0083118Y0218170D02*
X0087082Y0218170D01*
X0087082Y0218562D02*
X0083510Y0218562D01*
X0083902Y0218954D02*
X0087082Y0218954D01*
X0087082Y0219346D02*
X0084295Y0219346D01*
X0084687Y0219738D02*
X0087082Y0219738D01*
X0087082Y0220131D02*
X0085079Y0220131D01*
X0085471Y0220523D02*
X0087082Y0220523D01*
X0087082Y0220915D02*
X0085863Y0220915D01*
X0086256Y0221307D02*
X0087082Y0221307D01*
X0087082Y0221700D02*
X0086648Y0221700D01*
X0087040Y0222092D02*
X0087082Y0222092D01*
X0087082Y0222133D02*
X0087082Y0137133D01*
X0028082Y0137133D01*
X0028082Y0163133D01*
X0087082Y0222133D01*
X0087082Y0179341D02*
X0044289Y0179341D01*
X0043897Y0178948D02*
X0087082Y0178948D01*
X0087082Y0178556D02*
X0043504Y0178556D01*
X0043112Y0178164D02*
X0087082Y0178164D01*
X0087082Y0177772D02*
X0042720Y0177772D01*
X0042328Y0177380D02*
X0087082Y0177380D01*
X0087082Y0176987D02*
X0041936Y0176987D01*
X0041543Y0176595D02*
X0087082Y0176595D01*
X0087082Y0176203D02*
X0041151Y0176203D01*
X0040759Y0175811D02*
X0087082Y0175811D01*
X0087082Y0175419D02*
X0040367Y0175419D01*
X0039975Y0175026D02*
X0087082Y0175026D01*
X0087082Y0174634D02*
X0039582Y0174634D01*
X0039190Y0174242D02*
X0087082Y0174242D01*
X0087082Y0173850D02*
X0038798Y0173850D01*
X0038406Y0173457D02*
X0087082Y0173457D01*
X0087082Y0173065D02*
X0038013Y0173065D01*
X0037621Y0172673D02*
X0087082Y0172673D01*
X0087082Y0172281D02*
X0037229Y0172281D01*
X0036837Y0171889D02*
X0087082Y0171889D01*
X0087082Y0171496D02*
X0036445Y0171496D01*
X0036052Y0171104D02*
X0087082Y0171104D01*
X0087082Y0170712D02*
X0035660Y0170712D01*
X0035268Y0170320D02*
X0087082Y0170320D01*
X0087082Y0169928D02*
X0034876Y0169928D01*
X0034484Y0169535D02*
X0087082Y0169535D01*
X0087082Y0169143D02*
X0034091Y0169143D01*
X0033699Y0168751D02*
X0087082Y0168751D01*
X0087082Y0168359D02*
X0033307Y0168359D01*
X0032915Y0167966D02*
X0087082Y0167966D01*
X0087082Y0167574D02*
X0032523Y0167574D01*
X0032130Y0167182D02*
X0087082Y0167182D01*
X0087082Y0166790D02*
X0031738Y0166790D01*
X0031608Y0166329D02*
X0028755Y0165833D01*
X0028774Y0164849D01*
X0028813Y0162802D01*
X0028774Y0158065D01*
X0028774Y0077528D01*
X0028781Y0077267D01*
X0028791Y0076964D01*
X0028802Y0076661D01*
X0028817Y0076314D01*
X0028833Y0075999D01*
X0028847Y0075931D01*
X0028861Y0075862D01*
X0028890Y0075725D01*
X0028946Y0075451D01*
X0029003Y0075177D01*
X0029072Y0074908D01*
X0029237Y0074381D01*
X0029333Y0074122D01*
X0029440Y0073870D01*
X0029547Y0073618D01*
X0029666Y0073372D01*
X0029796Y0073133D01*
X0029926Y0072894D01*
X0030068Y0072662D01*
X0030220Y0072438D01*
X0030372Y0072213D01*
X0030534Y0071996D01*
X0030707Y0071788D01*
X0030879Y0071579D01*
X0031061Y0071379D01*
X0031252Y0071188D01*
X0031443Y0070997D01*
X0031643Y0070814D01*
X0031852Y0070642D01*
X0032061Y0070470D01*
X0032277Y0070307D01*
X0032502Y0070155D01*
X0032727Y0070003D01*
X0032959Y0069862D01*
X0033437Y0069601D01*
X0033683Y0069482D01*
X0028082Y0137374D02*
X0087082Y0137374D01*
X0087082Y0137766D02*
X0028082Y0137766D01*
X0028082Y0138158D02*
X0087082Y0138158D01*
X0087082Y0138551D02*
X0028082Y0138551D01*
X0028082Y0138943D02*
X0087082Y0138943D01*
X0087082Y0139335D02*
X0028082Y0139335D01*
X0028082Y0139727D02*
X0087082Y0139727D01*
X0087082Y0140119D02*
X0028082Y0140119D01*
X0028082Y0140512D02*
X0087082Y0140512D01*
X0087082Y0140904D02*
X0028082Y0140904D01*
X0028082Y0141296D02*
X0087082Y0141296D01*
X0087082Y0141688D02*
X0028082Y0141688D01*
X0028082Y0142080D02*
X0087082Y0142080D01*
X0087082Y0142473D02*
X0028082Y0142473D01*
X0028082Y0142865D02*
X0087082Y0142865D01*
X0087082Y0143257D02*
X0028082Y0143257D01*
X0028082Y0143649D02*
X0087082Y0143649D01*
X0087082Y0144042D02*
X0028082Y0144042D01*
X0028082Y0144434D02*
X0087082Y0144434D01*
X0087082Y0144826D02*
X0028082Y0144826D01*
X0028082Y0145218D02*
X0087082Y0145218D01*
X0087082Y0145610D02*
X0028082Y0145610D01*
X0028082Y0146003D02*
X0087082Y0146003D01*
X0087082Y0146395D02*
X0028082Y0146395D01*
X0028082Y0146787D02*
X0087082Y0146787D01*
X0087082Y0147179D02*
X0028082Y0147179D01*
X0028082Y0147571D02*
X0087082Y0147571D01*
X0087082Y0147964D02*
X0028082Y0147964D01*
X0028082Y0148356D02*
X0087082Y0148356D01*
X0087082Y0148748D02*
X0028082Y0148748D01*
X0028082Y0149140D02*
X0087082Y0149140D01*
X0087082Y0149533D02*
X0028082Y0149533D01*
X0028082Y0149925D02*
X0087082Y0149925D01*
X0087082Y0150317D02*
X0028082Y0150317D01*
X0028082Y0150709D02*
X0087082Y0150709D01*
X0087082Y0151101D02*
X0028082Y0151101D01*
X0028082Y0151494D02*
X0087082Y0151494D01*
X0087082Y0151886D02*
X0028082Y0151886D01*
X0028082Y0152278D02*
X0087082Y0152278D01*
X0087082Y0152670D02*
X0028082Y0152670D01*
X0028082Y0153062D02*
X0087082Y0153062D01*
X0087082Y0153455D02*
X0028082Y0153455D01*
X0028082Y0153847D02*
X0087082Y0153847D01*
X0087082Y0154239D02*
X0028082Y0154239D01*
X0028082Y0154631D02*
X0087082Y0154631D01*
X0087082Y0155023D02*
X0028082Y0155023D01*
X0028082Y0155416D02*
X0087082Y0155416D01*
X0087082Y0155808D02*
X0028082Y0155808D01*
X0028082Y0156200D02*
X0087082Y0156200D01*
X0087082Y0156592D02*
X0028082Y0156592D01*
X0028082Y0156985D02*
X0087082Y0156985D01*
X0087082Y0157377D02*
X0028082Y0157377D01*
X0028082Y0157769D02*
X0087082Y0157769D01*
X0087082Y0158161D02*
X0028082Y0158161D01*
X0028082Y0158553D02*
X0087082Y0158553D01*
X0087082Y0158946D02*
X0028082Y0158946D01*
X0028082Y0159338D02*
X0087082Y0159338D01*
X0087082Y0159730D02*
X0028082Y0159730D01*
X0028082Y0160122D02*
X0087082Y0160122D01*
X0087082Y0160514D02*
X0028082Y0160514D01*
X0028082Y0160907D02*
X0087082Y0160907D01*
X0087082Y0161299D02*
X0028082Y0161299D01*
X0028082Y0161691D02*
X0087082Y0161691D01*
X0087082Y0162083D02*
X0028082Y0162083D01*
X0028082Y0162476D02*
X0087082Y0162476D01*
X0087082Y0162868D02*
X0028082Y0162868D01*
X0028208Y0163260D02*
X0087082Y0163260D01*
X0087082Y0163652D02*
X0028600Y0163652D01*
X0028993Y0164044D02*
X0087082Y0164044D01*
X0087082Y0164437D02*
X0029385Y0164437D01*
X0029777Y0164829D02*
X0087082Y0164829D01*
X0087082Y0165221D02*
X0030169Y0165221D01*
X0030561Y0165613D02*
X0087082Y0165613D01*
X0087082Y0166005D02*
X0030954Y0166005D01*
X0031346Y0166398D02*
X0087082Y0166398D01*
X0033340Y0165241D02*
X0033060Y0165823D01*
X0032537Y0166005D01*
X0031608Y0166329D01*
X0126223Y0071875D02*
X0144282Y0071875D01*
X0144282Y0072267D02*
X0126615Y0072267D01*
X0127007Y0072659D02*
X0144282Y0072659D01*
X0144282Y0073051D02*
X0127399Y0073051D01*
X0127792Y0073443D02*
X0144282Y0073443D01*
X0144282Y0073836D02*
X0128184Y0073836D01*
X0128576Y0074228D02*
X0144282Y0074228D01*
X0144282Y0074620D02*
X0128968Y0074620D01*
X0129360Y0075012D02*
X0144282Y0075012D01*
X0144282Y0075404D02*
X0129753Y0075404D01*
X0130145Y0075797D02*
X0144282Y0075797D01*
X0144282Y0076189D02*
X0130537Y0076189D01*
X0130929Y0076581D02*
X0144282Y0076581D01*
X0144282Y0076973D02*
X0131322Y0076973D01*
X0131714Y0077365D02*
X0144282Y0077365D01*
X0144282Y0077758D02*
X0132106Y0077758D01*
X0132498Y0078150D02*
X0144282Y0078150D01*
X0144282Y0078542D02*
X0132890Y0078542D01*
X0133283Y0078934D02*
X0144282Y0078934D01*
X0144282Y0079327D02*
X0133675Y0079327D01*
X0134067Y0079719D02*
X0144282Y0079719D01*
X0144282Y0080111D02*
X0134459Y0080111D01*
X0134851Y0080503D02*
X0144282Y0080503D01*
X0144282Y0080895D02*
X0135244Y0080895D01*
X0135636Y0081288D02*
X0144282Y0081288D01*
X0144282Y0081680D02*
X0136028Y0081680D01*
X0136420Y0082072D02*
X0144282Y0082072D01*
X0144282Y0082464D02*
X0136813Y0082464D01*
X0137205Y0082856D02*
X0144282Y0082856D01*
X0144282Y0083249D02*
X0137597Y0083249D01*
X0137989Y0083641D02*
X0144282Y0083641D01*
X0144282Y0084033D02*
X0138381Y0084033D01*
X0138774Y0084425D02*
X0144282Y0084425D01*
X0144282Y0084818D02*
X0139166Y0084818D01*
X0139558Y0085210D02*
X0144282Y0085210D01*
X0144282Y0085602D02*
X0139950Y0085602D01*
X0140342Y0085994D02*
X0144282Y0085994D01*
X0144282Y0086386D02*
X0140735Y0086386D01*
X0141127Y0086779D02*
X0144282Y0086779D01*
X0144282Y0087171D02*
X0141519Y0087171D01*
X0141911Y0087563D02*
X0144282Y0087563D01*
X0144282Y0087955D02*
X0142303Y0087955D01*
X0142696Y0088347D02*
X0144282Y0088347D01*
X0144282Y0088740D02*
X0143088Y0088740D01*
X0143282Y0088933D02*
X0125282Y0070933D01*
X0144282Y0070933D01*
X0144282Y0088933D01*
X0143282Y0088933D01*
X0154714Y0077365D02*
X0167282Y0077365D01*
X0167282Y0076973D02*
X0154322Y0076973D01*
X0153929Y0076581D02*
X0167282Y0076581D01*
X0167282Y0076189D02*
X0153537Y0076189D01*
X0153145Y0075797D02*
X0167282Y0075797D01*
X0167282Y0075404D02*
X0152753Y0075404D01*
X0152360Y0075012D02*
X0167282Y0075012D01*
X0167282Y0074620D02*
X0151968Y0074620D01*
X0151576Y0074228D02*
X0167282Y0074228D01*
X0167282Y0073836D02*
X0151184Y0073836D01*
X0150792Y0073443D02*
X0167282Y0073443D01*
X0167282Y0073051D02*
X0150399Y0073051D01*
X0150007Y0072659D02*
X0167282Y0072659D01*
X0167282Y0072267D02*
X0149615Y0072267D01*
X0149223Y0071875D02*
X0167282Y0071875D01*
X0167282Y0071482D02*
X0148831Y0071482D01*
X0148438Y0071090D02*
X0167282Y0071090D01*
X0167282Y0070933D02*
X0167282Y0088933D01*
X0166282Y0088933D01*
X0148282Y0070933D01*
X0167282Y0070933D01*
X0167282Y0077758D02*
X0155106Y0077758D01*
X0155498Y0078150D02*
X0167282Y0078150D01*
X0167282Y0078542D02*
X0155890Y0078542D01*
X0156283Y0078934D02*
X0167282Y0078934D01*
X0167282Y0079327D02*
X0156675Y0079327D01*
X0157067Y0079719D02*
X0167282Y0079719D01*
X0167282Y0080111D02*
X0157459Y0080111D01*
X0157851Y0080503D02*
X0167282Y0080503D01*
X0167282Y0080895D02*
X0158244Y0080895D01*
X0158636Y0081288D02*
X0167282Y0081288D01*
X0167282Y0081680D02*
X0159028Y0081680D01*
X0159420Y0082072D02*
X0167282Y0082072D01*
X0167282Y0082464D02*
X0159813Y0082464D01*
X0160205Y0082856D02*
X0167282Y0082856D01*
X0167282Y0083249D02*
X0160597Y0083249D01*
X0160989Y0083641D02*
X0167282Y0083641D01*
X0167282Y0084033D02*
X0161381Y0084033D01*
X0161774Y0084425D02*
X0167282Y0084425D01*
X0167282Y0084818D02*
X0162166Y0084818D01*
X0162558Y0085210D02*
X0167282Y0085210D01*
X0167282Y0085602D02*
X0162950Y0085602D01*
X0163342Y0085994D02*
X0167282Y0085994D01*
X0167282Y0086386D02*
X0163735Y0086386D01*
X0164127Y0086779D02*
X0167282Y0086779D01*
X0167282Y0087171D02*
X0164519Y0087171D01*
X0164911Y0087563D02*
X0167282Y0087563D01*
X0167282Y0087955D02*
X0165303Y0087955D01*
X0165696Y0088347D02*
X0167282Y0088347D01*
X0167282Y0088740D02*
X0166088Y0088740D01*
X0144282Y0071482D02*
X0125831Y0071482D01*
X0125438Y0071090D02*
X0144282Y0071090D01*
D11*
X0145668Y0255133D02*
X0145670Y0255208D01*
X0145676Y0255282D01*
X0145686Y0255356D01*
X0145699Y0255429D01*
X0145717Y0255502D01*
X0145738Y0255573D01*
X0145763Y0255644D01*
X0145792Y0255713D01*
X0145825Y0255780D01*
X0145861Y0255845D01*
X0145900Y0255909D01*
X0145942Y0255970D01*
X0145988Y0256029D01*
X0146037Y0256086D01*
X0146089Y0256139D01*
X0146143Y0256190D01*
X0146200Y0256239D01*
X0146260Y0256283D01*
X0146322Y0256325D01*
X0146386Y0256364D01*
X0146452Y0256399D01*
X0146519Y0256430D01*
X0146589Y0256458D01*
X0146659Y0256482D01*
X0146731Y0256503D01*
X0146804Y0256519D01*
X0146877Y0256532D01*
X0146952Y0256541D01*
X0147026Y0256546D01*
X0147101Y0256547D01*
X0147175Y0256544D01*
X0147250Y0256537D01*
X0147323Y0256526D01*
X0147397Y0256512D01*
X0147469Y0256493D01*
X0147540Y0256471D01*
X0147610Y0256445D01*
X0147679Y0256415D01*
X0147745Y0256382D01*
X0147810Y0256345D01*
X0147873Y0256305D01*
X0147934Y0256261D01*
X0147992Y0256215D01*
X0148048Y0256165D01*
X0148101Y0256113D01*
X0148152Y0256058D01*
X0148199Y0256000D01*
X0148243Y0255940D01*
X0148284Y0255877D01*
X0148322Y0255813D01*
X0148356Y0255747D01*
X0148387Y0255678D01*
X0148414Y0255609D01*
X0148437Y0255538D01*
X0148456Y0255466D01*
X0148472Y0255393D01*
X0148484Y0255319D01*
X0148492Y0255245D01*
X0148496Y0255170D01*
X0148496Y0255096D01*
X0148492Y0255021D01*
X0148484Y0254947D01*
X0148472Y0254873D01*
X0148456Y0254800D01*
X0148437Y0254728D01*
X0148414Y0254657D01*
X0148387Y0254588D01*
X0148356Y0254519D01*
X0148322Y0254453D01*
X0148284Y0254389D01*
X0148243Y0254326D01*
X0148199Y0254266D01*
X0148152Y0254208D01*
X0148101Y0254153D01*
X0148048Y0254101D01*
X0147992Y0254051D01*
X0147934Y0254005D01*
X0147873Y0253961D01*
X0147810Y0253921D01*
X0147745Y0253884D01*
X0147679Y0253851D01*
X0147610Y0253821D01*
X0147540Y0253795D01*
X0147469Y0253773D01*
X0147397Y0253754D01*
X0147323Y0253740D01*
X0147250Y0253729D01*
X0147175Y0253722D01*
X0147101Y0253719D01*
X0147026Y0253720D01*
X0146952Y0253725D01*
X0146877Y0253734D01*
X0146804Y0253747D01*
X0146731Y0253763D01*
X0146659Y0253784D01*
X0146589Y0253808D01*
X0146519Y0253836D01*
X0146452Y0253867D01*
X0146386Y0253902D01*
X0146322Y0253941D01*
X0146260Y0253983D01*
X0146200Y0254027D01*
X0146143Y0254076D01*
X0146089Y0254127D01*
X0146037Y0254180D01*
X0145988Y0254237D01*
X0145942Y0254296D01*
X0145900Y0254357D01*
X0145861Y0254421D01*
X0145825Y0254486D01*
X0145792Y0254553D01*
X0145763Y0254622D01*
X0145738Y0254693D01*
X0145717Y0254764D01*
X0145699Y0254837D01*
X0145686Y0254910D01*
X0145676Y0254984D01*
X0145670Y0255058D01*
X0145668Y0255133D01*
X0145668Y0266133D02*
X0145670Y0266208D01*
X0145676Y0266282D01*
X0145686Y0266356D01*
X0145699Y0266429D01*
X0145717Y0266502D01*
X0145738Y0266573D01*
X0145763Y0266644D01*
X0145792Y0266713D01*
X0145825Y0266780D01*
X0145861Y0266845D01*
X0145900Y0266909D01*
X0145942Y0266970D01*
X0145988Y0267029D01*
X0146037Y0267086D01*
X0146089Y0267139D01*
X0146143Y0267190D01*
X0146200Y0267239D01*
X0146260Y0267283D01*
X0146322Y0267325D01*
X0146386Y0267364D01*
X0146452Y0267399D01*
X0146519Y0267430D01*
X0146589Y0267458D01*
X0146659Y0267482D01*
X0146731Y0267503D01*
X0146804Y0267519D01*
X0146877Y0267532D01*
X0146952Y0267541D01*
X0147026Y0267546D01*
X0147101Y0267547D01*
X0147175Y0267544D01*
X0147250Y0267537D01*
X0147323Y0267526D01*
X0147397Y0267512D01*
X0147469Y0267493D01*
X0147540Y0267471D01*
X0147610Y0267445D01*
X0147679Y0267415D01*
X0147745Y0267382D01*
X0147810Y0267345D01*
X0147873Y0267305D01*
X0147934Y0267261D01*
X0147992Y0267215D01*
X0148048Y0267165D01*
X0148101Y0267113D01*
X0148152Y0267058D01*
X0148199Y0267000D01*
X0148243Y0266940D01*
X0148284Y0266877D01*
X0148322Y0266813D01*
X0148356Y0266747D01*
X0148387Y0266678D01*
X0148414Y0266609D01*
X0148437Y0266538D01*
X0148456Y0266466D01*
X0148472Y0266393D01*
X0148484Y0266319D01*
X0148492Y0266245D01*
X0148496Y0266170D01*
X0148496Y0266096D01*
X0148492Y0266021D01*
X0148484Y0265947D01*
X0148472Y0265873D01*
X0148456Y0265800D01*
X0148437Y0265728D01*
X0148414Y0265657D01*
X0148387Y0265588D01*
X0148356Y0265519D01*
X0148322Y0265453D01*
X0148284Y0265389D01*
X0148243Y0265326D01*
X0148199Y0265266D01*
X0148152Y0265208D01*
X0148101Y0265153D01*
X0148048Y0265101D01*
X0147992Y0265051D01*
X0147934Y0265005D01*
X0147873Y0264961D01*
X0147810Y0264921D01*
X0147745Y0264884D01*
X0147679Y0264851D01*
X0147610Y0264821D01*
X0147540Y0264795D01*
X0147469Y0264773D01*
X0147397Y0264754D01*
X0147323Y0264740D01*
X0147250Y0264729D01*
X0147175Y0264722D01*
X0147101Y0264719D01*
X0147026Y0264720D01*
X0146952Y0264725D01*
X0146877Y0264734D01*
X0146804Y0264747D01*
X0146731Y0264763D01*
X0146659Y0264784D01*
X0146589Y0264808D01*
X0146519Y0264836D01*
X0146452Y0264867D01*
X0146386Y0264902D01*
X0146322Y0264941D01*
X0146260Y0264983D01*
X0146200Y0265027D01*
X0146143Y0265076D01*
X0146089Y0265127D01*
X0146037Y0265180D01*
X0145988Y0265237D01*
X0145942Y0265296D01*
X0145900Y0265357D01*
X0145861Y0265421D01*
X0145825Y0265486D01*
X0145792Y0265553D01*
X0145763Y0265622D01*
X0145738Y0265693D01*
X0145717Y0265764D01*
X0145699Y0265837D01*
X0145686Y0265910D01*
X0145676Y0265984D01*
X0145670Y0266058D01*
X0145668Y0266133D01*
X0145668Y0277133D02*
X0145670Y0277208D01*
X0145676Y0277282D01*
X0145686Y0277356D01*
X0145699Y0277429D01*
X0145717Y0277502D01*
X0145738Y0277573D01*
X0145763Y0277644D01*
X0145792Y0277713D01*
X0145825Y0277780D01*
X0145861Y0277845D01*
X0145900Y0277909D01*
X0145942Y0277970D01*
X0145988Y0278029D01*
X0146037Y0278086D01*
X0146089Y0278139D01*
X0146143Y0278190D01*
X0146200Y0278239D01*
X0146260Y0278283D01*
X0146322Y0278325D01*
X0146386Y0278364D01*
X0146452Y0278399D01*
X0146519Y0278430D01*
X0146589Y0278458D01*
X0146659Y0278482D01*
X0146731Y0278503D01*
X0146804Y0278519D01*
X0146877Y0278532D01*
X0146952Y0278541D01*
X0147026Y0278546D01*
X0147101Y0278547D01*
X0147175Y0278544D01*
X0147250Y0278537D01*
X0147323Y0278526D01*
X0147397Y0278512D01*
X0147469Y0278493D01*
X0147540Y0278471D01*
X0147610Y0278445D01*
X0147679Y0278415D01*
X0147745Y0278382D01*
X0147810Y0278345D01*
X0147873Y0278305D01*
X0147934Y0278261D01*
X0147992Y0278215D01*
X0148048Y0278165D01*
X0148101Y0278113D01*
X0148152Y0278058D01*
X0148199Y0278000D01*
X0148243Y0277940D01*
X0148284Y0277877D01*
X0148322Y0277813D01*
X0148356Y0277747D01*
X0148387Y0277678D01*
X0148414Y0277609D01*
X0148437Y0277538D01*
X0148456Y0277466D01*
X0148472Y0277393D01*
X0148484Y0277319D01*
X0148492Y0277245D01*
X0148496Y0277170D01*
X0148496Y0277096D01*
X0148492Y0277021D01*
X0148484Y0276947D01*
X0148472Y0276873D01*
X0148456Y0276800D01*
X0148437Y0276728D01*
X0148414Y0276657D01*
X0148387Y0276588D01*
X0148356Y0276519D01*
X0148322Y0276453D01*
X0148284Y0276389D01*
X0148243Y0276326D01*
X0148199Y0276266D01*
X0148152Y0276208D01*
X0148101Y0276153D01*
X0148048Y0276101D01*
X0147992Y0276051D01*
X0147934Y0276005D01*
X0147873Y0275961D01*
X0147810Y0275921D01*
X0147745Y0275884D01*
X0147679Y0275851D01*
X0147610Y0275821D01*
X0147540Y0275795D01*
X0147469Y0275773D01*
X0147397Y0275754D01*
X0147323Y0275740D01*
X0147250Y0275729D01*
X0147175Y0275722D01*
X0147101Y0275719D01*
X0147026Y0275720D01*
X0146952Y0275725D01*
X0146877Y0275734D01*
X0146804Y0275747D01*
X0146731Y0275763D01*
X0146659Y0275784D01*
X0146589Y0275808D01*
X0146519Y0275836D01*
X0146452Y0275867D01*
X0146386Y0275902D01*
X0146322Y0275941D01*
X0146260Y0275983D01*
X0146200Y0276027D01*
X0146143Y0276076D01*
X0146089Y0276127D01*
X0146037Y0276180D01*
X0145988Y0276237D01*
X0145942Y0276296D01*
X0145900Y0276357D01*
X0145861Y0276421D01*
X0145825Y0276486D01*
X0145792Y0276553D01*
X0145763Y0276622D01*
X0145738Y0276693D01*
X0145717Y0276764D01*
X0145699Y0276837D01*
X0145686Y0276910D01*
X0145676Y0276984D01*
X0145670Y0277058D01*
X0145668Y0277133D01*
D12*
X0039153Y0274056D02*
X0038286Y0274056D01*
X0036551Y0274056D02*
X0033082Y0274056D01*
X0033082Y0274923D02*
X0033082Y0273188D01*
X0033082Y0271502D02*
X0035684Y0271502D01*
X0036551Y0270634D01*
X0035684Y0269767D01*
X0033082Y0269767D01*
X0033082Y0268032D02*
X0036551Y0268032D01*
X0036551Y0268899D01*
X0035684Y0269767D01*
X0036551Y0273188D02*
X0036551Y0274056D01*
X0036551Y0276626D02*
X0033082Y0276626D01*
X0036551Y0276626D02*
X0036551Y0279228D01*
X0035684Y0280096D01*
X0033082Y0280096D01*
X0033082Y0281782D02*
X0033082Y0283517D01*
X0033082Y0282650D02*
X0036551Y0282650D01*
X0036551Y0281782D01*
X0038286Y0282650D02*
X0039153Y0282650D01*
X0038286Y0285220D02*
X0033082Y0285220D01*
X0033082Y0287822D01*
X0033949Y0288690D01*
X0035684Y0288690D01*
X0036551Y0287822D01*
X0036551Y0285220D01*
X0038286Y0290376D02*
X0038286Y0291244D01*
X0033082Y0291244D01*
X0033082Y0292111D02*
X0033082Y0290376D01*
X0033082Y0293814D02*
X0033082Y0295549D01*
X0033082Y0294681D02*
X0036551Y0294681D01*
X0036551Y0293814D01*
X0038286Y0294681D02*
X0039153Y0294681D01*
X0036551Y0297251D02*
X0036551Y0299854D01*
X0035684Y0300721D01*
X0033949Y0300721D01*
X0033082Y0299854D01*
X0033082Y0297251D01*
X0031347Y0297251D02*
X0036551Y0297251D01*
X0038286Y0266345D02*
X0033082Y0262876D01*
X0033082Y0261189D02*
X0033082Y0258587D01*
X0033949Y0257719D01*
X0035684Y0257719D01*
X0036551Y0258587D01*
X0036551Y0261189D01*
X0032214Y0261189D01*
X0031347Y0260321D01*
X0031347Y0259454D01*
X0036551Y0256024D02*
X0036551Y0255157D01*
X0034816Y0253422D01*
X0033082Y0253422D02*
X0036551Y0253422D01*
X0035684Y0251735D02*
X0036551Y0250868D01*
X0036551Y0249133D01*
X0035684Y0248266D01*
X0033949Y0248266D01*
X0033082Y0249133D01*
X0033082Y0250868D01*
X0033949Y0251735D01*
X0035684Y0251735D01*
X0033949Y0246555D02*
X0033082Y0246555D01*
X0033082Y0245688D01*
X0033949Y0245688D01*
X0033949Y0246555D01*
X0033949Y0244001D02*
X0035684Y0244001D01*
X0036551Y0243133D01*
X0036551Y0240531D01*
X0038286Y0240531D02*
X0033082Y0240531D01*
X0033082Y0243133D01*
X0033949Y0244001D01*
X0034816Y0238844D02*
X0034816Y0236242D01*
X0033949Y0235375D01*
X0033082Y0236242D01*
X0033082Y0238844D01*
X0035684Y0238844D01*
X0036551Y0237977D01*
X0036551Y0236242D01*
X0038286Y0232805D02*
X0033082Y0232805D01*
X0033082Y0233672D02*
X0033082Y0231937D01*
X0033949Y0230250D02*
X0035684Y0230250D01*
X0036551Y0229383D01*
X0036551Y0227648D01*
X0035684Y0226781D01*
X0033949Y0226781D01*
X0033082Y0227648D01*
X0033082Y0229383D01*
X0033949Y0230250D01*
X0038286Y0231937D02*
X0038286Y0232805D01*
X0036551Y0225094D02*
X0036551Y0222492D01*
X0035684Y0221624D01*
X0033949Y0221624D01*
X0033082Y0222492D01*
X0033082Y0225094D01*
X0036551Y0219930D02*
X0036551Y0219062D01*
X0034816Y0217327D01*
X0033082Y0217327D02*
X0036551Y0217327D01*
X0036551Y0214757D02*
X0033082Y0214757D01*
X0033082Y0213890D02*
X0033082Y0215625D01*
X0033082Y0212203D02*
X0033082Y0209601D01*
X0033949Y0208733D01*
X0035684Y0208733D01*
X0036551Y0209601D01*
X0036551Y0212203D01*
X0036551Y0213890D02*
X0036551Y0214757D01*
X0038286Y0214757D02*
X0039153Y0214757D01*
D13*
X0143068Y0285325D02*
X0150942Y0285325D01*
X0150942Y0285324D02*
X0151091Y0285337D01*
X0151239Y0285353D01*
X0151388Y0285373D01*
X0151535Y0285397D01*
X0151682Y0285425D01*
X0151828Y0285456D01*
X0151973Y0285492D01*
X0152117Y0285531D01*
X0152261Y0285575D01*
X0152402Y0285622D01*
X0152543Y0285672D01*
X0152682Y0285727D01*
X0152820Y0285785D01*
X0152956Y0285846D01*
X0153091Y0285911D01*
X0153224Y0285980D01*
X0153354Y0286052D01*
X0153483Y0286128D01*
X0153610Y0286207D01*
X0153735Y0286289D01*
X0153858Y0286375D01*
X0153978Y0286464D01*
X0154096Y0286556D01*
X0154211Y0286651D01*
X0154324Y0286749D01*
X0154434Y0286850D01*
X0154542Y0286954D01*
X0154646Y0287061D01*
X0154748Y0287170D01*
X0154847Y0287282D01*
X0154943Y0287397D01*
X0155036Y0287514D01*
X0155126Y0287633D01*
X0155212Y0287755D01*
X0155296Y0287879D01*
X0155376Y0288005D01*
X0155452Y0288134D01*
X0155526Y0288264D01*
X0155595Y0288396D01*
X0155662Y0288530D01*
X0155724Y0288666D01*
X0155783Y0288803D01*
X0155839Y0288942D01*
X0155891Y0289082D01*
X0155939Y0289224D01*
X0155983Y0289367D01*
X0156024Y0289510D01*
X0156060Y0289655D01*
X0156060Y0296742D02*
X0156024Y0296887D01*
X0155983Y0297031D01*
X0155939Y0297173D01*
X0155891Y0297315D01*
X0155839Y0297455D01*
X0155783Y0297594D01*
X0155724Y0297731D01*
X0155662Y0297867D01*
X0155595Y0298001D01*
X0155525Y0298133D01*
X0155452Y0298263D01*
X0155376Y0298392D01*
X0155295Y0298518D01*
X0155212Y0298642D01*
X0155126Y0298764D01*
X0155036Y0298883D01*
X0154943Y0299000D01*
X0154847Y0299115D01*
X0154748Y0299227D01*
X0154646Y0299336D01*
X0154541Y0299443D01*
X0154434Y0299547D01*
X0154324Y0299648D01*
X0154211Y0299746D01*
X0154096Y0299841D01*
X0153978Y0299933D01*
X0153858Y0300022D01*
X0153735Y0300107D01*
X0153610Y0300190D01*
X0153483Y0300269D01*
X0153354Y0300345D01*
X0153224Y0300417D01*
X0153091Y0300485D01*
X0152956Y0300551D01*
X0152820Y0300612D01*
X0152682Y0300670D01*
X0152543Y0300725D01*
X0152403Y0300775D01*
X0152261Y0300822D01*
X0152118Y0300866D01*
X0151973Y0300905D01*
X0151828Y0300941D01*
X0151682Y0300972D01*
X0151535Y0301000D01*
X0151388Y0301024D01*
X0151240Y0301044D01*
X0151091Y0301060D01*
X0150942Y0301073D01*
X0143068Y0301073D01*
X0142919Y0301060D01*
X0142771Y0301044D01*
X0142622Y0301024D01*
X0142475Y0301000D01*
X0142328Y0300972D01*
X0142182Y0300941D01*
X0142037Y0300905D01*
X0141893Y0300866D01*
X0141749Y0300822D01*
X0141608Y0300775D01*
X0141467Y0300725D01*
X0141328Y0300670D01*
X0141190Y0300612D01*
X0141054Y0300551D01*
X0140919Y0300486D01*
X0140786Y0300417D01*
X0140656Y0300345D01*
X0140527Y0300269D01*
X0140400Y0300190D01*
X0140275Y0300108D01*
X0140152Y0300022D01*
X0140032Y0299933D01*
X0139914Y0299841D01*
X0139799Y0299746D01*
X0139686Y0299648D01*
X0139576Y0299547D01*
X0139468Y0299443D01*
X0139364Y0299336D01*
X0139262Y0299227D01*
X0139163Y0299115D01*
X0139067Y0299000D01*
X0138974Y0298883D01*
X0138884Y0298764D01*
X0138798Y0298642D01*
X0138714Y0298518D01*
X0138634Y0298392D01*
X0138558Y0298263D01*
X0138484Y0298133D01*
X0138415Y0298001D01*
X0138348Y0297867D01*
X0138286Y0297731D01*
X0138227Y0297594D01*
X0138171Y0297455D01*
X0138119Y0297315D01*
X0138071Y0297173D01*
X0138027Y0297030D01*
X0137986Y0296887D01*
X0137950Y0296742D01*
X0137950Y0289655D02*
X0137986Y0289510D01*
X0138027Y0289366D01*
X0138071Y0289224D01*
X0138119Y0289082D01*
X0138171Y0288942D01*
X0138227Y0288803D01*
X0138286Y0288666D01*
X0138348Y0288530D01*
X0138415Y0288396D01*
X0138485Y0288264D01*
X0138558Y0288134D01*
X0138634Y0288005D01*
X0138715Y0287879D01*
X0138798Y0287755D01*
X0138884Y0287633D01*
X0138974Y0287514D01*
X0139067Y0287397D01*
X0139163Y0287282D01*
X0139262Y0287170D01*
X0139364Y0287061D01*
X0139469Y0286954D01*
X0139576Y0286850D01*
X0139686Y0286749D01*
X0139799Y0286651D01*
X0139914Y0286556D01*
X0140032Y0286464D01*
X0140152Y0286375D01*
X0140275Y0286290D01*
X0140400Y0286207D01*
X0140527Y0286128D01*
X0140656Y0286052D01*
X0140786Y0285980D01*
X0140919Y0285912D01*
X0141054Y0285846D01*
X0141190Y0285785D01*
X0141328Y0285727D01*
X0141467Y0285672D01*
X0141607Y0285622D01*
X0141749Y0285575D01*
X0141892Y0285531D01*
X0142037Y0285492D01*
X0142182Y0285456D01*
X0142328Y0285425D01*
X0142475Y0285397D01*
X0142622Y0285373D01*
X0142770Y0285353D01*
X0142919Y0285337D01*
X0143068Y0285324D01*
D14*
X0189007Y0247983D03*
X0189007Y0247833D03*
X0189007Y0241983D03*
X0215107Y0235683D03*
X0215107Y0214983D03*
X0215857Y0195033D03*
X0215857Y0194883D03*
X0215857Y0194733D03*
X0215857Y0194583D03*
X0215857Y0194433D03*
X0215857Y0194283D03*
X0215857Y0194133D03*
X0215857Y0193983D03*
X0215857Y0193833D03*
X0215857Y0193683D03*
X0215857Y0193533D03*
X0215857Y0193383D03*
X0215857Y0193233D03*
X0215857Y0193083D03*
X0215857Y0192933D03*
X0215857Y0192783D03*
X0215857Y0192633D03*
X0215857Y0192483D03*
X0203407Y0196383D03*
X0203407Y0196533D03*
X0203407Y0196683D03*
X0190357Y0194283D03*
X0190357Y0194133D03*
X0190357Y0200283D03*
X0190357Y0207333D03*
D15*
X0185932Y0205233D03*
X0185932Y0204483D03*
X0185932Y0204333D03*
X0185932Y0204183D03*
X0185932Y0204033D03*
X0185932Y0203883D03*
X0186082Y0203733D03*
X0186082Y0203583D03*
X0185782Y0198783D03*
X0185632Y0198633D03*
X0185632Y0198483D03*
X0185632Y0198333D03*
X0185482Y0198033D03*
X0185482Y0197883D03*
X0185482Y0197733D03*
X0185482Y0197583D03*
X0185482Y0197433D03*
X0185482Y0197283D03*
X0185482Y0197133D03*
X0185482Y0196983D03*
X0185482Y0196833D03*
X0198382Y0192483D03*
X0198532Y0192783D03*
X0198532Y0192933D03*
X0198682Y0193233D03*
X0198682Y0193383D03*
X0198682Y0193533D03*
X0198832Y0193683D03*
X0198832Y0193833D03*
X0198832Y0193983D03*
X0198832Y0194133D03*
X0198982Y0194283D03*
X0198982Y0194433D03*
X0198982Y0194583D03*
X0199132Y0194733D03*
X0199132Y0194883D03*
X0199132Y0195033D03*
X0199132Y0195183D03*
X0199282Y0195333D03*
X0199282Y0195483D03*
X0199282Y0195633D03*
X0199432Y0195783D03*
X0199432Y0195933D03*
X0200182Y0198633D03*
X0200182Y0198783D03*
X0200332Y0199233D03*
X0200482Y0199683D03*
X0200632Y0200133D03*
X0200632Y0200283D03*
X0200782Y0200733D03*
X0206032Y0200883D03*
X0206482Y0199233D03*
X0206632Y0198783D03*
X0207382Y0195933D03*
X0207532Y0195633D03*
X0207532Y0195483D03*
X0207682Y0195333D03*
X0207682Y0195183D03*
X0207682Y0195033D03*
X0207682Y0194883D03*
X0207832Y0194733D03*
X0207832Y0194583D03*
X0207832Y0194433D03*
X0207832Y0194283D03*
X0207982Y0194133D03*
X0207982Y0193983D03*
X0207982Y0193833D03*
X0208132Y0193683D03*
X0208132Y0193533D03*
X0208132Y0193383D03*
X0208282Y0193083D03*
X0208282Y0192933D03*
X0208282Y0192783D03*
X0208432Y0192483D03*
X0215182Y0212283D03*
X0219532Y0216783D03*
X0219532Y0216933D03*
X0219682Y0217383D03*
X0219682Y0217533D03*
X0219682Y0217683D03*
X0219682Y0223983D03*
X0219682Y0224133D03*
X0219682Y0224283D03*
X0219532Y0224583D03*
X0219532Y0224733D03*
X0211132Y0225333D03*
X0206632Y0224583D03*
X0206632Y0224433D03*
X0206632Y0224283D03*
X0206632Y0224133D03*
X0206782Y0223383D03*
X0206782Y0223233D03*
X0206782Y0223083D03*
X0206782Y0222933D03*
X0206782Y0222783D03*
X0206782Y0222633D03*
X0206782Y0222483D03*
X0206782Y0222333D03*
X0206782Y0222183D03*
X0206782Y0222033D03*
X0206782Y0221883D03*
X0206782Y0221733D03*
X0206782Y0221583D03*
X0206782Y0221433D03*
X0206782Y0221283D03*
X0206782Y0221133D03*
X0206782Y0220983D03*
X0206782Y0220833D03*
X0206782Y0220683D03*
X0206782Y0220533D03*
X0206782Y0220383D03*
X0206782Y0220233D03*
X0206782Y0220083D03*
X0206782Y0219933D03*
X0206782Y0219783D03*
X0206782Y0219633D03*
X0206782Y0219483D03*
X0206782Y0219333D03*
X0206782Y0219183D03*
X0206782Y0219033D03*
X0206782Y0218883D03*
X0206782Y0218733D03*
X0206782Y0218583D03*
X0206782Y0218433D03*
X0206782Y0218283D03*
X0206782Y0218133D03*
X0206782Y0217983D03*
X0206632Y0217533D03*
X0206632Y0217383D03*
X0206632Y0217233D03*
X0206632Y0217083D03*
X0206632Y0216933D03*
X0206482Y0216633D03*
X0206482Y0224883D03*
X0197932Y0224733D03*
X0197932Y0224583D03*
X0197782Y0224283D03*
X0197782Y0224133D03*
X0197782Y0223983D03*
X0197782Y0223833D03*
X0197782Y0223683D03*
X0197782Y0217833D03*
X0197782Y0217683D03*
X0197782Y0217533D03*
X0197782Y0217383D03*
X0197782Y0217233D03*
X0197932Y0216783D03*
X0202282Y0237783D03*
X0187282Y0239433D03*
X0187132Y0239133D03*
X0187132Y0238983D03*
X0186982Y0238833D03*
X0186982Y0238683D03*
X0186832Y0238383D03*
X0186682Y0238083D03*
X0186532Y0237783D03*
X0186382Y0237483D03*
X0184432Y0243783D03*
X0184432Y0243933D03*
X0184282Y0244233D03*
X0184282Y0244383D03*
X0184282Y0244533D03*
X0184282Y0244683D03*
X0184282Y0244833D03*
X0184282Y0244983D03*
X0184282Y0245133D03*
X0184282Y0245283D03*
X0184282Y0245433D03*
X0184282Y0245583D03*
X0184432Y0245883D03*
X0219532Y0245433D03*
X0219532Y0245283D03*
X0219682Y0245133D03*
X0219682Y0244983D03*
X0219682Y0244833D03*
X0219682Y0244683D03*
X0219682Y0238383D03*
X0219682Y0238233D03*
X0219682Y0238083D03*
X0219682Y0237933D03*
X0219532Y0237633D03*
X0219532Y0237483D03*
D16*
X0215257Y0228033D03*
X0215257Y0248733D03*
X0191707Y0209133D03*
X0191707Y0192483D03*
D17*
X0198457Y0192633D03*
X0198607Y0193083D03*
X0207457Y0195783D03*
X0208207Y0193233D03*
X0208357Y0192633D03*
X0203407Y0209133D03*
X0203407Y0209283D03*
X0206407Y0216333D03*
X0206407Y0216483D03*
X0206557Y0216783D03*
X0206557Y0224733D03*
X0206407Y0225033D03*
X0206407Y0225183D03*
X0206257Y0225483D03*
X0211207Y0225483D03*
X0219307Y0225333D03*
X0219457Y0225033D03*
X0219457Y0224883D03*
X0219607Y0224433D03*
X0219607Y0217233D03*
X0219607Y0217083D03*
X0219457Y0216633D03*
X0211057Y0236883D03*
X0219457Y0237183D03*
X0219457Y0237333D03*
X0219607Y0237783D03*
X0219457Y0245583D03*
X0219457Y0245733D03*
X0219307Y0245883D03*
X0211207Y0246033D03*
X0198157Y0225333D03*
X0198007Y0225033D03*
X0198007Y0224883D03*
X0197857Y0224433D03*
X0197857Y0217083D03*
X0197857Y0216933D03*
X0198007Y0216633D03*
X0198007Y0216483D03*
X0186007Y0205533D03*
X0186007Y0205383D03*
X0185857Y0205083D03*
X0185857Y0204933D03*
X0185857Y0204783D03*
X0185857Y0204633D03*
X0186157Y0203433D03*
X0186307Y0203283D03*
X0186307Y0203133D03*
X0186007Y0199233D03*
X0185857Y0199083D03*
X0185857Y0198933D03*
X0185557Y0196683D03*
X0185557Y0196533D03*
X0185707Y0196383D03*
X0185707Y0196233D03*
X0184357Y0232983D03*
X0184657Y0233733D03*
X0184807Y0234033D03*
X0184957Y0234333D03*
X0185107Y0234633D03*
X0185257Y0234933D03*
X0185257Y0235083D03*
X0185407Y0235233D03*
X0185407Y0235383D03*
X0185557Y0235533D03*
X0185557Y0235683D03*
X0185707Y0235833D03*
X0185707Y0235983D03*
X0185857Y0236283D03*
X0185857Y0236433D03*
X0186007Y0236583D03*
X0186007Y0236733D03*
X0186157Y0236883D03*
X0186157Y0237033D03*
X0186307Y0237183D03*
X0186307Y0237333D03*
X0186457Y0237633D03*
X0186607Y0237933D03*
X0186757Y0238233D03*
X0186907Y0238533D03*
X0187207Y0239283D03*
X0187357Y0239583D03*
X0184657Y0243333D03*
X0184507Y0243483D03*
X0184507Y0243633D03*
X0184357Y0244083D03*
X0184357Y0245733D03*
X0184507Y0246033D03*
X0184507Y0246183D03*
D18*
X0190132Y0249633D03*
X0190132Y0239883D03*
X0190132Y0239733D03*
X0202282Y0227883D03*
X0202282Y0213633D03*
X0191482Y0208983D03*
X0191482Y0192633D03*
X0215182Y0213633D03*
X0215182Y0234183D03*
D19*
X0215257Y0227583D03*
X0215257Y0248283D03*
X0189907Y0240483D03*
X0191257Y0208833D03*
X0191257Y0192783D03*
D20*
X0191107Y0192933D03*
X0191107Y0208683D03*
X0215257Y0227433D03*
X0215257Y0248133D03*
X0189757Y0240633D03*
D21*
X0215107Y0234783D03*
X0215257Y0227283D03*
X0215257Y0247833D03*
X0190957Y0208533D03*
X0190957Y0193083D03*
X0203407Y0198333D03*
X0203407Y0198483D03*
D22*
X0190882Y0201033D03*
X0190882Y0201633D03*
X0190882Y0208383D03*
X0202282Y0214233D03*
X0215182Y0214233D03*
X0202282Y0227283D03*
X0215182Y0234933D03*
X0189532Y0240933D03*
X0189532Y0249033D03*
X0190882Y0193233D03*
D23*
X0190732Y0193383D03*
X0190732Y0200883D03*
X0190732Y0201783D03*
X0190732Y0208233D03*
X0202282Y0214383D03*
X0202282Y0214533D03*
X0202282Y0226983D03*
X0215182Y0235083D03*
X0215182Y0214383D03*
X0189382Y0241233D03*
X0189382Y0248733D03*
D24*
X0189307Y0248583D03*
X0189307Y0241383D03*
X0215257Y0247383D03*
X0215257Y0247533D03*
X0215257Y0226833D03*
X0190657Y0208083D03*
X0190657Y0201933D03*
X0190657Y0200733D03*
X0190657Y0193533D03*
X0203407Y0197433D03*
X0203407Y0197583D03*
X0203407Y0197733D03*
D25*
X0203482Y0197283D03*
X0190582Y0193683D03*
X0190582Y0202083D03*
X0190582Y0207933D03*
X0202282Y0214683D03*
X0202282Y0226833D03*
X0215182Y0235233D03*
X0215182Y0214683D03*
X0215182Y0214533D03*
X0189232Y0241533D03*
X0189232Y0248433D03*
D26*
X0189157Y0248283D03*
X0189157Y0241683D03*
X0202207Y0226683D03*
X0202207Y0214833D03*
X0190507Y0207783D03*
X0190507Y0202233D03*
X0190507Y0200583D03*
X0190507Y0193833D03*
X0203407Y0196833D03*
X0203407Y0196983D03*
X0203407Y0197133D03*
X0215257Y0226683D03*
X0215107Y0235383D03*
X0215257Y0247233D03*
D27*
X0215182Y0235533D03*
X0215182Y0214833D03*
X0202282Y0214983D03*
X0190432Y0207633D03*
X0190432Y0207483D03*
X0190432Y0202383D03*
X0190432Y0200433D03*
X0190432Y0193983D03*
X0189082Y0241833D03*
X0189082Y0248133D03*
D28*
X0188932Y0247683D03*
X0188932Y0242283D03*
X0188932Y0242133D03*
X0190282Y0207183D03*
X0190282Y0207033D03*
X0190282Y0200133D03*
X0190282Y0199983D03*
X0190282Y0194433D03*
X0203482Y0196233D03*
D29*
X0203407Y0196083D03*
X0190207Y0194733D03*
X0190207Y0194583D03*
X0190207Y0206733D03*
X0190207Y0206883D03*
X0188857Y0242433D03*
X0188857Y0247383D03*
X0188857Y0247533D03*
D30*
X0188782Y0247233D03*
X0190132Y0195033D03*
X0190132Y0194883D03*
D31*
X0194257Y0195183D03*
X0194257Y0195333D03*
X0194257Y0195483D03*
X0194257Y0195633D03*
X0194257Y0195783D03*
X0194257Y0195933D03*
X0194257Y0196083D03*
X0194257Y0196233D03*
X0194257Y0196383D03*
X0194257Y0196533D03*
X0194257Y0196683D03*
X0194257Y0196833D03*
X0194257Y0196983D03*
X0194257Y0197133D03*
X0194257Y0197283D03*
X0194257Y0197433D03*
X0194257Y0197583D03*
X0194257Y0197733D03*
X0194257Y0197883D03*
X0194257Y0198033D03*
X0194257Y0198183D03*
X0194257Y0198333D03*
X0194257Y0198483D03*
X0194257Y0198633D03*
X0194257Y0198783D03*
X0194257Y0198933D03*
X0194257Y0199083D03*
X0194257Y0199233D03*
X0194257Y0199383D03*
X0194257Y0199533D03*
X0194257Y0199683D03*
X0194257Y0199833D03*
X0194257Y0202533D03*
X0194257Y0202683D03*
X0194257Y0202833D03*
X0194257Y0202983D03*
X0194257Y0203133D03*
X0194257Y0203283D03*
X0194257Y0203433D03*
X0194257Y0203583D03*
X0194257Y0203733D03*
X0194257Y0203883D03*
X0194257Y0204033D03*
X0194257Y0204183D03*
X0194257Y0204333D03*
X0194257Y0204483D03*
X0194257Y0204633D03*
X0194257Y0204783D03*
X0194257Y0204933D03*
X0194257Y0205083D03*
X0194257Y0205233D03*
X0194257Y0205383D03*
X0194257Y0205533D03*
X0194257Y0205683D03*
X0194257Y0205833D03*
X0194257Y0205983D03*
X0194257Y0206133D03*
X0194257Y0206283D03*
X0194257Y0206433D03*
X0194257Y0206583D03*
X0201757Y0204333D03*
X0201757Y0204183D03*
X0201607Y0203733D03*
X0201607Y0203583D03*
X0201457Y0203283D03*
X0201457Y0203133D03*
X0201457Y0202983D03*
X0201307Y0202833D03*
X0201307Y0202683D03*
X0201307Y0202533D03*
X0201157Y0202233D03*
X0201157Y0202083D03*
X0201157Y0201933D03*
X0201007Y0201783D03*
X0201007Y0201633D03*
X0201007Y0201483D03*
X0201007Y0201333D03*
X0200857Y0201183D03*
X0200857Y0201033D03*
X0200857Y0200883D03*
X0200707Y0200583D03*
X0200707Y0200433D03*
X0200557Y0199983D03*
X0200557Y0199833D03*
X0200407Y0199533D03*
X0200407Y0199383D03*
X0200257Y0199083D03*
X0200257Y0198933D03*
X0206107Y0200433D03*
X0206107Y0200583D03*
X0206107Y0200733D03*
X0205957Y0201033D03*
X0205957Y0201183D03*
X0205957Y0201333D03*
X0205807Y0201483D03*
X0205807Y0201633D03*
X0205807Y0201783D03*
X0205657Y0202083D03*
X0205657Y0202233D03*
X0205507Y0202683D03*
X0205507Y0202833D03*
X0205357Y0203283D03*
X0205207Y0203733D03*
X0205207Y0203883D03*
X0206257Y0200283D03*
X0206257Y0200133D03*
X0206257Y0199983D03*
X0206257Y0199833D03*
X0206407Y0199683D03*
X0206407Y0199533D03*
X0206407Y0199383D03*
X0206557Y0199083D03*
X0206557Y0198933D03*
X0206707Y0198633D03*
X0202207Y0212283D03*
X0206707Y0217683D03*
X0206707Y0217833D03*
X0211057Y0216333D03*
X0206707Y0223533D03*
X0206707Y0223683D03*
X0206707Y0223833D03*
X0206707Y0223983D03*
X0197707Y0223533D03*
X0197707Y0223383D03*
X0197707Y0223233D03*
X0197707Y0223083D03*
X0197707Y0222933D03*
X0197707Y0222783D03*
X0197707Y0222633D03*
X0197707Y0222483D03*
X0197707Y0222333D03*
X0197707Y0222183D03*
X0197707Y0222033D03*
X0197707Y0221883D03*
X0197707Y0221733D03*
X0197707Y0221583D03*
X0197707Y0221433D03*
X0197707Y0221283D03*
X0197707Y0221133D03*
X0197707Y0220983D03*
X0197707Y0220833D03*
X0197707Y0220683D03*
X0197707Y0220533D03*
X0197707Y0220383D03*
X0197707Y0220233D03*
X0197707Y0220083D03*
X0197707Y0219933D03*
X0197707Y0219783D03*
X0197707Y0219633D03*
X0197707Y0219483D03*
X0197707Y0219333D03*
X0197707Y0219183D03*
X0197707Y0219033D03*
X0197707Y0218883D03*
X0197707Y0218733D03*
X0197707Y0218583D03*
X0197707Y0218433D03*
X0197707Y0218283D03*
X0197707Y0218133D03*
X0197707Y0217983D03*
X0192907Y0232983D03*
X0192907Y0233133D03*
X0192907Y0233283D03*
X0192907Y0233433D03*
X0192907Y0233583D03*
X0192907Y0233733D03*
X0192907Y0233883D03*
X0192907Y0234033D03*
X0192907Y0234183D03*
X0192907Y0234333D03*
X0192907Y0234483D03*
X0192907Y0234633D03*
X0192907Y0234783D03*
X0192907Y0234933D03*
X0192907Y0235083D03*
X0192907Y0235233D03*
X0192907Y0235383D03*
X0192907Y0235533D03*
X0192907Y0235683D03*
X0192907Y0235833D03*
X0192907Y0235983D03*
X0192907Y0236133D03*
X0192907Y0236283D03*
X0192907Y0236433D03*
X0192907Y0236583D03*
X0192907Y0236733D03*
X0192907Y0236883D03*
X0192907Y0237033D03*
X0192907Y0237183D03*
X0192907Y0237333D03*
X0192907Y0237483D03*
X0192907Y0237633D03*
X0192907Y0237783D03*
X0192907Y0237933D03*
X0192907Y0238083D03*
X0192907Y0238233D03*
X0192907Y0238383D03*
X0192907Y0238533D03*
X0192907Y0238683D03*
X0192907Y0238833D03*
X0192907Y0238983D03*
X0192907Y0239133D03*
X0192907Y0239283D03*
X0192907Y0239433D03*
X0192907Y0239583D03*
X0192907Y0242583D03*
X0192907Y0242733D03*
X0192907Y0242883D03*
X0192907Y0243033D03*
X0192907Y0243183D03*
X0192907Y0243333D03*
X0192907Y0243483D03*
X0192907Y0243633D03*
X0192907Y0243783D03*
X0192907Y0243933D03*
X0192907Y0244083D03*
X0192907Y0244233D03*
X0192907Y0244383D03*
X0192907Y0244533D03*
X0192907Y0244683D03*
X0192907Y0244833D03*
X0192907Y0244983D03*
X0192907Y0245133D03*
X0192907Y0245283D03*
X0192907Y0245433D03*
X0192907Y0245583D03*
X0192907Y0245733D03*
X0192907Y0245883D03*
X0192907Y0246033D03*
X0192907Y0246183D03*
X0192907Y0246333D03*
X0192907Y0246483D03*
X0192907Y0246633D03*
X0192907Y0246783D03*
X0192907Y0246933D03*
X0192907Y0247083D03*
X0202207Y0247083D03*
X0202207Y0246933D03*
X0202207Y0246783D03*
X0202207Y0246633D03*
X0202207Y0246483D03*
X0202207Y0246333D03*
X0202207Y0246183D03*
X0202207Y0246033D03*
X0202207Y0245883D03*
X0202207Y0245733D03*
X0202207Y0245583D03*
X0202207Y0245433D03*
X0202207Y0245283D03*
X0202207Y0245133D03*
X0202207Y0244983D03*
X0202207Y0244833D03*
X0202207Y0244683D03*
X0202207Y0244533D03*
X0202207Y0244383D03*
X0202207Y0244233D03*
X0202207Y0244083D03*
X0202207Y0243933D03*
X0202207Y0243783D03*
X0202207Y0243633D03*
X0202207Y0243483D03*
X0202207Y0243333D03*
X0202207Y0243183D03*
X0202207Y0243033D03*
X0202207Y0242883D03*
X0202207Y0242733D03*
X0202207Y0242583D03*
X0202207Y0242433D03*
X0202207Y0242283D03*
X0202207Y0242133D03*
X0202207Y0241983D03*
X0202207Y0241833D03*
X0202207Y0241683D03*
X0202207Y0241533D03*
X0202207Y0241383D03*
X0202207Y0241233D03*
X0202207Y0241083D03*
X0202207Y0240933D03*
X0202207Y0240783D03*
X0202207Y0240633D03*
X0202207Y0240483D03*
X0202207Y0240333D03*
X0202207Y0240183D03*
X0202207Y0240033D03*
X0202207Y0239883D03*
X0202207Y0239733D03*
X0202207Y0239583D03*
X0202207Y0239433D03*
X0202207Y0239283D03*
X0202207Y0239133D03*
X0202207Y0238983D03*
X0202207Y0238833D03*
X0202207Y0238683D03*
X0202207Y0238533D03*
X0202207Y0238383D03*
X0202207Y0238233D03*
X0202207Y0238083D03*
X0202207Y0237933D03*
X0202207Y0237633D03*
X0202207Y0237483D03*
X0202207Y0237333D03*
X0202207Y0237183D03*
X0202207Y0237033D03*
X0202207Y0236883D03*
X0202207Y0236733D03*
X0202207Y0236583D03*
X0202207Y0236433D03*
X0202207Y0236283D03*
X0202207Y0236133D03*
X0202207Y0235983D03*
X0202207Y0235833D03*
X0215257Y0249933D03*
X0219757Y0244533D03*
X0219757Y0244383D03*
X0219757Y0244233D03*
X0219757Y0244083D03*
X0219757Y0243933D03*
X0219757Y0243783D03*
X0219757Y0243633D03*
X0219757Y0243483D03*
X0219757Y0243333D03*
X0219757Y0243183D03*
X0219757Y0243033D03*
X0219757Y0242883D03*
X0219757Y0242733D03*
X0219757Y0242583D03*
X0219757Y0242433D03*
X0219757Y0242283D03*
X0219757Y0242133D03*
X0219757Y0241983D03*
X0219757Y0241833D03*
X0219757Y0241683D03*
X0219757Y0241533D03*
X0219757Y0241383D03*
X0219757Y0241233D03*
X0219757Y0241083D03*
X0219757Y0240933D03*
X0219757Y0240783D03*
X0219757Y0240633D03*
X0219757Y0240483D03*
X0219757Y0240333D03*
X0219757Y0240183D03*
X0219757Y0240033D03*
X0219757Y0239883D03*
X0219757Y0239733D03*
X0219757Y0239583D03*
X0219757Y0239433D03*
X0219757Y0239283D03*
X0219757Y0239133D03*
X0219757Y0238983D03*
X0219757Y0238833D03*
X0219757Y0238683D03*
X0219757Y0238533D03*
X0219757Y0223833D03*
X0219757Y0223683D03*
X0219757Y0223533D03*
X0219757Y0223383D03*
X0219757Y0223233D03*
X0219757Y0223083D03*
X0219757Y0222933D03*
X0219757Y0222783D03*
X0219757Y0222633D03*
X0219757Y0222483D03*
X0219757Y0222333D03*
X0219757Y0222183D03*
X0219757Y0222033D03*
X0219757Y0221883D03*
X0219757Y0221733D03*
X0219757Y0221583D03*
X0219757Y0221433D03*
X0219757Y0221283D03*
X0219757Y0221133D03*
X0219757Y0220983D03*
X0219757Y0220833D03*
X0219757Y0220683D03*
X0219757Y0220533D03*
X0219757Y0220383D03*
X0219757Y0220233D03*
X0219757Y0220083D03*
X0219757Y0219933D03*
X0219757Y0219783D03*
X0219757Y0219633D03*
X0219757Y0219483D03*
X0219757Y0219333D03*
X0219757Y0219183D03*
X0219757Y0219033D03*
X0219757Y0218883D03*
X0219757Y0218733D03*
X0219757Y0218583D03*
X0219757Y0218433D03*
X0219757Y0218283D03*
X0219757Y0218133D03*
X0219757Y0217983D03*
X0219757Y0217833D03*
X0219757Y0209283D03*
X0219757Y0209133D03*
X0219757Y0208983D03*
X0219757Y0208833D03*
X0219757Y0208683D03*
X0219757Y0208533D03*
X0219757Y0208383D03*
X0219757Y0208233D03*
X0219757Y0208083D03*
X0219757Y0207933D03*
X0219757Y0207783D03*
X0219757Y0207633D03*
X0219757Y0207483D03*
X0219757Y0207333D03*
X0219757Y0207183D03*
X0219757Y0207033D03*
X0219757Y0206883D03*
X0219757Y0206733D03*
X0219757Y0206583D03*
X0219757Y0206433D03*
X0219757Y0206283D03*
X0219757Y0206133D03*
X0219757Y0205983D03*
X0219757Y0205833D03*
X0219757Y0205683D03*
X0219757Y0205533D03*
X0219757Y0205383D03*
X0219757Y0205233D03*
X0219757Y0205083D03*
X0219757Y0204933D03*
X0219757Y0204783D03*
X0219757Y0204633D03*
X0219757Y0204483D03*
X0219757Y0204333D03*
X0219757Y0204183D03*
X0219757Y0204033D03*
X0219757Y0203883D03*
X0219757Y0203733D03*
X0219757Y0203583D03*
X0219757Y0203433D03*
X0219757Y0203283D03*
X0219757Y0203133D03*
X0219757Y0202983D03*
X0219757Y0202833D03*
X0219757Y0202683D03*
X0219757Y0202533D03*
X0219757Y0202383D03*
X0219757Y0202233D03*
X0219757Y0202083D03*
X0219757Y0201933D03*
X0219757Y0201783D03*
X0219757Y0201633D03*
X0219757Y0201483D03*
X0219757Y0201333D03*
X0219757Y0201183D03*
X0219757Y0201033D03*
X0219757Y0200883D03*
X0219757Y0200733D03*
X0219757Y0200583D03*
X0219757Y0200433D03*
X0219757Y0200283D03*
X0219757Y0200133D03*
X0219757Y0199983D03*
X0219757Y0199833D03*
X0219757Y0199683D03*
X0219757Y0199533D03*
X0219757Y0199383D03*
X0219757Y0199233D03*
X0219757Y0199083D03*
X0219757Y0198933D03*
X0219757Y0198783D03*
X0219757Y0198633D03*
X0219757Y0198483D03*
X0219757Y0198333D03*
X0219757Y0198183D03*
X0219757Y0198033D03*
X0219757Y0197883D03*
X0219757Y0197733D03*
X0219757Y0197583D03*
X0219757Y0197433D03*
X0219757Y0197283D03*
X0219757Y0197133D03*
X0219757Y0196983D03*
X0219757Y0196833D03*
X0219757Y0196683D03*
X0219757Y0196533D03*
X0219757Y0196383D03*
X0219757Y0196233D03*
X0219757Y0196083D03*
X0219757Y0195933D03*
X0219757Y0195783D03*
X0219757Y0195633D03*
X0219757Y0195483D03*
X0219757Y0195333D03*
X0219757Y0195183D03*
X0185557Y0198183D03*
D32*
X0186682Y0195183D03*
X0212032Y0215133D03*
X0202282Y0229083D03*
X0215182Y0233133D03*
D33*
X0218782Y0236133D03*
X0218632Y0226233D03*
X0211582Y0215433D03*
X0205732Y0226233D03*
X0198832Y0226233D03*
X0211882Y0246933D03*
X0185032Y0246933D03*
X0186382Y0195333D03*
D34*
X0186157Y0195483D03*
X0186457Y0199683D03*
X0186457Y0206283D03*
X0198607Y0215433D03*
X0203407Y0208383D03*
X0203407Y0208233D03*
X0203407Y0208083D03*
X0203407Y0207933D03*
X0205807Y0215433D03*
X0211357Y0215583D03*
X0218857Y0215583D03*
X0218857Y0226083D03*
X0211807Y0226233D03*
X0211507Y0236133D03*
X0211357Y0236283D03*
X0211657Y0246783D03*
X0218707Y0246783D03*
X0218857Y0246633D03*
X0198607Y0226083D03*
X0185107Y0242733D03*
D35*
X0184882Y0246783D03*
X0198532Y0225933D03*
X0205882Y0226083D03*
X0211582Y0226083D03*
X0218932Y0225933D03*
X0219082Y0215883D03*
X0218932Y0215733D03*
X0211282Y0215733D03*
X0205882Y0215583D03*
X0203332Y0208533D03*
X0198532Y0215583D03*
X0186382Y0206133D03*
X0186832Y0202683D03*
X0186082Y0195633D03*
X0218932Y0236283D03*
X0211582Y0246633D03*
D36*
X0219007Y0246483D03*
X0219157Y0236583D03*
X0219007Y0236433D03*
X0215257Y0229233D03*
X0211507Y0225933D03*
X0211357Y0225783D03*
X0206107Y0225783D03*
X0205957Y0225933D03*
X0211057Y0216033D03*
X0211207Y0215883D03*
X0206107Y0215733D03*
X0203407Y0208833D03*
X0203407Y0208683D03*
X0198457Y0215733D03*
X0198307Y0215883D03*
X0198307Y0225633D03*
X0198457Y0225783D03*
X0211057Y0236583D03*
X0211207Y0236433D03*
X0219007Y0225783D03*
X0219157Y0225633D03*
X0219157Y0216033D03*
X0186157Y0205983D03*
X0186607Y0202833D03*
X0186307Y0199533D03*
X0186157Y0199383D03*
X0185857Y0195933D03*
X0186007Y0195783D03*
X0184957Y0242883D03*
X0184807Y0243033D03*
X0184657Y0246483D03*
X0184807Y0246633D03*
D37*
X0184582Y0246333D03*
X0184732Y0243183D03*
X0185782Y0236133D03*
X0185182Y0234783D03*
X0185032Y0234483D03*
X0184882Y0234183D03*
X0184732Y0233883D03*
X0184582Y0233583D03*
X0184582Y0233433D03*
X0184432Y0233283D03*
X0184432Y0233133D03*
X0198232Y0225483D03*
X0198082Y0225183D03*
X0202282Y0229233D03*
X0206182Y0225633D03*
X0206332Y0225333D03*
X0211282Y0225633D03*
X0215182Y0232983D03*
X0219232Y0236733D03*
X0219232Y0236883D03*
X0219382Y0237033D03*
X0210982Y0236733D03*
X0211282Y0246183D03*
X0211282Y0246333D03*
X0211432Y0246483D03*
X0219082Y0246333D03*
X0219232Y0246183D03*
X0219232Y0246033D03*
X0219232Y0225483D03*
X0219382Y0225183D03*
X0219382Y0216483D03*
X0219382Y0216333D03*
X0219232Y0216183D03*
X0210982Y0216183D03*
X0206332Y0216183D03*
X0206332Y0216033D03*
X0206182Y0215883D03*
X0203482Y0208983D03*
X0198232Y0216033D03*
X0198082Y0216183D03*
X0198082Y0216333D03*
X0186082Y0205833D03*
X0186082Y0205683D03*
X0186532Y0202983D03*
X0185782Y0196083D03*
D38*
X0203407Y0197883D03*
X0203407Y0198033D03*
X0203407Y0198183D03*
X0202207Y0227133D03*
X0215257Y0227133D03*
X0215257Y0226983D03*
X0215257Y0247683D03*
X0189457Y0248883D03*
X0189457Y0241083D03*
D39*
X0198982Y0226383D03*
X0202282Y0212433D03*
X0211732Y0215283D03*
X0215182Y0212433D03*
X0218482Y0215283D03*
X0212032Y0226383D03*
X0211882Y0235833D03*
X0187132Y0202533D03*
X0186832Y0199833D03*
D40*
X0191032Y0201183D03*
X0191032Y0201483D03*
X0202282Y0214083D03*
X0215182Y0214083D03*
X0202282Y0227433D03*
X0215182Y0234633D03*
X0215332Y0247983D03*
X0189682Y0249183D03*
X0189682Y0240783D03*
D41*
X0189832Y0249333D03*
X0202132Y0249333D03*
X0202132Y0249183D03*
X0202132Y0249033D03*
X0202132Y0248883D03*
X0202132Y0248733D03*
X0202132Y0248583D03*
X0202132Y0248433D03*
X0202132Y0248283D03*
X0202132Y0248133D03*
X0202132Y0247983D03*
X0202132Y0247833D03*
X0202132Y0247683D03*
X0202132Y0247533D03*
X0202132Y0247383D03*
X0202132Y0247233D03*
X0202132Y0249483D03*
X0202132Y0249633D03*
X0202132Y0249783D03*
X0202132Y0249933D03*
X0202132Y0235683D03*
X0202132Y0235533D03*
X0202132Y0235383D03*
X0202132Y0235233D03*
X0202132Y0235083D03*
X0202132Y0234933D03*
X0202132Y0234783D03*
X0202132Y0234633D03*
X0202132Y0234483D03*
X0202132Y0234333D03*
X0202132Y0234183D03*
X0202132Y0234033D03*
X0202132Y0233883D03*
X0202132Y0233733D03*
X0202132Y0233583D03*
X0202132Y0233433D03*
X0202132Y0233283D03*
X0202132Y0233133D03*
X0202132Y0232983D03*
X0202282Y0227583D03*
X0202282Y0213933D03*
X0215182Y0213933D03*
X0215182Y0234483D03*
X0191182Y0201333D03*
D42*
X0201232Y0202383D03*
X0201532Y0203433D03*
X0201682Y0203883D03*
X0201682Y0204033D03*
X0201832Y0204483D03*
X0201832Y0204633D03*
X0201832Y0204783D03*
X0204982Y0204783D03*
X0204982Y0204633D03*
X0204982Y0204483D03*
X0205132Y0204333D03*
X0205132Y0204183D03*
X0205132Y0204033D03*
X0205282Y0203583D03*
X0205282Y0203433D03*
X0205432Y0203133D03*
X0205432Y0202983D03*
X0205582Y0202533D03*
X0205582Y0202383D03*
X0205732Y0201933D03*
X0211282Y0225183D03*
X0211132Y0237033D03*
X0211282Y0245883D03*
D43*
X0215257Y0249483D03*
X0203407Y0205233D03*
X0203407Y0205083D03*
X0203407Y0204933D03*
D44*
X0203332Y0205383D03*
X0202282Y0228933D03*
X0215182Y0233283D03*
D45*
X0215257Y0228933D03*
X0203407Y0205833D03*
X0203407Y0205683D03*
X0203407Y0205533D03*
D46*
X0203407Y0205983D03*
X0203407Y0206133D03*
X0203407Y0206283D03*
D47*
X0203482Y0206433D03*
X0186982Y0206583D03*
X0205132Y0226533D03*
X0212482Y0226533D03*
X0215332Y0249633D03*
D48*
X0215257Y0249783D03*
X0218557Y0246933D03*
X0218557Y0235983D03*
X0211657Y0235983D03*
X0205507Y0226383D03*
X0205657Y0215283D03*
X0198907Y0215283D03*
X0203407Y0207783D03*
X0203407Y0207633D03*
X0203407Y0207483D03*
X0186607Y0206433D03*
X0218707Y0215433D03*
X0185407Y0242583D03*
X0185257Y0247083D03*
D49*
X0199357Y0226533D03*
X0203407Y0206883D03*
X0203407Y0206733D03*
X0203407Y0206583D03*
X0218257Y0215133D03*
D50*
X0218407Y0226383D03*
X0215257Y0229083D03*
X0218407Y0235833D03*
X0218257Y0247083D03*
X0212107Y0247083D03*
X0205507Y0215133D03*
X0199057Y0215133D03*
X0203407Y0207333D03*
X0203407Y0207183D03*
X0203407Y0207033D03*
D51*
X0192157Y0209283D03*
X0215257Y0233733D03*
X0215257Y0249033D03*
D52*
X0217882Y0226533D03*
X0215182Y0212583D03*
X0202282Y0212583D03*
D53*
X0202282Y0212733D03*
X0215182Y0212733D03*
D54*
X0215182Y0212883D03*
X0202282Y0212883D03*
X0215332Y0228633D03*
D55*
X0202282Y0228483D03*
X0202282Y0213033D03*
X0215182Y0213033D03*
X0190882Y0249933D03*
D56*
X0215182Y0213183D03*
D57*
X0202207Y0213183D03*
X0215257Y0228333D03*
D58*
X0215182Y0234033D03*
X0202282Y0228183D03*
X0202282Y0213333D03*
X0215182Y0213333D03*
X0190432Y0249783D03*
D59*
X0202282Y0228033D03*
X0202282Y0213483D03*
X0215182Y0213483D03*
D60*
X0215182Y0213783D03*
X0202282Y0213783D03*
X0202282Y0227733D03*
X0215332Y0227733D03*
X0215182Y0234333D03*
X0189982Y0249483D03*
D61*
X0211207Y0216483D03*
D62*
X0211357Y0216633D03*
D63*
X0211432Y0216783D03*
X0215182Y0232833D03*
D64*
X0211582Y0216933D03*
D65*
X0211807Y0217083D03*
X0211957Y0224583D03*
D66*
X0212032Y0224433D03*
X0211882Y0217233D03*
D67*
X0211807Y0224733D03*
X0211507Y0237483D03*
X0211657Y0245433D03*
D68*
X0215257Y0229383D03*
X0211657Y0224883D03*
X0202207Y0229383D03*
D69*
X0211432Y0225033D03*
D70*
X0215257Y0227883D03*
X0215257Y0248583D03*
X0190207Y0240183D03*
X0190207Y0240033D03*
D71*
X0215257Y0228183D03*
D72*
X0215182Y0233883D03*
X0202282Y0228333D03*
X0215332Y0248883D03*
D73*
X0215257Y0228483D03*
D74*
X0215182Y0233583D03*
X0202282Y0228633D03*
X0215332Y0249183D03*
D75*
X0215257Y0228783D03*
D76*
X0215182Y0233433D03*
X0202282Y0228783D03*
D77*
X0211207Y0237183D03*
X0211357Y0245733D03*
D78*
X0211582Y0245583D03*
X0211432Y0237333D03*
D79*
X0211732Y0237633D03*
X0211882Y0245283D03*
D80*
X0211807Y0237783D03*
D81*
X0212032Y0237933D03*
X0212182Y0244983D03*
D82*
X0215257Y0248433D03*
X0190057Y0240333D03*
D83*
X0212032Y0245133D03*
D84*
X0215257Y0249333D03*
D85*
X0242582Y0141333D03*
X0234482Y0137733D03*
X0228582Y0126233D03*
X0227882Y0114533D03*
X0227882Y0114433D03*
X0227882Y0114333D03*
X0227882Y0114233D03*
X0227882Y0114133D03*
X0227882Y0114033D03*
X0227882Y0113933D03*
X0227882Y0113833D03*
X0227882Y0113733D03*
X0227882Y0113633D03*
X0227882Y0113533D03*
X0227882Y0113433D03*
X0227882Y0113333D03*
X0227882Y0113233D03*
X0227882Y0113133D03*
X0227882Y0113033D03*
X0227882Y0110533D03*
X0227882Y0110433D03*
X0227882Y0110333D03*
X0227882Y0110233D03*
X0227882Y0110133D03*
X0227882Y0110033D03*
X0227882Y0109933D03*
X0227882Y0109833D03*
X0227882Y0109733D03*
X0227882Y0109633D03*
X0227882Y0109533D03*
X0227882Y0109433D03*
X0227882Y0109333D03*
X0227882Y0109233D03*
X0227882Y0109133D03*
X0227882Y0109033D03*
X0227882Y0108933D03*
X0227882Y0108833D03*
X0227882Y0108733D03*
X0227882Y0108633D03*
X0227882Y0108533D03*
X0227882Y0108433D03*
X0227882Y0108333D03*
X0227882Y0108233D03*
X0227882Y0108133D03*
X0227882Y0108033D03*
X0227882Y0107933D03*
X0227882Y0107833D03*
X0227882Y0107733D03*
X0227882Y0107633D03*
X0227882Y0107533D03*
X0227882Y0107433D03*
X0227882Y0107333D03*
X0227882Y0107233D03*
X0227882Y0107133D03*
X0227882Y0107033D03*
X0227882Y0106933D03*
X0227882Y0106833D03*
X0233382Y0113233D03*
X0233382Y0113333D03*
X0233382Y0114333D03*
X0233382Y0114433D03*
X0235782Y0114233D03*
X0235782Y0114133D03*
X0235782Y0114033D03*
X0235782Y0113933D03*
X0235782Y0113833D03*
X0235782Y0113733D03*
X0235782Y0113633D03*
X0235782Y0113533D03*
X0235782Y0113433D03*
X0235782Y0113333D03*
X0241282Y0113333D03*
X0241282Y0113233D03*
X0241282Y0113133D03*
X0241282Y0113033D03*
X0241282Y0112933D03*
X0241282Y0113433D03*
X0241282Y0113533D03*
X0241282Y0113633D03*
X0241282Y0113933D03*
X0241282Y0114033D03*
X0241282Y0114133D03*
X0241282Y0114233D03*
X0241282Y0114333D03*
X0241282Y0114433D03*
X0241282Y0114533D03*
X0241282Y0114633D03*
X0241282Y0114733D03*
X0241282Y0117133D03*
X0241282Y0117233D03*
X0241282Y0117333D03*
X0241282Y0117433D03*
X0241282Y0117533D03*
X0241282Y0117633D03*
X0241282Y0117733D03*
X0241282Y0117833D03*
X0241282Y0117933D03*
X0241282Y0118033D03*
X0241282Y0118133D03*
X0241282Y0118233D03*
X0241282Y0118333D03*
X0241282Y0118433D03*
X0241282Y0118533D03*
X0241282Y0118633D03*
X0241282Y0118733D03*
X0241282Y0118833D03*
X0241282Y0118933D03*
X0241282Y0119033D03*
X0241282Y0119133D03*
X0241282Y0119233D03*
X0241282Y0119333D03*
X0241282Y0119433D03*
X0241282Y0119533D03*
X0241282Y0119633D03*
X0241282Y0119733D03*
X0241282Y0119833D03*
X0241282Y0119933D03*
X0241282Y0120033D03*
X0241282Y0120133D03*
X0241282Y0120233D03*
X0241282Y0120333D03*
X0241282Y0120433D03*
X0241282Y0120533D03*
X0241282Y0120633D03*
X0241282Y0120733D03*
X0241282Y0120833D03*
X0251082Y0137733D03*
D86*
X0257282Y0120733D03*
X0257282Y0116233D03*
X0241082Y0115633D03*
X0241082Y0112033D03*
X0241082Y0111933D03*
X0240382Y0111333D03*
X0238482Y0109833D03*
X0236282Y0115833D03*
X0236382Y0115933D03*
X0232882Y0115933D03*
X0232782Y0116033D03*
X0232882Y0111733D03*
X0232782Y0111633D03*
X0228082Y0112033D03*
X0228082Y0115533D03*
X0228082Y0115633D03*
D87*
X0227932Y0114933D03*
X0227932Y0114833D03*
X0227932Y0114733D03*
X0227932Y0114633D03*
X0227932Y0112933D03*
X0227932Y0112833D03*
X0227932Y0112733D03*
X0227932Y0112633D03*
X0230832Y0109833D03*
X0233232Y0112533D03*
X0233332Y0112733D03*
X0233332Y0112833D03*
X0233332Y0112933D03*
X0233332Y0113033D03*
X0233332Y0113133D03*
X0233432Y0113433D03*
X0233432Y0113533D03*
X0233432Y0113633D03*
X0233432Y0113733D03*
X0233432Y0113833D03*
X0233432Y0113933D03*
X0233432Y0114033D03*
X0233432Y0114133D03*
X0233432Y0114233D03*
X0233332Y0114533D03*
X0233332Y0114633D03*
X0233332Y0114733D03*
X0233332Y0114833D03*
X0233332Y0114933D03*
X0233232Y0115033D03*
X0233232Y0115133D03*
X0233232Y0115233D03*
X0233132Y0115433D03*
X0235832Y0114733D03*
X0235832Y0114633D03*
X0235832Y0114533D03*
X0235832Y0114433D03*
X0235832Y0114333D03*
X0235932Y0114933D03*
X0235932Y0115033D03*
X0236032Y0115333D03*
X0235832Y0113233D03*
X0235832Y0113133D03*
X0235832Y0113033D03*
X0235832Y0112933D03*
X0235832Y0112833D03*
X0235932Y0112733D03*
X0235932Y0112633D03*
X0235932Y0112533D03*
X0236032Y0112233D03*
X0241232Y0112533D03*
X0241232Y0112633D03*
X0241232Y0112733D03*
X0241232Y0112833D03*
X0241232Y0114833D03*
X0241232Y0114933D03*
X0241232Y0115033D03*
X0230732Y0117833D03*
D88*
X0228382Y0116233D03*
X0228382Y0111433D03*
X0236982Y0111133D03*
X0238482Y0109933D03*
X0240782Y0116233D03*
X0228582Y0130633D03*
X0251082Y0133333D03*
D89*
X0242582Y0136833D03*
X0228582Y0130733D03*
X0230682Y0117733D03*
X0232382Y0116433D03*
X0228282Y0116033D03*
X0228282Y0111533D03*
X0230782Y0109933D03*
X0232382Y0111233D03*
X0236782Y0111233D03*
X0240082Y0111133D03*
X0240882Y0111533D03*
X0257282Y0116333D03*
X0257282Y0120633D03*
D90*
X0257282Y0120333D03*
X0251082Y0133533D03*
X0242582Y0137133D03*
X0228582Y0130433D03*
X0238382Y0117533D03*
X0238482Y0110033D03*
D91*
X0230832Y0110033D03*
X0228532Y0111233D03*
X0234532Y0133433D03*
X0234532Y0137433D03*
D92*
X0242582Y0137333D03*
X0242582Y0140733D03*
X0251082Y0137133D03*
X0251082Y0133733D03*
X0257282Y0120133D03*
X0257282Y0116733D03*
X0238482Y0110133D03*
X0230782Y0110233D03*
X0228582Y0126833D03*
X0228582Y0130233D03*
D93*
X0234532Y0133533D03*
X0234532Y0137233D03*
X0228732Y0111133D03*
X0230832Y0110133D03*
X0257232Y0116633D03*
D94*
X0257282Y0116933D03*
X0257282Y0120033D03*
X0251082Y0133833D03*
X0251082Y0137033D03*
X0242582Y0137433D03*
X0242582Y0140633D03*
X0228582Y0130133D03*
X0228582Y0126933D03*
X0230682Y0117433D03*
X0238382Y0117333D03*
X0238482Y0110233D03*
D95*
X0238482Y0110333D03*
X0228582Y0127233D03*
X0228582Y0129833D03*
X0228582Y0129933D03*
X0234482Y0136733D03*
X0242582Y0137633D03*
X0242582Y0137733D03*
X0242582Y0140333D03*
X0251082Y0136733D03*
X0251082Y0134133D03*
X0257282Y0119833D03*
X0257282Y0119733D03*
X0257282Y0117133D03*
D96*
X0251032Y0136933D03*
X0242532Y0140533D03*
X0234532Y0136933D03*
X0234532Y0133933D03*
X0234532Y0133833D03*
X0228632Y0127033D03*
X0230832Y0110333D03*
D97*
X0238482Y0110433D03*
X0228582Y0127433D03*
X0228582Y0129633D03*
X0228582Y0129733D03*
X0234482Y0136533D03*
X0242582Y0137833D03*
X0242582Y0137933D03*
X0242582Y0140133D03*
X0251082Y0136533D03*
X0251082Y0134333D03*
X0251082Y0134233D03*
X0257282Y0119633D03*
X0257282Y0119533D03*
X0257282Y0117333D03*
D98*
X0251032Y0134033D03*
X0238332Y0117233D03*
X0230732Y0117333D03*
X0230832Y0110433D03*
X0234532Y0134033D03*
X0234532Y0136833D03*
D99*
X0234482Y0136333D03*
X0242582Y0138033D03*
X0242582Y0138133D03*
X0242582Y0139833D03*
X0242582Y0139933D03*
X0251082Y0136333D03*
X0251082Y0136233D03*
X0251082Y0134533D03*
X0251082Y0134433D03*
X0257282Y0119433D03*
X0257282Y0119333D03*
X0257282Y0117633D03*
X0257282Y0117533D03*
X0238482Y0110533D03*
X0230682Y0117133D03*
X0228582Y0127633D03*
X0228582Y0127733D03*
X0228582Y0129433D03*
X0228582Y0129533D03*
D100*
X0228632Y0127333D03*
X0234532Y0134133D03*
X0234532Y0134233D03*
X0234532Y0136633D03*
X0242532Y0140233D03*
X0251032Y0136633D03*
X0257232Y0117233D03*
X0238332Y0117133D03*
X0230732Y0117233D03*
X0230832Y0110533D03*
D101*
X0230682Y0117033D03*
X0238482Y0110633D03*
X0228582Y0127833D03*
X0228582Y0127933D03*
X0228582Y0128033D03*
X0228582Y0128133D03*
X0228582Y0128933D03*
X0228582Y0129033D03*
X0228582Y0129133D03*
X0228582Y0129233D03*
X0234482Y0134833D03*
X0242582Y0138333D03*
X0242582Y0138433D03*
X0242582Y0138533D03*
X0242582Y0138633D03*
X0242582Y0139433D03*
X0242582Y0139533D03*
X0242582Y0139633D03*
X0251082Y0136133D03*
X0251082Y0136033D03*
X0251082Y0135933D03*
X0251082Y0135833D03*
X0251082Y0135033D03*
X0251082Y0134933D03*
X0251082Y0134833D03*
X0251082Y0134733D03*
X0257282Y0119133D03*
X0257282Y0119033D03*
X0257282Y0118933D03*
X0257282Y0118833D03*
X0257282Y0118033D03*
X0257282Y0117933D03*
X0257282Y0117833D03*
D102*
X0239082Y0117033D03*
X0230082Y0110633D03*
D103*
X0230682Y0116933D03*
X0238482Y0110733D03*
D104*
X0239032Y0116933D03*
X0230132Y0110733D03*
D105*
X0238482Y0110833D03*
D106*
X0238982Y0116833D03*
X0230182Y0110833D03*
D107*
X0238482Y0110933D03*
D108*
X0238932Y0116633D03*
X0238932Y0116733D03*
X0230232Y0110933D03*
D109*
X0230682Y0116533D03*
X0238482Y0111033D03*
D110*
X0238882Y0116533D03*
X0230282Y0111033D03*
D111*
X0228432Y0111333D03*
X0232232Y0111133D03*
X0234532Y0133333D03*
X0242532Y0136933D03*
X0257232Y0120533D03*
D112*
X0240982Y0115933D03*
X0238382Y0117733D03*
X0236582Y0116233D03*
X0240282Y0111233D03*
X0240982Y0111733D03*
X0228182Y0111733D03*
X0228182Y0115833D03*
X0228982Y0116433D03*
D113*
X0228832Y0116333D03*
X0228132Y0115733D03*
X0228132Y0111933D03*
X0228132Y0111833D03*
X0232632Y0111433D03*
X0232732Y0111533D03*
X0236432Y0111533D03*
X0236532Y0111433D03*
X0236632Y0111333D03*
X0236432Y0116033D03*
X0236532Y0116133D03*
X0232732Y0116133D03*
X0232632Y0116233D03*
X0241032Y0115833D03*
X0241032Y0115733D03*
X0241032Y0111833D03*
X0228632Y0126333D03*
X0234532Y0137633D03*
X0242532Y0141233D03*
X0251032Y0137633D03*
D114*
X0251032Y0133233D03*
X0234532Y0133233D03*
X0232532Y0116333D03*
X0236732Y0116333D03*
X0232532Y0111333D03*
X0228232Y0111633D03*
X0228232Y0115933D03*
X0240932Y0116033D03*
X0240932Y0111633D03*
D115*
X0240832Y0111433D03*
X0240832Y0116133D03*
X0236832Y0116433D03*
X0228332Y0116133D03*
X0228632Y0126433D03*
X0234532Y0137533D03*
X0242532Y0141133D03*
X0251032Y0137533D03*
D116*
X0242532Y0136733D03*
X0234532Y0133133D03*
X0232932Y0115833D03*
X0236132Y0115633D03*
X0236132Y0115533D03*
X0236232Y0115733D03*
X0236232Y0111833D03*
X0236332Y0111733D03*
X0236332Y0111633D03*
X0233132Y0112233D03*
X0233032Y0112033D03*
X0233032Y0111933D03*
X0232932Y0111833D03*
X0228032Y0112133D03*
X0228032Y0112233D03*
X0228032Y0112333D03*
X0228032Y0115333D03*
X0228032Y0115433D03*
X0241132Y0115433D03*
X0241132Y0115533D03*
X0241132Y0112233D03*
X0241132Y0112133D03*
D117*
X0241182Y0112333D03*
X0241182Y0112433D03*
X0241182Y0115133D03*
X0241182Y0115233D03*
X0241182Y0115333D03*
X0236082Y0115433D03*
X0235982Y0115233D03*
X0235982Y0115133D03*
X0235882Y0114833D03*
X0235982Y0112433D03*
X0235982Y0112333D03*
X0236082Y0112133D03*
X0236082Y0112033D03*
X0236182Y0111933D03*
X0233282Y0112633D03*
X0233182Y0112433D03*
X0233182Y0112333D03*
X0233082Y0112133D03*
X0233182Y0115333D03*
X0233082Y0115533D03*
X0233082Y0115633D03*
X0232982Y0115733D03*
X0227982Y0115233D03*
X0227982Y0115133D03*
X0227982Y0115033D03*
X0227982Y0112533D03*
X0227982Y0112433D03*
X0228582Y0130833D03*
X0251082Y0133133D03*
D118*
X0241332Y0113833D03*
X0241332Y0113733D03*
D119*
X0238382Y0117833D03*
X0257282Y0116133D03*
D120*
X0257282Y0116433D03*
X0240682Y0116333D03*
X0238382Y0117633D03*
X0228582Y0126533D03*
X0242582Y0141033D03*
X0251082Y0137433D03*
D121*
X0251082Y0133433D03*
X0242582Y0137033D03*
X0228582Y0130533D03*
X0230682Y0117633D03*
X0240582Y0116433D03*
X0257282Y0116533D03*
X0257282Y0120433D03*
D122*
X0230732Y0116633D03*
D123*
X0230732Y0116733D03*
D124*
X0234532Y0133733D03*
X0234532Y0137033D03*
X0257232Y0116833D03*
D125*
X0230732Y0116833D03*
D126*
X0228582Y0127133D03*
X0228582Y0130033D03*
X0242582Y0137533D03*
X0242582Y0140433D03*
X0251082Y0136833D03*
X0251082Y0133933D03*
X0257282Y0119933D03*
X0257282Y0117033D03*
D127*
X0257232Y0117433D03*
X0251032Y0136433D03*
X0242532Y0140033D03*
X0234532Y0136433D03*
X0234532Y0134433D03*
X0234532Y0134333D03*
X0228632Y0127533D03*
D128*
X0234532Y0133633D03*
X0234532Y0137133D03*
X0238332Y0117433D03*
D129*
X0230682Y0117533D03*
X0228582Y0126733D03*
X0228582Y0130333D03*
X0242582Y0137233D03*
X0242582Y0140833D03*
X0251082Y0137233D03*
X0251082Y0133633D03*
X0257282Y0120233D03*
D130*
X0257232Y0119233D03*
X0257232Y0117733D03*
X0251032Y0134633D03*
X0242532Y0138233D03*
X0242532Y0139733D03*
X0234532Y0136233D03*
X0234532Y0136133D03*
X0234532Y0136033D03*
X0234532Y0134733D03*
X0234532Y0134633D03*
X0234532Y0134533D03*
X0228632Y0129333D03*
D131*
X0228632Y0128833D03*
X0228632Y0128733D03*
X0228632Y0128633D03*
X0228632Y0128533D03*
X0228632Y0128433D03*
X0228632Y0128333D03*
X0228632Y0128233D03*
X0234532Y0134933D03*
X0234532Y0135033D03*
X0234532Y0135133D03*
X0234532Y0135233D03*
X0234532Y0135333D03*
X0234532Y0135433D03*
X0234532Y0135533D03*
X0234532Y0135633D03*
X0234532Y0135733D03*
X0234532Y0135833D03*
X0234532Y0135933D03*
X0242532Y0138733D03*
X0242532Y0138833D03*
X0242532Y0138933D03*
X0242532Y0139033D03*
X0242532Y0139133D03*
X0242532Y0139233D03*
X0242532Y0139333D03*
X0251032Y0135733D03*
X0251032Y0135633D03*
X0251032Y0135533D03*
X0251032Y0135433D03*
X0251032Y0135333D03*
X0251032Y0135233D03*
X0251032Y0135133D03*
X0257232Y0118733D03*
X0257232Y0118633D03*
X0257232Y0118533D03*
X0257232Y0118433D03*
X0257232Y0118333D03*
X0257232Y0118233D03*
X0257232Y0118133D03*
D132*
X0257232Y0120833D03*
D133*
X0228582Y0126133D03*
D134*
X0228632Y0126633D03*
X0234532Y0137333D03*
X0242532Y0140933D03*
X0251032Y0137333D03*
D135*
X0251082Y0133033D03*
X0242582Y0136633D03*
X0234482Y0133033D03*
X0228582Y0130933D03*
D136*
X0251082Y0137833D03*
D137*
X0234532Y0137833D03*
M02*
