G75*
%MOIN*%
%OFA0B0*%
%FSLAX25Y25*%
%IPPOS*%
%LPD*%
%AMOC8*
5,1,8,0,0,1.08239X$1,22.5*
%
%ADD10C,0.00394*%
%ADD11C,0.06000*%
%ADD12C,0.13000*%
%ADD13C,0.05200*%
%ADD14C,0.06600*%
%ADD15C,0.50000*%
%ADD16C,0.40000*%
%ADD17C,0.20000*%
%ADD18C,0.00500*%
%ADD19C,0.02362*%
%ADD20R,0.03937X0.07874*%
%ADD21R,0.07400X0.07400*%
%ADD22C,0.07400*%
%ADD23OC8,0.08500*%
%ADD24C,0.01000*%
%ADD25C,0.02200*%
%ADD26C,0.02400*%
%ADD27C,0.02800*%
%ADD28C,0.01200*%
%ADD29C,0.01600*%
%ADD30C,0.03562*%
%ADD31C,0.02400*%
%ADD32C,0.01400*%
D10*
X0033683Y0069482D02*
X0033935Y0069375D01*
X0034187Y0069268D01*
X0034445Y0069173D01*
X0034973Y0069008D01*
X0035242Y0068938D01*
X0035516Y0068882D01*
X0035790Y0068825D01*
X0035927Y0068797D01*
X0035995Y0068783D01*
X0036064Y0068769D01*
X0036379Y0068752D01*
X0036725Y0068738D01*
X0037332Y0068716D01*
X0037593Y0068709D01*
X0113632Y0068709D01*
X0113928Y0068711D01*
X0114142Y0068714D01*
X0114356Y0068717D01*
X0114489Y0068728D02*
X0114621Y0068732D01*
X0115050Y0068737D01*
X0115345Y0068739D01*
X0123062Y0068739D01*
X0123062Y0016439D01*
X0123125Y0016332D02*
X0123355Y0016062D01*
X0123385Y0015991D01*
X0123422Y0015924D01*
X0123465Y0015861D01*
X0123507Y0015798D01*
X0123556Y0015740D01*
X0123663Y0015633D01*
X0123721Y0015584D01*
X0123784Y0015542D01*
X0123847Y0015499D01*
X0123914Y0015463D01*
X0124055Y0015403D01*
X0124129Y0015379D01*
X0124206Y0015363D01*
X0124283Y0015348D01*
X0124362Y0015339D01*
X0169406Y0015339D01*
X0169486Y0015348D01*
X0169562Y0015363D01*
X0169639Y0015379D01*
X0169713Y0015403D01*
X0169854Y0015463D01*
X0169921Y0015499D01*
X0170047Y0015584D01*
X0170106Y0015633D01*
X0170213Y0015740D01*
X0170261Y0015798D01*
X0170304Y0015861D01*
X0170346Y0015924D01*
X0170383Y0015991D01*
X0170413Y0016062D01*
X0170443Y0016132D02*
X0170666Y0016407D01*
X0170706Y0016439D02*
X0170706Y0068739D01*
X0208871Y0068739D01*
X0209166Y0068737D01*
X0209380Y0068735D01*
X0209594Y0068732D01*
X0209727Y0068728D01*
X0209860Y0068717D02*
X0210074Y0068714D01*
X0210288Y0068711D01*
X0210583Y0068709D01*
X0256176Y0068709D01*
X0256436Y0068716D01*
X0256740Y0068727D01*
X0257043Y0068738D01*
X0257389Y0068752D01*
X0257705Y0068769D01*
X0257773Y0068783D01*
X0257842Y0068797D01*
X0257979Y0068825D01*
X0258253Y0068882D01*
X0258527Y0068938D01*
X0258796Y0069008D01*
X0259323Y0069173D01*
X0259582Y0069268D01*
X0259834Y0069375D01*
X0260086Y0069482D01*
X0260332Y0069601D01*
X0260810Y0069862D01*
X0261042Y0070003D01*
X0261266Y0070155D01*
X0261491Y0070307D01*
X0261708Y0070470D01*
X0261916Y0070642D01*
X0262125Y0070814D01*
X0262325Y0070997D01*
X0262516Y0071188D01*
X0262707Y0071379D01*
X0262889Y0071579D01*
X0263062Y0071788D01*
X0263234Y0071996D01*
X0263397Y0072213D01*
X0263549Y0072438D01*
X0263701Y0072662D01*
X0263842Y0072894D01*
X0263972Y0073133D01*
X0264103Y0073372D01*
X0264222Y0073618D01*
X0264329Y0073870D01*
X0264436Y0074122D01*
X0264531Y0074381D01*
X0264613Y0074644D01*
X0264696Y0074908D01*
X0264766Y0075177D01*
X0264822Y0075451D01*
X0264879Y0075725D01*
X0264907Y0075862D01*
X0264921Y0075931D01*
X0264935Y0075999D01*
X0264951Y0076314D01*
X0264966Y0076661D01*
X0264977Y0076964D01*
X0264988Y0077267D01*
X0264994Y0077528D01*
X0264994Y0234039D01*
X0265003Y0236772D01*
X0264994Y0239280D01*
X0264992Y0239971D01*
X0263114Y0240511D01*
X0262443Y0240345D01*
X0261905Y0240213D01*
X0261716Y0239509D01*
X0263088Y0262159D02*
X0262443Y0262345D01*
X0261910Y0262498D01*
X0261716Y0263182D01*
X0263088Y0262159D02*
X0264650Y0262609D01*
X0264994Y0263186D01*
X0265161Y0263465D01*
X0264994Y0263939D01*
X0264994Y0325168D01*
X0264988Y0325429D01*
X0264977Y0325732D01*
X0264966Y0326035D01*
X0264951Y0326381D01*
X0264935Y0326697D01*
X0264921Y0326765D01*
X0264907Y0326834D01*
X0264879Y0326971D01*
X0264766Y0327519D01*
X0264696Y0327788D01*
X0264613Y0328052D01*
X0264531Y0328315D01*
X0264436Y0328574D01*
X0264329Y0328826D01*
X0264222Y0329078D01*
X0264103Y0329324D01*
X0263972Y0329563D01*
X0263842Y0329802D01*
X0263701Y0330034D01*
X0263549Y0330258D01*
X0263397Y0330483D01*
X0263234Y0330700D01*
X0263062Y0330908D01*
X0262889Y0331117D01*
X0262707Y0331317D01*
X0262325Y0331699D01*
X0262125Y0331881D01*
X0261916Y0332054D01*
X0261708Y0332226D01*
X0261491Y0332389D01*
X0261266Y0332541D01*
X0261042Y0332693D01*
X0260810Y0332834D01*
X0260571Y0332964D01*
X0260332Y0333095D01*
X0260086Y0333214D01*
X0259834Y0333321D01*
X0259582Y0333428D01*
X0259323Y0333523D01*
X0259059Y0333606D01*
X0258796Y0333688D01*
X0258527Y0333758D01*
X0258253Y0333814D01*
X0257979Y0333871D01*
X0257842Y0333899D01*
X0257773Y0333913D01*
X0257705Y0333927D01*
X0257389Y0333943D01*
X0257043Y0333958D01*
X0256740Y0333969D01*
X0256436Y0333980D01*
X0256176Y0333986D01*
X0163361Y0333986D01*
X0130622Y0333986D02*
X0037593Y0333986D01*
X0037332Y0333980D01*
X0037028Y0333969D01*
X0036725Y0333958D01*
X0036379Y0333943D01*
X0036064Y0333927D01*
X0035995Y0333913D01*
X0035927Y0333899D01*
X0035790Y0333871D01*
X0035516Y0333814D01*
X0035242Y0333758D01*
X0034973Y0333688D01*
X0034709Y0333606D01*
X0034445Y0333523D01*
X0034187Y0333428D01*
X0033935Y0333321D01*
X0033683Y0333214D01*
X0033437Y0333095D01*
X0033198Y0332964D01*
X0032959Y0332834D01*
X0032727Y0332693D01*
X0032502Y0332541D01*
X0032277Y0332389D01*
X0032061Y0332226D01*
X0031852Y0332054D01*
X0031643Y0331881D01*
X0031443Y0331699D01*
X0031252Y0331508D01*
X0031061Y0331317D01*
X0030879Y0331117D01*
X0030707Y0330908D01*
X0030534Y0330700D01*
X0030372Y0330483D01*
X0030220Y0330258D01*
X0030068Y0330034D01*
X0029926Y0329802D01*
X0029796Y0329563D01*
X0029666Y0329324D01*
X0029547Y0329078D01*
X0029440Y0328826D01*
X0029333Y0328574D01*
X0029237Y0328315D01*
X0029072Y0327788D01*
X0029003Y0327519D01*
X0028946Y0327245D01*
X0028890Y0326971D01*
X0028861Y0326834D01*
X0028847Y0326765D01*
X0028833Y0326697D01*
X0028817Y0326381D01*
X0028802Y0326035D01*
X0028791Y0325732D01*
X0028781Y0325429D01*
X0028774Y0325168D01*
X0028774Y0197833D01*
X0028694Y0192810D01*
X0028774Y0191333D01*
X0028826Y0190369D01*
X0031608Y0190195D01*
X0032537Y0190461D01*
X0033070Y0190613D01*
X0033340Y0191224D01*
X0031608Y0166329D02*
X0028755Y0165833D01*
X0028774Y0164849D01*
X0028813Y0162802D01*
X0028774Y0158065D01*
X0028774Y0077528D01*
X0028781Y0077267D01*
X0028791Y0076964D01*
X0028802Y0076661D01*
X0028817Y0076314D01*
X0028833Y0075999D01*
X0028847Y0075931D01*
X0028861Y0075862D01*
X0028890Y0075725D01*
X0028946Y0075451D01*
X0029003Y0075177D01*
X0029072Y0074908D01*
X0029237Y0074381D01*
X0029333Y0074122D01*
X0029440Y0073870D01*
X0029547Y0073618D01*
X0029666Y0073372D01*
X0029796Y0073133D01*
X0029926Y0072894D01*
X0030068Y0072662D01*
X0030220Y0072438D01*
X0030372Y0072213D01*
X0030534Y0071996D01*
X0030707Y0071788D01*
X0030879Y0071579D01*
X0031061Y0071379D01*
X0031252Y0071188D01*
X0031443Y0070997D01*
X0031643Y0070814D01*
X0031852Y0070642D01*
X0032061Y0070470D01*
X0032277Y0070307D01*
X0032502Y0070155D01*
X0032727Y0070003D01*
X0032959Y0069862D01*
X0033437Y0069601D01*
X0033683Y0069482D01*
X0033340Y0165241D02*
X0033060Y0165823D01*
X0032537Y0166005D01*
X0031608Y0166329D01*
D11*
X0081338Y0142833D03*
X0101338Y0142833D03*
X0101338Y0085833D03*
X0091338Y0085833D03*
X0081338Y0085833D03*
D12*
X0065338Y0115333D03*
X0117338Y0115333D03*
D13*
X0050282Y0263333D03*
X0041620Y0263333D03*
D14*
X0139131Y0293199D03*
X0154879Y0293199D03*
D15*
X0147056Y0327657D03*
X0205432Y0301183D03*
X0249131Y0251333D03*
X0083906Y0301559D03*
X0044831Y0178258D03*
D16*
X0039282Y0083333D03*
X0254282Y0083333D03*
D17*
X0254282Y0323333D03*
X0039282Y0323333D03*
D18*
X0031300Y0317351D02*
X0047263Y0317351D01*
X0047636Y0317849D02*
X0030927Y0317849D01*
X0030869Y0317927D02*
X0030185Y0319179D01*
X0029687Y0320516D01*
X0029383Y0321910D01*
X0029282Y0323333D01*
X0049282Y0323333D01*
X0049180Y0321910D01*
X0048877Y0320516D01*
X0048378Y0319179D01*
X0047694Y0317927D01*
X0046839Y0316785D01*
X0045830Y0315776D01*
X0044688Y0314921D01*
X0043436Y0314237D01*
X0042099Y0313738D01*
X0040705Y0313435D01*
X0039282Y0313333D01*
X0037858Y0313435D01*
X0036464Y0313738D01*
X0035127Y0314237D01*
X0033875Y0314921D01*
X0032733Y0315776D01*
X0031724Y0316785D01*
X0030869Y0317927D01*
X0030639Y0318348D02*
X0047924Y0318348D01*
X0048196Y0318846D02*
X0030367Y0318846D01*
X0030123Y0319345D02*
X0048440Y0319345D01*
X0048626Y0319843D02*
X0029938Y0319843D01*
X0029752Y0320342D02*
X0048812Y0320342D01*
X0048947Y0320840D02*
X0029616Y0320840D01*
X0029508Y0321339D02*
X0049056Y0321339D01*
X0049164Y0321837D02*
X0029399Y0321837D01*
X0029353Y0322336D02*
X0049210Y0322336D01*
X0049246Y0322834D02*
X0029317Y0322834D01*
X0029282Y0323333D02*
X0029282Y0338333D01*
X0049282Y0338333D01*
X0049282Y0323333D01*
X0049282Y0323831D02*
X0029282Y0323831D01*
X0029282Y0324330D02*
X0049282Y0324330D01*
X0049282Y0324828D02*
X0029282Y0324828D01*
X0029282Y0325327D02*
X0049282Y0325327D01*
X0049282Y0325825D02*
X0029282Y0325825D01*
X0029282Y0326324D02*
X0049282Y0326324D01*
X0049282Y0326823D02*
X0029282Y0326823D01*
X0029282Y0327321D02*
X0049282Y0327321D01*
X0049282Y0327820D02*
X0029282Y0327820D01*
X0029282Y0328318D02*
X0049282Y0328318D01*
X0049282Y0328817D02*
X0029282Y0328817D01*
X0029282Y0329315D02*
X0049282Y0329315D01*
X0049282Y0329814D02*
X0029282Y0329814D01*
X0029282Y0330312D02*
X0049282Y0330312D01*
X0049282Y0330811D02*
X0029282Y0330811D01*
X0029282Y0331309D02*
X0049282Y0331309D01*
X0049282Y0331808D02*
X0029282Y0331808D01*
X0029282Y0332306D02*
X0049282Y0332306D01*
X0049282Y0332805D02*
X0029282Y0332805D01*
X0029282Y0333303D02*
X0049282Y0333303D01*
X0049282Y0333802D02*
X0029282Y0333802D01*
X0029282Y0334300D02*
X0049282Y0334300D01*
X0049282Y0334799D02*
X0029282Y0334799D01*
X0029282Y0335297D02*
X0049282Y0335297D01*
X0049282Y0335796D02*
X0029282Y0335796D01*
X0029282Y0336294D02*
X0049282Y0336294D01*
X0049282Y0336793D02*
X0029282Y0336793D01*
X0029282Y0337291D02*
X0049282Y0337291D01*
X0049282Y0337790D02*
X0029282Y0337790D01*
X0029282Y0338288D02*
X0049282Y0338288D01*
X0046890Y0316852D02*
X0031674Y0316852D01*
X0032155Y0316354D02*
X0046408Y0316354D01*
X0045910Y0315855D02*
X0032654Y0315855D01*
X0033293Y0315357D02*
X0045270Y0315357D01*
X0044573Y0314858D02*
X0033990Y0314858D01*
X0034903Y0314360D02*
X0043660Y0314360D01*
X0042428Y0313861D02*
X0036135Y0313861D01*
X0038871Y0313363D02*
X0039692Y0313363D01*
X0244282Y0323333D02*
X0244383Y0321910D01*
X0244687Y0320516D01*
X0245185Y0319179D01*
X0245869Y0317927D01*
X0246724Y0316785D01*
X0247733Y0315776D01*
X0248875Y0314921D01*
X0250127Y0314237D01*
X0251464Y0313738D01*
X0252858Y0313435D01*
X0254282Y0313333D01*
X0255705Y0313435D01*
X0257099Y0313738D01*
X0258436Y0314237D01*
X0259688Y0314921D01*
X0260830Y0315776D01*
X0261839Y0316785D01*
X0262694Y0317927D01*
X0263378Y0319179D01*
X0263877Y0320516D01*
X0264180Y0321910D01*
X0264282Y0323333D01*
X0244282Y0323333D01*
X0244282Y0338333D01*
X0264282Y0338333D01*
X0264282Y0323333D01*
X0264282Y0323831D02*
X0244282Y0323831D01*
X0244282Y0324330D02*
X0264282Y0324330D01*
X0264282Y0324828D02*
X0244282Y0324828D01*
X0244282Y0325327D02*
X0264282Y0325327D01*
X0264282Y0325825D02*
X0244282Y0325825D01*
X0244282Y0326324D02*
X0264282Y0326324D01*
X0264282Y0326823D02*
X0244282Y0326823D01*
X0244282Y0327321D02*
X0264282Y0327321D01*
X0264282Y0327820D02*
X0244282Y0327820D01*
X0244282Y0328318D02*
X0264282Y0328318D01*
X0264282Y0328817D02*
X0244282Y0328817D01*
X0244282Y0329315D02*
X0264282Y0329315D01*
X0264282Y0329814D02*
X0244282Y0329814D01*
X0244282Y0330312D02*
X0264282Y0330312D01*
X0264282Y0330811D02*
X0244282Y0330811D01*
X0244282Y0331309D02*
X0264282Y0331309D01*
X0264282Y0331808D02*
X0244282Y0331808D01*
X0244282Y0332306D02*
X0264282Y0332306D01*
X0264282Y0332805D02*
X0244282Y0332805D01*
X0244282Y0333303D02*
X0264282Y0333303D01*
X0264282Y0333802D02*
X0244282Y0333802D01*
X0244282Y0334300D02*
X0264282Y0334300D01*
X0264282Y0334799D02*
X0244282Y0334799D01*
X0244282Y0335297D02*
X0264282Y0335297D01*
X0264282Y0335796D02*
X0244282Y0335796D01*
X0244282Y0336294D02*
X0264282Y0336294D01*
X0264282Y0336793D02*
X0244282Y0336793D01*
X0244282Y0337291D02*
X0264282Y0337291D01*
X0264282Y0337790D02*
X0244282Y0337790D01*
X0244282Y0338288D02*
X0264282Y0338288D01*
X0264246Y0322834D02*
X0244317Y0322834D01*
X0244353Y0322336D02*
X0264210Y0322336D01*
X0264164Y0321837D02*
X0244399Y0321837D01*
X0244508Y0321339D02*
X0264056Y0321339D01*
X0263947Y0320840D02*
X0244616Y0320840D01*
X0244752Y0320342D02*
X0263812Y0320342D01*
X0263626Y0319843D02*
X0244938Y0319843D01*
X0245123Y0319345D02*
X0263440Y0319345D01*
X0263196Y0318846D02*
X0245367Y0318846D01*
X0245639Y0318348D02*
X0262924Y0318348D01*
X0262636Y0317849D02*
X0245927Y0317849D01*
X0246300Y0317351D02*
X0262263Y0317351D01*
X0261890Y0316852D02*
X0246674Y0316852D01*
X0247155Y0316354D02*
X0261408Y0316354D01*
X0260910Y0315855D02*
X0247654Y0315855D01*
X0248293Y0315357D02*
X0260270Y0315357D01*
X0259573Y0314858D02*
X0248990Y0314858D01*
X0249903Y0314360D02*
X0258660Y0314360D01*
X0257428Y0313861D02*
X0251135Y0313861D01*
X0253871Y0313363D02*
X0254692Y0313363D01*
D19*
X0257526Y0201577D02*
X0263038Y0201577D01*
X0257526Y0201577D02*
X0257526Y0207089D01*
X0263038Y0207089D01*
X0263038Y0201577D01*
X0263038Y0203938D02*
X0257526Y0203938D01*
X0257526Y0206299D02*
X0263038Y0206299D01*
X0263038Y0190577D02*
X0257526Y0190577D01*
X0257526Y0196089D01*
X0263038Y0196089D01*
X0263038Y0190577D01*
X0263038Y0192938D02*
X0257526Y0192938D01*
X0257526Y0195299D02*
X0263038Y0195299D01*
X0036038Y0148089D02*
X0030526Y0148089D01*
X0036038Y0148089D02*
X0036038Y0142577D01*
X0030526Y0142577D01*
X0030526Y0148089D01*
X0030526Y0144938D02*
X0036038Y0144938D01*
X0036038Y0147299D02*
X0030526Y0147299D01*
X0030526Y0137089D02*
X0036038Y0137089D01*
X0036038Y0131577D01*
X0030526Y0131577D01*
X0030526Y0137089D01*
X0030526Y0133938D02*
X0036038Y0133938D01*
X0036038Y0136299D02*
X0030526Y0136299D01*
X0030526Y0126089D02*
X0036038Y0126089D01*
X0036038Y0120577D01*
X0030526Y0120577D01*
X0030526Y0126089D01*
X0030526Y0122938D02*
X0036038Y0122938D01*
X0036038Y0125299D02*
X0030526Y0125299D01*
X0030526Y0115089D02*
X0036038Y0115089D01*
X0036038Y0109577D01*
X0030526Y0109577D01*
X0030526Y0115089D01*
X0030526Y0111938D02*
X0036038Y0111938D01*
X0036038Y0114299D02*
X0030526Y0114299D01*
D20*
X0030782Y0112333D03*
X0030782Y0123333D03*
X0030782Y0134333D03*
X0030782Y0145333D03*
X0262782Y0193333D03*
X0262782Y0204333D03*
D21*
X0254622Y0159310D03*
D22*
X0254622Y0169310D03*
X0102282Y0129333D03*
X0082282Y0129333D03*
X0092282Y0109333D03*
D23*
X0246282Y0190821D03*
X0246282Y0209846D03*
D24*
X0242270Y0206009D02*
X0219382Y0206009D01*
X0219382Y0207007D02*
X0241271Y0207007D01*
X0240732Y0207547D02*
X0243983Y0204296D01*
X0248580Y0204296D01*
X0251832Y0207547D01*
X0251832Y0212145D01*
X0248580Y0215396D01*
X0243983Y0215396D01*
X0240732Y0212145D01*
X0240732Y0211746D01*
X0230556Y0211746D01*
X0224182Y0218120D01*
X0224182Y0221698D01*
X0224401Y0221917D01*
X0224782Y0222836D01*
X0224782Y0223831D01*
X0224401Y0224749D01*
X0223698Y0225453D01*
X0222779Y0225833D01*
X0221784Y0225833D01*
X0220865Y0225453D01*
X0220162Y0224749D01*
X0219782Y0223831D01*
X0219782Y0222836D01*
X0220162Y0221917D01*
X0220382Y0221698D01*
X0220382Y0216546D01*
X0221495Y0215433D01*
X0228982Y0207946D01*
X0240732Y0207946D01*
X0240732Y0207547D01*
X0243268Y0205010D02*
X0219382Y0205010D01*
X0219382Y0204012D02*
X0259782Y0204012D01*
X0259782Y0203849D02*
X0259313Y0203849D01*
X0259313Y0203833D01*
X0254845Y0203833D01*
X0254845Y0201313D01*
X0254948Y0200795D01*
X0255150Y0200307D01*
X0255443Y0199868D01*
X0255817Y0199495D01*
X0256256Y0199201D01*
X0256744Y0198999D01*
X0257262Y0198896D01*
X0259782Y0198896D01*
X0259782Y0199306D01*
X0259892Y0199196D01*
X0260234Y0198999D01*
X0260616Y0198896D01*
X0263298Y0198896D01*
X0263298Y0198570D01*
X0257032Y0198570D01*
X0256120Y0198193D01*
X0255422Y0197495D01*
X0255045Y0196583D01*
X0255045Y0195433D01*
X0249518Y0195433D01*
X0248580Y0196371D01*
X0243983Y0196371D01*
X0240732Y0193120D01*
X0240732Y0188522D01*
X0243983Y0185271D01*
X0248580Y0185271D01*
X0251832Y0188522D01*
X0251832Y0191233D01*
X0255045Y0191233D01*
X0255045Y0191066D01*
X0235412Y0171433D01*
X0234182Y0170203D01*
X0234182Y0122591D01*
X0233670Y0122079D01*
X0233200Y0120946D01*
X0233200Y0120788D01*
X0225782Y0113369D01*
X0225782Y0113831D01*
X0225401Y0114749D01*
X0224698Y0115453D01*
X0223779Y0115833D01*
X0222784Y0115833D01*
X0221865Y0115453D01*
X0221162Y0114749D01*
X0220782Y0113831D01*
X0220782Y0113379D01*
X0220536Y0113133D01*
X0194027Y0113133D01*
X0191082Y0116079D01*
X0191082Y0134598D01*
X0191401Y0134917D01*
X0191782Y0135836D01*
X0191782Y0136831D01*
X0191401Y0137749D01*
X0190698Y0138453D01*
X0190503Y0138533D01*
X0199546Y0138533D01*
X0199865Y0138214D01*
X0200784Y0137833D01*
X0201482Y0137833D01*
X0201482Y0134069D01*
X0201162Y0133749D01*
X0200782Y0132831D01*
X0200782Y0131836D01*
X0201162Y0130917D01*
X0201865Y0130214D01*
X0202784Y0129833D01*
X0203779Y0129833D01*
X0204698Y0130214D01*
X0205401Y0130917D01*
X0205782Y0131836D01*
X0205782Y0132831D01*
X0205401Y0133749D01*
X0205082Y0134069D01*
X0205082Y0137588D01*
X0206027Y0138533D01*
X0211395Y0138533D01*
X0211495Y0138433D01*
X0217353Y0138433D01*
X0217453Y0138333D01*
X0223312Y0138333D01*
X0223412Y0138233D01*
X0225151Y0138233D01*
X0232382Y0145463D01*
X0232382Y0165615D01*
X0232571Y0165804D01*
X0232982Y0166796D01*
X0232982Y0167870D01*
X0232571Y0168863D01*
X0231811Y0169622D01*
X0230819Y0170033D01*
X0229745Y0170033D01*
X0228752Y0169622D01*
X0227993Y0168863D01*
X0227582Y0167870D01*
X0227582Y0166796D01*
X0227993Y0165804D01*
X0228182Y0165615D01*
X0228182Y0147203D01*
X0223312Y0142333D01*
X0217453Y0142333D01*
X0217353Y0142233D01*
X0211495Y0142233D01*
X0211395Y0142133D01*
X0204536Y0142133D01*
X0203621Y0141218D01*
X0203401Y0141749D01*
X0202698Y0142453D01*
X0201779Y0142833D01*
X0200784Y0142833D01*
X0199865Y0142453D01*
X0199546Y0142133D01*
X0189169Y0142133D01*
X0189069Y0142233D01*
X0187069Y0142233D01*
X0185082Y0144220D01*
X0185082Y0248598D01*
X0185401Y0248917D01*
X0185782Y0249836D01*
X0185782Y0250831D01*
X0185401Y0251749D01*
X0184698Y0252453D01*
X0183779Y0252833D01*
X0182784Y0252833D01*
X0181865Y0252453D01*
X0181162Y0251749D01*
X0180782Y0250831D01*
X0180782Y0249836D01*
X0181162Y0248917D01*
X0181482Y0248598D01*
X0181482Y0144220D01*
X0181382Y0144120D01*
X0181382Y0142546D01*
X0185495Y0138433D01*
X0187846Y0138433D01*
X0187162Y0137749D01*
X0186782Y0136831D01*
X0186782Y0135836D01*
X0187162Y0134917D01*
X0187482Y0134598D01*
X0187482Y0114588D01*
X0191236Y0110833D01*
X0187784Y0110833D01*
X0186865Y0110453D01*
X0186846Y0110433D01*
X0186151Y0110433D01*
X0180382Y0116203D01*
X0180382Y0166203D01*
X0179151Y0167433D01*
X0176382Y0170203D01*
X0176382Y0253615D01*
X0176571Y0253804D01*
X0176982Y0254796D01*
X0176982Y0255870D01*
X0176571Y0256863D01*
X0176000Y0257433D01*
X0204069Y0257433D01*
X0205182Y0258546D01*
X0205182Y0258546D01*
X0211469Y0264833D01*
X0211779Y0264833D01*
X0212698Y0265214D01*
X0213401Y0265917D01*
X0213782Y0266836D01*
X0213782Y0267831D01*
X0213401Y0268749D01*
X0212698Y0269453D01*
X0211779Y0269833D01*
X0210784Y0269833D01*
X0209865Y0269453D01*
X0209162Y0268749D01*
X0208782Y0267831D01*
X0208782Y0267520D01*
X0202495Y0261233D01*
X0177869Y0261233D01*
X0181469Y0264833D01*
X0181779Y0264833D01*
X0182698Y0265214D01*
X0183401Y0265917D01*
X0183782Y0266836D01*
X0183782Y0267831D01*
X0183401Y0268749D01*
X0182698Y0269453D01*
X0181779Y0269833D01*
X0180784Y0269833D01*
X0179865Y0269453D01*
X0179162Y0268749D01*
X0178782Y0267831D01*
X0178782Y0267520D01*
X0174495Y0263233D01*
X0148869Y0263233D01*
X0150469Y0264833D01*
X0150779Y0264833D01*
X0151698Y0265214D01*
X0152401Y0265917D01*
X0152782Y0266836D01*
X0152782Y0267831D01*
X0152401Y0268749D01*
X0151698Y0269453D01*
X0150779Y0269833D01*
X0149784Y0269833D01*
X0148865Y0269453D01*
X0148162Y0268749D01*
X0147782Y0267831D01*
X0147782Y0267520D01*
X0145495Y0265233D01*
X0120717Y0265233D01*
X0121401Y0265917D01*
X0121782Y0266836D01*
X0121782Y0267831D01*
X0121401Y0268749D01*
X0120698Y0269453D01*
X0119779Y0269833D01*
X0118784Y0269833D01*
X0117865Y0269453D01*
X0117162Y0268749D01*
X0116782Y0267831D01*
X0116782Y0267520D01*
X0116495Y0267233D01*
X0114651Y0267233D01*
X0117651Y0270233D01*
X0128151Y0270233D01*
X0140001Y0282083D01*
X0140151Y0282233D01*
X0156563Y0282233D01*
X0156752Y0282044D01*
X0157745Y0281633D01*
X0158819Y0281633D01*
X0159811Y0282044D01*
X0160571Y0282804D01*
X0160982Y0283796D01*
X0160982Y0284870D01*
X0160571Y0285863D01*
X0159811Y0286622D01*
X0158819Y0287033D01*
X0157745Y0287033D01*
X0156752Y0286622D01*
X0156563Y0286433D01*
X0145151Y0286433D01*
X0142011Y0289573D01*
X0143031Y0290593D01*
X0143731Y0292284D01*
X0143731Y0294114D01*
X0143031Y0295804D01*
X0141737Y0297098D01*
X0140686Y0297533D01*
X0153324Y0297533D01*
X0152273Y0297098D01*
X0150979Y0295804D01*
X0150279Y0294114D01*
X0150279Y0292284D01*
X0150979Y0290593D01*
X0152273Y0289299D01*
X0153964Y0288599D01*
X0155794Y0288599D01*
X0157485Y0289299D01*
X0158779Y0290593D01*
X0159479Y0292284D01*
X0159479Y0294114D01*
X0158779Y0295804D01*
X0157485Y0297098D01*
X0156434Y0297533D01*
X0179343Y0297533D01*
X0180143Y0293512D01*
X0182125Y0288725D01*
X0185003Y0284418D01*
X0188667Y0280755D01*
X0192974Y0277876D01*
X0197760Y0275894D01*
X0202842Y0274883D01*
X0208022Y0274883D01*
X0213103Y0275894D01*
X0217890Y0277876D01*
X0222197Y0280755D01*
X0225860Y0284418D01*
X0228739Y0288725D01*
X0230721Y0293512D01*
X0231732Y0298593D01*
X0231732Y0303773D01*
X0230721Y0308854D01*
X0228739Y0313641D01*
X0225860Y0317948D01*
X0222197Y0321612D01*
X0217890Y0324490D01*
X0213103Y0326472D01*
X0208022Y0327483D01*
X0202842Y0327483D01*
X0197760Y0326472D01*
X0192974Y0324490D01*
X0188667Y0321612D01*
X0185003Y0317948D01*
X0182125Y0313641D01*
X0180143Y0308854D01*
X0179132Y0303773D01*
X0179132Y0301133D01*
X0117536Y0301133D01*
X0111536Y0295133D01*
X0110482Y0294079D01*
X0110482Y0284079D01*
X0102536Y0276133D01*
X0090893Y0276133D01*
X0091577Y0276269D01*
X0096364Y0278252D01*
X0100671Y0281130D01*
X0104334Y0284793D01*
X0107213Y0289101D01*
X0109195Y0293887D01*
X0110206Y0298968D01*
X0110206Y0304149D01*
X0109195Y0309230D01*
X0107213Y0314016D01*
X0104334Y0318324D01*
X0100671Y0321987D01*
X0096364Y0324866D01*
X0091577Y0326848D01*
X0086496Y0327859D01*
X0081316Y0327859D01*
X0076234Y0326848D01*
X0071448Y0324866D01*
X0067141Y0321987D01*
X0063477Y0318324D01*
X0060599Y0314016D01*
X0058617Y0309230D01*
X0057606Y0304149D01*
X0057606Y0298968D01*
X0058617Y0293887D01*
X0060599Y0289101D01*
X0063477Y0284793D01*
X0067141Y0281130D01*
X0071448Y0278252D01*
X0076234Y0276269D01*
X0076919Y0276133D01*
X0045966Y0276133D01*
X0045920Y0276174D01*
X0045229Y0276133D01*
X0044536Y0276133D01*
X0044493Y0276090D01*
X0044432Y0276086D01*
X0043971Y0275569D01*
X0043482Y0275079D01*
X0043482Y0275018D01*
X0035971Y0266569D01*
X0035482Y0266079D01*
X0035482Y0266018D01*
X0035441Y0265972D01*
X0035482Y0265280D01*
X0035482Y0210588D01*
X0039482Y0206588D01*
X0040536Y0205533D01*
X0054536Y0205533D01*
X0060953Y0199116D01*
X0057288Y0201565D01*
X0052502Y0203547D01*
X0047421Y0204558D01*
X0042240Y0204558D01*
X0037159Y0203547D01*
X0032373Y0201565D01*
X0030471Y0200294D01*
X0030471Y0315846D01*
X0030550Y0315767D01*
X0030868Y0315342D01*
X0030993Y0315324D01*
X0031272Y0315045D01*
X0031290Y0314920D01*
X0031715Y0314601D01*
X0032091Y0314226D01*
X0032217Y0314226D01*
X0032533Y0313989D01*
X0032569Y0313868D01*
X0033035Y0313614D01*
X0033460Y0313295D01*
X0033585Y0313313D01*
X0033932Y0313124D01*
X0033984Y0313009D01*
X0034482Y0312823D01*
X0034948Y0312569D01*
X0035069Y0312604D01*
X0035439Y0312466D01*
X0035507Y0312360D01*
X0036026Y0312247D01*
X0036524Y0312062D01*
X0036639Y0312114D01*
X0037025Y0312030D01*
X0037107Y0311935D01*
X0037637Y0311897D01*
X0038156Y0311784D01*
X0038262Y0311852D01*
X0038656Y0311824D01*
X0038752Y0311741D01*
X0039282Y0311779D01*
X0039811Y0311741D01*
X0039907Y0311824D01*
X0040301Y0311852D01*
X0040407Y0311784D01*
X0040926Y0311897D01*
X0041456Y0311935D01*
X0041538Y0312030D01*
X0041924Y0312114D01*
X0042039Y0312062D01*
X0042537Y0312247D01*
X0043056Y0312360D01*
X0043124Y0312466D01*
X0043494Y0312604D01*
X0043615Y0312569D01*
X0044081Y0312823D01*
X0044579Y0313009D01*
X0044631Y0313124D01*
X0044978Y0313313D01*
X0045103Y0313295D01*
X0045528Y0313614D01*
X0045994Y0313868D01*
X0046030Y0313989D01*
X0046346Y0314226D01*
X0046472Y0314226D01*
X0046848Y0314601D01*
X0047273Y0314920D01*
X0047291Y0315045D01*
X0047570Y0315324D01*
X0047695Y0315342D01*
X0048013Y0315767D01*
X0048389Y0316143D01*
X0048389Y0316269D01*
X0048626Y0316585D01*
X0048747Y0316621D01*
X0049001Y0317087D01*
X0049320Y0317512D01*
X0049302Y0317637D01*
X0049491Y0317984D01*
X0049606Y0318036D01*
X0049791Y0318534D01*
X0050046Y0319000D01*
X0050010Y0319121D01*
X0050148Y0319491D01*
X0050255Y0319559D01*
X0050368Y0320078D01*
X0050553Y0320576D01*
X0050501Y0320691D01*
X0050585Y0321077D01*
X0050680Y0321159D01*
X0050718Y0321689D01*
X0050831Y0322208D01*
X0050763Y0322314D01*
X0050786Y0322646D01*
X0050832Y0322691D01*
X0050832Y0323278D01*
X0050873Y0323863D01*
X0050832Y0323911D01*
X0050832Y0332290D01*
X0121162Y0332290D01*
X0120756Y0330247D01*
X0120756Y0325067D01*
X0121767Y0319986D01*
X0123749Y0315199D01*
X0126628Y0310892D01*
X0130291Y0307229D01*
X0134598Y0304350D01*
X0139385Y0302368D01*
X0144466Y0301357D01*
X0149646Y0301357D01*
X0154728Y0302368D01*
X0159514Y0304350D01*
X0163821Y0307229D01*
X0167485Y0310892D01*
X0170363Y0315199D01*
X0172345Y0319986D01*
X0173356Y0325067D01*
X0173356Y0330247D01*
X0172950Y0332290D01*
X0242732Y0332290D01*
X0242732Y0323911D01*
X0242690Y0323863D01*
X0242732Y0323278D01*
X0242732Y0322691D01*
X0242777Y0322646D01*
X0242801Y0322314D01*
X0242732Y0322208D01*
X0242845Y0321689D01*
X0242883Y0321159D01*
X0242978Y0321077D01*
X0243062Y0320691D01*
X0243010Y0320576D01*
X0243196Y0320078D01*
X0243309Y0319559D01*
X0243415Y0319491D01*
X0243553Y0319121D01*
X0243517Y0319000D01*
X0243772Y0318534D01*
X0243957Y0318036D01*
X0244072Y0317984D01*
X0244261Y0317637D01*
X0244243Y0317512D01*
X0244562Y0317087D01*
X0244816Y0316621D01*
X0244937Y0316585D01*
X0245174Y0316269D01*
X0245174Y0316143D01*
X0245550Y0315767D01*
X0245868Y0315342D01*
X0245993Y0315324D01*
X0246272Y0315045D01*
X0246290Y0314920D01*
X0246715Y0314601D01*
X0247091Y0314226D01*
X0247217Y0314226D01*
X0247533Y0313989D01*
X0247569Y0313868D01*
X0248035Y0313614D01*
X0248460Y0313295D01*
X0248585Y0313313D01*
X0248932Y0313124D01*
X0248984Y0313009D01*
X0249482Y0312823D01*
X0249948Y0312569D01*
X0250069Y0312604D01*
X0250439Y0312466D01*
X0250507Y0312360D01*
X0251026Y0312247D01*
X0251524Y0312062D01*
X0251639Y0312114D01*
X0252025Y0312030D01*
X0252107Y0311935D01*
X0252182Y0311930D01*
X0252182Y0304203D01*
X0216412Y0268433D01*
X0215182Y0267203D01*
X0215182Y0224969D01*
X0214698Y0225453D01*
X0213779Y0225833D01*
X0212784Y0225833D01*
X0211865Y0225453D01*
X0211646Y0225233D01*
X0202495Y0225233D01*
X0201382Y0224120D01*
X0189706Y0212445D01*
X0189698Y0212453D01*
X0188779Y0212833D01*
X0187784Y0212833D01*
X0186865Y0212453D01*
X0186162Y0211749D01*
X0185782Y0210831D01*
X0185782Y0209836D01*
X0186162Y0208917D01*
X0186865Y0208214D01*
X0187784Y0207833D01*
X0188779Y0207833D01*
X0189698Y0208214D01*
X0189917Y0208433D01*
X0191069Y0208433D01*
X0204069Y0221433D01*
X0211646Y0221433D01*
X0211865Y0221214D01*
X0212784Y0220833D01*
X0213779Y0220833D01*
X0214698Y0221214D01*
X0215182Y0221698D01*
X0215182Y0154203D01*
X0211412Y0150433D01*
X0209000Y0150433D01*
X0208811Y0150622D01*
X0207819Y0151033D01*
X0206745Y0151033D01*
X0205752Y0150622D01*
X0204993Y0149863D01*
X0204582Y0148870D01*
X0204582Y0147796D01*
X0204993Y0146804D01*
X0205752Y0146044D01*
X0206745Y0145633D01*
X0207819Y0145633D01*
X0208811Y0146044D01*
X0209000Y0146233D01*
X0213151Y0146233D01*
X0214382Y0147463D01*
X0219382Y0152463D01*
X0219382Y0265463D01*
X0256382Y0302463D01*
X0256382Y0311930D01*
X0256456Y0311935D01*
X0256538Y0312030D01*
X0256924Y0312114D01*
X0257039Y0312062D01*
X0257537Y0312247D01*
X0258056Y0312360D01*
X0258124Y0312466D01*
X0258494Y0312604D01*
X0258615Y0312569D01*
X0259081Y0312823D01*
X0259579Y0313009D01*
X0259631Y0313124D01*
X0259978Y0313313D01*
X0260103Y0313295D01*
X0260528Y0313614D01*
X0260994Y0313868D01*
X0261030Y0313989D01*
X0261346Y0314226D01*
X0261472Y0314226D01*
X0261848Y0314601D01*
X0262273Y0314920D01*
X0262291Y0315045D01*
X0262570Y0315324D01*
X0262695Y0315342D01*
X0263013Y0315767D01*
X0263298Y0316051D01*
X0263298Y0273498D01*
X0261589Y0274640D01*
X0256803Y0276623D01*
X0251722Y0277633D01*
X0246541Y0277633D01*
X0241460Y0276623D01*
X0236674Y0274640D01*
X0232366Y0271762D01*
X0228703Y0268099D01*
X0225825Y0263791D01*
X0223842Y0259005D01*
X0222831Y0253924D01*
X0222831Y0248743D01*
X0223842Y0243662D01*
X0225825Y0238876D01*
X0228703Y0234568D01*
X0232366Y0230905D01*
X0236674Y0228027D01*
X0241460Y0226044D01*
X0246541Y0225033D01*
X0251722Y0225033D01*
X0256803Y0226044D01*
X0261589Y0228027D01*
X0263298Y0229168D01*
X0263298Y0209770D01*
X0262297Y0209770D01*
X0260616Y0209770D01*
X0260234Y0209668D01*
X0259892Y0209471D01*
X0259782Y0209360D01*
X0259782Y0209770D01*
X0257262Y0209770D01*
X0256744Y0209667D01*
X0256256Y0209465D01*
X0255817Y0209172D01*
X0255443Y0208798D01*
X0255150Y0208359D01*
X0254948Y0207871D01*
X0254845Y0207353D01*
X0254845Y0204833D01*
X0259313Y0204833D01*
X0259313Y0204818D01*
X0259782Y0204818D01*
X0259782Y0203849D01*
X0260782Y0203849D02*
X0262297Y0203849D01*
X0262297Y0204818D01*
X0260782Y0204818D01*
X0260782Y0203849D01*
X0260782Y0204012D02*
X0262297Y0204012D01*
X0260198Y0199019D02*
X0259782Y0199019D01*
X0256696Y0199019D02*
X0219382Y0199019D01*
X0219382Y0198021D02*
X0255948Y0198021D01*
X0255227Y0197022D02*
X0219382Y0197022D01*
X0219382Y0196024D02*
X0243636Y0196024D01*
X0242637Y0195025D02*
X0219382Y0195025D01*
X0219382Y0194027D02*
X0241639Y0194027D01*
X0240732Y0193028D02*
X0219382Y0193028D01*
X0219382Y0192030D02*
X0240732Y0192030D01*
X0240732Y0191031D02*
X0219382Y0191031D01*
X0219382Y0190033D02*
X0240732Y0190033D01*
X0240732Y0189034D02*
X0219382Y0189034D01*
X0219382Y0188036D02*
X0241218Y0188036D01*
X0242216Y0187037D02*
X0219382Y0187037D01*
X0219382Y0186039D02*
X0243215Y0186039D01*
X0246023Y0182045D02*
X0219382Y0182045D01*
X0219382Y0183043D02*
X0247021Y0183043D01*
X0248020Y0184042D02*
X0219382Y0184042D01*
X0219382Y0185040D02*
X0249018Y0185040D01*
X0249348Y0186039D02*
X0250017Y0186039D01*
X0250347Y0187037D02*
X0251016Y0187037D01*
X0251345Y0188036D02*
X0252014Y0188036D01*
X0251832Y0189034D02*
X0253013Y0189034D01*
X0254011Y0190033D02*
X0251832Y0190033D01*
X0251832Y0191031D02*
X0255010Y0191031D01*
X0257954Y0188036D02*
X0263298Y0188036D01*
X0263298Y0188096D02*
X0263298Y0102723D01*
X0262503Y0103182D01*
X0257086Y0104633D01*
X0251477Y0104633D01*
X0246060Y0103182D01*
X0241203Y0100378D01*
X0237237Y0096412D01*
X0234433Y0091555D01*
X0232982Y0086138D01*
X0232982Y0080529D01*
X0234433Y0075112D01*
X0237150Y0070406D01*
X0210589Y0070406D01*
X0210389Y0070407D01*
X0210329Y0070409D01*
X0210318Y0070420D01*
X0209883Y0070425D01*
X0209879Y0070430D01*
X0209578Y0070432D01*
X0209574Y0070436D01*
X0209365Y0070436D01*
X0208939Y0070448D01*
X0208928Y0070437D01*
X0208699Y0070440D01*
X0208485Y0070443D01*
X0208480Y0070438D01*
X0208178Y0070440D01*
X0208174Y0070436D01*
X0170003Y0070436D01*
X0169009Y0069442D01*
X0169009Y0017097D01*
X0168983Y0017036D01*
X0124785Y0017036D01*
X0124759Y0017097D01*
X0124759Y0069442D01*
X0123765Y0070436D01*
X0116042Y0070436D01*
X0116038Y0070440D01*
X0115736Y0070438D01*
X0115731Y0070443D01*
X0115288Y0070437D01*
X0115277Y0070448D01*
X0114851Y0070436D01*
X0114642Y0070436D01*
X0114638Y0070432D01*
X0114337Y0070430D01*
X0114332Y0070425D01*
X0113897Y0070420D01*
X0113887Y0070409D01*
X0113827Y0070407D01*
X0113627Y0070406D01*
X0056465Y0070406D01*
X0057172Y0071379D01*
X0058055Y0072820D01*
X0058822Y0074325D01*
X0059468Y0075886D01*
X0059782Y0076850D01*
X0059782Y0076836D01*
X0060162Y0075917D01*
X0060865Y0075214D01*
X0061784Y0074833D01*
X0062779Y0074833D01*
X0063698Y0075214D01*
X0064017Y0075533D01*
X0119536Y0075533D01*
X0128536Y0066533D01*
X0132536Y0066533D01*
X0137536Y0061533D01*
X0154546Y0061533D01*
X0154865Y0061214D01*
X0155784Y0060833D01*
X0156779Y0060833D01*
X0157698Y0061214D01*
X0158401Y0061917D01*
X0158782Y0062836D01*
X0158782Y0063831D01*
X0158401Y0064749D01*
X0157698Y0065453D01*
X0157159Y0065676D01*
X0157401Y0065917D01*
X0157782Y0066836D01*
X0157782Y0067831D01*
X0157491Y0068533D01*
X0163907Y0068533D01*
X0164162Y0067917D01*
X0164865Y0067214D01*
X0165784Y0066833D01*
X0166779Y0066833D01*
X0167698Y0067214D01*
X0168401Y0067917D01*
X0168782Y0068836D01*
X0168782Y0069831D01*
X0168491Y0070533D01*
X0180027Y0070533D01*
X0184027Y0074533D01*
X0185082Y0075588D01*
X0185082Y0083959D01*
X0185698Y0084214D01*
X0186401Y0084917D01*
X0186782Y0085836D01*
X0186782Y0086831D01*
X0186401Y0087749D01*
X0185698Y0088453D01*
X0184779Y0088833D01*
X0183784Y0088833D01*
X0183082Y0088542D01*
X0183082Y0101588D01*
X0183327Y0101833D01*
X0183779Y0101833D01*
X0184698Y0102214D01*
X0185401Y0102917D01*
X0185782Y0103836D01*
X0185782Y0104831D01*
X0185401Y0105749D01*
X0184917Y0106233D01*
X0186846Y0106233D01*
X0186865Y0106214D01*
X0187784Y0105833D01*
X0206182Y0105833D01*
X0206182Y0104769D01*
X0206162Y0104749D01*
X0205782Y0103831D01*
X0205782Y0102836D01*
X0206162Y0101917D01*
X0206865Y0101214D01*
X0207784Y0100833D01*
X0208779Y0100833D01*
X0209698Y0101214D01*
X0210401Y0101917D01*
X0210782Y0102836D01*
X0210782Y0103831D01*
X0210401Y0104749D01*
X0210382Y0104769D01*
X0210382Y0105833D01*
X0224779Y0105833D01*
X0225698Y0106214D01*
X0236736Y0117252D01*
X0236894Y0117252D01*
X0238027Y0117721D01*
X0238894Y0118588D01*
X0239363Y0119720D01*
X0239363Y0120946D01*
X0238894Y0122079D01*
X0238382Y0122591D01*
X0238382Y0168463D01*
X0258014Y0188096D01*
X0263298Y0188096D01*
X0263298Y0187037D02*
X0256955Y0187037D01*
X0255957Y0186039D02*
X0263298Y0186039D01*
X0263298Y0185040D02*
X0254958Y0185040D01*
X0253960Y0184042D02*
X0263298Y0184042D01*
X0263298Y0183043D02*
X0252961Y0183043D01*
X0251963Y0182045D02*
X0263298Y0182045D01*
X0263298Y0181046D02*
X0250964Y0181046D01*
X0249966Y0180048D02*
X0263298Y0180048D01*
X0263298Y0179049D02*
X0248967Y0179049D01*
X0247969Y0178050D02*
X0263298Y0178050D01*
X0263298Y0177052D02*
X0246970Y0177052D01*
X0245972Y0176053D02*
X0263298Y0176053D01*
X0263298Y0175055D02*
X0244973Y0175055D01*
X0243975Y0174056D02*
X0252484Y0174056D01*
X0252626Y0174129D02*
X0251896Y0173757D01*
X0251234Y0173276D01*
X0250656Y0172697D01*
X0250174Y0172035D01*
X0249803Y0171306D01*
X0249550Y0170527D01*
X0249436Y0169810D01*
X0254122Y0169810D01*
X0254122Y0174495D01*
X0253404Y0174382D01*
X0252626Y0174129D01*
X0254122Y0174056D02*
X0255122Y0174056D01*
X0255122Y0174495D02*
X0255122Y0169810D01*
X0254122Y0169810D01*
X0254122Y0168810D01*
X0249436Y0168810D01*
X0249550Y0168092D01*
X0249803Y0167313D01*
X0250174Y0166584D01*
X0250656Y0165922D01*
X0251234Y0165343D01*
X0251896Y0164862D01*
X0252626Y0164491D01*
X0253183Y0164310D01*
X0250383Y0164310D01*
X0249622Y0163548D01*
X0249622Y0155071D01*
X0250383Y0154310D01*
X0258860Y0154310D01*
X0259622Y0155071D01*
X0259622Y0163548D01*
X0258860Y0164310D01*
X0256061Y0164310D01*
X0256618Y0164491D01*
X0257347Y0164862D01*
X0258009Y0165343D01*
X0258588Y0165922D01*
X0259069Y0166584D01*
X0259441Y0167313D01*
X0259694Y0168092D01*
X0259807Y0168810D01*
X0255122Y0168810D01*
X0255122Y0169810D01*
X0259807Y0169810D01*
X0259694Y0170527D01*
X0259441Y0171306D01*
X0259069Y0172035D01*
X0258588Y0172697D01*
X0258009Y0173276D01*
X0257347Y0173757D01*
X0256618Y0174129D01*
X0255840Y0174382D01*
X0255122Y0174495D01*
X0255122Y0173058D02*
X0254122Y0173058D01*
X0254122Y0172059D02*
X0255122Y0172059D01*
X0255122Y0171061D02*
X0254122Y0171061D01*
X0254122Y0170062D02*
X0255122Y0170062D01*
X0255122Y0169064D02*
X0263298Y0169064D01*
X0263298Y0170062D02*
X0259767Y0170062D01*
X0259520Y0171061D02*
X0263298Y0171061D01*
X0263298Y0172059D02*
X0259052Y0172059D01*
X0258227Y0173058D02*
X0263298Y0173058D01*
X0263298Y0174056D02*
X0256760Y0174056D01*
X0254122Y0169064D02*
X0238982Y0169064D01*
X0238382Y0168065D02*
X0249559Y0168065D01*
X0249928Y0167067D02*
X0238382Y0167067D01*
X0238382Y0166068D02*
X0250549Y0166068D01*
X0251611Y0165070D02*
X0238382Y0165070D01*
X0238382Y0164071D02*
X0250145Y0164071D01*
X0249622Y0163073D02*
X0238382Y0163073D01*
X0238382Y0162074D02*
X0249622Y0162074D01*
X0249622Y0161076D02*
X0238382Y0161076D01*
X0238382Y0160077D02*
X0249622Y0160077D01*
X0249622Y0159079D02*
X0238382Y0159079D01*
X0238382Y0158080D02*
X0249622Y0158080D01*
X0249622Y0157082D02*
X0238382Y0157082D01*
X0238382Y0156083D02*
X0249622Y0156083D01*
X0249622Y0155085D02*
X0238382Y0155085D01*
X0238382Y0154086D02*
X0263298Y0154086D01*
X0263298Y0153088D02*
X0238382Y0153088D01*
X0238382Y0152089D02*
X0263298Y0152089D01*
X0263298Y0151091D02*
X0238382Y0151091D01*
X0238382Y0150092D02*
X0263298Y0150092D01*
X0263298Y0149094D02*
X0238382Y0149094D01*
X0238382Y0148095D02*
X0263298Y0148095D01*
X0263298Y0147097D02*
X0238382Y0147097D01*
X0238382Y0146098D02*
X0263298Y0146098D01*
X0263298Y0145100D02*
X0238382Y0145100D01*
X0238382Y0144101D02*
X0263298Y0144101D01*
X0263298Y0143103D02*
X0238382Y0143103D01*
X0238382Y0142104D02*
X0263298Y0142104D01*
X0263298Y0141106D02*
X0238382Y0141106D01*
X0238382Y0140107D02*
X0263298Y0140107D01*
X0263298Y0139109D02*
X0238382Y0139109D01*
X0238382Y0138110D02*
X0263298Y0138110D01*
X0263298Y0137112D02*
X0238382Y0137112D01*
X0238382Y0136113D02*
X0263298Y0136113D01*
X0263298Y0135114D02*
X0238382Y0135114D01*
X0238382Y0134116D02*
X0263298Y0134116D01*
X0263298Y0133117D02*
X0238382Y0133117D01*
X0238382Y0132119D02*
X0263298Y0132119D01*
X0263298Y0131120D02*
X0238382Y0131120D01*
X0238382Y0130122D02*
X0263298Y0130122D01*
X0263298Y0129123D02*
X0238382Y0129123D01*
X0238382Y0128125D02*
X0263298Y0128125D01*
X0263298Y0127126D02*
X0238382Y0127126D01*
X0238382Y0126128D02*
X0263298Y0126128D01*
X0263298Y0125129D02*
X0238382Y0125129D01*
X0238382Y0124131D02*
X0263298Y0124131D01*
X0263298Y0123132D02*
X0238382Y0123132D01*
X0238838Y0122134D02*
X0263298Y0122134D01*
X0263298Y0121135D02*
X0239284Y0121135D01*
X0239363Y0120137D02*
X0263298Y0120137D01*
X0263298Y0119138D02*
X0239122Y0119138D01*
X0238445Y0118140D02*
X0263298Y0118140D01*
X0263298Y0117141D02*
X0236625Y0117141D01*
X0235627Y0116143D02*
X0263298Y0116143D01*
X0263298Y0115144D02*
X0234628Y0115144D01*
X0233630Y0114146D02*
X0263298Y0114146D01*
X0263298Y0113147D02*
X0232631Y0113147D01*
X0231633Y0112149D02*
X0263298Y0112149D01*
X0263298Y0111150D02*
X0230634Y0111150D01*
X0229635Y0110152D02*
X0263298Y0110152D01*
X0263298Y0109153D02*
X0228637Y0109153D01*
X0227638Y0108155D02*
X0263298Y0108155D01*
X0263298Y0107156D02*
X0226640Y0107156D01*
X0225562Y0106158D02*
X0263298Y0106158D01*
X0263298Y0105159D02*
X0210382Y0105159D01*
X0210645Y0104161D02*
X0224573Y0104161D01*
X0224865Y0104453D02*
X0224162Y0103749D01*
X0223782Y0102831D01*
X0223782Y0101836D01*
X0223784Y0101831D01*
X0223779Y0101833D01*
X0222784Y0101833D01*
X0221865Y0101453D01*
X0221162Y0100749D01*
X0220782Y0099831D01*
X0220782Y0098836D01*
X0221162Y0097917D01*
X0221865Y0097214D01*
X0222784Y0096833D01*
X0223236Y0096833D01*
X0224482Y0095588D01*
X0224482Y0095542D01*
X0223779Y0095833D01*
X0222784Y0095833D01*
X0221865Y0095453D01*
X0221646Y0095233D01*
X0218917Y0095233D01*
X0218698Y0095453D01*
X0217779Y0095833D01*
X0216784Y0095833D01*
X0215865Y0095453D01*
X0215162Y0094749D01*
X0214782Y0093831D01*
X0214782Y0092836D01*
X0215162Y0091917D01*
X0215865Y0091214D01*
X0216784Y0090833D01*
X0217779Y0090833D01*
X0218698Y0091214D01*
X0218917Y0091433D01*
X0221646Y0091433D01*
X0221865Y0091214D01*
X0222784Y0090833D01*
X0223779Y0090833D01*
X0224482Y0091124D01*
X0224482Y0090069D01*
X0224162Y0089749D01*
X0223782Y0088831D01*
X0223782Y0087836D01*
X0224162Y0086917D01*
X0224865Y0086214D01*
X0225784Y0085833D01*
X0226779Y0085833D01*
X0227698Y0086214D01*
X0228401Y0086917D01*
X0228482Y0087112D01*
X0228482Y0081079D01*
X0226536Y0079133D01*
X0190017Y0079133D01*
X0189698Y0079453D01*
X0188779Y0079833D01*
X0187784Y0079833D01*
X0186865Y0079453D01*
X0186162Y0078749D01*
X0185782Y0077831D01*
X0185782Y0076836D01*
X0186162Y0075917D01*
X0186865Y0075214D01*
X0187784Y0074833D01*
X0188779Y0074833D01*
X0189698Y0075214D01*
X0190017Y0075533D01*
X0228027Y0075533D01*
X0231027Y0078533D01*
X0232082Y0079588D01*
X0232082Y0099079D01*
X0228782Y0102379D01*
X0228782Y0102831D01*
X0228401Y0103749D01*
X0227698Y0104453D01*
X0226779Y0104833D01*
X0225784Y0104833D01*
X0224865Y0104453D01*
X0223919Y0103162D02*
X0210782Y0103162D01*
X0210503Y0102164D02*
X0223782Y0102164D01*
X0221578Y0101165D02*
X0209580Y0101165D01*
X0206983Y0101165D02*
X0183082Y0101165D01*
X0183082Y0100167D02*
X0220921Y0100167D01*
X0220782Y0099168D02*
X0183082Y0099168D01*
X0183082Y0098170D02*
X0221058Y0098170D01*
X0221969Y0097171D02*
X0183082Y0097171D01*
X0183082Y0096173D02*
X0223897Y0096173D01*
X0226282Y0096333D02*
X0223282Y0099333D01*
X0226282Y0096333D02*
X0226282Y0088333D01*
X0223928Y0089183D02*
X0183082Y0089183D01*
X0183082Y0090181D02*
X0224482Y0090181D01*
X0223782Y0088184D02*
X0185966Y0088184D01*
X0186634Y0087186D02*
X0224051Y0087186D01*
X0224929Y0086187D02*
X0186782Y0086187D01*
X0186514Y0085189D02*
X0228482Y0085189D01*
X0228482Y0086187D02*
X0227634Y0086187D01*
X0228482Y0084190D02*
X0185641Y0084190D01*
X0185082Y0083192D02*
X0228482Y0083192D01*
X0228482Y0082193D02*
X0185082Y0082193D01*
X0185082Y0081195D02*
X0228482Y0081195D01*
X0227599Y0080196D02*
X0185082Y0080196D01*
X0185082Y0079198D02*
X0186611Y0079198D01*
X0185934Y0078199D02*
X0185082Y0078199D01*
X0185082Y0077201D02*
X0185782Y0077201D01*
X0186044Y0076202D02*
X0185082Y0076202D01*
X0184698Y0075204D02*
X0186890Y0075204D01*
X0188282Y0077333D02*
X0227282Y0077333D01*
X0230282Y0080333D01*
X0230282Y0098333D01*
X0226282Y0102333D01*
X0227990Y0104161D02*
X0249713Y0104161D01*
X0246026Y0103162D02*
X0228644Y0103162D01*
X0228997Y0102164D02*
X0244297Y0102164D01*
X0242567Y0101165D02*
X0229995Y0101165D01*
X0230994Y0100167D02*
X0240992Y0100167D01*
X0239994Y0099168D02*
X0231992Y0099168D01*
X0232082Y0098170D02*
X0238995Y0098170D01*
X0237997Y0097171D02*
X0232082Y0097171D01*
X0232082Y0096173D02*
X0237099Y0096173D01*
X0236523Y0095174D02*
X0232082Y0095174D01*
X0232082Y0094176D02*
X0235946Y0094176D01*
X0235370Y0093177D02*
X0232082Y0093177D01*
X0232082Y0092179D02*
X0234793Y0092179D01*
X0234333Y0091180D02*
X0232082Y0091180D01*
X0232082Y0090181D02*
X0234065Y0090181D01*
X0233798Y0089183D02*
X0232082Y0089183D01*
X0232082Y0088184D02*
X0233530Y0088184D01*
X0233263Y0087186D02*
X0232082Y0087186D01*
X0232082Y0086187D02*
X0232995Y0086187D01*
X0232982Y0085189D02*
X0232082Y0085189D01*
X0232082Y0084190D02*
X0232982Y0084190D01*
X0232982Y0083192D02*
X0232082Y0083192D01*
X0232082Y0082193D02*
X0232982Y0082193D01*
X0232982Y0081195D02*
X0232082Y0081195D01*
X0232082Y0080196D02*
X0233071Y0080196D01*
X0233338Y0079198D02*
X0231692Y0079198D01*
X0230693Y0078199D02*
X0233606Y0078199D01*
X0233873Y0077201D02*
X0229695Y0077201D01*
X0228696Y0076202D02*
X0234141Y0076202D01*
X0234409Y0075204D02*
X0189673Y0075204D01*
X0189953Y0079198D02*
X0226601Y0079198D01*
X0234957Y0074205D02*
X0183699Y0074205D01*
X0182701Y0073207D02*
X0235533Y0073207D01*
X0236110Y0072208D02*
X0181702Y0072208D01*
X0180704Y0071210D02*
X0236686Y0071210D01*
X0221947Y0091180D02*
X0218616Y0091180D01*
X0215947Y0091180D02*
X0183082Y0091180D01*
X0183082Y0092179D02*
X0215054Y0092179D01*
X0214782Y0093177D02*
X0183082Y0093177D01*
X0183082Y0094176D02*
X0214924Y0094176D01*
X0215587Y0095174D02*
X0183082Y0095174D01*
X0179482Y0095174D02*
X0173082Y0095174D01*
X0173082Y0095598D02*
X0173401Y0095917D01*
X0173782Y0096836D01*
X0173782Y0097831D01*
X0173401Y0098749D01*
X0172698Y0099453D01*
X0171779Y0099833D01*
X0170784Y0099833D01*
X0169865Y0099453D01*
X0169162Y0098749D01*
X0168782Y0097831D01*
X0168782Y0096836D01*
X0169162Y0095917D01*
X0169482Y0095598D01*
X0169482Y0080079D01*
X0169236Y0079833D01*
X0168784Y0079833D01*
X0167865Y0079453D01*
X0167282Y0078869D01*
X0166698Y0079453D01*
X0165779Y0079833D01*
X0164784Y0079833D01*
X0163865Y0079453D01*
X0163546Y0079133D01*
X0160198Y0079133D01*
X0160282Y0079336D01*
X0160282Y0080331D01*
X0159901Y0081249D01*
X0159198Y0081953D01*
X0158279Y0082333D01*
X0157827Y0082333D01*
X0157082Y0083079D01*
X0157082Y0083624D01*
X0157784Y0083333D01*
X0158779Y0083333D01*
X0159698Y0083714D01*
X0160401Y0084417D01*
X0160782Y0085336D01*
X0160782Y0085788D01*
X0164082Y0089088D01*
X0164082Y0104079D01*
X0163027Y0105133D01*
X0161827Y0106333D01*
X0166463Y0106333D01*
X0166752Y0106044D01*
X0167745Y0105633D01*
X0168819Y0105633D01*
X0169811Y0106044D01*
X0170000Y0106233D01*
X0181646Y0106233D01*
X0181162Y0105749D01*
X0180782Y0104831D01*
X0180782Y0104379D01*
X0179482Y0103079D01*
X0179482Y0078555D01*
X0179401Y0078749D01*
X0178698Y0079453D01*
X0177779Y0079833D01*
X0177582Y0079833D01*
X0177582Y0089098D01*
X0177901Y0089417D01*
X0178282Y0090336D01*
X0178282Y0091331D01*
X0177901Y0092249D01*
X0177198Y0092953D01*
X0176279Y0093333D01*
X0175284Y0093333D01*
X0174365Y0092953D01*
X0173662Y0092249D01*
X0173282Y0091331D01*
X0173282Y0090336D01*
X0173662Y0089417D01*
X0173982Y0089098D01*
X0173982Y0078088D01*
X0174782Y0077288D01*
X0174782Y0076836D01*
X0175073Y0076133D01*
X0171491Y0076133D01*
X0171782Y0076836D01*
X0171782Y0077288D01*
X0173082Y0078588D01*
X0173082Y0095598D01*
X0173507Y0096173D02*
X0179482Y0096173D01*
X0179482Y0097171D02*
X0173782Y0097171D01*
X0173641Y0098170D02*
X0179482Y0098170D01*
X0179482Y0099168D02*
X0172982Y0099168D01*
X0171282Y0097333D02*
X0171282Y0079333D01*
X0169282Y0077333D01*
X0171782Y0077201D02*
X0174782Y0077201D01*
X0175044Y0076202D02*
X0171519Y0076202D01*
X0172693Y0078199D02*
X0173982Y0078199D01*
X0173982Y0079198D02*
X0173082Y0079198D01*
X0173082Y0080196D02*
X0173982Y0080196D01*
X0173982Y0081195D02*
X0173082Y0081195D01*
X0173082Y0082193D02*
X0173982Y0082193D01*
X0173982Y0083192D02*
X0173082Y0083192D01*
X0173082Y0084190D02*
X0173982Y0084190D01*
X0173982Y0085189D02*
X0173082Y0085189D01*
X0173082Y0086187D02*
X0173982Y0086187D01*
X0173982Y0087186D02*
X0173082Y0087186D01*
X0173082Y0088184D02*
X0173982Y0088184D01*
X0173896Y0089183D02*
X0173082Y0089183D01*
X0173082Y0090181D02*
X0173346Y0090181D01*
X0173282Y0091180D02*
X0173082Y0091180D01*
X0173082Y0092179D02*
X0173633Y0092179D01*
X0173082Y0093177D02*
X0174907Y0093177D01*
X0176656Y0093177D02*
X0179482Y0093177D01*
X0179482Y0092179D02*
X0177930Y0092179D01*
X0178282Y0091180D02*
X0179482Y0091180D01*
X0179482Y0090181D02*
X0178218Y0090181D01*
X0177667Y0089183D02*
X0179482Y0089183D01*
X0179482Y0088184D02*
X0177582Y0088184D01*
X0177582Y0087186D02*
X0179482Y0087186D01*
X0179482Y0086187D02*
X0177582Y0086187D01*
X0177582Y0085189D02*
X0179482Y0085189D01*
X0179482Y0084190D02*
X0177582Y0084190D01*
X0177582Y0083192D02*
X0179482Y0083192D01*
X0179482Y0082193D02*
X0177582Y0082193D01*
X0177582Y0081195D02*
X0179482Y0081195D01*
X0179482Y0080196D02*
X0177582Y0080196D01*
X0178953Y0079198D02*
X0179482Y0079198D01*
X0181282Y0077333D02*
X0178282Y0074333D01*
X0132282Y0074333D01*
X0128282Y0078333D01*
X0128282Y0083333D01*
X0129282Y0084333D01*
X0132782Y0084333D01*
X0132282Y0087333D02*
X0125282Y0094333D01*
X0122282Y0094333D01*
X0112282Y0104333D01*
X0112282Y0108333D01*
X0097282Y0123333D01*
X0057282Y0123333D01*
X0055282Y0125333D01*
X0055282Y0127333D01*
X0057027Y0129123D02*
X0081797Y0129123D01*
X0081797Y0128849D02*
X0077093Y0128849D01*
X0077210Y0128116D01*
X0077463Y0127337D01*
X0077834Y0126608D01*
X0078315Y0125946D01*
X0078894Y0125367D01*
X0079216Y0125133D01*
X0058027Y0125133D01*
X0057322Y0125838D01*
X0057401Y0125917D01*
X0057782Y0126836D01*
X0057782Y0127831D01*
X0057401Y0128749D01*
X0056698Y0129453D01*
X0055779Y0129833D01*
X0054784Y0129833D01*
X0053865Y0129453D01*
X0053624Y0129211D01*
X0053401Y0129749D01*
X0052698Y0130453D01*
X0051779Y0130833D01*
X0050784Y0130833D01*
X0049865Y0130453D01*
X0049162Y0129749D01*
X0048782Y0128831D01*
X0048782Y0127836D01*
X0049162Y0126917D01*
X0049482Y0126598D01*
X0049482Y0125542D01*
X0048779Y0125833D01*
X0047784Y0125833D01*
X0046865Y0125453D01*
X0046546Y0125133D01*
X0038519Y0125133D01*
X0038519Y0126583D01*
X0038141Y0127495D01*
X0037443Y0128193D01*
X0036531Y0128570D01*
X0030471Y0128570D01*
X0030471Y0129096D01*
X0036531Y0129096D01*
X0037443Y0129474D01*
X0038141Y0130172D01*
X0038519Y0131084D01*
X0038519Y0132533D01*
X0075027Y0132533D01*
X0076027Y0133533D01*
X0079216Y0133533D01*
X0078894Y0133300D01*
X0078315Y0132721D01*
X0077834Y0132059D01*
X0077463Y0131329D01*
X0077210Y0130551D01*
X0077093Y0129818D01*
X0081797Y0129818D01*
X0081797Y0128849D01*
X0082766Y0128849D02*
X0082766Y0129818D01*
X0087470Y0129818D01*
X0087354Y0130551D01*
X0087101Y0131329D01*
X0086729Y0132059D01*
X0086248Y0132721D01*
X0085669Y0133300D01*
X0085348Y0133533D01*
X0099411Y0133533D01*
X0098043Y0132166D01*
X0097282Y0130328D01*
X0097282Y0128339D01*
X0098043Y0126501D01*
X0099449Y0125095D01*
X0101287Y0124333D01*
X0103276Y0124333D01*
X0105114Y0125095D01*
X0106520Y0126501D01*
X0106948Y0127533D01*
X0112027Y0127533D01*
X0113427Y0128933D01*
X0113759Y0128933D01*
X0114641Y0129299D01*
X0115316Y0129974D01*
X0115682Y0130856D01*
X0115682Y0131811D01*
X0115316Y0132693D01*
X0114641Y0133368D01*
X0113759Y0133733D01*
X0112804Y0133733D01*
X0111922Y0133368D01*
X0111247Y0132693D01*
X0110882Y0131811D01*
X0110882Y0131479D01*
X0110536Y0131133D01*
X0106948Y0131133D01*
X0106520Y0132166D01*
X0105153Y0133533D01*
X0111027Y0133533D01*
X0112082Y0134588D01*
X0113327Y0135833D01*
X0113779Y0135833D01*
X0114698Y0136214D01*
X0115401Y0136917D01*
X0115782Y0137836D01*
X0115782Y0138831D01*
X0115401Y0139749D01*
X0114817Y0140333D01*
X0115401Y0140917D01*
X0115782Y0141836D01*
X0115782Y0142288D01*
X0116482Y0141588D01*
X0117536Y0140533D01*
X0118060Y0140533D01*
X0117865Y0140453D01*
X0117162Y0139749D01*
X0116782Y0138831D01*
X0116782Y0137836D01*
X0117162Y0136917D01*
X0117865Y0136214D01*
X0118784Y0135833D01*
X0119779Y0135833D01*
X0120698Y0136214D01*
X0121401Y0136917D01*
X0121656Y0137533D01*
X0124536Y0137533D01*
X0127482Y0134588D01*
X0127482Y0134542D01*
X0126779Y0134833D01*
X0125784Y0134833D01*
X0124865Y0134453D01*
X0124624Y0134211D01*
X0124401Y0134749D01*
X0123698Y0135453D01*
X0122779Y0135833D01*
X0121784Y0135833D01*
X0120865Y0135453D01*
X0120162Y0134749D01*
X0119782Y0133831D01*
X0119782Y0132836D01*
X0120162Y0131917D01*
X0120482Y0131598D01*
X0120482Y0123588D01*
X0123482Y0120588D01*
X0123482Y0120220D01*
X0121756Y0121946D01*
X0118889Y0123133D01*
X0115786Y0123133D01*
X0112919Y0121946D01*
X0110725Y0119752D01*
X0109538Y0116885D01*
X0109538Y0113782D01*
X0109650Y0113510D01*
X0098027Y0125133D01*
X0085348Y0125133D01*
X0085669Y0125367D01*
X0086248Y0125946D01*
X0086729Y0126608D01*
X0087101Y0127337D01*
X0087354Y0128116D01*
X0087470Y0128849D01*
X0082766Y0128849D01*
X0082766Y0129123D02*
X0097282Y0129123D01*
X0097282Y0130122D02*
X0087422Y0130122D01*
X0087169Y0131120D02*
X0097610Y0131120D01*
X0098023Y0132119D02*
X0086685Y0132119D01*
X0085851Y0133117D02*
X0098995Y0133117D01*
X0102282Y0129333D02*
X0111282Y0129333D01*
X0113282Y0131333D01*
X0114218Y0129123D02*
X0120482Y0129123D01*
X0120482Y0128125D02*
X0112619Y0128125D01*
X0115378Y0130122D02*
X0120482Y0130122D01*
X0120482Y0131120D02*
X0115682Y0131120D01*
X0115554Y0132119D02*
X0120079Y0132119D01*
X0119782Y0133117D02*
X0114892Y0133117D01*
X0114454Y0136113D02*
X0118109Y0136113D01*
X0117082Y0137112D02*
X0115481Y0137112D01*
X0115782Y0138110D02*
X0116782Y0138110D01*
X0116897Y0139109D02*
X0115666Y0139109D01*
X0115043Y0140107D02*
X0117520Y0140107D01*
X0116964Y0141106D02*
X0115479Y0141106D01*
X0115782Y0142104D02*
X0115965Y0142104D01*
X0118282Y0142333D02*
X0124282Y0142333D01*
X0125282Y0143333D01*
X0148282Y0143333D01*
X0153282Y0138333D01*
X0153282Y0118333D01*
X0155082Y0120069D02*
X0155082Y0121124D01*
X0155784Y0120833D01*
X0156779Y0120833D01*
X0157698Y0121214D01*
X0158017Y0121533D01*
X0171546Y0121533D01*
X0171865Y0121214D01*
X0172784Y0120833D01*
X0173779Y0120833D01*
X0174698Y0121214D01*
X0175401Y0121917D01*
X0175782Y0122836D01*
X0175782Y0123831D01*
X0175401Y0124749D01*
X0174698Y0125453D01*
X0173779Y0125833D01*
X0172784Y0125833D01*
X0171865Y0125453D01*
X0171546Y0125133D01*
X0158017Y0125133D01*
X0157698Y0125453D01*
X0156779Y0125833D01*
X0155784Y0125833D01*
X0155082Y0125542D01*
X0155082Y0139079D01*
X0154027Y0140133D01*
X0150627Y0143533D01*
X0157546Y0143533D01*
X0157865Y0143214D01*
X0158784Y0142833D01*
X0159779Y0142833D01*
X0160698Y0143214D01*
X0161401Y0143917D01*
X0161782Y0144836D01*
X0161782Y0145831D01*
X0161780Y0145835D01*
X0161784Y0145833D01*
X0162779Y0145833D01*
X0163698Y0146214D01*
X0164401Y0146917D01*
X0164782Y0147836D01*
X0164782Y0148831D01*
X0164401Y0149749D01*
X0163698Y0150453D01*
X0162779Y0150833D01*
X0161784Y0150833D01*
X0160865Y0150453D01*
X0160546Y0150133D01*
X0118536Y0150133D01*
X0118236Y0149833D01*
X0117784Y0149833D01*
X0116865Y0149453D01*
X0116162Y0148749D01*
X0115782Y0147831D01*
X0115782Y0147379D01*
X0115082Y0148079D01*
X0114027Y0149133D01*
X0085092Y0149133D01*
X0082829Y0146870D01*
X0082193Y0147133D01*
X0080482Y0147133D01*
X0078902Y0146479D01*
X0077692Y0145269D01*
X0077038Y0143689D01*
X0077038Y0141978D01*
X0077692Y0140398D01*
X0078902Y0139188D01*
X0079034Y0139133D01*
X0076027Y0139133D01*
X0069082Y0146079D01*
X0068027Y0147133D01*
X0044491Y0147133D01*
X0044782Y0147836D01*
X0044782Y0148288D01*
X0046027Y0149533D01*
X0070027Y0149533D01*
X0074082Y0153588D01*
X0074082Y0191079D01*
X0073027Y0192133D01*
X0056027Y0209133D01*
X0042027Y0209133D01*
X0039082Y0212079D01*
X0039082Y0260356D01*
X0039411Y0260027D01*
X0040844Y0259433D01*
X0042396Y0259433D01*
X0043829Y0260027D01*
X0044926Y0261124D01*
X0045520Y0262558D01*
X0045520Y0264109D01*
X0045475Y0264218D01*
X0046990Y0265733D01*
X0047166Y0265733D01*
X0046975Y0265542D01*
X0046382Y0264109D01*
X0046382Y0262558D01*
X0046975Y0261124D01*
X0048072Y0260027D01*
X0049506Y0259433D01*
X0051057Y0259433D01*
X0052491Y0260027D01*
X0053588Y0261124D01*
X0054182Y0262558D01*
X0054182Y0264109D01*
X0053588Y0265542D01*
X0053397Y0265733D01*
X0085995Y0265733D01*
X0080382Y0260120D01*
X0080382Y0238769D01*
X0079698Y0239453D01*
X0078779Y0239833D01*
X0077784Y0239833D01*
X0076865Y0239453D01*
X0076162Y0238749D01*
X0075782Y0237831D01*
X0075782Y0237520D01*
X0074825Y0236564D01*
X0074248Y0236564D01*
X0074028Y0236783D01*
X0073110Y0237164D01*
X0072115Y0237164D01*
X0071196Y0236783D01*
X0070493Y0236080D01*
X0070112Y0235161D01*
X0070112Y0234167D01*
X0070493Y0233248D01*
X0071196Y0232545D01*
X0072115Y0232164D01*
X0073110Y0232164D01*
X0074028Y0232545D01*
X0074248Y0232764D01*
X0076399Y0232764D01*
X0078469Y0234833D01*
X0078779Y0234833D01*
X0079698Y0235214D01*
X0080382Y0235898D01*
X0080382Y0155969D01*
X0080162Y0155749D01*
X0079782Y0154831D01*
X0079782Y0153836D01*
X0080162Y0152917D01*
X0080865Y0152214D01*
X0081784Y0151833D01*
X0082779Y0151833D01*
X0083698Y0152214D01*
X0084401Y0152917D01*
X0084782Y0153836D01*
X0084782Y0154831D01*
X0084401Y0155749D01*
X0084182Y0155969D01*
X0084182Y0162746D01*
X0089495Y0157433D01*
X0104782Y0157433D01*
X0104782Y0157336D01*
X0105162Y0156417D01*
X0105865Y0155714D01*
X0106784Y0155333D01*
X0107779Y0155333D01*
X0108698Y0155714D01*
X0109401Y0156417D01*
X0109782Y0157336D01*
X0109782Y0158331D01*
X0109401Y0159249D01*
X0109217Y0159433D01*
X0110031Y0159433D01*
X0109782Y0158831D01*
X0109782Y0157836D01*
X0110162Y0156917D01*
X0110482Y0156598D01*
X0110482Y0155588D01*
X0114536Y0151533D01*
X0118546Y0151533D01*
X0118865Y0151214D01*
X0119784Y0150833D01*
X0120779Y0150833D01*
X0121698Y0151214D01*
X0122401Y0151917D01*
X0122782Y0152836D01*
X0122782Y0153831D01*
X0122401Y0154749D01*
X0121698Y0155453D01*
X0120779Y0155833D01*
X0119784Y0155833D01*
X0118865Y0155453D01*
X0118546Y0155133D01*
X0116027Y0155133D01*
X0114322Y0156838D01*
X0114401Y0156917D01*
X0114782Y0157836D01*
X0114782Y0158831D01*
X0114532Y0159433D01*
X0134495Y0159433D01*
X0139782Y0154146D01*
X0139782Y0153836D01*
X0140162Y0152917D01*
X0140865Y0152214D01*
X0141784Y0151833D01*
X0142779Y0151833D01*
X0143698Y0152214D01*
X0144401Y0152917D01*
X0144580Y0153348D01*
X0145495Y0152433D01*
X0170646Y0152433D01*
X0170865Y0152214D01*
X0171784Y0151833D01*
X0172779Y0151833D01*
X0173698Y0152214D01*
X0173982Y0152498D01*
X0173982Y0147579D01*
X0173536Y0147133D01*
X0172482Y0146079D01*
X0172482Y0145069D01*
X0172162Y0144749D01*
X0171782Y0143831D01*
X0171782Y0142836D01*
X0172162Y0141917D01*
X0172865Y0141214D01*
X0173784Y0140833D01*
X0174779Y0140833D01*
X0175698Y0141214D01*
X0176182Y0141698D01*
X0176182Y0114463D01*
X0180212Y0110433D01*
X0170000Y0110433D01*
X0169811Y0110622D01*
X0168819Y0111033D01*
X0167745Y0111033D01*
X0166752Y0110622D01*
X0166463Y0110333D01*
X0154110Y0110333D01*
X0150282Y0114162D01*
X0150282Y0121162D01*
X0149110Y0122333D01*
X0145110Y0126333D01*
X0137100Y0126333D01*
X0136811Y0126622D01*
X0135819Y0127033D01*
X0134745Y0127033D01*
X0133752Y0126622D01*
X0132993Y0125863D01*
X0132582Y0124870D01*
X0132582Y0123796D01*
X0132993Y0122804D01*
X0133752Y0122044D01*
X0134745Y0121633D01*
X0135819Y0121633D01*
X0136811Y0122044D01*
X0137100Y0122333D01*
X0140391Y0122333D01*
X0140747Y0121474D01*
X0141422Y0120799D01*
X0142304Y0120433D01*
X0143259Y0120433D01*
X0144141Y0120799D01*
X0144564Y0121222D01*
X0146282Y0119505D01*
X0146282Y0114879D01*
X0146082Y0115079D01*
X0145027Y0116133D01*
X0134027Y0116133D01*
X0131082Y0119079D01*
X0131082Y0136079D01*
X0127082Y0140079D01*
X0126027Y0141133D01*
X0125627Y0141133D01*
X0126027Y0141533D01*
X0147536Y0141533D01*
X0151482Y0137588D01*
X0151482Y0120069D01*
X0151162Y0119749D01*
X0150782Y0118831D01*
X0150782Y0117836D01*
X0151162Y0116917D01*
X0151865Y0116214D01*
X0152784Y0115833D01*
X0153779Y0115833D01*
X0154698Y0116214D01*
X0155401Y0116917D01*
X0155782Y0117836D01*
X0155782Y0118831D01*
X0155401Y0119749D01*
X0155082Y0120069D01*
X0155082Y0120137D02*
X0176182Y0120137D01*
X0176182Y0121135D02*
X0174508Y0121135D01*
X0175491Y0122134D02*
X0176182Y0122134D01*
X0176182Y0123132D02*
X0175782Y0123132D01*
X0175657Y0124131D02*
X0176182Y0124131D01*
X0176182Y0125129D02*
X0175021Y0125129D01*
X0176182Y0126128D02*
X0155082Y0126128D01*
X0155082Y0127126D02*
X0176182Y0127126D01*
X0176182Y0128125D02*
X0155082Y0128125D01*
X0155082Y0129123D02*
X0176182Y0129123D01*
X0176182Y0130122D02*
X0155082Y0130122D01*
X0155082Y0131120D02*
X0176182Y0131120D01*
X0176182Y0132119D02*
X0155082Y0132119D01*
X0155082Y0133117D02*
X0176182Y0133117D01*
X0176182Y0134116D02*
X0155082Y0134116D01*
X0155082Y0135114D02*
X0176182Y0135114D01*
X0176182Y0136113D02*
X0155082Y0136113D01*
X0155082Y0137112D02*
X0176182Y0137112D01*
X0176182Y0138110D02*
X0155082Y0138110D01*
X0155052Y0139109D02*
X0176182Y0139109D01*
X0176182Y0140107D02*
X0154053Y0140107D01*
X0153055Y0141106D02*
X0173127Y0141106D01*
X0172085Y0142104D02*
X0152056Y0142104D01*
X0151058Y0143103D02*
X0158134Y0143103D01*
X0160429Y0143103D02*
X0171782Y0143103D01*
X0171894Y0144101D02*
X0161477Y0144101D01*
X0161782Y0145100D02*
X0172482Y0145100D01*
X0172501Y0146098D02*
X0163418Y0146098D01*
X0164475Y0147097D02*
X0173499Y0147097D01*
X0173982Y0148095D02*
X0164782Y0148095D01*
X0164673Y0149094D02*
X0173982Y0149094D01*
X0173982Y0150092D02*
X0164058Y0150092D01*
X0162282Y0148333D02*
X0119282Y0148333D01*
X0118282Y0147333D01*
X0116506Y0149094D02*
X0114067Y0149094D01*
X0115065Y0148095D02*
X0115891Y0148095D01*
X0113282Y0147333D02*
X0118282Y0142333D01*
X0120282Y0139333D02*
X0125282Y0139333D01*
X0129282Y0135333D01*
X0129282Y0118333D01*
X0133282Y0114333D01*
X0144282Y0114333D01*
X0152282Y0106333D01*
X0159282Y0106333D01*
X0162282Y0103333D01*
X0162282Y0089833D01*
X0158282Y0085833D01*
X0158236Y0088333D02*
X0157784Y0088333D01*
X0157782Y0088332D01*
X0157782Y0088831D01*
X0157401Y0089749D01*
X0156698Y0090453D01*
X0155779Y0090833D01*
X0154784Y0090833D01*
X0153865Y0090453D01*
X0153162Y0089749D01*
X0152782Y0088831D01*
X0152782Y0087836D01*
X0153162Y0086917D01*
X0153482Y0086598D01*
X0153482Y0082679D01*
X0151782Y0084379D01*
X0151782Y0084831D01*
X0151401Y0085749D01*
X0150698Y0086453D01*
X0149779Y0086833D01*
X0148784Y0086833D01*
X0147865Y0086453D01*
X0147162Y0085749D01*
X0146782Y0084831D01*
X0146782Y0083836D01*
X0147162Y0082917D01*
X0147865Y0082214D01*
X0148784Y0081833D01*
X0149236Y0081833D01*
X0154482Y0076588D01*
X0154936Y0076133D01*
X0138589Y0076133D01*
X0138682Y0076356D01*
X0138682Y0077311D01*
X0138316Y0078193D01*
X0137641Y0078868D01*
X0136759Y0079233D01*
X0135804Y0079233D01*
X0134922Y0078868D01*
X0134687Y0078633D01*
X0134527Y0078633D01*
X0134227Y0078933D01*
X0134259Y0078933D01*
X0135141Y0079299D01*
X0135376Y0079533D01*
X0140015Y0079533D01*
X0140247Y0078974D01*
X0140922Y0078299D01*
X0141804Y0077933D01*
X0142759Y0077933D01*
X0143641Y0078299D01*
X0144316Y0078974D01*
X0144682Y0079856D01*
X0144682Y0080811D01*
X0144541Y0081149D01*
X0144698Y0081214D01*
X0145401Y0081917D01*
X0145782Y0082836D01*
X0145782Y0083831D01*
X0145401Y0084749D01*
X0144698Y0085453D01*
X0143779Y0085833D01*
X0142784Y0085833D01*
X0141865Y0085453D01*
X0141546Y0085133D01*
X0139503Y0085133D01*
X0139698Y0085214D01*
X0140401Y0085917D01*
X0140782Y0086836D01*
X0140782Y0087831D01*
X0140401Y0088749D01*
X0139698Y0089453D01*
X0138779Y0089833D01*
X0138327Y0089833D01*
X0137027Y0091133D01*
X0136491Y0091133D01*
X0136782Y0091836D01*
X0136782Y0092831D01*
X0136401Y0093749D01*
X0135698Y0094453D01*
X0134779Y0094833D01*
X0134327Y0094833D01*
X0129082Y0100079D01*
X0129082Y0115988D01*
X0131482Y0113588D01*
X0132536Y0112533D01*
X0143536Y0112533D01*
X0150482Y0105588D01*
X0151536Y0104533D01*
X0158536Y0104533D01*
X0160482Y0102588D01*
X0160482Y0090579D01*
X0158236Y0088333D01*
X0157636Y0089183D02*
X0159086Y0089183D01*
X0160084Y0090181D02*
X0156969Y0090181D01*
X0155282Y0088333D02*
X0155282Y0082333D01*
X0157782Y0079833D01*
X0158617Y0082193D02*
X0169482Y0082193D01*
X0169482Y0081195D02*
X0159924Y0081195D01*
X0160282Y0080196D02*
X0169482Y0080196D01*
X0167611Y0079198D02*
X0166953Y0079198D01*
X0165282Y0077333D02*
X0156282Y0077333D01*
X0149282Y0084333D01*
X0151633Y0085189D02*
X0153482Y0085189D01*
X0153482Y0086187D02*
X0150963Y0086187D01*
X0151970Y0084190D02*
X0153482Y0084190D01*
X0153482Y0083192D02*
X0152969Y0083192D01*
X0150873Y0080196D02*
X0144682Y0080196D01*
X0144652Y0081195D02*
X0149874Y0081195D01*
X0147915Y0082193D02*
X0145515Y0082193D01*
X0145782Y0083192D02*
X0147048Y0083192D01*
X0146782Y0084190D02*
X0145633Y0084190D01*
X0144962Y0085189D02*
X0146930Y0085189D01*
X0147600Y0086187D02*
X0140513Y0086187D01*
X0140782Y0087186D02*
X0153051Y0087186D01*
X0152782Y0088184D02*
X0140635Y0088184D01*
X0139967Y0089183D02*
X0152928Y0089183D01*
X0153594Y0090181D02*
X0137979Y0090181D01*
X0136510Y0091180D02*
X0160482Y0091180D01*
X0160482Y0092179D02*
X0136782Y0092179D01*
X0136638Y0093177D02*
X0160482Y0093177D01*
X0160482Y0094176D02*
X0135975Y0094176D01*
X0133986Y0095174D02*
X0160482Y0095174D01*
X0160482Y0096173D02*
X0132988Y0096173D01*
X0131989Y0097171D02*
X0160482Y0097171D01*
X0160482Y0098170D02*
X0130991Y0098170D01*
X0129992Y0099168D02*
X0160482Y0099168D01*
X0160482Y0100167D02*
X0129082Y0100167D01*
X0129082Y0101165D02*
X0160482Y0101165D01*
X0160482Y0102164D02*
X0129082Y0102164D01*
X0129082Y0103162D02*
X0159907Y0103162D01*
X0158909Y0104161D02*
X0129082Y0104161D01*
X0129082Y0105159D02*
X0150910Y0105159D01*
X0149912Y0106158D02*
X0129082Y0106158D01*
X0129082Y0107156D02*
X0148913Y0107156D01*
X0147915Y0108155D02*
X0129082Y0108155D01*
X0129082Y0109153D02*
X0146916Y0109153D01*
X0145918Y0110152D02*
X0129082Y0110152D01*
X0129082Y0111150D02*
X0144919Y0111150D01*
X0143921Y0112149D02*
X0129082Y0112149D01*
X0129082Y0113147D02*
X0131922Y0113147D01*
X0131482Y0113588D02*
X0131482Y0113588D01*
X0130924Y0114146D02*
X0129082Y0114146D01*
X0129082Y0115144D02*
X0129925Y0115144D01*
X0132021Y0118140D02*
X0146282Y0118140D01*
X0146282Y0119138D02*
X0131082Y0119138D01*
X0131082Y0120137D02*
X0145650Y0120137D01*
X0144651Y0121135D02*
X0144478Y0121135D01*
X0142782Y0122833D02*
X0141282Y0124333D01*
X0140474Y0122134D02*
X0136900Y0122134D01*
X0133663Y0122134D02*
X0131082Y0122134D01*
X0131082Y0123132D02*
X0132857Y0123132D01*
X0132582Y0124131D02*
X0131082Y0124131D01*
X0131082Y0125129D02*
X0132689Y0125129D01*
X0133258Y0126128D02*
X0131082Y0126128D01*
X0131082Y0127126D02*
X0151482Y0127126D01*
X0151482Y0126128D02*
X0145315Y0126128D01*
X0146314Y0125129D02*
X0151482Y0125129D01*
X0151482Y0124131D02*
X0147312Y0124131D01*
X0148311Y0123132D02*
X0151482Y0123132D01*
X0151482Y0122134D02*
X0149309Y0122134D01*
X0150282Y0121135D02*
X0151482Y0121135D01*
X0151482Y0120137D02*
X0150282Y0120137D01*
X0150282Y0119138D02*
X0150909Y0119138D01*
X0150782Y0118140D02*
X0150282Y0118140D01*
X0150282Y0117141D02*
X0151069Y0117141D01*
X0150282Y0116143D02*
X0152037Y0116143D01*
X0150282Y0115144D02*
X0176182Y0115144D01*
X0176182Y0116143D02*
X0154526Y0116143D01*
X0155494Y0117141D02*
X0176182Y0117141D01*
X0176182Y0118140D02*
X0155782Y0118140D01*
X0155654Y0119138D02*
X0176182Y0119138D01*
X0172055Y0121135D02*
X0157508Y0121135D01*
X0156282Y0123333D02*
X0173282Y0123333D01*
X0180382Y0123132D02*
X0187482Y0123132D01*
X0187482Y0122134D02*
X0180382Y0122134D01*
X0180382Y0121135D02*
X0187482Y0121135D01*
X0187482Y0120137D02*
X0180382Y0120137D01*
X0180382Y0119138D02*
X0187482Y0119138D01*
X0187482Y0118140D02*
X0180382Y0118140D01*
X0180382Y0117141D02*
X0187482Y0117141D01*
X0187482Y0116143D02*
X0180442Y0116143D01*
X0181440Y0115144D02*
X0187482Y0115144D01*
X0187924Y0114146D02*
X0182439Y0114146D01*
X0183438Y0113147D02*
X0188922Y0113147D01*
X0189921Y0112149D02*
X0184436Y0112149D01*
X0185435Y0111150D02*
X0190919Y0111150D01*
X0193282Y0111333D02*
X0189282Y0115333D01*
X0189282Y0136333D01*
X0191040Y0138110D02*
X0200116Y0138110D01*
X0201482Y0137112D02*
X0191665Y0137112D01*
X0191782Y0136113D02*
X0201482Y0136113D01*
X0201482Y0135114D02*
X0191483Y0135114D01*
X0191082Y0134116D02*
X0201482Y0134116D01*
X0200900Y0133117D02*
X0191082Y0133117D01*
X0191082Y0132119D02*
X0200782Y0132119D01*
X0201078Y0131120D02*
X0191082Y0131120D01*
X0191082Y0130122D02*
X0202088Y0130122D01*
X0204476Y0130122D02*
X0234182Y0130122D01*
X0234182Y0131120D02*
X0205485Y0131120D01*
X0205782Y0132119D02*
X0234182Y0132119D01*
X0234182Y0133117D02*
X0205663Y0133117D01*
X0205082Y0134116D02*
X0234182Y0134116D01*
X0234182Y0135114D02*
X0205082Y0135114D01*
X0205082Y0136113D02*
X0234182Y0136113D01*
X0234182Y0137112D02*
X0205082Y0137112D01*
X0205604Y0138110D02*
X0234182Y0138110D01*
X0234182Y0139109D02*
X0226027Y0139109D01*
X0227025Y0140107D02*
X0234182Y0140107D01*
X0234182Y0141106D02*
X0228024Y0141106D01*
X0229022Y0142104D02*
X0234182Y0142104D01*
X0234182Y0143103D02*
X0230021Y0143103D01*
X0231019Y0144101D02*
X0234182Y0144101D01*
X0234182Y0145100D02*
X0232018Y0145100D01*
X0232382Y0146098D02*
X0234182Y0146098D01*
X0234182Y0147097D02*
X0232382Y0147097D01*
X0232382Y0148095D02*
X0234182Y0148095D01*
X0234182Y0149094D02*
X0232382Y0149094D01*
X0232382Y0150092D02*
X0234182Y0150092D01*
X0234182Y0151091D02*
X0232382Y0151091D01*
X0232382Y0152089D02*
X0234182Y0152089D01*
X0234182Y0153088D02*
X0232382Y0153088D01*
X0232382Y0154086D02*
X0234182Y0154086D01*
X0234182Y0155085D02*
X0232382Y0155085D01*
X0232382Y0156083D02*
X0234182Y0156083D01*
X0234182Y0157082D02*
X0232382Y0157082D01*
X0232382Y0158080D02*
X0234182Y0158080D01*
X0234182Y0159079D02*
X0232382Y0159079D01*
X0232382Y0160077D02*
X0234182Y0160077D01*
X0234182Y0161076D02*
X0232382Y0161076D01*
X0232382Y0162074D02*
X0234182Y0162074D01*
X0234182Y0163073D02*
X0232382Y0163073D01*
X0232382Y0164071D02*
X0234182Y0164071D01*
X0234182Y0165070D02*
X0232382Y0165070D01*
X0232680Y0166068D02*
X0234182Y0166068D01*
X0234182Y0167067D02*
X0232982Y0167067D01*
X0232901Y0168065D02*
X0234182Y0168065D01*
X0234182Y0169064D02*
X0232369Y0169064D01*
X0234182Y0170062D02*
X0219382Y0170062D01*
X0219382Y0169064D02*
X0228194Y0169064D01*
X0227662Y0168065D02*
X0219382Y0168065D01*
X0219382Y0167067D02*
X0227582Y0167067D01*
X0227883Y0166068D02*
X0219382Y0166068D01*
X0219382Y0165070D02*
X0228182Y0165070D01*
X0228182Y0164071D02*
X0219382Y0164071D01*
X0219382Y0163073D02*
X0228182Y0163073D01*
X0228182Y0162074D02*
X0219382Y0162074D01*
X0219382Y0161076D02*
X0228182Y0161076D01*
X0228182Y0160077D02*
X0219382Y0160077D01*
X0219382Y0159079D02*
X0228182Y0159079D01*
X0228182Y0158080D02*
X0219382Y0158080D01*
X0219382Y0157082D02*
X0228182Y0157082D01*
X0228182Y0156083D02*
X0219382Y0156083D01*
X0219382Y0155085D02*
X0228182Y0155085D01*
X0228182Y0154086D02*
X0219382Y0154086D01*
X0219382Y0153088D02*
X0228182Y0153088D01*
X0228182Y0152089D02*
X0219007Y0152089D01*
X0218009Y0151091D02*
X0228182Y0151091D01*
X0228182Y0150092D02*
X0217010Y0150092D01*
X0216012Y0149094D02*
X0228182Y0149094D01*
X0228182Y0148095D02*
X0215013Y0148095D01*
X0214015Y0147097D02*
X0228075Y0147097D01*
X0227077Y0146098D02*
X0208865Y0146098D01*
X0205698Y0146098D02*
X0185082Y0146098D01*
X0185082Y0145100D02*
X0226078Y0145100D01*
X0225080Y0144101D02*
X0185201Y0144101D01*
X0186199Y0143103D02*
X0224081Y0143103D01*
X0212282Y0140333D02*
X0205282Y0140333D01*
X0203282Y0138333D01*
X0203282Y0132333D01*
X0201282Y0140333D02*
X0188282Y0140333D01*
X0187523Y0138110D02*
X0180382Y0138110D01*
X0180382Y0137112D02*
X0186898Y0137112D01*
X0186782Y0136113D02*
X0180382Y0136113D01*
X0180382Y0135114D02*
X0187080Y0135114D01*
X0187482Y0134116D02*
X0180382Y0134116D01*
X0180382Y0133117D02*
X0187482Y0133117D01*
X0187482Y0132119D02*
X0180382Y0132119D01*
X0180382Y0131120D02*
X0187482Y0131120D01*
X0187482Y0130122D02*
X0180382Y0130122D01*
X0180382Y0129123D02*
X0187482Y0129123D01*
X0187482Y0128125D02*
X0180382Y0128125D01*
X0180382Y0127126D02*
X0187482Y0127126D01*
X0187482Y0126128D02*
X0180382Y0126128D01*
X0180382Y0125129D02*
X0187482Y0125129D01*
X0187482Y0124131D02*
X0180382Y0124131D01*
X0191082Y0124131D02*
X0234182Y0124131D01*
X0234182Y0125129D02*
X0191082Y0125129D01*
X0191082Y0126128D02*
X0234182Y0126128D01*
X0234182Y0127126D02*
X0191082Y0127126D01*
X0191082Y0128125D02*
X0234182Y0128125D01*
X0234182Y0129123D02*
X0191082Y0129123D01*
X0191082Y0123132D02*
X0234182Y0123132D01*
X0233725Y0122134D02*
X0191082Y0122134D01*
X0191082Y0121135D02*
X0233279Y0121135D01*
X0232550Y0120137D02*
X0191082Y0120137D01*
X0191082Y0119138D02*
X0231551Y0119138D01*
X0230553Y0118140D02*
X0191082Y0118140D01*
X0191082Y0117141D02*
X0229554Y0117141D01*
X0228556Y0116143D02*
X0191082Y0116143D01*
X0192016Y0115144D02*
X0221557Y0115144D01*
X0220912Y0114146D02*
X0193015Y0114146D01*
X0194013Y0113147D02*
X0220550Y0113147D01*
X0221282Y0111333D02*
X0223282Y0113333D01*
X0225006Y0115144D02*
X0227557Y0115144D01*
X0226559Y0114146D02*
X0225651Y0114146D01*
X0221282Y0111333D02*
X0193282Y0111333D01*
X0187001Y0106158D02*
X0184993Y0106158D01*
X0185645Y0105159D02*
X0206182Y0105159D01*
X0205918Y0104161D02*
X0185782Y0104161D01*
X0185502Y0103162D02*
X0205782Y0103162D01*
X0206060Y0102164D02*
X0184576Y0102164D01*
X0183282Y0104333D02*
X0181282Y0102333D01*
X0181282Y0077333D01*
X0183282Y0076333D02*
X0179282Y0072333D01*
X0131282Y0072333D01*
X0126282Y0077333D01*
X0126282Y0084333D01*
X0106282Y0104333D01*
X0109282Y0104333D02*
X0109282Y0107333D01*
X0108397Y0109673D02*
X0107865Y0109453D01*
X0107624Y0109211D01*
X0107401Y0109749D01*
X0106698Y0110453D01*
X0105779Y0110833D01*
X0104784Y0110833D01*
X0104649Y0110777D01*
X0104682Y0110856D01*
X0104682Y0111811D01*
X0104316Y0112693D01*
X0103641Y0113368D01*
X0102759Y0113733D01*
X0101804Y0113733D01*
X0100922Y0113368D01*
X0100247Y0112693D01*
X0099882Y0111811D01*
X0099882Y0111479D01*
X0099536Y0111133D01*
X0096948Y0111133D01*
X0096520Y0112166D01*
X0095753Y0112933D01*
X0095759Y0112933D01*
X0096641Y0113299D01*
X0097316Y0113974D01*
X0097682Y0114856D01*
X0097682Y0115811D01*
X0097316Y0116693D01*
X0096641Y0117368D01*
X0095759Y0117733D01*
X0094804Y0117733D01*
X0093922Y0117368D01*
X0093687Y0117133D01*
X0084933Y0117133D01*
X0084861Y0117193D01*
X0084200Y0117133D01*
X0083536Y0117133D01*
X0083470Y0117067D01*
X0083376Y0117058D01*
X0082951Y0116548D01*
X0082482Y0116079D01*
X0082482Y0115985D01*
X0077951Y0110548D01*
X0063782Y0096379D01*
X0063782Y0096831D01*
X0063401Y0097749D01*
X0062698Y0098453D01*
X0061779Y0098833D01*
X0061327Y0098833D01*
X0055082Y0105079D01*
X0055082Y0112079D01*
X0053082Y0114079D01*
X0053082Y0126112D01*
X0053162Y0125917D01*
X0053482Y0125598D01*
X0053482Y0124588D01*
X0055482Y0122588D01*
X0056536Y0121533D01*
X0060507Y0121533D01*
X0058725Y0119752D01*
X0057538Y0116885D01*
X0057538Y0113782D01*
X0058725Y0110915D01*
X0060919Y0108721D01*
X0063786Y0107533D01*
X0066889Y0107533D01*
X0069756Y0108721D01*
X0071950Y0110915D01*
X0073138Y0113782D01*
X0073138Y0116885D01*
X0071950Y0119752D01*
X0070169Y0121533D01*
X0096536Y0121533D01*
X0108397Y0109673D01*
X0107918Y0110152D02*
X0106999Y0110152D01*
X0106919Y0111150D02*
X0104682Y0111150D01*
X0104542Y0112149D02*
X0105921Y0112149D01*
X0104922Y0113147D02*
X0103862Y0113147D01*
X0103924Y0114146D02*
X0097387Y0114146D01*
X0097682Y0115144D02*
X0102925Y0115144D01*
X0101927Y0116143D02*
X0097544Y0116143D01*
X0096868Y0117141D02*
X0100928Y0117141D01*
X0099930Y0118140D02*
X0072618Y0118140D01*
X0072204Y0119138D02*
X0098931Y0119138D01*
X0097933Y0120137D02*
X0071565Y0120137D01*
X0070567Y0121135D02*
X0096934Y0121135D01*
X0099030Y0124131D02*
X0120482Y0124131D01*
X0120482Y0125129D02*
X0105149Y0125129D01*
X0106147Y0126128D02*
X0120482Y0126128D01*
X0120482Y0127126D02*
X0106779Y0127126D01*
X0102025Y0121135D02*
X0112109Y0121135D01*
X0111110Y0120137D02*
X0103024Y0120137D01*
X0104022Y0119138D02*
X0110471Y0119138D01*
X0110058Y0118140D02*
X0105021Y0118140D01*
X0106019Y0117141D02*
X0109644Y0117141D01*
X0109538Y0116143D02*
X0107018Y0116143D01*
X0108016Y0115144D02*
X0109538Y0115144D01*
X0109538Y0114146D02*
X0109015Y0114146D01*
X0105282Y0108333D02*
X0104282Y0107333D01*
X0098282Y0107333D01*
X0094282Y0103333D01*
X0090282Y0103333D01*
X0086282Y0107333D01*
X0080282Y0107333D01*
X0064282Y0090333D01*
X0065282Y0087333D02*
X0061282Y0087333D01*
X0060282Y0088333D01*
X0060282Y0091333D01*
X0063282Y0094333D01*
X0064282Y0094333D01*
X0079282Y0109333D01*
X0084282Y0115333D01*
X0095282Y0115333D01*
X0096275Y0113147D02*
X0100701Y0113147D01*
X0100022Y0112149D02*
X0096527Y0112149D01*
X0096941Y0111150D02*
X0099553Y0111150D01*
X0100282Y0109333D02*
X0102282Y0111333D01*
X0100282Y0109333D02*
X0092282Y0109333D01*
X0087767Y0103302D02*
X0088482Y0102588D01*
X0089536Y0101533D01*
X0095027Y0101533D01*
X0097882Y0104388D01*
X0097882Y0103856D01*
X0098247Y0102974D01*
X0098482Y0102739D01*
X0098482Y0093588D01*
X0101936Y0090133D01*
X0100482Y0090133D01*
X0098902Y0089479D01*
X0097692Y0088269D01*
X0097038Y0086689D01*
X0097038Y0084978D01*
X0097692Y0083398D01*
X0098902Y0082188D01*
X0100482Y0081533D01*
X0102193Y0081533D01*
X0103774Y0082188D01*
X0104983Y0083398D01*
X0105638Y0084978D01*
X0105638Y0086689D01*
X0105288Y0087533D01*
X0114536Y0087533D01*
X0119482Y0082588D01*
X0119482Y0081927D01*
X0119247Y0081693D01*
X0118882Y0080811D01*
X0118882Y0079856D01*
X0119181Y0079133D01*
X0064017Y0079133D01*
X0063698Y0079453D01*
X0062779Y0079833D01*
X0061784Y0079833D01*
X0060865Y0079453D01*
X0060333Y0078920D01*
X0060385Y0079136D01*
X0060649Y0080804D01*
X0060782Y0082489D01*
X0060782Y0082833D01*
X0039782Y0082833D01*
X0039782Y0083833D01*
X0060782Y0083833D01*
X0060782Y0084178D01*
X0060675Y0085533D01*
X0066027Y0085533D01*
X0071027Y0090533D01*
X0087536Y0090533D01*
X0088536Y0089533D01*
X0088775Y0089533D01*
X0088406Y0089266D01*
X0087905Y0088765D01*
X0087489Y0088192D01*
X0087167Y0087561D01*
X0086949Y0086887D01*
X0086861Y0086333D01*
X0090838Y0086333D01*
X0090838Y0085333D01*
X0091838Y0085333D01*
X0091838Y0086333D01*
X0095815Y0086333D01*
X0095727Y0086887D01*
X0095508Y0087561D01*
X0095186Y0088192D01*
X0094770Y0088765D01*
X0094269Y0089266D01*
X0093901Y0089533D01*
X0094027Y0089533D01*
X0094427Y0089933D01*
X0094759Y0089933D01*
X0095641Y0090299D01*
X0096316Y0090974D01*
X0096682Y0091856D01*
X0096682Y0092811D01*
X0096316Y0093693D01*
X0095641Y0094368D01*
X0094759Y0094733D01*
X0093804Y0094733D01*
X0093782Y0094724D01*
X0093782Y0094831D01*
X0093401Y0095749D01*
X0092698Y0096453D01*
X0091779Y0096833D01*
X0090784Y0096833D01*
X0089865Y0096453D01*
X0089646Y0096233D01*
X0088069Y0096233D01*
X0087182Y0097120D01*
X0087182Y0102198D01*
X0087401Y0102417D01*
X0087767Y0103302D01*
X0087710Y0103162D02*
X0087907Y0103162D01*
X0087182Y0102164D02*
X0088906Y0102164D01*
X0087182Y0101165D02*
X0098482Y0101165D01*
X0098482Y0100167D02*
X0087182Y0100167D01*
X0087182Y0099168D02*
X0098482Y0099168D01*
X0098482Y0098170D02*
X0087182Y0098170D01*
X0087182Y0097171D02*
X0098482Y0097171D01*
X0098482Y0096173D02*
X0092978Y0096173D01*
X0093639Y0095174D02*
X0098482Y0095174D01*
X0098482Y0094176D02*
X0095833Y0094176D01*
X0096530Y0093177D02*
X0098892Y0093177D01*
X0099891Y0092179D02*
X0096682Y0092179D01*
X0096402Y0091180D02*
X0100889Y0091180D01*
X0101888Y0090181D02*
X0095358Y0090181D01*
X0094352Y0089183D02*
X0098606Y0089183D01*
X0097657Y0088184D02*
X0095190Y0088184D01*
X0095630Y0087186D02*
X0097244Y0087186D01*
X0097038Y0086187D02*
X0091838Y0086187D01*
X0091838Y0085333D02*
X0095815Y0085333D01*
X0095727Y0084780D01*
X0095508Y0084106D01*
X0095186Y0083475D01*
X0094770Y0082902D01*
X0094269Y0082401D01*
X0093696Y0081985D01*
X0093065Y0081663D01*
X0092392Y0081444D01*
X0091838Y0081356D01*
X0091838Y0085333D01*
X0091838Y0085189D02*
X0090838Y0085189D01*
X0090838Y0085333D02*
X0090838Y0081356D01*
X0090284Y0081444D01*
X0089610Y0081663D01*
X0088979Y0081985D01*
X0088406Y0082401D01*
X0087905Y0082902D01*
X0087489Y0083475D01*
X0087167Y0084106D01*
X0086949Y0084780D01*
X0086861Y0085333D01*
X0090838Y0085333D01*
X0090838Y0086187D02*
X0085638Y0086187D01*
X0085638Y0086689D02*
X0084983Y0088269D01*
X0083774Y0089479D01*
X0082193Y0090133D01*
X0080482Y0090133D01*
X0078902Y0089479D01*
X0077692Y0088269D01*
X0077038Y0086689D01*
X0077038Y0084978D01*
X0077692Y0083398D01*
X0078902Y0082188D01*
X0080482Y0081533D01*
X0082193Y0081533D01*
X0083774Y0082188D01*
X0084983Y0083398D01*
X0085638Y0084978D01*
X0085638Y0086689D01*
X0085432Y0087186D02*
X0087046Y0087186D01*
X0087485Y0088184D02*
X0085018Y0088184D01*
X0084069Y0089183D02*
X0088323Y0089183D01*
X0087888Y0090181D02*
X0070675Y0090181D01*
X0069677Y0089183D02*
X0078606Y0089183D01*
X0077657Y0088184D02*
X0068678Y0088184D01*
X0067680Y0087186D02*
X0077244Y0087186D01*
X0077038Y0086187D02*
X0066681Y0086187D01*
X0065282Y0087333D02*
X0070282Y0092333D01*
X0088282Y0092333D01*
X0089282Y0091333D01*
X0093282Y0091333D01*
X0094282Y0092333D01*
X0100282Y0094333D02*
X0105282Y0089333D01*
X0115282Y0089333D01*
X0121282Y0083333D01*
X0121282Y0080333D01*
X0119041Y0081195D02*
X0060680Y0081195D01*
X0060758Y0082193D02*
X0078897Y0082193D01*
X0077898Y0083192D02*
X0039782Y0083192D01*
X0039782Y0083833D02*
X0038782Y0083833D01*
X0038782Y0104833D01*
X0038437Y0104833D01*
X0036753Y0104701D01*
X0035084Y0104436D01*
X0033441Y0104042D01*
X0031834Y0103520D01*
X0030471Y0102955D01*
X0030471Y0107096D01*
X0036531Y0107096D01*
X0037443Y0107474D01*
X0038141Y0108172D01*
X0038519Y0109084D01*
X0038519Y0110533D01*
X0042546Y0110533D01*
X0042865Y0110214D01*
X0043784Y0109833D01*
X0044779Y0109833D01*
X0045698Y0110214D01*
X0046401Y0110917D01*
X0046782Y0111836D01*
X0046782Y0112831D01*
X0046401Y0113749D01*
X0045698Y0114453D01*
X0044779Y0114833D01*
X0043784Y0114833D01*
X0042865Y0114453D01*
X0042546Y0114133D01*
X0038519Y0114133D01*
X0038519Y0115583D01*
X0038141Y0116495D01*
X0037443Y0117193D01*
X0036531Y0117570D01*
X0030471Y0117570D01*
X0030471Y0118096D01*
X0036531Y0118096D01*
X0037443Y0118474D01*
X0038141Y0119172D01*
X0038519Y0120084D01*
X0038519Y0121533D01*
X0046546Y0121533D01*
X0046865Y0121214D01*
X0047784Y0120833D01*
X0048779Y0120833D01*
X0049482Y0121124D01*
X0049482Y0112588D01*
X0050536Y0111533D01*
X0051482Y0110588D01*
X0051482Y0103588D01*
X0052536Y0102533D01*
X0058782Y0096288D01*
X0058782Y0095836D01*
X0059162Y0094917D01*
X0059865Y0094214D01*
X0060397Y0093994D01*
X0059536Y0093133D01*
X0058796Y0092393D01*
X0058055Y0093847D01*
X0057172Y0095287D01*
X0056179Y0096654D01*
X0055082Y0097939D01*
X0053887Y0099133D01*
X0052602Y0100231D01*
X0051236Y0101224D01*
X0049795Y0102106D01*
X0048290Y0102873D01*
X0046729Y0103520D01*
X0045122Y0104042D01*
X0043479Y0104436D01*
X0041811Y0104701D01*
X0040126Y0104833D01*
X0039782Y0104833D01*
X0039782Y0083833D01*
X0039782Y0084190D02*
X0038782Y0084190D01*
X0038782Y0085189D02*
X0039782Y0085189D01*
X0039782Y0086187D02*
X0038782Y0086187D01*
X0038782Y0087186D02*
X0039782Y0087186D01*
X0039782Y0088184D02*
X0038782Y0088184D01*
X0038782Y0089183D02*
X0039782Y0089183D01*
X0039782Y0090181D02*
X0038782Y0090181D01*
X0038782Y0091180D02*
X0039782Y0091180D01*
X0039782Y0092179D02*
X0038782Y0092179D01*
X0038782Y0093177D02*
X0039782Y0093177D01*
X0039782Y0094176D02*
X0038782Y0094176D01*
X0038782Y0095174D02*
X0039782Y0095174D01*
X0039782Y0096173D02*
X0038782Y0096173D01*
X0038782Y0097171D02*
X0039782Y0097171D01*
X0039782Y0098170D02*
X0038782Y0098170D01*
X0038782Y0099168D02*
X0039782Y0099168D01*
X0039782Y0100167D02*
X0038782Y0100167D01*
X0038782Y0101165D02*
X0039782Y0101165D01*
X0039782Y0102164D02*
X0038782Y0102164D01*
X0038782Y0103162D02*
X0039782Y0103162D01*
X0039782Y0104161D02*
X0038782Y0104161D01*
X0036676Y0107156D02*
X0051482Y0107156D01*
X0051482Y0106158D02*
X0030471Y0106158D01*
X0030471Y0105159D02*
X0051482Y0105159D01*
X0051482Y0104161D02*
X0044628Y0104161D01*
X0047593Y0103162D02*
X0051907Y0103162D01*
X0052906Y0102164D02*
X0049683Y0102164D01*
X0051316Y0101165D02*
X0053904Y0101165D01*
X0054903Y0100167D02*
X0052677Y0100167D01*
X0053846Y0099168D02*
X0055901Y0099168D01*
X0056900Y0098170D02*
X0054851Y0098170D01*
X0055737Y0097171D02*
X0057898Y0097171D01*
X0058782Y0096173D02*
X0056529Y0096173D01*
X0057241Y0095174D02*
X0059056Y0095174D01*
X0059958Y0094176D02*
X0057853Y0094176D01*
X0058396Y0093177D02*
X0059580Y0093177D01*
X0061282Y0096333D02*
X0053282Y0104333D01*
X0053282Y0111333D01*
X0051282Y0113333D01*
X0051282Y0128333D01*
X0053029Y0130122D02*
X0077142Y0130122D01*
X0077395Y0131120D02*
X0038519Y0131120D01*
X0038519Y0132119D02*
X0077878Y0132119D01*
X0078712Y0133117D02*
X0075611Y0133117D01*
X0074282Y0134333D02*
X0033282Y0134333D01*
X0030782Y0134333D01*
X0030471Y0139570D02*
X0030471Y0140096D01*
X0036531Y0140096D01*
X0037443Y0140474D01*
X0038141Y0141172D01*
X0038519Y0142084D01*
X0038519Y0143533D01*
X0066536Y0143533D01*
X0073736Y0136333D01*
X0073536Y0136133D01*
X0038519Y0136133D01*
X0038519Y0137583D01*
X0038141Y0138495D01*
X0037443Y0139193D01*
X0036531Y0139570D01*
X0030471Y0139570D01*
X0030782Y0145333D02*
X0033282Y0145333D01*
X0067282Y0145333D01*
X0075282Y0137333D01*
X0108282Y0137333D01*
X0113282Y0142333D01*
X0113282Y0138333D02*
X0110282Y0135333D01*
X0075282Y0135333D01*
X0074282Y0134333D01*
X0072958Y0137112D02*
X0038519Y0137112D01*
X0038300Y0138110D02*
X0071959Y0138110D01*
X0070961Y0139109D02*
X0037527Y0139109D01*
X0036557Y0140107D02*
X0069962Y0140107D01*
X0068964Y0141106D02*
X0038074Y0141106D01*
X0038519Y0142104D02*
X0067965Y0142104D01*
X0066967Y0143103D02*
X0038519Y0143103D01*
X0042282Y0148333D02*
X0045282Y0151333D01*
X0069282Y0151333D01*
X0072282Y0154333D01*
X0072282Y0190333D01*
X0055282Y0207333D01*
X0041282Y0207333D01*
X0037282Y0211333D01*
X0037282Y0265333D01*
X0045282Y0274333D01*
X0103282Y0274333D01*
X0112282Y0283333D01*
X0112282Y0293333D01*
X0118282Y0299333D01*
X0203582Y0299333D01*
X0186527Y0282894D02*
X0160608Y0282894D01*
X0160982Y0283893D02*
X0185528Y0283893D01*
X0184687Y0284891D02*
X0160973Y0284891D01*
X0160544Y0285890D02*
X0184020Y0285890D01*
X0183353Y0286888D02*
X0159169Y0286888D01*
X0157394Y0286888D02*
X0144697Y0286888D01*
X0143698Y0287887D02*
X0182685Y0287887D01*
X0182059Y0288885D02*
X0156486Y0288885D01*
X0158070Y0289884D02*
X0181645Y0289884D01*
X0181232Y0290882D02*
X0158899Y0290882D01*
X0159312Y0291881D02*
X0180818Y0291881D01*
X0180404Y0292879D02*
X0159479Y0292879D01*
X0159479Y0293878D02*
X0180070Y0293878D01*
X0179871Y0294876D02*
X0159163Y0294876D01*
X0158708Y0295875D02*
X0179673Y0295875D01*
X0179474Y0296873D02*
X0157710Y0296873D01*
X0152048Y0296873D02*
X0141962Y0296873D01*
X0142960Y0295875D02*
X0151050Y0295875D01*
X0150595Y0294876D02*
X0143415Y0294876D01*
X0143731Y0293878D02*
X0150279Y0293878D01*
X0150279Y0292879D02*
X0143731Y0292879D01*
X0143564Y0291881D02*
X0150446Y0291881D01*
X0150859Y0290882D02*
X0143151Y0290882D01*
X0142322Y0289884D02*
X0151688Y0289884D01*
X0153272Y0288885D02*
X0142700Y0288885D01*
X0137031Y0288885D02*
X0114082Y0288885D01*
X0114082Y0287887D02*
X0137031Y0287887D01*
X0137031Y0286888D02*
X0114082Y0286888D01*
X0114082Y0285890D02*
X0137031Y0285890D01*
X0137031Y0285053D02*
X0126412Y0274433D01*
X0115912Y0274433D01*
X0114682Y0273203D01*
X0111412Y0269933D01*
X0045250Y0269933D01*
X0042505Y0267188D01*
X0042396Y0267233D01*
X0041379Y0267233D01*
X0046090Y0272533D01*
X0104027Y0272533D01*
X0105082Y0273588D01*
X0114082Y0282588D01*
X0114082Y0292588D01*
X0119027Y0297533D01*
X0137576Y0297533D01*
X0136525Y0297098D01*
X0135231Y0295804D01*
X0134531Y0294114D01*
X0134531Y0292284D01*
X0135231Y0290593D01*
X0136525Y0289299D01*
X0137031Y0289089D01*
X0137031Y0285053D01*
X0136870Y0284891D02*
X0114082Y0284891D01*
X0114082Y0283893D02*
X0135871Y0283893D01*
X0134873Y0282894D02*
X0114082Y0282894D01*
X0113390Y0281896D02*
X0133874Y0281896D01*
X0132876Y0280897D02*
X0112391Y0280897D01*
X0111392Y0279899D02*
X0131877Y0279899D01*
X0130879Y0278900D02*
X0110394Y0278900D01*
X0109395Y0277902D02*
X0129880Y0277902D01*
X0128882Y0276903D02*
X0108397Y0276903D01*
X0107398Y0275905D02*
X0127883Y0275905D01*
X0126884Y0274906D02*
X0106400Y0274906D01*
X0105401Y0273908D02*
X0115386Y0273908D01*
X0114387Y0272909D02*
X0104403Y0272909D01*
X0103306Y0276903D02*
X0093107Y0276903D01*
X0095518Y0277902D02*
X0104304Y0277902D01*
X0105303Y0278900D02*
X0097334Y0278900D01*
X0098828Y0279899D02*
X0106301Y0279899D01*
X0107300Y0280897D02*
X0100322Y0280897D01*
X0101437Y0281896D02*
X0108298Y0281896D01*
X0109297Y0282894D02*
X0102435Y0282894D01*
X0103434Y0283893D02*
X0110295Y0283893D01*
X0110482Y0284891D02*
X0104400Y0284891D01*
X0105067Y0285890D02*
X0110482Y0285890D01*
X0110482Y0286888D02*
X0105734Y0286888D01*
X0106401Y0287887D02*
X0110482Y0287887D01*
X0110482Y0288885D02*
X0107068Y0288885D01*
X0107537Y0289884D02*
X0110482Y0289884D01*
X0110482Y0290882D02*
X0107950Y0290882D01*
X0108364Y0291881D02*
X0110482Y0291881D01*
X0110482Y0292879D02*
X0108778Y0292879D01*
X0109191Y0293878D02*
X0110482Y0293878D01*
X0111279Y0294876D02*
X0109392Y0294876D01*
X0109590Y0295875D02*
X0112277Y0295875D01*
X0113276Y0296873D02*
X0109789Y0296873D01*
X0109988Y0297872D02*
X0114275Y0297872D01*
X0115273Y0298870D02*
X0110186Y0298870D01*
X0110206Y0299869D02*
X0116272Y0299869D01*
X0117270Y0300867D02*
X0110206Y0300867D01*
X0110206Y0301866D02*
X0141908Y0301866D01*
X0138186Y0302864D02*
X0110206Y0302864D01*
X0110206Y0303863D02*
X0135775Y0303863D01*
X0133833Y0304861D02*
X0110064Y0304861D01*
X0109866Y0305860D02*
X0132339Y0305860D01*
X0130845Y0306858D02*
X0109667Y0306858D01*
X0109468Y0307857D02*
X0129662Y0307857D01*
X0128664Y0308855D02*
X0109270Y0308855D01*
X0108937Y0309854D02*
X0127665Y0309854D01*
X0126667Y0310852D02*
X0108523Y0310852D01*
X0108110Y0311851D02*
X0125987Y0311851D01*
X0125319Y0312850D02*
X0107696Y0312850D01*
X0107282Y0313848D02*
X0124652Y0313848D01*
X0123985Y0314847D02*
X0106658Y0314847D01*
X0105991Y0315845D02*
X0123482Y0315845D01*
X0123068Y0316844D02*
X0105324Y0316844D01*
X0104656Y0317842D02*
X0122655Y0317842D01*
X0122241Y0318841D02*
X0103818Y0318841D01*
X0102819Y0319839D02*
X0121828Y0319839D01*
X0121597Y0320838D02*
X0101821Y0320838D01*
X0100822Y0321836D02*
X0121399Y0321836D01*
X0121200Y0322835D02*
X0099403Y0322835D01*
X0097909Y0323833D02*
X0121002Y0323833D01*
X0120803Y0324832D02*
X0096414Y0324832D01*
X0094035Y0325830D02*
X0120756Y0325830D01*
X0120756Y0326829D02*
X0091624Y0326829D01*
X0086655Y0327827D02*
X0120756Y0327827D01*
X0120756Y0328826D02*
X0050832Y0328826D01*
X0050832Y0329824D02*
X0120756Y0329824D01*
X0120871Y0330823D02*
X0050832Y0330823D01*
X0050832Y0331821D02*
X0121069Y0331821D01*
X0118367Y0296873D02*
X0136300Y0296873D01*
X0135302Y0295875D02*
X0117369Y0295875D01*
X0116370Y0294876D02*
X0134847Y0294876D01*
X0134531Y0293878D02*
X0115372Y0293878D01*
X0114373Y0292879D02*
X0134531Y0292879D01*
X0134698Y0291881D02*
X0114082Y0291881D01*
X0114082Y0290882D02*
X0135111Y0290882D01*
X0135940Y0289884D02*
X0114082Y0289884D01*
X0113389Y0271911D02*
X0045536Y0271911D01*
X0044649Y0270912D02*
X0112390Y0270912D01*
X0115335Y0267916D02*
X0116817Y0267916D01*
X0116333Y0268915D02*
X0117328Y0268915D01*
X0117332Y0269914D02*
X0217892Y0269914D01*
X0218890Y0270912D02*
X0128830Y0270912D01*
X0129829Y0271911D02*
X0219889Y0271911D01*
X0220887Y0272909D02*
X0130827Y0272909D01*
X0131826Y0273908D02*
X0221886Y0273908D01*
X0222884Y0274906D02*
X0208138Y0274906D01*
X0202726Y0274906D02*
X0132824Y0274906D01*
X0133823Y0275905D02*
X0197734Y0275905D01*
X0195324Y0276903D02*
X0134821Y0276903D01*
X0135820Y0277902D02*
X0192936Y0277902D01*
X0191442Y0278900D02*
X0136818Y0278900D01*
X0137817Y0279899D02*
X0189948Y0279899D01*
X0188524Y0280897D02*
X0138815Y0280897D01*
X0139814Y0281896D02*
X0157111Y0281896D01*
X0159452Y0281896D02*
X0187525Y0281896D01*
X0183235Y0268915D02*
X0209328Y0268915D01*
X0208817Y0267916D02*
X0183746Y0267916D01*
X0183782Y0266918D02*
X0208179Y0266918D01*
X0207181Y0265919D02*
X0183402Y0265919D01*
X0181990Y0264921D02*
X0206182Y0264921D01*
X0205184Y0263922D02*
X0180558Y0263922D01*
X0179559Y0262924D02*
X0204185Y0262924D01*
X0203187Y0261925D02*
X0178561Y0261925D01*
X0176182Y0264921D02*
X0150990Y0264921D01*
X0152402Y0265919D02*
X0177181Y0265919D01*
X0178179Y0266918D02*
X0152782Y0266918D01*
X0152746Y0267916D02*
X0178817Y0267916D01*
X0179328Y0268915D02*
X0152235Y0268915D01*
X0148328Y0268915D02*
X0121235Y0268915D01*
X0121746Y0267916D02*
X0147817Y0267916D01*
X0147179Y0266918D02*
X0121782Y0266918D01*
X0121402Y0265919D02*
X0146181Y0265919D01*
X0149558Y0263922D02*
X0175184Y0263922D01*
X0172563Y0257433D02*
X0171993Y0256863D01*
X0171582Y0255870D01*
X0171582Y0254796D01*
X0171993Y0253804D01*
X0172182Y0253615D01*
X0172182Y0168463D01*
X0173412Y0167233D01*
X0176182Y0164463D01*
X0176182Y0156979D01*
X0172027Y0161133D01*
X0157027Y0161133D01*
X0151082Y0167079D01*
X0151082Y0179598D01*
X0151401Y0179917D01*
X0151782Y0180836D01*
X0151782Y0181831D01*
X0151401Y0182749D01*
X0150698Y0183453D01*
X0149779Y0183833D01*
X0148784Y0183833D01*
X0147865Y0183453D01*
X0147162Y0182749D01*
X0146782Y0181831D01*
X0146782Y0180836D01*
X0147162Y0179917D01*
X0147482Y0179598D01*
X0147482Y0165588D01*
X0154482Y0158588D01*
X0155536Y0157533D01*
X0170536Y0157533D01*
X0171397Y0156673D01*
X0170865Y0156453D01*
X0170646Y0156233D01*
X0147069Y0156233D01*
X0139182Y0164120D01*
X0138069Y0165233D01*
X0093069Y0165233D01*
X0090182Y0168120D01*
X0090182Y0189083D01*
X0090784Y0188833D01*
X0091779Y0188833D01*
X0092698Y0189214D01*
X0093401Y0189917D01*
X0093782Y0190836D01*
X0093782Y0191831D01*
X0093401Y0192749D01*
X0093082Y0193069D01*
X0093082Y0204598D01*
X0093401Y0204917D01*
X0093782Y0205836D01*
X0093782Y0206831D01*
X0093401Y0207749D01*
X0092698Y0208453D01*
X0091779Y0208833D01*
X0090784Y0208833D01*
X0090182Y0208584D01*
X0090182Y0255546D01*
X0092069Y0257433D01*
X0172563Y0257433D01*
X0172063Y0256933D02*
X0091568Y0256933D01*
X0090570Y0255934D02*
X0171608Y0255934D01*
X0171582Y0254936D02*
X0090182Y0254936D01*
X0090182Y0253937D02*
X0171937Y0253937D01*
X0172182Y0252939D02*
X0090182Y0252939D01*
X0090182Y0251940D02*
X0172182Y0251940D01*
X0172182Y0250942D02*
X0090182Y0250942D01*
X0090182Y0249943D02*
X0172182Y0249943D01*
X0172182Y0248945D02*
X0090182Y0248945D01*
X0090182Y0247946D02*
X0172182Y0247946D01*
X0172182Y0246948D02*
X0090182Y0246948D01*
X0090182Y0245949D02*
X0172182Y0245949D01*
X0172182Y0244951D02*
X0090182Y0244951D01*
X0090182Y0243952D02*
X0172182Y0243952D01*
X0172182Y0242954D02*
X0090182Y0242954D01*
X0090182Y0241955D02*
X0172182Y0241955D01*
X0172182Y0240957D02*
X0090182Y0240957D01*
X0090182Y0239958D02*
X0172182Y0239958D01*
X0172182Y0238960D02*
X0090182Y0238960D01*
X0090182Y0237961D02*
X0172182Y0237961D01*
X0172182Y0236963D02*
X0090182Y0236963D01*
X0090182Y0235964D02*
X0091377Y0235964D01*
X0091162Y0235749D02*
X0090782Y0234831D01*
X0090782Y0233836D01*
X0091162Y0232917D01*
X0091865Y0232214D01*
X0092784Y0231833D01*
X0093779Y0231833D01*
X0094698Y0232214D01*
X0094917Y0232433D01*
X0107995Y0232433D01*
X0130995Y0209433D01*
X0132569Y0209433D01*
X0133682Y0210546D01*
X0133682Y0210546D01*
X0134569Y0211433D01*
X0164495Y0211433D01*
X0165382Y0210546D01*
X0166495Y0209433D01*
X0166646Y0209433D01*
X0166865Y0209214D01*
X0167784Y0208833D01*
X0168779Y0208833D01*
X0169698Y0209214D01*
X0170401Y0209917D01*
X0170782Y0210836D01*
X0170782Y0211831D01*
X0170401Y0212749D01*
X0169698Y0213453D01*
X0168779Y0213833D01*
X0167784Y0213833D01*
X0167561Y0213741D01*
X0166069Y0215233D01*
X0132995Y0215233D01*
X0131882Y0214120D01*
X0131782Y0214020D01*
X0109569Y0236233D01*
X0094917Y0236233D01*
X0094698Y0236453D01*
X0093779Y0236833D01*
X0092784Y0236833D01*
X0091865Y0236453D01*
X0091162Y0235749D01*
X0090838Y0234966D02*
X0090182Y0234966D01*
X0090182Y0233967D02*
X0090782Y0233967D01*
X0091141Y0232969D02*
X0090182Y0232969D01*
X0090182Y0231970D02*
X0092454Y0231970D01*
X0094109Y0231970D02*
X0108458Y0231970D01*
X0109456Y0230972D02*
X0090182Y0230972D01*
X0090182Y0229973D02*
X0110455Y0229973D01*
X0111453Y0228975D02*
X0090182Y0228975D01*
X0090182Y0227976D02*
X0112452Y0227976D01*
X0113450Y0226978D02*
X0090182Y0226978D01*
X0090182Y0225979D02*
X0114449Y0225979D01*
X0115447Y0224981D02*
X0090182Y0224981D01*
X0090182Y0223982D02*
X0116446Y0223982D01*
X0117444Y0222983D02*
X0090182Y0222983D01*
X0090182Y0221985D02*
X0118443Y0221985D01*
X0119441Y0220986D02*
X0090182Y0220986D01*
X0090182Y0219988D02*
X0120440Y0219988D01*
X0121438Y0218989D02*
X0102925Y0218989D01*
X0102819Y0219033D02*
X0101745Y0219033D01*
X0100752Y0218622D01*
X0099993Y0217863D01*
X0099582Y0216870D01*
X0099582Y0215796D01*
X0099993Y0214804D01*
X0100382Y0214415D01*
X0100382Y0190252D01*
X0099993Y0189863D01*
X0099582Y0188870D01*
X0099582Y0187796D01*
X0099993Y0186804D01*
X0100182Y0186615D01*
X0100182Y0172052D01*
X0099993Y0171863D01*
X0099582Y0170870D01*
X0099582Y0169796D01*
X0099993Y0168804D01*
X0100752Y0168044D01*
X0101745Y0167633D01*
X0102819Y0167633D01*
X0103811Y0168044D01*
X0104571Y0168804D01*
X0104982Y0169796D01*
X0104982Y0170870D01*
X0104571Y0171863D01*
X0104382Y0172052D01*
X0104382Y0186233D01*
X0107646Y0186233D01*
X0107162Y0185749D01*
X0106782Y0184831D01*
X0106782Y0183836D01*
X0107162Y0182917D01*
X0107865Y0182214D01*
X0108784Y0181833D01*
X0109779Y0181833D01*
X0110698Y0182214D01*
X0111017Y0182533D01*
X0126546Y0182533D01*
X0126865Y0182214D01*
X0127784Y0181833D01*
X0128779Y0181833D01*
X0129698Y0182214D01*
X0130401Y0182917D01*
X0130782Y0183836D01*
X0130782Y0184831D01*
X0130401Y0185749D01*
X0129917Y0186233D01*
X0131182Y0186233D01*
X0131182Y0172052D01*
X0130993Y0171863D01*
X0130582Y0170870D01*
X0130582Y0169796D01*
X0130993Y0168804D01*
X0131752Y0168044D01*
X0132745Y0167633D01*
X0133819Y0167633D01*
X0134811Y0168044D01*
X0135571Y0168804D01*
X0135982Y0169796D01*
X0135982Y0170870D01*
X0135571Y0171863D01*
X0135382Y0172052D01*
X0135382Y0187615D01*
X0135571Y0187804D01*
X0135982Y0188796D01*
X0135982Y0189870D01*
X0135571Y0190863D01*
X0134811Y0191622D01*
X0133819Y0192033D01*
X0132745Y0192033D01*
X0131752Y0191622D01*
X0130993Y0190863D01*
X0130815Y0190433D01*
X0104182Y0190433D01*
X0104182Y0214415D01*
X0104571Y0214804D01*
X0104982Y0215796D01*
X0104982Y0216870D01*
X0104571Y0217863D01*
X0103811Y0218622D01*
X0102819Y0219033D01*
X0101639Y0218989D02*
X0090182Y0218989D01*
X0090182Y0217991D02*
X0100121Y0217991D01*
X0099632Y0216992D02*
X0090182Y0216992D01*
X0090182Y0215994D02*
X0099582Y0215994D01*
X0099913Y0214995D02*
X0090182Y0214995D01*
X0090182Y0213997D02*
X0100382Y0213997D01*
X0100382Y0212998D02*
X0090182Y0212998D01*
X0090182Y0212000D02*
X0100382Y0212000D01*
X0100382Y0211001D02*
X0090182Y0211001D01*
X0090182Y0210003D02*
X0100382Y0210003D01*
X0100382Y0209004D02*
X0090182Y0209004D01*
X0091282Y0206333D02*
X0091282Y0191333D01*
X0092264Y0189034D02*
X0099649Y0189034D01*
X0099582Y0188036D02*
X0090182Y0188036D01*
X0090182Y0189034D02*
X0090300Y0189034D01*
X0090182Y0187037D02*
X0099896Y0187037D01*
X0100182Y0186039D02*
X0090182Y0186039D01*
X0090182Y0185040D02*
X0100182Y0185040D01*
X0100182Y0184042D02*
X0090182Y0184042D01*
X0090182Y0183043D02*
X0100182Y0183043D01*
X0100182Y0182045D02*
X0090182Y0182045D01*
X0090182Y0181046D02*
X0100182Y0181046D01*
X0100182Y0180048D02*
X0090182Y0180048D01*
X0090182Y0179049D02*
X0100182Y0179049D01*
X0100182Y0178050D02*
X0090182Y0178050D01*
X0090182Y0177052D02*
X0100182Y0177052D01*
X0100182Y0176053D02*
X0090182Y0176053D01*
X0090182Y0175055D02*
X0100182Y0175055D01*
X0100182Y0174056D02*
X0090182Y0174056D01*
X0090182Y0173058D02*
X0100182Y0173058D01*
X0100182Y0172059D02*
X0090182Y0172059D01*
X0090182Y0171061D02*
X0099661Y0171061D01*
X0099582Y0170062D02*
X0090182Y0170062D01*
X0090182Y0169064D02*
X0099885Y0169064D01*
X0100731Y0168065D02*
X0090237Y0168065D01*
X0091235Y0167067D02*
X0147482Y0167067D01*
X0147482Y0168065D02*
X0134832Y0168065D01*
X0135678Y0169064D02*
X0147482Y0169064D01*
X0147482Y0170062D02*
X0135982Y0170062D01*
X0135903Y0171061D02*
X0147482Y0171061D01*
X0147482Y0172059D02*
X0135382Y0172059D01*
X0135382Y0173058D02*
X0147482Y0173058D01*
X0147482Y0174056D02*
X0135382Y0174056D01*
X0135382Y0175055D02*
X0147482Y0175055D01*
X0147482Y0176053D02*
X0135382Y0176053D01*
X0135382Y0177052D02*
X0147482Y0177052D01*
X0147482Y0178050D02*
X0135382Y0178050D01*
X0135382Y0179049D02*
X0147482Y0179049D01*
X0147108Y0180048D02*
X0135382Y0180048D01*
X0135382Y0181046D02*
X0146782Y0181046D01*
X0146870Y0182045D02*
X0135382Y0182045D01*
X0135382Y0183043D02*
X0147456Y0183043D01*
X0149282Y0181333D02*
X0149282Y0166333D01*
X0156282Y0159333D01*
X0171282Y0159333D01*
X0175782Y0154833D01*
X0175782Y0146833D01*
X0174282Y0145333D01*
X0174282Y0143333D01*
X0175436Y0141106D02*
X0176182Y0141106D01*
X0180382Y0141106D02*
X0182822Y0141106D01*
X0181824Y0142104D02*
X0180382Y0142104D01*
X0180382Y0143103D02*
X0181382Y0143103D01*
X0181382Y0144101D02*
X0180382Y0144101D01*
X0180382Y0145100D02*
X0181482Y0145100D01*
X0181482Y0146098D02*
X0180382Y0146098D01*
X0180382Y0147097D02*
X0181482Y0147097D01*
X0181482Y0148095D02*
X0180382Y0148095D01*
X0180382Y0149094D02*
X0181482Y0149094D01*
X0181482Y0150092D02*
X0180382Y0150092D01*
X0180382Y0151091D02*
X0181482Y0151091D01*
X0181482Y0152089D02*
X0180382Y0152089D01*
X0180382Y0153088D02*
X0181482Y0153088D01*
X0181482Y0154086D02*
X0180382Y0154086D01*
X0180382Y0155085D02*
X0181482Y0155085D01*
X0181482Y0156083D02*
X0180382Y0156083D01*
X0180382Y0157082D02*
X0181482Y0157082D01*
X0181482Y0158080D02*
X0180382Y0158080D01*
X0180382Y0159079D02*
X0181482Y0159079D01*
X0181482Y0160077D02*
X0180382Y0160077D01*
X0180382Y0161076D02*
X0181482Y0161076D01*
X0181482Y0162074D02*
X0180382Y0162074D01*
X0180382Y0163073D02*
X0181482Y0163073D01*
X0181482Y0164071D02*
X0180382Y0164071D01*
X0180382Y0165070D02*
X0181482Y0165070D01*
X0181482Y0166068D02*
X0180382Y0166068D01*
X0179518Y0167067D02*
X0181482Y0167067D01*
X0181482Y0168065D02*
X0178519Y0168065D01*
X0179151Y0167433D02*
X0179151Y0167433D01*
X0177521Y0169064D02*
X0181482Y0169064D01*
X0181482Y0170062D02*
X0176522Y0170062D01*
X0176382Y0171061D02*
X0181482Y0171061D01*
X0181482Y0172059D02*
X0176382Y0172059D01*
X0176382Y0173058D02*
X0181482Y0173058D01*
X0181482Y0174056D02*
X0176382Y0174056D01*
X0176382Y0175055D02*
X0181482Y0175055D01*
X0181482Y0176053D02*
X0176382Y0176053D01*
X0176382Y0177052D02*
X0181482Y0177052D01*
X0181482Y0178050D02*
X0176382Y0178050D01*
X0176382Y0179049D02*
X0181482Y0179049D01*
X0181482Y0180048D02*
X0176382Y0180048D01*
X0176382Y0181046D02*
X0181482Y0181046D01*
X0181482Y0182045D02*
X0176382Y0182045D01*
X0176382Y0183043D02*
X0181482Y0183043D01*
X0181482Y0184042D02*
X0176382Y0184042D01*
X0176382Y0185040D02*
X0181482Y0185040D01*
X0181482Y0186039D02*
X0176382Y0186039D01*
X0176382Y0187037D02*
X0181482Y0187037D01*
X0181482Y0188036D02*
X0176382Y0188036D01*
X0176382Y0189034D02*
X0181482Y0189034D01*
X0181482Y0190033D02*
X0176382Y0190033D01*
X0176382Y0191031D02*
X0181482Y0191031D01*
X0181482Y0192030D02*
X0176382Y0192030D01*
X0176382Y0193028D02*
X0181482Y0193028D01*
X0181482Y0194027D02*
X0176382Y0194027D01*
X0176382Y0195025D02*
X0181482Y0195025D01*
X0181482Y0196024D02*
X0176382Y0196024D01*
X0176382Y0197022D02*
X0181482Y0197022D01*
X0181482Y0198021D02*
X0176382Y0198021D01*
X0176382Y0199019D02*
X0181482Y0199019D01*
X0181482Y0200018D02*
X0176382Y0200018D01*
X0176382Y0201016D02*
X0181482Y0201016D01*
X0181482Y0202015D02*
X0176382Y0202015D01*
X0176382Y0203013D02*
X0181482Y0203013D01*
X0181482Y0204012D02*
X0176382Y0204012D01*
X0176382Y0205010D02*
X0181482Y0205010D01*
X0181482Y0206009D02*
X0176382Y0206009D01*
X0176382Y0207007D02*
X0181482Y0207007D01*
X0181482Y0208006D02*
X0176382Y0208006D01*
X0176382Y0209004D02*
X0181482Y0209004D01*
X0181482Y0210003D02*
X0176382Y0210003D01*
X0176382Y0211001D02*
X0181482Y0211001D01*
X0181482Y0212000D02*
X0176382Y0212000D01*
X0176382Y0212998D02*
X0181482Y0212998D01*
X0181482Y0213997D02*
X0176382Y0213997D01*
X0176382Y0214995D02*
X0181482Y0214995D01*
X0181482Y0215994D02*
X0176382Y0215994D01*
X0176382Y0216992D02*
X0181482Y0216992D01*
X0181482Y0217991D02*
X0176382Y0217991D01*
X0176382Y0218989D02*
X0181482Y0218989D01*
X0181482Y0219988D02*
X0176382Y0219988D01*
X0176382Y0220986D02*
X0181482Y0220986D01*
X0181482Y0221985D02*
X0176382Y0221985D01*
X0176382Y0222983D02*
X0181482Y0222983D01*
X0181482Y0223982D02*
X0176382Y0223982D01*
X0176382Y0224981D02*
X0181482Y0224981D01*
X0181482Y0225979D02*
X0176382Y0225979D01*
X0176382Y0226978D02*
X0181482Y0226978D01*
X0181482Y0227976D02*
X0176382Y0227976D01*
X0176382Y0228975D02*
X0181482Y0228975D01*
X0181482Y0229973D02*
X0176382Y0229973D01*
X0176382Y0230972D02*
X0181482Y0230972D01*
X0181482Y0231970D02*
X0176382Y0231970D01*
X0176382Y0232969D02*
X0181482Y0232969D01*
X0181482Y0233967D02*
X0176382Y0233967D01*
X0176382Y0234966D02*
X0181482Y0234966D01*
X0181482Y0235964D02*
X0176382Y0235964D01*
X0176382Y0236963D02*
X0181482Y0236963D01*
X0181482Y0237961D02*
X0176382Y0237961D01*
X0176382Y0238960D02*
X0181482Y0238960D01*
X0181482Y0239958D02*
X0176382Y0239958D01*
X0176382Y0240957D02*
X0181482Y0240957D01*
X0181482Y0241955D02*
X0176382Y0241955D01*
X0176382Y0242954D02*
X0181482Y0242954D01*
X0181482Y0243952D02*
X0176382Y0243952D01*
X0176382Y0244951D02*
X0181482Y0244951D01*
X0181482Y0245949D02*
X0176382Y0245949D01*
X0176382Y0246948D02*
X0181482Y0246948D01*
X0181482Y0247946D02*
X0176382Y0247946D01*
X0176382Y0248945D02*
X0181151Y0248945D01*
X0180782Y0249943D02*
X0176382Y0249943D01*
X0176382Y0250942D02*
X0180828Y0250942D01*
X0181353Y0251940D02*
X0176382Y0251940D01*
X0176382Y0252939D02*
X0215182Y0252939D01*
X0215182Y0253937D02*
X0176626Y0253937D01*
X0176982Y0254936D02*
X0215182Y0254936D01*
X0215182Y0255934D02*
X0176955Y0255934D01*
X0176500Y0256933D02*
X0215182Y0256933D01*
X0215182Y0257931D02*
X0204567Y0257931D01*
X0205565Y0258930D02*
X0215182Y0258930D01*
X0215182Y0259928D02*
X0206564Y0259928D01*
X0207562Y0260927D02*
X0215182Y0260927D01*
X0215182Y0261925D02*
X0208561Y0261925D01*
X0209559Y0262924D02*
X0215182Y0262924D01*
X0215182Y0263922D02*
X0210558Y0263922D01*
X0211990Y0264921D02*
X0215182Y0264921D01*
X0215182Y0265919D02*
X0213402Y0265919D01*
X0213782Y0266918D02*
X0215182Y0266918D01*
X0215895Y0267916D02*
X0213746Y0267916D01*
X0213235Y0268915D02*
X0216893Y0268915D01*
X0219838Y0265919D02*
X0227247Y0265919D01*
X0226580Y0264921D02*
X0219382Y0264921D01*
X0219382Y0263922D02*
X0225912Y0263922D01*
X0225465Y0262924D02*
X0219382Y0262924D01*
X0219382Y0261925D02*
X0225052Y0261925D01*
X0224638Y0260927D02*
X0219382Y0260927D01*
X0219382Y0259928D02*
X0224225Y0259928D01*
X0223827Y0258930D02*
X0219382Y0258930D01*
X0219382Y0257931D02*
X0223628Y0257931D01*
X0223430Y0256933D02*
X0219382Y0256933D01*
X0219382Y0255934D02*
X0223231Y0255934D01*
X0223033Y0254936D02*
X0219382Y0254936D01*
X0219382Y0253937D02*
X0222834Y0253937D01*
X0222831Y0252939D02*
X0219382Y0252939D01*
X0219382Y0251940D02*
X0222831Y0251940D01*
X0222831Y0250942D02*
X0219382Y0250942D01*
X0219382Y0249943D02*
X0222831Y0249943D01*
X0222831Y0248945D02*
X0219382Y0248945D01*
X0219382Y0247946D02*
X0222990Y0247946D01*
X0223188Y0246948D02*
X0219382Y0246948D01*
X0219382Y0245949D02*
X0223387Y0245949D01*
X0223586Y0244951D02*
X0219382Y0244951D01*
X0219382Y0243952D02*
X0223784Y0243952D01*
X0224135Y0242954D02*
X0219382Y0242954D01*
X0219382Y0241955D02*
X0224549Y0241955D01*
X0224963Y0240957D02*
X0219382Y0240957D01*
X0219382Y0239958D02*
X0225376Y0239958D01*
X0225790Y0238960D02*
X0219382Y0238960D01*
X0219382Y0237961D02*
X0226436Y0237961D01*
X0227103Y0236963D02*
X0219382Y0236963D01*
X0219382Y0235964D02*
X0227770Y0235964D01*
X0228437Y0234966D02*
X0219382Y0234966D01*
X0219382Y0233967D02*
X0229304Y0233967D01*
X0230302Y0232969D02*
X0219382Y0232969D01*
X0219382Y0231970D02*
X0231301Y0231970D01*
X0232299Y0230972D02*
X0219382Y0230972D01*
X0219382Y0229973D02*
X0233760Y0229973D01*
X0235255Y0228975D02*
X0219382Y0228975D01*
X0219382Y0227976D02*
X0236796Y0227976D01*
X0239206Y0226978D02*
X0219382Y0226978D01*
X0219382Y0225979D02*
X0241787Y0225979D01*
X0243582Y0214995D02*
X0227307Y0214995D01*
X0228305Y0213997D02*
X0242584Y0213997D01*
X0241585Y0212998D02*
X0229304Y0212998D01*
X0230302Y0212000D02*
X0240732Y0212000D01*
X0248981Y0214995D02*
X0263298Y0214995D01*
X0263298Y0213997D02*
X0249979Y0213997D01*
X0250978Y0212998D02*
X0263298Y0212998D01*
X0263298Y0212000D02*
X0251832Y0212000D01*
X0251832Y0211001D02*
X0263298Y0211001D01*
X0263298Y0210003D02*
X0251832Y0210003D01*
X0251832Y0209004D02*
X0255649Y0209004D01*
X0255003Y0208006D02*
X0251832Y0208006D01*
X0251292Y0207007D02*
X0254845Y0207007D01*
X0254845Y0206009D02*
X0250293Y0206009D01*
X0249295Y0205010D02*
X0254845Y0205010D01*
X0254845Y0203013D02*
X0219382Y0203013D01*
X0219382Y0202015D02*
X0254845Y0202015D01*
X0254904Y0201016D02*
X0219382Y0201016D01*
X0219382Y0200018D02*
X0255343Y0200018D01*
X0255045Y0196024D02*
X0248927Y0196024D01*
X0260282Y0193333D02*
X0262782Y0193333D01*
X0262297Y0209770D02*
X0262297Y0209770D01*
X0263298Y0215994D02*
X0226308Y0215994D01*
X0225309Y0216992D02*
X0263298Y0216992D01*
X0263298Y0217991D02*
X0224311Y0217991D01*
X0224182Y0218989D02*
X0263298Y0218989D01*
X0263298Y0219988D02*
X0224182Y0219988D01*
X0224182Y0220986D02*
X0263298Y0220986D01*
X0263298Y0221985D02*
X0224429Y0221985D01*
X0224782Y0222983D02*
X0263298Y0222983D01*
X0263298Y0223982D02*
X0224719Y0223982D01*
X0224170Y0224981D02*
X0263298Y0224981D01*
X0263298Y0225979D02*
X0256476Y0225979D01*
X0259056Y0226978D02*
X0263298Y0226978D01*
X0263298Y0227976D02*
X0261467Y0227976D01*
X0263008Y0228975D02*
X0263298Y0228975D01*
X0228922Y0208006D02*
X0219382Y0208006D01*
X0219382Y0209004D02*
X0227924Y0209004D01*
X0226925Y0210003D02*
X0219382Y0210003D01*
X0219382Y0211001D02*
X0225927Y0211001D01*
X0224928Y0212000D02*
X0219382Y0212000D01*
X0219382Y0212998D02*
X0223930Y0212998D01*
X0222931Y0213997D02*
X0219382Y0213997D01*
X0219382Y0214995D02*
X0221933Y0214995D01*
X0220934Y0215994D02*
X0219382Y0215994D01*
X0219382Y0216992D02*
X0220382Y0216992D01*
X0220382Y0217991D02*
X0219382Y0217991D01*
X0219382Y0218989D02*
X0220382Y0218989D01*
X0220382Y0219988D02*
X0219382Y0219988D01*
X0219382Y0220986D02*
X0220382Y0220986D01*
X0220134Y0221985D02*
X0219382Y0221985D01*
X0219382Y0222983D02*
X0219782Y0222983D01*
X0219844Y0223982D02*
X0219382Y0223982D01*
X0219382Y0224981D02*
X0220393Y0224981D01*
X0215182Y0224981D02*
X0215170Y0224981D01*
X0215182Y0225979D02*
X0185082Y0225979D01*
X0185082Y0224981D02*
X0202242Y0224981D01*
X0201243Y0223982D02*
X0185082Y0223982D01*
X0185082Y0222983D02*
X0200245Y0222983D01*
X0199246Y0221985D02*
X0185082Y0221985D01*
X0185082Y0220986D02*
X0198248Y0220986D01*
X0197249Y0219988D02*
X0185082Y0219988D01*
X0185082Y0218989D02*
X0196251Y0218989D01*
X0195252Y0217991D02*
X0185082Y0217991D01*
X0185082Y0216992D02*
X0194254Y0216992D01*
X0193255Y0215994D02*
X0185082Y0215994D01*
X0185082Y0214995D02*
X0192257Y0214995D01*
X0191258Y0213997D02*
X0185082Y0213997D01*
X0185082Y0212998D02*
X0190260Y0212998D01*
X0192638Y0210003D02*
X0215182Y0210003D01*
X0215182Y0211001D02*
X0193637Y0211001D01*
X0194635Y0212000D02*
X0215182Y0212000D01*
X0215182Y0212998D02*
X0195634Y0212998D01*
X0196632Y0213997D02*
X0215182Y0213997D01*
X0215182Y0214995D02*
X0197631Y0214995D01*
X0198629Y0215994D02*
X0215182Y0215994D01*
X0215182Y0216992D02*
X0199628Y0216992D01*
X0200626Y0217991D02*
X0215182Y0217991D01*
X0215182Y0218989D02*
X0201625Y0218989D01*
X0202623Y0219988D02*
X0215182Y0219988D01*
X0215182Y0220986D02*
X0214149Y0220986D01*
X0212415Y0220986D02*
X0203622Y0220986D01*
X0215182Y0226978D02*
X0185082Y0226978D01*
X0185082Y0227976D02*
X0215182Y0227976D01*
X0215182Y0228975D02*
X0185082Y0228975D01*
X0185082Y0229973D02*
X0215182Y0229973D01*
X0215182Y0230972D02*
X0185082Y0230972D01*
X0185082Y0231970D02*
X0215182Y0231970D01*
X0215182Y0232969D02*
X0185082Y0232969D01*
X0185082Y0233967D02*
X0215182Y0233967D01*
X0215182Y0234966D02*
X0185082Y0234966D01*
X0185082Y0235964D02*
X0215182Y0235964D01*
X0215182Y0236963D02*
X0185082Y0236963D01*
X0185082Y0237961D02*
X0215182Y0237961D01*
X0215182Y0238960D02*
X0185082Y0238960D01*
X0185082Y0239958D02*
X0215182Y0239958D01*
X0215182Y0240957D02*
X0185082Y0240957D01*
X0185082Y0241955D02*
X0215182Y0241955D01*
X0215182Y0242954D02*
X0185082Y0242954D01*
X0185082Y0243952D02*
X0215182Y0243952D01*
X0215182Y0244951D02*
X0185082Y0244951D01*
X0185082Y0245949D02*
X0215182Y0245949D01*
X0215182Y0246948D02*
X0185082Y0246948D01*
X0185082Y0247946D02*
X0215182Y0247946D01*
X0215182Y0248945D02*
X0185412Y0248945D01*
X0185782Y0249943D02*
X0215182Y0249943D01*
X0215182Y0250942D02*
X0185736Y0250942D01*
X0185210Y0251940D02*
X0215182Y0251940D01*
X0220836Y0266918D02*
X0227914Y0266918D01*
X0228581Y0267916D02*
X0221835Y0267916D01*
X0222833Y0268915D02*
X0229519Y0268915D01*
X0230518Y0269914D02*
X0223832Y0269914D01*
X0224830Y0270912D02*
X0231516Y0270912D01*
X0232589Y0271911D02*
X0225829Y0271911D01*
X0226827Y0272909D02*
X0234083Y0272909D01*
X0235577Y0273908D02*
X0227826Y0273908D01*
X0228824Y0274906D02*
X0237316Y0274906D01*
X0239726Y0275905D02*
X0229823Y0275905D01*
X0230821Y0276903D02*
X0242870Y0276903D01*
X0236812Y0282894D02*
X0263298Y0282894D01*
X0263298Y0281896D02*
X0235814Y0281896D01*
X0234815Y0280897D02*
X0263298Y0280897D01*
X0263298Y0279899D02*
X0233817Y0279899D01*
X0232818Y0278900D02*
X0263298Y0278900D01*
X0263298Y0277902D02*
X0231820Y0277902D01*
X0228876Y0280897D02*
X0222340Y0280897D01*
X0223338Y0281896D02*
X0229874Y0281896D01*
X0230873Y0282894D02*
X0224337Y0282894D01*
X0225335Y0283893D02*
X0231871Y0283893D01*
X0232870Y0284891D02*
X0226177Y0284891D01*
X0226844Y0285890D02*
X0233868Y0285890D01*
X0234867Y0286888D02*
X0227511Y0286888D01*
X0228178Y0287887D02*
X0235865Y0287887D01*
X0236864Y0288885D02*
X0228805Y0288885D01*
X0229218Y0289884D02*
X0237862Y0289884D01*
X0238861Y0290882D02*
X0229632Y0290882D01*
X0230046Y0291881D02*
X0239859Y0291881D01*
X0240858Y0292879D02*
X0230459Y0292879D01*
X0230794Y0293878D02*
X0241856Y0293878D01*
X0242855Y0294876D02*
X0230993Y0294876D01*
X0231191Y0295875D02*
X0243853Y0295875D01*
X0244852Y0296873D02*
X0231390Y0296873D01*
X0231588Y0297872D02*
X0245850Y0297872D01*
X0246849Y0298870D02*
X0231732Y0298870D01*
X0231732Y0299869D02*
X0247847Y0299869D01*
X0248846Y0300867D02*
X0231732Y0300867D01*
X0231732Y0301866D02*
X0249844Y0301866D01*
X0250843Y0302864D02*
X0231732Y0302864D01*
X0231714Y0303863D02*
X0251841Y0303863D01*
X0252182Y0304861D02*
X0231515Y0304861D01*
X0231317Y0305860D02*
X0252182Y0305860D01*
X0252182Y0306858D02*
X0231118Y0306858D01*
X0230920Y0307857D02*
X0252182Y0307857D01*
X0252182Y0308855D02*
X0230721Y0308855D01*
X0230307Y0309854D02*
X0252182Y0309854D01*
X0252182Y0310852D02*
X0229894Y0310852D01*
X0229480Y0311851D02*
X0252182Y0311851D01*
X0249412Y0312850D02*
X0229066Y0312850D01*
X0228600Y0313848D02*
X0247606Y0313848D01*
X0246388Y0314847D02*
X0227933Y0314847D01*
X0227266Y0315845D02*
X0245472Y0315845D01*
X0244695Y0316844D02*
X0226599Y0316844D01*
X0225931Y0317842D02*
X0244149Y0317842D01*
X0243604Y0318841D02*
X0224968Y0318841D01*
X0223970Y0319839D02*
X0243248Y0319839D01*
X0243030Y0320838D02*
X0222971Y0320838D01*
X0221861Y0321836D02*
X0242813Y0321836D01*
X0242732Y0322835D02*
X0220367Y0322835D01*
X0218872Y0323833D02*
X0242692Y0323833D01*
X0242732Y0324832D02*
X0217064Y0324832D01*
X0214654Y0325830D02*
X0242732Y0325830D01*
X0242732Y0326829D02*
X0211312Y0326829D01*
X0199552Y0326829D02*
X0173356Y0326829D01*
X0173356Y0327827D02*
X0242732Y0327827D01*
X0242732Y0328826D02*
X0173356Y0328826D01*
X0173356Y0329824D02*
X0242732Y0329824D01*
X0242732Y0330823D02*
X0173242Y0330823D01*
X0173043Y0331821D02*
X0242732Y0331821D01*
X0256382Y0311851D02*
X0263298Y0311851D01*
X0263298Y0312850D02*
X0259151Y0312850D01*
X0260958Y0313848D02*
X0263298Y0313848D01*
X0263298Y0314847D02*
X0262175Y0314847D01*
X0263091Y0315845D02*
X0263298Y0315845D01*
X0263298Y0310852D02*
X0256382Y0310852D01*
X0256382Y0309854D02*
X0263298Y0309854D01*
X0263298Y0308855D02*
X0256382Y0308855D01*
X0256382Y0307857D02*
X0263298Y0307857D01*
X0263298Y0306858D02*
X0256382Y0306858D01*
X0256382Y0305860D02*
X0263298Y0305860D01*
X0263298Y0304861D02*
X0256382Y0304861D01*
X0256382Y0303863D02*
X0263298Y0303863D01*
X0263298Y0302864D02*
X0256382Y0302864D01*
X0255784Y0301866D02*
X0263298Y0301866D01*
X0263298Y0300867D02*
X0254785Y0300867D01*
X0253787Y0299869D02*
X0263298Y0299869D01*
X0263298Y0298870D02*
X0252788Y0298870D01*
X0251790Y0297872D02*
X0263298Y0297872D01*
X0263298Y0296873D02*
X0250791Y0296873D01*
X0249793Y0295875D02*
X0263298Y0295875D01*
X0263298Y0294876D02*
X0248794Y0294876D01*
X0247796Y0293878D02*
X0263298Y0293878D01*
X0263298Y0292879D02*
X0246797Y0292879D01*
X0245799Y0291881D02*
X0263298Y0291881D01*
X0263298Y0290882D02*
X0244800Y0290882D01*
X0243802Y0289884D02*
X0263298Y0289884D01*
X0263298Y0288885D02*
X0242803Y0288885D01*
X0241805Y0287887D02*
X0263298Y0287887D01*
X0263298Y0286888D02*
X0240806Y0286888D01*
X0239808Y0285890D02*
X0263298Y0285890D01*
X0263298Y0284891D02*
X0238809Y0284891D01*
X0237811Y0283893D02*
X0263298Y0283893D01*
X0263298Y0276903D02*
X0255393Y0276903D01*
X0258536Y0275905D02*
X0263298Y0275905D01*
X0263298Y0274906D02*
X0260947Y0274906D01*
X0262685Y0273908D02*
X0263298Y0273908D01*
X0227877Y0279899D02*
X0220916Y0279899D01*
X0219422Y0278900D02*
X0226879Y0278900D01*
X0225880Y0277902D02*
X0217927Y0277902D01*
X0215540Y0276903D02*
X0224882Y0276903D01*
X0223883Y0275905D02*
X0213130Y0275905D01*
X0183282Y0250333D02*
X0183282Y0143333D01*
X0183821Y0140107D02*
X0180382Y0140107D01*
X0180382Y0139109D02*
X0184819Y0139109D01*
X0185082Y0147097D02*
X0204871Y0147097D01*
X0204582Y0148095D02*
X0185082Y0148095D01*
X0185082Y0149094D02*
X0204674Y0149094D01*
X0205222Y0150092D02*
X0185082Y0150092D01*
X0185082Y0151091D02*
X0212069Y0151091D01*
X0213068Y0152089D02*
X0185082Y0152089D01*
X0185082Y0153088D02*
X0214066Y0153088D01*
X0215065Y0154086D02*
X0185082Y0154086D01*
X0185082Y0155085D02*
X0215182Y0155085D01*
X0215182Y0156083D02*
X0185082Y0156083D01*
X0185082Y0157082D02*
X0215182Y0157082D01*
X0215182Y0158080D02*
X0185082Y0158080D01*
X0185082Y0159079D02*
X0215182Y0159079D01*
X0215182Y0160077D02*
X0185082Y0160077D01*
X0185082Y0161076D02*
X0215182Y0161076D01*
X0215182Y0162074D02*
X0185082Y0162074D01*
X0185082Y0163073D02*
X0215182Y0163073D01*
X0215182Y0164071D02*
X0185082Y0164071D01*
X0185082Y0165070D02*
X0215182Y0165070D01*
X0215182Y0166068D02*
X0185082Y0166068D01*
X0185082Y0167067D02*
X0215182Y0167067D01*
X0215182Y0168065D02*
X0185082Y0168065D01*
X0185082Y0169064D02*
X0215182Y0169064D01*
X0215182Y0170062D02*
X0185082Y0170062D01*
X0185082Y0171061D02*
X0215182Y0171061D01*
X0215182Y0172059D02*
X0185082Y0172059D01*
X0185082Y0173058D02*
X0215182Y0173058D01*
X0215182Y0174056D02*
X0185082Y0174056D01*
X0185082Y0175055D02*
X0215182Y0175055D01*
X0215182Y0176053D02*
X0185082Y0176053D01*
X0185082Y0177052D02*
X0215182Y0177052D01*
X0215182Y0178050D02*
X0185082Y0178050D01*
X0185082Y0179049D02*
X0215182Y0179049D01*
X0215182Y0180048D02*
X0185082Y0180048D01*
X0185082Y0181046D02*
X0215182Y0181046D01*
X0215182Y0182045D02*
X0185082Y0182045D01*
X0185082Y0183043D02*
X0215182Y0183043D01*
X0215182Y0184042D02*
X0185082Y0184042D01*
X0185082Y0185040D02*
X0215182Y0185040D01*
X0215182Y0186039D02*
X0185082Y0186039D01*
X0185082Y0187037D02*
X0215182Y0187037D01*
X0215182Y0188036D02*
X0185082Y0188036D01*
X0185082Y0189034D02*
X0215182Y0189034D01*
X0215182Y0190033D02*
X0185082Y0190033D01*
X0185082Y0191031D02*
X0215182Y0191031D01*
X0215182Y0192030D02*
X0185082Y0192030D01*
X0185082Y0193028D02*
X0215182Y0193028D01*
X0215182Y0194027D02*
X0185082Y0194027D01*
X0185082Y0195025D02*
X0215182Y0195025D01*
X0215182Y0196024D02*
X0185082Y0196024D01*
X0185082Y0197022D02*
X0215182Y0197022D01*
X0215182Y0198021D02*
X0185082Y0198021D01*
X0185082Y0199019D02*
X0215182Y0199019D01*
X0215182Y0200018D02*
X0185082Y0200018D01*
X0185082Y0201016D02*
X0215182Y0201016D01*
X0215182Y0202015D02*
X0185082Y0202015D01*
X0185082Y0203013D02*
X0215182Y0203013D01*
X0215182Y0204012D02*
X0185082Y0204012D01*
X0185082Y0205010D02*
X0215182Y0205010D01*
X0215182Y0206009D02*
X0185082Y0206009D01*
X0185082Y0207007D02*
X0215182Y0207007D01*
X0215182Y0208006D02*
X0189195Y0208006D01*
X0187368Y0208006D02*
X0185082Y0208006D01*
X0185082Y0209004D02*
X0186126Y0209004D01*
X0185782Y0210003D02*
X0185082Y0210003D01*
X0185082Y0211001D02*
X0185852Y0211001D01*
X0186413Y0212000D02*
X0185082Y0212000D01*
X0191640Y0209004D02*
X0215182Y0209004D01*
X0219382Y0181046D02*
X0245024Y0181046D01*
X0244026Y0180048D02*
X0219382Y0180048D01*
X0219382Y0179049D02*
X0243027Y0179049D01*
X0242029Y0178050D02*
X0219382Y0178050D01*
X0219382Y0177052D02*
X0241030Y0177052D01*
X0240032Y0176053D02*
X0219382Y0176053D01*
X0219382Y0175055D02*
X0239033Y0175055D01*
X0238035Y0174056D02*
X0219382Y0174056D01*
X0219382Y0173058D02*
X0237036Y0173058D01*
X0236038Y0172059D02*
X0219382Y0172059D01*
X0219382Y0171061D02*
X0235039Y0171061D01*
X0239980Y0170062D02*
X0249476Y0170062D01*
X0249723Y0171061D02*
X0240979Y0171061D01*
X0241978Y0172059D02*
X0250192Y0172059D01*
X0251016Y0173058D02*
X0242976Y0173058D01*
X0257633Y0165070D02*
X0263298Y0165070D01*
X0263298Y0166068D02*
X0258694Y0166068D01*
X0259315Y0167067D02*
X0263298Y0167067D01*
X0263298Y0168065D02*
X0259685Y0168065D01*
X0259099Y0164071D02*
X0263298Y0164071D01*
X0263298Y0163073D02*
X0259622Y0163073D01*
X0259622Y0162074D02*
X0263298Y0162074D01*
X0263298Y0161076D02*
X0259622Y0161076D01*
X0259622Y0160077D02*
X0263298Y0160077D01*
X0263298Y0159079D02*
X0259622Y0159079D01*
X0259622Y0158080D02*
X0263298Y0158080D01*
X0263298Y0157082D02*
X0259622Y0157082D01*
X0259622Y0156083D02*
X0263298Y0156083D01*
X0263298Y0155085D02*
X0259622Y0155085D01*
X0258850Y0104161D02*
X0263298Y0104161D01*
X0263298Y0103162D02*
X0262537Y0103162D01*
X0204507Y0142104D02*
X0203046Y0142104D01*
X0176499Y0114146D02*
X0150298Y0114146D01*
X0151296Y0113147D02*
X0177498Y0113147D01*
X0178496Y0112149D02*
X0152295Y0112149D01*
X0153293Y0111150D02*
X0179495Y0111150D01*
X0181570Y0106158D02*
X0169924Y0106158D01*
X0166639Y0106158D02*
X0162003Y0106158D01*
X0163001Y0105159D02*
X0180918Y0105159D01*
X0180563Y0104161D02*
X0164000Y0104161D01*
X0164082Y0103162D02*
X0179565Y0103162D01*
X0179482Y0102164D02*
X0164082Y0102164D01*
X0164082Y0101165D02*
X0179482Y0101165D01*
X0179482Y0100167D02*
X0164082Y0100167D01*
X0164082Y0099168D02*
X0169581Y0099168D01*
X0168922Y0098170D02*
X0164082Y0098170D01*
X0164082Y0097171D02*
X0168782Y0097171D01*
X0169056Y0096173D02*
X0164082Y0096173D01*
X0164082Y0095174D02*
X0169482Y0095174D01*
X0169482Y0094176D02*
X0164082Y0094176D01*
X0164082Y0093177D02*
X0169482Y0093177D01*
X0169482Y0092179D02*
X0164082Y0092179D01*
X0164082Y0091180D02*
X0169482Y0091180D01*
X0169482Y0090181D02*
X0164082Y0090181D01*
X0164082Y0089183D02*
X0169482Y0089183D01*
X0169482Y0088184D02*
X0163178Y0088184D01*
X0162180Y0087186D02*
X0169482Y0087186D01*
X0169482Y0086187D02*
X0161181Y0086187D01*
X0160721Y0085189D02*
X0169482Y0085189D01*
X0169482Y0084190D02*
X0160174Y0084190D01*
X0157082Y0083192D02*
X0169482Y0083192D01*
X0163611Y0079198D02*
X0160224Y0079198D01*
X0154867Y0076202D02*
X0138618Y0076202D01*
X0138682Y0077201D02*
X0153868Y0077201D01*
X0152870Y0078199D02*
X0143401Y0078199D01*
X0144409Y0079198D02*
X0151871Y0079198D01*
X0143282Y0083333D02*
X0137782Y0083333D01*
X0133782Y0087333D01*
X0132282Y0087333D01*
X0133282Y0089333D02*
X0136282Y0089333D01*
X0138282Y0087333D01*
X0139637Y0085189D02*
X0141602Y0085189D01*
X0141282Y0081333D02*
X0142282Y0080333D01*
X0141282Y0081333D02*
X0133782Y0081333D01*
X0134898Y0079198D02*
X0135719Y0079198D01*
X0136845Y0079198D02*
X0140154Y0079198D01*
X0141162Y0078199D02*
X0138310Y0078199D01*
X0136282Y0076833D02*
X0133782Y0076833D01*
X0131282Y0079333D01*
X0124282Y0076333D02*
X0124282Y0083333D01*
X0115282Y0092333D01*
X0109282Y0092333D01*
X0105432Y0087186D02*
X0114883Y0087186D01*
X0115882Y0086187D02*
X0105638Y0086187D01*
X0105638Y0085189D02*
X0116880Y0085189D01*
X0117879Y0084190D02*
X0105312Y0084190D01*
X0104777Y0083192D02*
X0118877Y0083192D01*
X0119482Y0082193D02*
X0103779Y0082193D01*
X0098897Y0082193D02*
X0093984Y0082193D01*
X0094981Y0083192D02*
X0097898Y0083192D01*
X0097364Y0084190D02*
X0095536Y0084190D01*
X0095792Y0085189D02*
X0097038Y0085189D01*
X0091838Y0084190D02*
X0090838Y0084190D01*
X0090838Y0083192D02*
X0091838Y0083192D01*
X0091838Y0082193D02*
X0090838Y0082193D01*
X0088692Y0082193D02*
X0083779Y0082193D01*
X0084777Y0083192D02*
X0087695Y0083192D01*
X0087140Y0084190D02*
X0085312Y0084190D01*
X0085638Y0085189D02*
X0086884Y0085189D01*
X0082282Y0095333D02*
X0081282Y0096333D01*
X0081282Y0103833D01*
X0076556Y0109153D02*
X0070188Y0109153D01*
X0071187Y0110152D02*
X0077554Y0110152D01*
X0078453Y0111150D02*
X0072048Y0111150D01*
X0072461Y0112149D02*
X0079285Y0112149D01*
X0080117Y0113147D02*
X0072875Y0113147D01*
X0073138Y0114146D02*
X0080949Y0114146D01*
X0081781Y0115144D02*
X0073138Y0115144D01*
X0073138Y0116143D02*
X0082545Y0116143D01*
X0084288Y0117141D02*
X0073032Y0117141D01*
X0078183Y0126128D02*
X0057488Y0126128D01*
X0057782Y0127126D02*
X0077570Y0127126D01*
X0077208Y0128125D02*
X0057660Y0128125D01*
X0053482Y0125129D02*
X0053082Y0125129D01*
X0053082Y0124131D02*
X0053938Y0124131D01*
X0053082Y0123132D02*
X0054937Y0123132D01*
X0055935Y0122134D02*
X0053082Y0122134D01*
X0053082Y0121135D02*
X0060109Y0121135D01*
X0059110Y0120137D02*
X0053082Y0120137D01*
X0053082Y0119138D02*
X0058471Y0119138D01*
X0058058Y0118140D02*
X0053082Y0118140D01*
X0053082Y0117141D02*
X0057644Y0117141D01*
X0057538Y0116143D02*
X0053082Y0116143D01*
X0053082Y0115144D02*
X0057538Y0115144D01*
X0057538Y0114146D02*
X0053082Y0114146D01*
X0054013Y0113147D02*
X0057801Y0113147D01*
X0058214Y0112149D02*
X0055012Y0112149D01*
X0055082Y0111150D02*
X0058628Y0111150D01*
X0059488Y0110152D02*
X0055082Y0110152D01*
X0055082Y0109153D02*
X0060487Y0109153D01*
X0062286Y0108155D02*
X0055082Y0108155D01*
X0055082Y0107156D02*
X0074559Y0107156D01*
X0073560Y0106158D02*
X0055082Y0106158D01*
X0055082Y0105159D02*
X0072562Y0105159D01*
X0071563Y0104161D02*
X0056000Y0104161D01*
X0056998Y0103162D02*
X0070565Y0103162D01*
X0069566Y0102164D02*
X0057997Y0102164D01*
X0058995Y0101165D02*
X0068568Y0101165D01*
X0067569Y0100167D02*
X0059994Y0100167D01*
X0060992Y0099168D02*
X0066571Y0099168D01*
X0065572Y0098170D02*
X0062981Y0098170D01*
X0063641Y0097171D02*
X0064574Y0097171D01*
X0068389Y0108155D02*
X0075557Y0108155D01*
X0084924Y0117141D02*
X0093695Y0117141D01*
X0100028Y0123132D02*
X0115784Y0123132D01*
X0113373Y0122134D02*
X0101027Y0122134D01*
X0099414Y0125129D02*
X0098031Y0125129D01*
X0098416Y0126128D02*
X0086380Y0126128D01*
X0086993Y0127126D02*
X0097784Y0127126D01*
X0097370Y0128125D02*
X0087355Y0128125D01*
X0077983Y0140107D02*
X0075053Y0140107D01*
X0074055Y0141106D02*
X0077399Y0141106D01*
X0077038Y0142104D02*
X0073056Y0142104D01*
X0072058Y0143103D02*
X0077038Y0143103D01*
X0077209Y0144101D02*
X0071059Y0144101D01*
X0070061Y0145100D02*
X0077622Y0145100D01*
X0078521Y0146098D02*
X0069062Y0146098D01*
X0069082Y0146079D02*
X0069082Y0146079D01*
X0068064Y0147097D02*
X0080394Y0147097D01*
X0082282Y0147097D02*
X0083055Y0147097D01*
X0084054Y0148095D02*
X0044782Y0148095D01*
X0045587Y0149094D02*
X0085053Y0149094D01*
X0085838Y0147333D02*
X0081338Y0142833D01*
X0085838Y0147333D02*
X0113282Y0147333D01*
X0113980Y0152089D02*
X0083397Y0152089D01*
X0084472Y0153088D02*
X0112982Y0153088D01*
X0111983Y0154086D02*
X0084782Y0154086D01*
X0084676Y0155085D02*
X0110985Y0155085D01*
X0110482Y0156083D02*
X0109067Y0156083D01*
X0109676Y0157082D02*
X0110094Y0157082D01*
X0109782Y0158080D02*
X0109782Y0158080D01*
X0109884Y0159079D02*
X0109472Y0159079D01*
X0112282Y0158333D02*
X0112282Y0156333D01*
X0115282Y0153333D01*
X0120282Y0153333D01*
X0122066Y0155085D02*
X0138843Y0155085D01*
X0139782Y0154086D02*
X0122676Y0154086D01*
X0122782Y0153088D02*
X0140092Y0153088D01*
X0141167Y0152089D02*
X0122472Y0152089D01*
X0121400Y0151091D02*
X0173982Y0151091D01*
X0173982Y0152089D02*
X0173397Y0152089D01*
X0171167Y0152089D02*
X0143397Y0152089D01*
X0144472Y0153088D02*
X0144840Y0153088D01*
X0146220Y0157082D02*
X0170988Y0157082D01*
X0173083Y0160077D02*
X0176182Y0160077D01*
X0176182Y0159079D02*
X0174082Y0159079D01*
X0175080Y0158080D02*
X0176182Y0158080D01*
X0176182Y0157082D02*
X0176079Y0157082D01*
X0176182Y0161076D02*
X0172085Y0161076D01*
X0176182Y0162074D02*
X0156086Y0162074D01*
X0155088Y0163073D02*
X0176182Y0163073D01*
X0176182Y0164071D02*
X0154089Y0164071D01*
X0153091Y0165070D02*
X0175575Y0165070D01*
X0174577Y0166068D02*
X0152092Y0166068D01*
X0151094Y0167067D02*
X0173578Y0167067D01*
X0172580Y0168065D02*
X0151082Y0168065D01*
X0151082Y0169064D02*
X0172182Y0169064D01*
X0172182Y0170062D02*
X0151082Y0170062D01*
X0151082Y0171061D02*
X0172182Y0171061D01*
X0172182Y0172059D02*
X0151082Y0172059D01*
X0151082Y0173058D02*
X0172182Y0173058D01*
X0172182Y0174056D02*
X0151082Y0174056D01*
X0151082Y0175055D02*
X0172182Y0175055D01*
X0172182Y0176053D02*
X0151082Y0176053D01*
X0151082Y0177052D02*
X0172182Y0177052D01*
X0172182Y0178050D02*
X0151082Y0178050D01*
X0151082Y0179049D02*
X0172182Y0179049D01*
X0172182Y0180048D02*
X0151455Y0180048D01*
X0151782Y0181046D02*
X0172182Y0181046D01*
X0172182Y0182045D02*
X0151693Y0182045D01*
X0151107Y0183043D02*
X0172182Y0183043D01*
X0172182Y0184042D02*
X0135382Y0184042D01*
X0135382Y0185040D02*
X0172182Y0185040D01*
X0172182Y0186039D02*
X0135382Y0186039D01*
X0135382Y0187037D02*
X0172182Y0187037D01*
X0172182Y0188036D02*
X0135666Y0188036D01*
X0135982Y0189034D02*
X0172182Y0189034D01*
X0172182Y0190033D02*
X0135914Y0190033D01*
X0135402Y0191031D02*
X0172182Y0191031D01*
X0172182Y0192030D02*
X0133828Y0192030D01*
X0132736Y0192030D02*
X0104182Y0192030D01*
X0104182Y0193028D02*
X0125314Y0193028D01*
X0124865Y0193214D02*
X0125784Y0192833D01*
X0126779Y0192833D01*
X0127698Y0193214D01*
X0128401Y0193917D01*
X0128782Y0194836D01*
X0128782Y0195831D01*
X0128401Y0196749D01*
X0127698Y0197453D01*
X0126779Y0197833D01*
X0126469Y0197833D01*
X0119182Y0205120D01*
X0118069Y0206233D01*
X0113917Y0206233D01*
X0113698Y0206453D01*
X0112779Y0206833D01*
X0111784Y0206833D01*
X0110865Y0206453D01*
X0110162Y0205749D01*
X0109782Y0204831D01*
X0109782Y0203836D01*
X0110162Y0202917D01*
X0110865Y0202214D01*
X0111784Y0201833D01*
X0112779Y0201833D01*
X0113698Y0202214D01*
X0113917Y0202433D01*
X0116495Y0202433D01*
X0123782Y0195146D01*
X0123782Y0194836D01*
X0124162Y0193917D01*
X0124865Y0193214D01*
X0124117Y0194027D02*
X0104182Y0194027D01*
X0104182Y0195025D02*
X0123782Y0195025D01*
X0122904Y0196024D02*
X0104182Y0196024D01*
X0104182Y0197022D02*
X0121906Y0197022D01*
X0120907Y0198021D02*
X0104182Y0198021D01*
X0104182Y0199019D02*
X0119909Y0199019D01*
X0118910Y0200018D02*
X0104182Y0200018D01*
X0104182Y0201016D02*
X0117912Y0201016D01*
X0116913Y0202015D02*
X0113217Y0202015D01*
X0111346Y0202015D02*
X0104182Y0202015D01*
X0104182Y0203013D02*
X0110122Y0203013D01*
X0109782Y0204012D02*
X0104182Y0204012D01*
X0104182Y0205010D02*
X0109856Y0205010D01*
X0110422Y0206009D02*
X0104182Y0206009D01*
X0104182Y0207007D02*
X0172182Y0207007D01*
X0172182Y0206009D02*
X0118293Y0206009D01*
X0119292Y0205010D02*
X0172182Y0205010D01*
X0172182Y0204012D02*
X0120290Y0204012D01*
X0121289Y0203013D02*
X0172182Y0203013D01*
X0172182Y0202015D02*
X0122287Y0202015D01*
X0123286Y0201016D02*
X0172182Y0201016D01*
X0172182Y0200018D02*
X0124284Y0200018D01*
X0125283Y0199019D02*
X0172182Y0199019D01*
X0172182Y0198021D02*
X0126281Y0198021D01*
X0128128Y0197022D02*
X0172182Y0197022D01*
X0172182Y0196024D02*
X0128702Y0196024D01*
X0128782Y0195025D02*
X0172182Y0195025D01*
X0172182Y0194027D02*
X0128446Y0194027D01*
X0127249Y0193028D02*
X0172182Y0193028D01*
X0172182Y0208006D02*
X0104182Y0208006D01*
X0104182Y0209004D02*
X0167371Y0209004D01*
X0165925Y0210003D02*
X0133138Y0210003D01*
X0134137Y0211001D02*
X0164927Y0211001D01*
X0167305Y0213997D02*
X0172182Y0213997D01*
X0172182Y0214995D02*
X0166307Y0214995D01*
X0169192Y0209004D02*
X0172182Y0209004D01*
X0172182Y0210003D02*
X0170436Y0210003D01*
X0170782Y0211001D02*
X0172182Y0211001D01*
X0172182Y0212000D02*
X0170711Y0212000D01*
X0170152Y0212998D02*
X0172182Y0212998D01*
X0172182Y0215994D02*
X0129808Y0215994D01*
X0128809Y0216992D02*
X0172182Y0216992D01*
X0172182Y0217991D02*
X0127811Y0217991D01*
X0126812Y0218989D02*
X0172182Y0218989D01*
X0172182Y0219988D02*
X0125814Y0219988D01*
X0124815Y0220986D02*
X0172182Y0220986D01*
X0172182Y0221985D02*
X0123817Y0221985D01*
X0122818Y0222983D02*
X0172182Y0222983D01*
X0172182Y0223982D02*
X0121820Y0223982D01*
X0120821Y0224981D02*
X0172182Y0224981D01*
X0172182Y0225979D02*
X0119823Y0225979D01*
X0118824Y0226978D02*
X0172182Y0226978D01*
X0172182Y0227976D02*
X0117826Y0227976D01*
X0116827Y0228975D02*
X0172182Y0228975D01*
X0172182Y0229973D02*
X0115829Y0229973D01*
X0114830Y0230972D02*
X0172182Y0230972D01*
X0172182Y0231970D02*
X0113832Y0231970D01*
X0112833Y0232969D02*
X0172182Y0232969D01*
X0172182Y0233967D02*
X0111835Y0233967D01*
X0110836Y0234966D02*
X0172182Y0234966D01*
X0172182Y0235964D02*
X0109838Y0235964D01*
X0104442Y0217991D02*
X0122437Y0217991D01*
X0123435Y0216992D02*
X0104931Y0216992D01*
X0104982Y0215994D02*
X0124434Y0215994D01*
X0125433Y0214995D02*
X0104650Y0214995D01*
X0104182Y0213997D02*
X0126431Y0213997D01*
X0127430Y0212998D02*
X0104182Y0212998D01*
X0104182Y0212000D02*
X0128428Y0212000D01*
X0129427Y0211001D02*
X0104182Y0211001D01*
X0104182Y0210003D02*
X0130425Y0210003D01*
X0131882Y0214120D02*
X0131882Y0214120D01*
X0132757Y0214995D02*
X0130807Y0214995D01*
X0131161Y0191031D02*
X0104182Y0191031D01*
X0100382Y0191031D02*
X0093782Y0191031D01*
X0093699Y0192030D02*
X0100382Y0192030D01*
X0100382Y0193028D02*
X0093122Y0193028D01*
X0093082Y0194027D02*
X0100382Y0194027D01*
X0100382Y0195025D02*
X0093082Y0195025D01*
X0093082Y0196024D02*
X0100382Y0196024D01*
X0100382Y0197022D02*
X0093082Y0197022D01*
X0093082Y0198021D02*
X0100382Y0198021D01*
X0100382Y0199019D02*
X0093082Y0199019D01*
X0093082Y0200018D02*
X0100382Y0200018D01*
X0100382Y0201016D02*
X0093082Y0201016D01*
X0093082Y0202015D02*
X0100382Y0202015D01*
X0100382Y0203013D02*
X0093082Y0203013D01*
X0093082Y0204012D02*
X0100382Y0204012D01*
X0100382Y0205010D02*
X0093440Y0205010D01*
X0093782Y0206009D02*
X0100382Y0206009D01*
X0100382Y0207007D02*
X0093708Y0207007D01*
X0093145Y0208006D02*
X0100382Y0208006D01*
X0100163Y0190033D02*
X0093449Y0190033D01*
X0104382Y0186039D02*
X0107451Y0186039D01*
X0106868Y0185040D02*
X0104382Y0185040D01*
X0104382Y0184042D02*
X0106782Y0184042D01*
X0107110Y0183043D02*
X0104382Y0183043D01*
X0104382Y0182045D02*
X0108274Y0182045D01*
X0110289Y0182045D02*
X0127274Y0182045D01*
X0129289Y0182045D02*
X0131182Y0182045D01*
X0131182Y0183043D02*
X0130453Y0183043D01*
X0130782Y0184042D02*
X0131182Y0184042D01*
X0131182Y0185040D02*
X0130695Y0185040D01*
X0131182Y0186039D02*
X0130112Y0186039D01*
X0128282Y0184333D02*
X0109282Y0184333D01*
X0107779Y0178833D02*
X0106784Y0178833D01*
X0105865Y0178453D01*
X0105162Y0177749D01*
X0104782Y0176831D01*
X0104782Y0175836D01*
X0105162Y0174917D01*
X0105865Y0174214D01*
X0106784Y0173833D01*
X0107779Y0173833D01*
X0108698Y0174214D01*
X0108917Y0174433D01*
X0119495Y0174433D01*
X0123782Y0170146D01*
X0123782Y0169836D01*
X0124162Y0168917D01*
X0124865Y0168214D01*
X0125784Y0167833D01*
X0126779Y0167833D01*
X0127698Y0168214D01*
X0128401Y0168917D01*
X0128782Y0169836D01*
X0128782Y0170831D01*
X0128401Y0171749D01*
X0127698Y0172453D01*
X0126779Y0172833D01*
X0126469Y0172833D01*
X0121069Y0178233D01*
X0108917Y0178233D01*
X0108698Y0178453D01*
X0107779Y0178833D01*
X0105463Y0178050D02*
X0104382Y0178050D01*
X0104382Y0177052D02*
X0104873Y0177052D01*
X0104782Y0176053D02*
X0104382Y0176053D01*
X0104382Y0175055D02*
X0105105Y0175055D01*
X0104382Y0174056D02*
X0106246Y0174056D01*
X0108317Y0174056D02*
X0119871Y0174056D01*
X0120870Y0173058D02*
X0104382Y0173058D01*
X0104382Y0172059D02*
X0121869Y0172059D01*
X0122867Y0171061D02*
X0104903Y0171061D01*
X0104982Y0170062D02*
X0123782Y0170062D01*
X0124101Y0169064D02*
X0104678Y0169064D01*
X0103832Y0168065D02*
X0125224Y0168065D01*
X0127339Y0168065D02*
X0131731Y0168065D01*
X0130885Y0169064D02*
X0128462Y0169064D01*
X0128782Y0170062D02*
X0130582Y0170062D01*
X0130661Y0171061D02*
X0128686Y0171061D01*
X0128091Y0172059D02*
X0131182Y0172059D01*
X0131182Y0173058D02*
X0126244Y0173058D01*
X0125245Y0174056D02*
X0131182Y0174056D01*
X0131182Y0175055D02*
X0124247Y0175055D01*
X0123248Y0176053D02*
X0131182Y0176053D01*
X0131182Y0177052D02*
X0122250Y0177052D01*
X0121251Y0178050D02*
X0131182Y0178050D01*
X0131182Y0179049D02*
X0104382Y0179049D01*
X0104382Y0180048D02*
X0131182Y0180048D01*
X0131182Y0181046D02*
X0104382Y0181046D01*
X0092234Y0166068D02*
X0147482Y0166068D01*
X0147999Y0165070D02*
X0138232Y0165070D01*
X0139231Y0164071D02*
X0148998Y0164071D01*
X0149997Y0163073D02*
X0140229Y0163073D01*
X0141228Y0162074D02*
X0150995Y0162074D01*
X0151994Y0161076D02*
X0142226Y0161076D01*
X0143225Y0160077D02*
X0152992Y0160077D01*
X0153991Y0159079D02*
X0144223Y0159079D01*
X0145222Y0158080D02*
X0154989Y0158080D01*
X0159282Y0145333D02*
X0121282Y0145333D01*
X0118495Y0150092D02*
X0070586Y0150092D01*
X0071585Y0151091D02*
X0119163Y0151091D01*
X0115077Y0156083D02*
X0137845Y0156083D01*
X0136846Y0157082D02*
X0114469Y0157082D01*
X0114782Y0158080D02*
X0135848Y0158080D01*
X0134849Y0159079D02*
X0114679Y0159079D01*
X0105496Y0156083D02*
X0084182Y0156083D01*
X0084182Y0157082D02*
X0104887Y0157082D01*
X0088848Y0158080D02*
X0084182Y0158080D01*
X0084182Y0159079D02*
X0087849Y0159079D01*
X0086851Y0160077D02*
X0084182Y0160077D01*
X0084182Y0161076D02*
X0085852Y0161076D01*
X0084854Y0162074D02*
X0084182Y0162074D01*
X0080382Y0162074D02*
X0074082Y0162074D01*
X0074082Y0161076D02*
X0080382Y0161076D01*
X0080382Y0160077D02*
X0074082Y0160077D01*
X0074082Y0159079D02*
X0080382Y0159079D01*
X0080382Y0158080D02*
X0074082Y0158080D01*
X0074082Y0157082D02*
X0080382Y0157082D01*
X0080382Y0156083D02*
X0074082Y0156083D01*
X0074082Y0155085D02*
X0079887Y0155085D01*
X0079782Y0154086D02*
X0074082Y0154086D01*
X0073582Y0153088D02*
X0080092Y0153088D01*
X0081167Y0152089D02*
X0072583Y0152089D01*
X0074082Y0163073D02*
X0080382Y0163073D01*
X0080382Y0164071D02*
X0074082Y0164071D01*
X0074082Y0165070D02*
X0080382Y0165070D01*
X0080382Y0166068D02*
X0074082Y0166068D01*
X0074082Y0167067D02*
X0080382Y0167067D01*
X0080382Y0168065D02*
X0074082Y0168065D01*
X0074082Y0169064D02*
X0080382Y0169064D01*
X0080382Y0170062D02*
X0074082Y0170062D01*
X0074082Y0171061D02*
X0080382Y0171061D01*
X0080382Y0172059D02*
X0074082Y0172059D01*
X0074082Y0173058D02*
X0080382Y0173058D01*
X0080382Y0174056D02*
X0074082Y0174056D01*
X0074082Y0175055D02*
X0080382Y0175055D01*
X0080382Y0176053D02*
X0074082Y0176053D01*
X0074082Y0177052D02*
X0080382Y0177052D01*
X0080382Y0178050D02*
X0074082Y0178050D01*
X0074082Y0179049D02*
X0080382Y0179049D01*
X0080382Y0180048D02*
X0074082Y0180048D01*
X0074082Y0181046D02*
X0080382Y0181046D01*
X0080382Y0182045D02*
X0074082Y0182045D01*
X0074082Y0183043D02*
X0080382Y0183043D01*
X0080382Y0184042D02*
X0074082Y0184042D01*
X0074082Y0185040D02*
X0080382Y0185040D01*
X0080382Y0186039D02*
X0074082Y0186039D01*
X0074082Y0187037D02*
X0080382Y0187037D01*
X0080382Y0188036D02*
X0074082Y0188036D01*
X0074082Y0189034D02*
X0080382Y0189034D01*
X0080382Y0190033D02*
X0074082Y0190033D01*
X0074082Y0191031D02*
X0080382Y0191031D01*
X0080382Y0192030D02*
X0073131Y0192030D01*
X0072132Y0193028D02*
X0080382Y0193028D01*
X0080382Y0194027D02*
X0071134Y0194027D01*
X0070135Y0195025D02*
X0080382Y0195025D01*
X0080382Y0196024D02*
X0069137Y0196024D01*
X0068138Y0197022D02*
X0080382Y0197022D01*
X0080382Y0198021D02*
X0067140Y0198021D01*
X0066141Y0199019D02*
X0080382Y0199019D01*
X0080382Y0200018D02*
X0065143Y0200018D01*
X0064144Y0201016D02*
X0080382Y0201016D01*
X0080382Y0202015D02*
X0063146Y0202015D01*
X0062147Y0203013D02*
X0080382Y0203013D01*
X0080382Y0204012D02*
X0061149Y0204012D01*
X0060150Y0205010D02*
X0080382Y0205010D01*
X0080382Y0206009D02*
X0059152Y0206009D01*
X0058153Y0207007D02*
X0080382Y0207007D01*
X0080382Y0208006D02*
X0057155Y0208006D01*
X0056156Y0209004D02*
X0080382Y0209004D01*
X0080382Y0210003D02*
X0041158Y0210003D01*
X0040159Y0211001D02*
X0080382Y0211001D01*
X0080382Y0212000D02*
X0039161Y0212000D01*
X0039082Y0212998D02*
X0080382Y0212998D01*
X0080382Y0213997D02*
X0039082Y0213997D01*
X0039082Y0214995D02*
X0080382Y0214995D01*
X0080382Y0215994D02*
X0039082Y0215994D01*
X0039082Y0216992D02*
X0080382Y0216992D01*
X0080382Y0217991D02*
X0039082Y0217991D01*
X0039082Y0218989D02*
X0080382Y0218989D01*
X0080382Y0219988D02*
X0039082Y0219988D01*
X0039082Y0220986D02*
X0080382Y0220986D01*
X0080382Y0221985D02*
X0039082Y0221985D01*
X0039082Y0222983D02*
X0080382Y0222983D01*
X0080382Y0223982D02*
X0039082Y0223982D01*
X0039082Y0224981D02*
X0080382Y0224981D01*
X0080382Y0225979D02*
X0039082Y0225979D01*
X0039082Y0226978D02*
X0080382Y0226978D01*
X0080382Y0227976D02*
X0039082Y0227976D01*
X0039082Y0228975D02*
X0080382Y0228975D01*
X0080382Y0229973D02*
X0039082Y0229973D01*
X0039082Y0230972D02*
X0080382Y0230972D01*
X0080382Y0231970D02*
X0039082Y0231970D01*
X0039082Y0232969D02*
X0070772Y0232969D01*
X0070195Y0233967D02*
X0039082Y0233967D01*
X0039082Y0234966D02*
X0070112Y0234966D01*
X0070445Y0235964D02*
X0039082Y0235964D01*
X0039082Y0236963D02*
X0071629Y0236963D01*
X0073596Y0236963D02*
X0075224Y0236963D01*
X0075836Y0237961D02*
X0039082Y0237961D01*
X0039082Y0238960D02*
X0076372Y0238960D01*
X0079098Y0234966D02*
X0080382Y0234966D01*
X0080382Y0233967D02*
X0077602Y0233967D01*
X0076604Y0232969D02*
X0080382Y0232969D01*
X0080382Y0238960D02*
X0080191Y0238960D01*
X0080382Y0239958D02*
X0039082Y0239958D01*
X0039082Y0240957D02*
X0080382Y0240957D01*
X0080382Y0241955D02*
X0039082Y0241955D01*
X0039082Y0242954D02*
X0080382Y0242954D01*
X0080382Y0243952D02*
X0039082Y0243952D01*
X0039082Y0244951D02*
X0080382Y0244951D01*
X0080382Y0245949D02*
X0039082Y0245949D01*
X0039082Y0246948D02*
X0080382Y0246948D01*
X0080382Y0247946D02*
X0039082Y0247946D01*
X0039082Y0248945D02*
X0080382Y0248945D01*
X0080382Y0249943D02*
X0039082Y0249943D01*
X0039082Y0250942D02*
X0080382Y0250942D01*
X0080382Y0251940D02*
X0039082Y0251940D01*
X0039082Y0252939D02*
X0080382Y0252939D01*
X0080382Y0253937D02*
X0039082Y0253937D01*
X0039082Y0254936D02*
X0080382Y0254936D01*
X0080382Y0255934D02*
X0039082Y0255934D01*
X0039082Y0256933D02*
X0080382Y0256933D01*
X0080382Y0257931D02*
X0039082Y0257931D01*
X0039082Y0258930D02*
X0080382Y0258930D01*
X0080382Y0259928D02*
X0052253Y0259928D01*
X0053391Y0260927D02*
X0081188Y0260927D01*
X0082187Y0261925D02*
X0053920Y0261925D01*
X0054182Y0262924D02*
X0083185Y0262924D01*
X0084184Y0263922D02*
X0054182Y0263922D01*
X0053845Y0264921D02*
X0085182Y0264921D01*
X0074705Y0276903D02*
X0030471Y0276903D01*
X0030471Y0275905D02*
X0044270Y0275905D01*
X0043382Y0274906D02*
X0030471Y0274906D01*
X0030471Y0273908D02*
X0042495Y0273908D01*
X0041607Y0272909D02*
X0030471Y0272909D01*
X0030471Y0271911D02*
X0040720Y0271911D01*
X0039832Y0270912D02*
X0030471Y0270912D01*
X0030471Y0269914D02*
X0038945Y0269914D01*
X0038057Y0268915D02*
X0030471Y0268915D01*
X0030471Y0267916D02*
X0037169Y0267916D01*
X0036282Y0266918D02*
X0030471Y0266918D01*
X0030471Y0265919D02*
X0035444Y0265919D01*
X0035482Y0264921D02*
X0030471Y0264921D01*
X0030471Y0263922D02*
X0035482Y0263922D01*
X0035482Y0262924D02*
X0030471Y0262924D01*
X0030471Y0261925D02*
X0035482Y0261925D01*
X0035482Y0260927D02*
X0030471Y0260927D01*
X0030471Y0259928D02*
X0035482Y0259928D01*
X0035482Y0258930D02*
X0030471Y0258930D01*
X0030471Y0257931D02*
X0035482Y0257931D01*
X0035482Y0256933D02*
X0030471Y0256933D01*
X0030471Y0255934D02*
X0035482Y0255934D01*
X0035482Y0254936D02*
X0030471Y0254936D01*
X0030471Y0253937D02*
X0035482Y0253937D01*
X0035482Y0252939D02*
X0030471Y0252939D01*
X0030471Y0251940D02*
X0035482Y0251940D01*
X0035482Y0250942D02*
X0030471Y0250942D01*
X0030471Y0249943D02*
X0035482Y0249943D01*
X0035482Y0248945D02*
X0030471Y0248945D01*
X0030471Y0247946D02*
X0035482Y0247946D01*
X0035482Y0246948D02*
X0030471Y0246948D01*
X0030471Y0245949D02*
X0035482Y0245949D01*
X0035482Y0244951D02*
X0030471Y0244951D01*
X0030471Y0243952D02*
X0035482Y0243952D01*
X0035482Y0242954D02*
X0030471Y0242954D01*
X0030471Y0241955D02*
X0035482Y0241955D01*
X0035482Y0240957D02*
X0030471Y0240957D01*
X0030471Y0239958D02*
X0035482Y0239958D01*
X0035482Y0238960D02*
X0030471Y0238960D01*
X0030471Y0237961D02*
X0035482Y0237961D01*
X0035482Y0236963D02*
X0030471Y0236963D01*
X0030471Y0235964D02*
X0035482Y0235964D01*
X0035482Y0234966D02*
X0030471Y0234966D01*
X0030471Y0233967D02*
X0035482Y0233967D01*
X0035482Y0232969D02*
X0030471Y0232969D01*
X0030471Y0231970D02*
X0035482Y0231970D01*
X0035482Y0230972D02*
X0030471Y0230972D01*
X0030471Y0229973D02*
X0035482Y0229973D01*
X0035482Y0228975D02*
X0030471Y0228975D01*
X0030471Y0227976D02*
X0035482Y0227976D01*
X0035482Y0226978D02*
X0030471Y0226978D01*
X0030471Y0225979D02*
X0035482Y0225979D01*
X0035482Y0224981D02*
X0030471Y0224981D01*
X0030471Y0223982D02*
X0035482Y0223982D01*
X0035482Y0222983D02*
X0030471Y0222983D01*
X0030471Y0221985D02*
X0035482Y0221985D01*
X0035482Y0220986D02*
X0030471Y0220986D01*
X0030471Y0219988D02*
X0035482Y0219988D01*
X0035482Y0218989D02*
X0030471Y0218989D01*
X0030471Y0217991D02*
X0035482Y0217991D01*
X0035482Y0216992D02*
X0030471Y0216992D01*
X0030471Y0215994D02*
X0035482Y0215994D01*
X0035482Y0214995D02*
X0030471Y0214995D01*
X0030471Y0213997D02*
X0035482Y0213997D01*
X0035482Y0212998D02*
X0030471Y0212998D01*
X0030471Y0212000D02*
X0035482Y0212000D01*
X0035482Y0211001D02*
X0030471Y0211001D01*
X0030471Y0210003D02*
X0036066Y0210003D01*
X0037065Y0209004D02*
X0030471Y0209004D01*
X0030471Y0208006D02*
X0038064Y0208006D01*
X0039062Y0207007D02*
X0030471Y0207007D01*
X0030471Y0206009D02*
X0040061Y0206009D01*
X0039493Y0204012D02*
X0030471Y0204012D01*
X0030471Y0205010D02*
X0055059Y0205010D01*
X0056058Y0204012D02*
X0050168Y0204012D01*
X0053792Y0203013D02*
X0057056Y0203013D01*
X0056202Y0202015D02*
X0058055Y0202015D01*
X0058110Y0201016D02*
X0059053Y0201016D01*
X0059604Y0200018D02*
X0060052Y0200018D01*
X0035870Y0203013D02*
X0030471Y0203013D01*
X0030471Y0202015D02*
X0033459Y0202015D01*
X0031552Y0201016D02*
X0030471Y0201016D01*
X0039082Y0259928D02*
X0039649Y0259928D01*
X0043591Y0259928D02*
X0048311Y0259928D01*
X0047173Y0260927D02*
X0044729Y0260927D01*
X0045258Y0261925D02*
X0046643Y0261925D01*
X0046382Y0262924D02*
X0045520Y0262924D01*
X0045520Y0263922D02*
X0046382Y0263922D01*
X0046178Y0264921D02*
X0046718Y0264921D01*
X0043234Y0267916D02*
X0041986Y0267916D01*
X0042874Y0268915D02*
X0044232Y0268915D01*
X0043761Y0269914D02*
X0045231Y0269914D01*
X0030471Y0277902D02*
X0072294Y0277902D01*
X0070478Y0278900D02*
X0030471Y0278900D01*
X0030471Y0279899D02*
X0068984Y0279899D01*
X0067489Y0280897D02*
X0030471Y0280897D01*
X0030471Y0281896D02*
X0066375Y0281896D01*
X0065377Y0282894D02*
X0030471Y0282894D01*
X0030471Y0283893D02*
X0064378Y0283893D01*
X0063412Y0284891D02*
X0030471Y0284891D01*
X0030471Y0285890D02*
X0062745Y0285890D01*
X0062078Y0286888D02*
X0030471Y0286888D01*
X0030471Y0287887D02*
X0061410Y0287887D01*
X0060743Y0288885D02*
X0030471Y0288885D01*
X0030471Y0289884D02*
X0060275Y0289884D01*
X0059861Y0290882D02*
X0030471Y0290882D01*
X0030471Y0291881D02*
X0059448Y0291881D01*
X0059034Y0292879D02*
X0030471Y0292879D01*
X0030471Y0293878D02*
X0058620Y0293878D01*
X0058420Y0294876D02*
X0030471Y0294876D01*
X0030471Y0295875D02*
X0058221Y0295875D01*
X0058023Y0296873D02*
X0030471Y0296873D01*
X0030471Y0297872D02*
X0057824Y0297872D01*
X0057625Y0298870D02*
X0030471Y0298870D01*
X0030471Y0299869D02*
X0057606Y0299869D01*
X0057606Y0300867D02*
X0030471Y0300867D01*
X0030471Y0301866D02*
X0057606Y0301866D01*
X0057606Y0302864D02*
X0030471Y0302864D01*
X0030471Y0303863D02*
X0057606Y0303863D01*
X0057748Y0304861D02*
X0030471Y0304861D01*
X0030471Y0305860D02*
X0057946Y0305860D01*
X0058145Y0306858D02*
X0030471Y0306858D01*
X0030471Y0307857D02*
X0058343Y0307857D01*
X0058542Y0308855D02*
X0030471Y0308855D01*
X0030471Y0309854D02*
X0058875Y0309854D01*
X0059289Y0310852D02*
X0030471Y0310852D01*
X0030471Y0311851D02*
X0037849Y0311851D01*
X0038260Y0311851D02*
X0038280Y0311851D01*
X0040283Y0311851D02*
X0040303Y0311851D01*
X0040715Y0311851D02*
X0059702Y0311851D01*
X0060116Y0312850D02*
X0044151Y0312850D01*
X0045958Y0313848D02*
X0060529Y0313848D01*
X0061154Y0314847D02*
X0047175Y0314847D01*
X0048091Y0315845D02*
X0061821Y0315845D01*
X0062488Y0316844D02*
X0048869Y0316844D01*
X0049414Y0317842D02*
X0063155Y0317842D01*
X0063994Y0318841D02*
X0049959Y0318841D01*
X0050316Y0319839D02*
X0064992Y0319839D01*
X0065991Y0320838D02*
X0050533Y0320838D01*
X0050750Y0321836D02*
X0066989Y0321836D01*
X0068409Y0322835D02*
X0050832Y0322835D01*
X0050871Y0323833D02*
X0069903Y0323833D01*
X0071397Y0324832D02*
X0050832Y0324832D01*
X0050832Y0325830D02*
X0073777Y0325830D01*
X0076188Y0326829D02*
X0050832Y0326829D01*
X0050832Y0327827D02*
X0081157Y0327827D01*
X0034412Y0312850D02*
X0030471Y0312850D01*
X0030471Y0313848D02*
X0032606Y0313848D01*
X0031388Y0314847D02*
X0030471Y0314847D01*
X0030471Y0315845D02*
X0030472Y0315845D01*
X0152204Y0301866D02*
X0179132Y0301866D01*
X0179132Y0302864D02*
X0155927Y0302864D01*
X0158337Y0303863D02*
X0179150Y0303863D01*
X0179348Y0304861D02*
X0160279Y0304861D01*
X0161773Y0305860D02*
X0179547Y0305860D01*
X0179746Y0306858D02*
X0163268Y0306858D01*
X0164450Y0307857D02*
X0179944Y0307857D01*
X0180143Y0308855D02*
X0165448Y0308855D01*
X0166447Y0309854D02*
X0180557Y0309854D01*
X0180970Y0310852D02*
X0167445Y0310852D01*
X0168126Y0311851D02*
X0181384Y0311851D01*
X0181797Y0312850D02*
X0168793Y0312850D01*
X0169460Y0313848D02*
X0182264Y0313848D01*
X0182931Y0314847D02*
X0170127Y0314847D01*
X0170630Y0315845D02*
X0183598Y0315845D01*
X0184265Y0316844D02*
X0171044Y0316844D01*
X0171458Y0317842D02*
X0184932Y0317842D01*
X0185896Y0318841D02*
X0171871Y0318841D01*
X0172285Y0319839D02*
X0186894Y0319839D01*
X0187893Y0320838D02*
X0172515Y0320838D01*
X0172714Y0321836D02*
X0189003Y0321836D01*
X0190497Y0322835D02*
X0172912Y0322835D01*
X0173111Y0323833D02*
X0191991Y0323833D01*
X0193799Y0324832D02*
X0173309Y0324832D01*
X0173356Y0325830D02*
X0196210Y0325830D01*
X0147964Y0141106D02*
X0126055Y0141106D01*
X0127053Y0140107D02*
X0148962Y0140107D01*
X0149961Y0139109D02*
X0128052Y0139109D01*
X0129050Y0138110D02*
X0150959Y0138110D01*
X0151482Y0137112D02*
X0130049Y0137112D01*
X0131047Y0136113D02*
X0151482Y0136113D01*
X0151482Y0135114D02*
X0131082Y0135114D01*
X0131082Y0134116D02*
X0151482Y0134116D01*
X0151482Y0133117D02*
X0131082Y0133117D01*
X0131082Y0132119D02*
X0151482Y0132119D01*
X0151482Y0131120D02*
X0131082Y0131120D01*
X0131082Y0130122D02*
X0151482Y0130122D01*
X0151482Y0129123D02*
X0131082Y0129123D01*
X0131082Y0128125D02*
X0151482Y0128125D01*
X0146282Y0117141D02*
X0133019Y0117141D01*
X0134018Y0116143D02*
X0146282Y0116143D01*
X0146282Y0115144D02*
X0146016Y0115144D01*
X0146082Y0115079D02*
X0146082Y0115079D01*
X0141085Y0121135D02*
X0131082Y0121135D01*
X0125282Y0121333D02*
X0122282Y0124333D01*
X0122282Y0133333D01*
X0124036Y0135114D02*
X0126955Y0135114D01*
X0125956Y0136113D02*
X0120454Y0136113D01*
X0120527Y0135114D02*
X0112608Y0135114D01*
X0111610Y0134116D02*
X0119900Y0134116D01*
X0121481Y0137112D02*
X0124958Y0137112D01*
X0126282Y0132333D02*
X0126282Y0130333D01*
X0127282Y0129333D01*
X0127282Y0099333D01*
X0134282Y0092333D01*
X0133282Y0089333D02*
X0125282Y0097333D01*
X0125282Y0121333D01*
X0122934Y0121135D02*
X0122567Y0121135D01*
X0121935Y0122134D02*
X0121302Y0122134D01*
X0120937Y0123132D02*
X0118892Y0123132D01*
X0111009Y0132119D02*
X0106540Y0132119D01*
X0105569Y0133117D02*
X0111672Y0133117D01*
X0119282Y0138333D02*
X0120282Y0139333D01*
X0109282Y0104333D02*
X0122282Y0091333D01*
X0124282Y0091333D01*
X0118882Y0080196D02*
X0060553Y0080196D01*
X0060611Y0079198D02*
X0060395Y0079198D01*
X0062282Y0077333D02*
X0120282Y0077333D01*
X0129282Y0068333D01*
X0133282Y0068333D01*
X0138282Y0063333D01*
X0156282Y0063333D01*
X0158620Y0064220D02*
X0169009Y0064220D01*
X0169009Y0063222D02*
X0158782Y0063222D01*
X0158528Y0062223D02*
X0169009Y0062223D01*
X0169009Y0061225D02*
X0157708Y0061225D01*
X0154855Y0061225D02*
X0124759Y0061225D01*
X0124759Y0062223D02*
X0136846Y0062223D01*
X0135848Y0063222D02*
X0124759Y0063222D01*
X0124759Y0064220D02*
X0134849Y0064220D01*
X0133851Y0065219D02*
X0124759Y0065219D01*
X0124759Y0066217D02*
X0132852Y0066217D01*
X0130282Y0070333D02*
X0165282Y0070333D01*
X0165342Y0070331D01*
X0165403Y0070326D01*
X0165462Y0070317D01*
X0165521Y0070304D01*
X0165580Y0070288D01*
X0165637Y0070268D01*
X0165692Y0070245D01*
X0165747Y0070218D01*
X0165799Y0070189D01*
X0165850Y0070156D01*
X0165899Y0070120D01*
X0165945Y0070082D01*
X0165989Y0070040D01*
X0166031Y0069996D01*
X0166069Y0069950D01*
X0166105Y0069901D01*
X0166138Y0069850D01*
X0166167Y0069798D01*
X0166194Y0069743D01*
X0166217Y0069688D01*
X0166237Y0069631D01*
X0166253Y0069572D01*
X0166266Y0069513D01*
X0166275Y0069454D01*
X0166280Y0069393D01*
X0166282Y0069333D01*
X0168624Y0070211D02*
X0169779Y0070211D01*
X0169009Y0069213D02*
X0168782Y0069213D01*
X0169009Y0068214D02*
X0168524Y0068214D01*
X0169009Y0067216D02*
X0167700Y0067216D01*
X0169009Y0066217D02*
X0157525Y0066217D01*
X0157782Y0067216D02*
X0164864Y0067216D01*
X0164039Y0068214D02*
X0157623Y0068214D01*
X0155282Y0067333D02*
X0154282Y0068333D01*
X0139282Y0068333D01*
X0138282Y0067333D01*
X0140656Y0066533D02*
X0152907Y0066533D01*
X0153162Y0065917D01*
X0153865Y0065214D01*
X0154060Y0065133D01*
X0139503Y0065133D01*
X0139698Y0065214D01*
X0140401Y0065917D01*
X0140656Y0066533D01*
X0140525Y0066217D02*
X0153038Y0066217D01*
X0153861Y0065219D02*
X0139702Y0065219D01*
X0130282Y0070333D02*
X0124282Y0076333D01*
X0121863Y0073207D02*
X0058252Y0073207D01*
X0058761Y0074205D02*
X0120864Y0074205D01*
X0119866Y0075204D02*
X0063673Y0075204D01*
X0060890Y0075204D02*
X0059186Y0075204D01*
X0059571Y0076202D02*
X0060044Y0076202D01*
X0057680Y0072208D02*
X0122861Y0072208D01*
X0123860Y0071210D02*
X0057049Y0071210D01*
X0063953Y0079198D02*
X0119154Y0079198D01*
X0123990Y0070211D02*
X0124858Y0070211D01*
X0124759Y0069213D02*
X0125857Y0069213D01*
X0126855Y0068214D02*
X0124759Y0068214D01*
X0124759Y0067216D02*
X0127854Y0067216D01*
X0124759Y0060226D02*
X0169009Y0060226D01*
X0169009Y0059228D02*
X0124759Y0059228D01*
X0124759Y0058229D02*
X0169009Y0058229D01*
X0169009Y0057231D02*
X0124759Y0057231D01*
X0124759Y0056232D02*
X0169009Y0056232D01*
X0169009Y0055234D02*
X0124759Y0055234D01*
X0124759Y0054235D02*
X0169009Y0054235D01*
X0169009Y0053237D02*
X0124759Y0053237D01*
X0124759Y0052238D02*
X0169009Y0052238D01*
X0169009Y0051240D02*
X0124759Y0051240D01*
X0124759Y0050241D02*
X0169009Y0050241D01*
X0169009Y0049243D02*
X0124759Y0049243D01*
X0124759Y0048244D02*
X0169009Y0048244D01*
X0169009Y0047245D02*
X0124759Y0047245D01*
X0124759Y0046247D02*
X0169009Y0046247D01*
X0169009Y0045248D02*
X0124759Y0045248D01*
X0124759Y0044250D02*
X0169009Y0044250D01*
X0169009Y0043251D02*
X0124759Y0043251D01*
X0124759Y0042253D02*
X0169009Y0042253D01*
X0169009Y0041254D02*
X0124759Y0041254D01*
X0124759Y0040256D02*
X0169009Y0040256D01*
X0169009Y0039257D02*
X0124759Y0039257D01*
X0124759Y0038259D02*
X0169009Y0038259D01*
X0169009Y0037260D02*
X0124759Y0037260D01*
X0124759Y0036262D02*
X0169009Y0036262D01*
X0169009Y0035263D02*
X0124759Y0035263D01*
X0124759Y0034265D02*
X0169009Y0034265D01*
X0169009Y0033266D02*
X0124759Y0033266D01*
X0124759Y0032268D02*
X0169009Y0032268D01*
X0169009Y0031269D02*
X0124759Y0031269D01*
X0124759Y0030271D02*
X0169009Y0030271D01*
X0169009Y0029272D02*
X0124759Y0029272D01*
X0124759Y0028274D02*
X0169009Y0028274D01*
X0169009Y0027275D02*
X0124759Y0027275D01*
X0124759Y0026277D02*
X0169009Y0026277D01*
X0169009Y0025278D02*
X0124759Y0025278D01*
X0124759Y0024280D02*
X0169009Y0024280D01*
X0169009Y0023281D02*
X0124759Y0023281D01*
X0124759Y0022283D02*
X0169009Y0022283D01*
X0169009Y0021284D02*
X0124759Y0021284D01*
X0124759Y0020286D02*
X0169009Y0020286D01*
X0169009Y0019287D02*
X0124759Y0019287D01*
X0124759Y0018289D02*
X0169009Y0018289D01*
X0169009Y0017290D02*
X0124759Y0017290D01*
X0157932Y0065219D02*
X0169009Y0065219D01*
X0177282Y0077333D02*
X0175782Y0078833D01*
X0175782Y0090833D01*
X0173082Y0094176D02*
X0179482Y0094176D01*
X0184282Y0086333D02*
X0183282Y0085333D01*
X0183282Y0076333D01*
X0100282Y0094333D02*
X0100282Y0104333D01*
X0097882Y0104161D02*
X0097654Y0104161D01*
X0098169Y0103162D02*
X0096656Y0103162D01*
X0095657Y0102164D02*
X0098482Y0102164D01*
X0077038Y0085189D02*
X0060702Y0085189D01*
X0060781Y0084190D02*
X0077364Y0084190D01*
X0051482Y0108155D02*
X0038124Y0108155D01*
X0038519Y0109153D02*
X0051482Y0109153D01*
X0051482Y0110152D02*
X0045548Y0110152D01*
X0046498Y0111150D02*
X0050919Y0111150D01*
X0049921Y0112149D02*
X0046782Y0112149D01*
X0046650Y0113147D02*
X0049482Y0113147D01*
X0049482Y0114146D02*
X0046005Y0114146D01*
X0044282Y0112333D02*
X0033282Y0112333D01*
X0030782Y0112333D01*
X0030471Y0104161D02*
X0033935Y0104161D01*
X0030970Y0103162D02*
X0030471Y0103162D01*
X0038519Y0110152D02*
X0043016Y0110152D01*
X0042558Y0114146D02*
X0038519Y0114146D01*
X0038519Y0115144D02*
X0049482Y0115144D01*
X0049482Y0116143D02*
X0038287Y0116143D01*
X0037494Y0117141D02*
X0049482Y0117141D01*
X0049482Y0118140D02*
X0036636Y0118140D01*
X0038107Y0119138D02*
X0049482Y0119138D01*
X0049482Y0120137D02*
X0038519Y0120137D01*
X0038519Y0121135D02*
X0047055Y0121135D01*
X0048282Y0123333D02*
X0033282Y0123333D01*
X0030782Y0123333D01*
X0036596Y0129123D02*
X0048903Y0129123D01*
X0048782Y0128125D02*
X0037511Y0128125D01*
X0038293Y0127126D02*
X0049076Y0127126D01*
X0049482Y0126128D02*
X0038519Y0126128D01*
X0038091Y0130122D02*
X0049535Y0130122D01*
D25*
X0087645Y0154598D03*
X0090645Y0154598D03*
X0076645Y0173598D03*
X0092645Y0184598D03*
X0095645Y0184598D03*
X0098645Y0184598D03*
X0099645Y0206098D03*
X0121645Y0209598D03*
X0124645Y0209598D03*
X0116645Y0235598D03*
X0127645Y0248598D03*
X0137645Y0248598D03*
X0146645Y0254598D03*
X0156645Y0235598D03*
X0178645Y0235598D03*
X0180145Y0255098D03*
X0176645Y0283598D03*
X0173645Y0283598D03*
X0170645Y0283598D03*
X0170645Y0286598D03*
X0170645Y0289598D03*
X0173645Y0289598D03*
X0173645Y0286598D03*
X0176645Y0286598D03*
X0176645Y0289598D03*
X0177645Y0323598D03*
X0177645Y0326598D03*
X0180645Y0326598D03*
X0180645Y0323598D03*
X0234645Y0323598D03*
X0234645Y0326598D03*
X0237645Y0326598D03*
X0237645Y0323598D03*
X0250645Y0289598D03*
X0250645Y0286598D03*
X0253645Y0286598D03*
X0253645Y0289598D03*
X0209645Y0254598D03*
X0206645Y0243598D03*
X0206645Y0232598D03*
X0206645Y0217598D03*
X0206645Y0206598D03*
X0206645Y0192598D03*
X0206645Y0181598D03*
X0206645Y0167598D03*
X0206645Y0157598D03*
X0216645Y0144598D03*
X0219645Y0144598D03*
X0219645Y0147598D03*
X0218645Y0133598D03*
X0218645Y0130598D03*
X0235645Y0106598D03*
X0235645Y0103598D03*
X0238645Y0103598D03*
X0238645Y0106598D03*
X0211645Y0082598D03*
X0207645Y0082598D03*
X0198645Y0094598D03*
X0206645Y0098598D03*
X0210645Y0098598D03*
X0198645Y0115598D03*
X0195645Y0115598D03*
X0195645Y0118598D03*
X0198645Y0118598D03*
X0173645Y0134598D03*
X0173645Y0137598D03*
X0161645Y0140598D03*
X0158645Y0140598D03*
X0142782Y0122833D03*
X0113282Y0131333D03*
X0102282Y0111333D03*
X0100282Y0104333D03*
X0095282Y0115333D03*
X0094282Y0092333D03*
X0109282Y0092333D03*
X0121282Y0080333D03*
X0131282Y0079333D03*
X0133782Y0081333D03*
X0136282Y0076833D03*
X0142282Y0080333D03*
X0119645Y0157598D03*
X0156645Y0210598D03*
X0178645Y0210598D03*
X0178645Y0180598D03*
X0236645Y0180598D03*
X0236645Y0183598D03*
X0239645Y0183598D03*
X0239645Y0180598D03*
X0127645Y0283598D03*
X0124645Y0283598D03*
X0121645Y0283598D03*
X0121645Y0286598D03*
X0121645Y0289598D03*
X0124645Y0289598D03*
X0124645Y0286598D03*
X0127645Y0286598D03*
X0127645Y0289598D03*
X0111645Y0323598D03*
X0108645Y0323598D03*
X0108645Y0326598D03*
X0111645Y0326598D03*
X0058645Y0326598D03*
X0055645Y0326598D03*
X0055645Y0323598D03*
X0058645Y0323598D03*
X0039645Y0307598D03*
X0036645Y0307598D03*
X0036645Y0304598D03*
X0039645Y0304598D03*
X0046645Y0289598D03*
X0046645Y0286598D03*
X0046645Y0283598D03*
X0049645Y0283598D03*
X0049645Y0286598D03*
X0049645Y0289598D03*
X0052645Y0289598D03*
X0052645Y0286598D03*
X0052645Y0283598D03*
X0056645Y0253598D03*
X0042645Y0253598D03*
X0044645Y0238598D03*
X0056645Y0238598D03*
X0072645Y0224598D03*
X0066645Y0211598D03*
X0068645Y0209598D03*
X0070645Y0207598D03*
X0096645Y0237598D03*
X0097645Y0248598D03*
X0083645Y0265098D03*
X0035645Y0208598D03*
X0032645Y0208598D03*
X0032645Y0205598D03*
X0035645Y0205598D03*
D26*
X0072612Y0234664D03*
X0078282Y0237333D03*
X0093282Y0234333D03*
X0091282Y0206333D03*
X0091282Y0191333D03*
X0107282Y0176333D03*
X0109282Y0184333D03*
X0112282Y0204333D03*
X0126282Y0195333D03*
X0128282Y0184333D03*
X0126282Y0170333D03*
X0112282Y0158333D03*
X0107282Y0157833D03*
X0118282Y0147333D03*
X0121282Y0145333D03*
X0119282Y0138333D03*
X0122282Y0133333D03*
X0126282Y0132333D03*
X0118282Y0132333D03*
X0113282Y0138333D03*
X0113282Y0142333D03*
X0107782Y0131833D03*
X0096782Y0131833D03*
X0095782Y0119333D03*
X0088782Y0119333D03*
X0075282Y0115333D03*
X0075282Y0112333D03*
X0081282Y0103833D03*
X0085282Y0103833D03*
X0082282Y0095333D03*
X0075282Y0089333D03*
X0077282Y0081333D03*
X0086282Y0081333D03*
X0087282Y0072333D03*
X0090282Y0072333D03*
X0093282Y0072333D03*
X0096282Y0072333D03*
X0096282Y0081333D03*
X0105282Y0081333D03*
X0091282Y0094333D03*
X0105282Y0108333D03*
X0106282Y0104333D03*
X0109282Y0107333D03*
X0124282Y0091333D03*
X0134282Y0092333D03*
X0138282Y0087333D03*
X0143282Y0083333D03*
X0138782Y0078833D03*
X0132782Y0084333D03*
X0147282Y0078333D03*
X0149282Y0084333D03*
X0155282Y0088333D03*
X0158282Y0085833D03*
X0162282Y0086033D03*
X0159682Y0090933D03*
X0157782Y0079833D03*
X0165282Y0077333D03*
X0169282Y0077333D03*
X0173282Y0076833D03*
X0177282Y0077333D03*
X0188282Y0077333D03*
X0184282Y0086333D03*
X0175782Y0090833D03*
X0171282Y0097333D03*
X0173782Y0099833D03*
X0173782Y0105333D03*
X0183282Y0104333D03*
X0188282Y0104333D03*
X0182782Y0118333D03*
X0173282Y0116333D03*
X0173282Y0123333D03*
X0161282Y0118333D03*
X0161282Y0115333D03*
X0156282Y0123333D03*
X0153282Y0118333D03*
X0147282Y0103833D03*
X0147282Y0100833D03*
X0135282Y0120333D03*
X0137282Y0139333D03*
X0142282Y0154333D03*
X0159282Y0145333D03*
X0162282Y0148333D03*
X0172282Y0154333D03*
X0174282Y0143333D03*
X0189282Y0136333D03*
X0201282Y0140333D03*
X0203282Y0132333D03*
X0223282Y0113333D03*
X0226282Y0102333D03*
X0223282Y0099333D03*
X0223282Y0093333D03*
X0226282Y0088333D03*
X0217282Y0093333D03*
X0208282Y0103333D03*
X0166282Y0069333D03*
X0166282Y0064333D03*
X0156282Y0063333D03*
X0155282Y0067333D03*
X0147282Y0065833D03*
X0138282Y0067333D03*
X0130282Y0064333D03*
X0127282Y0064333D03*
X0120282Y0071333D03*
X0076282Y0126333D03*
X0055282Y0127333D03*
X0051282Y0128333D03*
X0048282Y0123333D03*
X0044282Y0112333D03*
X0062282Y0105333D03*
X0065282Y0105333D03*
X0061282Y0096333D03*
X0064282Y0090333D03*
X0062282Y0077333D03*
X0061282Y0072333D03*
X0051282Y0139333D03*
X0048282Y0139333D03*
X0042282Y0148333D03*
X0082282Y0154333D03*
X0120282Y0153333D03*
X0149282Y0181333D03*
X0168282Y0211333D03*
X0188282Y0210333D03*
X0213282Y0223333D03*
X0222282Y0223333D03*
X0211282Y0267333D03*
X0183282Y0250333D03*
X0181282Y0267333D03*
X0150282Y0267333D03*
X0119282Y0267333D03*
D27*
X0158282Y0284333D03*
X0174282Y0255333D03*
X0133282Y0189333D03*
X0133282Y0170333D03*
X0102282Y0170333D03*
X0102282Y0188333D03*
X0102282Y0216333D03*
X0135282Y0124333D03*
X0168282Y0108333D03*
X0207282Y0148333D03*
X0230282Y0167333D03*
D28*
X0218282Y0140333D02*
X0212282Y0140333D01*
X0188282Y0140333D02*
X0186282Y0140333D01*
X0183282Y0143333D01*
X0172282Y0154333D02*
X0146282Y0154333D01*
X0137282Y0163333D01*
X0092282Y0163333D01*
X0088282Y0167333D01*
X0088282Y0256333D01*
X0091282Y0259333D01*
X0203282Y0259333D01*
X0211282Y0267333D01*
X0181282Y0267333D02*
X0175282Y0261333D01*
X0090282Y0261333D01*
X0086282Y0257333D01*
X0086282Y0166333D01*
X0091282Y0161333D01*
X0135282Y0161333D01*
X0142282Y0154333D01*
X0126282Y0170333D02*
X0120282Y0176333D01*
X0107282Y0176333D01*
X0102282Y0188333D02*
X0102282Y0216333D01*
X0112282Y0204333D02*
X0117282Y0204333D01*
X0126282Y0195333D01*
X0131782Y0211333D02*
X0133782Y0213333D01*
X0165282Y0213333D01*
X0167282Y0211333D01*
X0168282Y0211333D01*
X0188282Y0210333D02*
X0190282Y0210333D01*
X0203282Y0223333D01*
X0213282Y0223333D01*
X0222282Y0223333D02*
X0222282Y0217333D01*
X0229769Y0209846D01*
X0246282Y0209846D01*
X0150282Y0267333D02*
X0146282Y0263333D01*
X0089282Y0263333D01*
X0084282Y0258333D01*
X0084282Y0165333D01*
X0090282Y0159333D01*
X0105782Y0159333D01*
X0107282Y0157833D01*
X0082282Y0154333D02*
X0082282Y0259333D01*
X0088282Y0265333D01*
X0117282Y0265333D01*
X0119282Y0267333D01*
X0108782Y0234333D02*
X0093282Y0234333D01*
X0108782Y0234333D02*
X0131782Y0211333D01*
X0078282Y0237333D02*
X0075612Y0234664D01*
X0072612Y0234664D01*
X0085282Y0103833D02*
X0085282Y0096333D01*
X0087282Y0094333D01*
X0091282Y0094333D01*
X0217282Y0093333D02*
X0223282Y0093333D01*
D29*
X0208282Y0103333D02*
X0208282Y0107333D01*
X0207282Y0108333D01*
X0188282Y0108333D02*
X0185282Y0108333D01*
X0178282Y0115333D01*
X0178282Y0165333D01*
X0174282Y0169333D01*
X0174282Y0255333D01*
X0158282Y0284333D02*
X0144282Y0284333D01*
X0139282Y0284333D01*
X0139282Y0288099D01*
X0139532Y0288099D01*
X0140325Y0288224D01*
X0140375Y0288240D01*
X0144282Y0284333D01*
X0139131Y0289484D01*
X0139131Y0293199D01*
X0139131Y0284183D01*
X0127282Y0272333D01*
X0116782Y0272333D01*
X0112282Y0267833D01*
X0046120Y0267833D01*
X0041620Y0263333D01*
X0102282Y0188333D02*
X0132282Y0188333D01*
X0133282Y0189333D01*
X0133282Y0170333D01*
X0102282Y0170333D02*
X0102282Y0188333D01*
X0168282Y0108333D02*
X0185282Y0108333D01*
X0207282Y0148333D02*
X0212282Y0148333D01*
X0217282Y0153333D01*
X0217282Y0266333D01*
X0254282Y0303333D01*
X0254282Y0323333D01*
X0205432Y0301183D02*
X0203582Y0299333D01*
X0142958Y0285656D02*
X0139282Y0285656D01*
X0139282Y0287255D02*
X0141360Y0287255D01*
X0246282Y0190821D02*
X0248794Y0193333D01*
X0260282Y0193333D01*
X0236282Y0169333D01*
X0236282Y0120333D01*
X0229282Y0113333D01*
X0224282Y0140333D02*
X0230282Y0146333D01*
X0230282Y0167333D01*
D30*
X0236282Y0120333D03*
D31*
X0224282Y0108333D01*
X0207282Y0108333D01*
X0188282Y0108333D01*
D32*
X0168282Y0108333D02*
X0153282Y0108333D01*
X0148282Y0113333D01*
X0148282Y0120333D01*
X0144282Y0124333D01*
X0141282Y0124333D01*
X0135282Y0124333D01*
X0218282Y0140333D02*
X0224282Y0140333D01*
M02*
