%
M48
M72
T01C0.01000
T02C0.01200
T03C0.01600
T04C0.02362
T05C0.03150
T06C0.03200
T07C0.03600
T08C0.03937
T09C0.04000
T10C0.07874
T11C0.09000
T12C0.09843
T13C0.35000
%
T01
X94282Y92333
X100282Y104333
X102282Y111333
X95282Y115333
X113282Y131333
X119645Y157598
X98645Y184598
X95645Y184598
X92645Y184598
X76645Y173598
X87645Y154598
X90645Y154598
X99645Y206098
X121645Y209598
X124645Y209598
X116645Y235598
X127645Y248598
X137645Y248598
X146645Y254598
X156645Y235598
X178645Y235598
X180145Y255098
X176645Y283598
X173645Y283598
X170645Y283598
X170645Y286598
X170645Y289598
X173645Y289598
X173645Y286598
X176645Y286598
X176645Y289598
X177645Y323598
X177645Y326598
X180645Y326598
X180645Y323598
X234645Y323598
X234645Y326598
X237645Y326598
X237645Y323598
X250645Y289598
X250645Y286598
X253645Y286598
X253645Y289598
X209645Y254598
X206645Y243598
X206645Y232598
X206645Y217598
X206645Y206598
X206645Y192598
X206645Y181598
X206645Y167598
X206645Y157598
X216645Y144598
X219645Y144598
X219645Y147598
X218645Y133598
X218645Y130598
X235645Y106598
X235645Y103598
X238645Y103598
X238645Y106598
X211645Y82598
X207645Y82598
X198645Y94598
X206645Y98598
X210645Y98598
X198645Y115598
X195645Y115598
X195645Y118598
X198645Y118598
X173645Y134598
X173645Y137598
X161645Y140598
X158645Y140598
X142782Y122833
X109282Y92333
X121282Y80333
X131282Y79333
X133782Y81333
X136282Y76833
X142282Y80333
X178645Y180598
X178645Y210598
X156645Y210598
X96645Y237598
X97645Y248598
X83645Y265098
X56645Y253598
X42645Y253598
X44645Y238598
X56645Y238598
X72645Y224598
X66645Y211598
X68645Y209598
X70645Y207598
X35645Y208598
X32645Y208598
X32645Y205598
X35645Y205598
X46645Y283598
X46645Y286598
X46645Y289598
X49645Y289598
X49645Y286598
X49645Y283598
X52645Y283598
X52645Y286598
X52645Y289598
X39645Y304598
X36645Y304598
X36645Y307598
X39645Y307598
X55645Y323598
X55645Y326598
X58645Y326598
X58645Y323598
X108645Y323598
X108645Y326598
X111645Y326598
X111645Y323598
X121645Y289598
X121645Y286598
X121645Y283598
X124645Y283598
X124645Y286598
X124645Y289598
X127645Y289598
X127645Y286598
X127645Y283598
X236645Y183598
X236645Y180598
X239645Y180598
X239645Y183598
T02
X61282Y72333
X62282Y77333
X64282Y90333
X61282Y96333
X62282Y105333
X65282Y105333
X75282Y112333
X75282Y115333
X76282Y126333
X88782Y119333
X95782Y119333
X105282Y108333
X106282Y104333
X109282Y107333
X124282Y91333
X134282Y92333
X138282Y87333
X143282Y83333
X138782Y78833
X132782Y84333
X147282Y78333
X149282Y84333
X155282Y88333
X158282Y85833
X162282Y86033
X159682Y90933
X157782Y79833
X165282Y77333
X169282Y77333
X173282Y76833
X177282Y77333
X188282Y77333
X184282Y86333
X175782Y90833
X171282Y97333
X173782Y99833
X173782Y105333
X183282Y104333
X188282Y104333
X182782Y118333
X173282Y116333
X173282Y123333
X161282Y118333
X161282Y115333
X156282Y123333
X153282Y118333
X147282Y103833
X147282Y100833
X135282Y120333
X126282Y132333
X122282Y133333
X118282Y132333
X119282Y138333
X113282Y138333
X113282Y142333
X118282Y147333
X121282Y145333
X120282Y153333
X112282Y158333
X107282Y157833
X107282Y176333
X109282Y184333
X112282Y204333
X126282Y195333
X128282Y184333
X126282Y170333
X142282Y154333
X137282Y139333
X159282Y145333
X162282Y148333
X172282Y154333
X174282Y143333
X189282Y136333
X201282Y140333
X203282Y132333
X223282Y113333
X226282Y102333
X223282Y99333
X223282Y93333
X226282Y88333
X217282Y93333
X208282Y103333
X166282Y69333
X166282Y64333
X156282Y63333
X155282Y67333
X147282Y65833
X138282Y67333
X130282Y64333
X127282Y64333
X120282Y71333
X105282Y81333
X96282Y81333
X96282Y72333
X93282Y72333
X90282Y72333
X87282Y72333
X86282Y81333
X77282Y81333
X75282Y89333
X82282Y95333
X81282Y103833
X85282Y103833
X91282Y94333
X96782Y131833
X107782Y131833
X82282Y154333
X55282Y127333
X51282Y128333
X48282Y123333
X44282Y112333
X48282Y139333
X51282Y139333
X42282Y148333
X91282Y191333
X91282Y206333
X93282Y234333
X78282Y237333
X72612Y234664
X119282Y267333
X150282Y267333
X181282Y267333
X183282Y250333
X211282Y267333
X213282Y223333
X222282Y223333
X188282Y210333
X168282Y211333
X149282Y181333
T03
X133282Y189333
X133282Y170333
X102282Y170333
X102282Y188333
X102282Y216333
X158282Y284333
X174282Y255333
X230282Y167333
X207282Y148333
X168282Y108333
X135282Y124333
T04
X236282Y120333
T05
X154879Y293199
X139131Y293199
T06
X50282Y263333
X41620Y263333
T07
X246282Y209846
X246282Y190821
T08
X102282Y129333
X82282Y129333
X92282Y109333
T09
X91338Y85833
X101338Y85833
X81338Y85833
X81338Y142833
X101338Y142833
X254622Y159310
X254622Y169310
T10
X254282Y83333
X39282Y83333
T11
X65338Y115333
X117338Y115333
T12
X39282Y323333
X254282Y323333
T13
X205432Y301183
X249131Y251333
X147056Y327657
X83906Y301559
X44831Y178258
M30
