G75*
%MOIN*%
%OFA0B0*%
%FSLAX25Y25*%
%IPPOS*%
%LPD*%
%AMOC8*
5,1,8,0,0,1.08239X$1,22.5*
%
%ADD10C,0.00394*%
D10*
X0033683Y0069482D02*
X0033935Y0069375D01*
X0034187Y0069268D01*
X0034445Y0069173D01*
X0034973Y0069008D01*
X0035242Y0068938D01*
X0035516Y0068882D01*
X0035790Y0068825D01*
X0035927Y0068797D01*
X0035995Y0068783D01*
X0036064Y0068769D01*
X0036379Y0068752D01*
X0036725Y0068738D01*
X0037332Y0068716D01*
X0037593Y0068709D01*
X0113632Y0068709D01*
X0113928Y0068711D01*
X0114142Y0068714D01*
X0114356Y0068717D01*
X0114489Y0068728D02*
X0114621Y0068732D01*
X0115050Y0068737D01*
X0115345Y0068739D01*
X0123062Y0068739D01*
X0123062Y0016439D01*
X0123125Y0016332D02*
X0123355Y0016062D01*
X0123385Y0015991D01*
X0123422Y0015924D01*
X0123465Y0015861D01*
X0123507Y0015798D01*
X0123556Y0015740D01*
X0123663Y0015633D01*
X0123721Y0015584D01*
X0123784Y0015542D01*
X0123847Y0015499D01*
X0123914Y0015463D01*
X0124055Y0015403D01*
X0124129Y0015379D01*
X0124206Y0015363D01*
X0124283Y0015348D01*
X0124362Y0015339D01*
X0169406Y0015339D01*
X0169486Y0015348D01*
X0169562Y0015363D01*
X0169639Y0015379D01*
X0169713Y0015403D01*
X0169854Y0015463D01*
X0169921Y0015499D01*
X0170047Y0015584D01*
X0170106Y0015633D01*
X0170213Y0015740D01*
X0170261Y0015798D01*
X0170304Y0015861D01*
X0170346Y0015924D01*
X0170383Y0015991D01*
X0170413Y0016062D01*
X0170443Y0016132D02*
X0170666Y0016407D01*
X0170706Y0016439D02*
X0170706Y0068739D01*
X0208871Y0068739D01*
X0209166Y0068737D01*
X0209380Y0068735D01*
X0209594Y0068732D01*
X0209727Y0068728D01*
X0209860Y0068717D02*
X0210074Y0068714D01*
X0210288Y0068711D01*
X0210583Y0068709D01*
X0256176Y0068709D01*
X0256436Y0068716D01*
X0256740Y0068727D01*
X0257043Y0068738D01*
X0257389Y0068752D01*
X0257705Y0068769D01*
X0257773Y0068783D01*
X0257842Y0068797D01*
X0257979Y0068825D01*
X0258253Y0068882D01*
X0258527Y0068938D01*
X0258796Y0069008D01*
X0259323Y0069173D01*
X0259582Y0069268D01*
X0259834Y0069375D01*
X0260086Y0069482D01*
X0260332Y0069601D01*
X0260810Y0069862D01*
X0261042Y0070003D01*
X0261266Y0070155D01*
X0261491Y0070307D01*
X0261708Y0070470D01*
X0261916Y0070642D01*
X0262125Y0070814D01*
X0262325Y0070997D01*
X0262516Y0071188D01*
X0262707Y0071379D01*
X0262889Y0071579D01*
X0263062Y0071788D01*
X0263234Y0071996D01*
X0263397Y0072213D01*
X0263549Y0072438D01*
X0263701Y0072662D01*
X0263842Y0072894D01*
X0263972Y0073133D01*
X0264103Y0073372D01*
X0264222Y0073618D01*
X0264329Y0073870D01*
X0264436Y0074122D01*
X0264531Y0074381D01*
X0264613Y0074644D01*
X0264696Y0074908D01*
X0264766Y0075177D01*
X0264822Y0075451D01*
X0264879Y0075725D01*
X0264907Y0075862D01*
X0264921Y0075931D01*
X0264935Y0075999D01*
X0264951Y0076314D01*
X0264966Y0076661D01*
X0264977Y0076964D01*
X0264988Y0077267D01*
X0264994Y0077528D01*
X0264994Y0234039D01*
X0265003Y0236772D01*
X0264994Y0239280D01*
X0264992Y0239971D01*
X0263114Y0240511D01*
X0262443Y0240345D01*
X0261905Y0240213D01*
X0261716Y0239509D01*
X0263088Y0262159D02*
X0262443Y0262345D01*
X0261910Y0262498D01*
X0261716Y0263182D01*
X0263088Y0262159D02*
X0264650Y0262609D01*
X0264994Y0263186D01*
X0265161Y0263465D01*
X0264994Y0263939D01*
X0264994Y0325168D01*
X0264988Y0325429D01*
X0264977Y0325732D01*
X0264966Y0326035D01*
X0264951Y0326381D01*
X0264935Y0326697D01*
X0264921Y0326765D01*
X0264907Y0326834D01*
X0264879Y0326971D01*
X0264766Y0327519D01*
X0264696Y0327788D01*
X0264613Y0328052D01*
X0264531Y0328315D01*
X0264436Y0328574D01*
X0264329Y0328826D01*
X0264222Y0329078D01*
X0264103Y0329324D01*
X0263972Y0329563D01*
X0263842Y0329802D01*
X0263701Y0330034D01*
X0263549Y0330258D01*
X0263397Y0330483D01*
X0263234Y0330700D01*
X0263062Y0330908D01*
X0262889Y0331117D01*
X0262707Y0331317D01*
X0262325Y0331699D01*
X0262125Y0331881D01*
X0261916Y0332054D01*
X0261708Y0332226D01*
X0261491Y0332389D01*
X0261266Y0332541D01*
X0261042Y0332693D01*
X0260810Y0332834D01*
X0260571Y0332964D01*
X0260332Y0333095D01*
X0260086Y0333214D01*
X0259834Y0333321D01*
X0259582Y0333428D01*
X0259323Y0333523D01*
X0259059Y0333606D01*
X0258796Y0333688D01*
X0258527Y0333758D01*
X0258253Y0333814D01*
X0257979Y0333871D01*
X0257842Y0333899D01*
X0257773Y0333913D01*
X0257705Y0333927D01*
X0257389Y0333943D01*
X0257043Y0333958D01*
X0256740Y0333969D01*
X0256436Y0333980D01*
X0256176Y0333986D01*
X0163361Y0333986D01*
X0130622Y0333986D02*
X0037593Y0333986D01*
X0037332Y0333980D01*
X0037028Y0333969D01*
X0036725Y0333958D01*
X0036379Y0333943D01*
X0036064Y0333927D01*
X0035995Y0333913D01*
X0035927Y0333899D01*
X0035790Y0333871D01*
X0035516Y0333814D01*
X0035242Y0333758D01*
X0034973Y0333688D01*
X0034709Y0333606D01*
X0034445Y0333523D01*
X0034187Y0333428D01*
X0033935Y0333321D01*
X0033683Y0333214D01*
X0033437Y0333095D01*
X0033198Y0332964D01*
X0032959Y0332834D01*
X0032727Y0332693D01*
X0032502Y0332541D01*
X0032277Y0332389D01*
X0032061Y0332226D01*
X0031852Y0332054D01*
X0031643Y0331881D01*
X0031443Y0331699D01*
X0031252Y0331508D01*
X0031061Y0331317D01*
X0030879Y0331117D01*
X0030707Y0330908D01*
X0030534Y0330700D01*
X0030372Y0330483D01*
X0030220Y0330258D01*
X0030068Y0330034D01*
X0029926Y0329802D01*
X0029796Y0329563D01*
X0029666Y0329324D01*
X0029547Y0329078D01*
X0029440Y0328826D01*
X0029333Y0328574D01*
X0029237Y0328315D01*
X0029072Y0327788D01*
X0029003Y0327519D01*
X0028946Y0327245D01*
X0028890Y0326971D01*
X0028861Y0326834D01*
X0028847Y0326765D01*
X0028833Y0326697D01*
X0028817Y0326381D01*
X0028802Y0326035D01*
X0028791Y0325732D01*
X0028781Y0325429D01*
X0028774Y0325168D01*
X0028774Y0197833D01*
X0028694Y0192810D01*
X0028774Y0191333D01*
X0028826Y0190369D01*
X0031608Y0190195D01*
X0032537Y0190461D01*
X0033070Y0190613D01*
X0033340Y0191224D01*
X0031608Y0166329D02*
X0028755Y0165833D01*
X0028774Y0164849D01*
X0028813Y0162802D01*
X0028774Y0158065D01*
X0028774Y0077528D01*
X0028781Y0077267D01*
X0028791Y0076964D01*
X0028802Y0076661D01*
X0028817Y0076314D01*
X0028833Y0075999D01*
X0028847Y0075931D01*
X0028861Y0075862D01*
X0028890Y0075725D01*
X0028946Y0075451D01*
X0029003Y0075177D01*
X0029072Y0074908D01*
X0029237Y0074381D01*
X0029333Y0074122D01*
X0029440Y0073870D01*
X0029547Y0073618D01*
X0029666Y0073372D01*
X0029796Y0073133D01*
X0029926Y0072894D01*
X0030068Y0072662D01*
X0030220Y0072438D01*
X0030372Y0072213D01*
X0030534Y0071996D01*
X0030707Y0071788D01*
X0030879Y0071579D01*
X0031061Y0071379D01*
X0031252Y0071188D01*
X0031443Y0070997D01*
X0031643Y0070814D01*
X0031852Y0070642D01*
X0032061Y0070470D01*
X0032277Y0070307D01*
X0032502Y0070155D01*
X0032727Y0070003D01*
X0032959Y0069862D01*
X0033437Y0069601D01*
X0033683Y0069482D01*
X0033340Y0165241D02*
X0033060Y0165823D01*
X0032537Y0166005D01*
X0031608Y0166329D01*
M02*
