G75*
%MOIN*%
%OFA0B0*%
%FSLAX25Y25*%
%IPPOS*%
%LPD*%
%AMOC8*
5,1,8,0,0,1.08239X$1,22.5*
%
%ADD10C,0.00394*%
%ADD11R,0.02756X0.03543*%
%ADD12R,0.03543X0.02756*%
%ADD13R,0.04331X0.03937*%
%ADD14R,0.05906X0.03937*%
%ADD15R,0.02756X0.05512*%
%ADD16R,0.01063X0.03346*%
%ADD17R,0.03346X0.01063*%
%ADD18C,0.01575*%
%ADD19R,0.05118X0.04331*%
%ADD20R,0.03937X0.05512*%
%ADD21R,0.03000X0.06000*%
%ADD22R,0.09055X0.06299*%
%ADD23R,0.03150X0.03543*%
%ADD24R,0.03937X0.04331*%
%ADD25R,0.05906X0.29528*%
%ADD26R,0.03937X0.25591*%
%ADD27R,0.05512X0.06299*%
%ADD28R,0.02480X0.03268*%
D10*
X0033683Y0069482D02*
X0033935Y0069375D01*
X0034187Y0069268D01*
X0034445Y0069173D01*
X0034973Y0069008D01*
X0035242Y0068938D01*
X0035516Y0068882D01*
X0035790Y0068825D01*
X0035927Y0068797D01*
X0035995Y0068783D01*
X0036064Y0068769D01*
X0036379Y0068752D01*
X0036725Y0068738D01*
X0037332Y0068716D01*
X0037593Y0068709D01*
X0113632Y0068709D01*
X0113928Y0068711D01*
X0114142Y0068714D01*
X0114356Y0068717D01*
X0114489Y0068728D02*
X0114621Y0068732D01*
X0115050Y0068737D01*
X0115345Y0068739D01*
X0123062Y0068739D01*
X0123062Y0016439D01*
X0123125Y0016332D02*
X0123355Y0016062D01*
X0123385Y0015991D01*
X0123422Y0015924D01*
X0123465Y0015861D01*
X0123507Y0015798D01*
X0123556Y0015740D01*
X0123663Y0015633D01*
X0123721Y0015584D01*
X0123784Y0015542D01*
X0123847Y0015499D01*
X0123914Y0015463D01*
X0124055Y0015403D01*
X0124129Y0015379D01*
X0124206Y0015363D01*
X0124283Y0015348D01*
X0124362Y0015339D01*
X0169406Y0015339D01*
X0169486Y0015348D01*
X0169562Y0015363D01*
X0169639Y0015379D01*
X0169713Y0015403D01*
X0169854Y0015463D01*
X0169921Y0015499D01*
X0170047Y0015584D01*
X0170106Y0015633D01*
X0170213Y0015740D01*
X0170261Y0015798D01*
X0170304Y0015861D01*
X0170346Y0015924D01*
X0170383Y0015991D01*
X0170413Y0016062D01*
X0170443Y0016132D02*
X0170666Y0016407D01*
X0170706Y0016439D02*
X0170706Y0068739D01*
X0208871Y0068739D01*
X0209166Y0068737D01*
X0209380Y0068735D01*
X0209594Y0068732D01*
X0209727Y0068728D01*
X0209860Y0068717D02*
X0210074Y0068714D01*
X0210288Y0068711D01*
X0210583Y0068709D01*
X0256176Y0068709D01*
X0256436Y0068716D01*
X0256740Y0068727D01*
X0257043Y0068738D01*
X0257389Y0068752D01*
X0257705Y0068769D01*
X0257773Y0068783D01*
X0257842Y0068797D01*
X0257979Y0068825D01*
X0258253Y0068882D01*
X0258527Y0068938D01*
X0258796Y0069008D01*
X0259323Y0069173D01*
X0259582Y0069268D01*
X0259834Y0069375D01*
X0260086Y0069482D01*
X0260332Y0069601D01*
X0260810Y0069862D01*
X0261042Y0070003D01*
X0261266Y0070155D01*
X0261491Y0070307D01*
X0261708Y0070470D01*
X0261916Y0070642D01*
X0262125Y0070814D01*
X0262325Y0070997D01*
X0262516Y0071188D01*
X0262707Y0071379D01*
X0262889Y0071579D01*
X0263062Y0071788D01*
X0263234Y0071996D01*
X0263397Y0072213D01*
X0263549Y0072438D01*
X0263701Y0072662D01*
X0263842Y0072894D01*
X0263972Y0073133D01*
X0264103Y0073372D01*
X0264222Y0073618D01*
X0264329Y0073870D01*
X0264436Y0074122D01*
X0264531Y0074381D01*
X0264613Y0074644D01*
X0264696Y0074908D01*
X0264766Y0075177D01*
X0264822Y0075451D01*
X0264879Y0075725D01*
X0264907Y0075862D01*
X0264921Y0075931D01*
X0264935Y0075999D01*
X0264951Y0076314D01*
X0264966Y0076661D01*
X0264977Y0076964D01*
X0264988Y0077267D01*
X0264994Y0077528D01*
X0264994Y0234039D01*
X0265003Y0236772D01*
X0264994Y0239280D01*
X0264992Y0239971D01*
X0263114Y0240511D01*
X0262443Y0240345D01*
X0261905Y0240213D01*
X0261716Y0239509D01*
X0263088Y0262159D02*
X0262443Y0262345D01*
X0261910Y0262498D01*
X0261716Y0263182D01*
X0263088Y0262159D02*
X0264650Y0262609D01*
X0264994Y0263186D01*
X0265161Y0263465D01*
X0264994Y0263939D01*
X0264994Y0325168D01*
X0264988Y0325429D01*
X0264977Y0325732D01*
X0264966Y0326035D01*
X0264951Y0326381D01*
X0264935Y0326697D01*
X0264921Y0326765D01*
X0264907Y0326834D01*
X0264879Y0326971D01*
X0264766Y0327519D01*
X0264696Y0327788D01*
X0264613Y0328052D01*
X0264531Y0328315D01*
X0264436Y0328574D01*
X0264329Y0328826D01*
X0264222Y0329078D01*
X0264103Y0329324D01*
X0263972Y0329563D01*
X0263842Y0329802D01*
X0263701Y0330034D01*
X0263549Y0330258D01*
X0263397Y0330483D01*
X0263234Y0330700D01*
X0263062Y0330908D01*
X0262889Y0331117D01*
X0262707Y0331317D01*
X0262325Y0331699D01*
X0262125Y0331881D01*
X0261916Y0332054D01*
X0261708Y0332226D01*
X0261491Y0332389D01*
X0261266Y0332541D01*
X0261042Y0332693D01*
X0260810Y0332834D01*
X0260571Y0332964D01*
X0260332Y0333095D01*
X0260086Y0333214D01*
X0259834Y0333321D01*
X0259582Y0333428D01*
X0259323Y0333523D01*
X0259059Y0333606D01*
X0258796Y0333688D01*
X0258527Y0333758D01*
X0258253Y0333814D01*
X0257979Y0333871D01*
X0257842Y0333899D01*
X0257773Y0333913D01*
X0257705Y0333927D01*
X0257389Y0333943D01*
X0257043Y0333958D01*
X0256740Y0333969D01*
X0256436Y0333980D01*
X0256176Y0333986D01*
X0163361Y0333986D01*
X0130622Y0333986D02*
X0037593Y0333986D01*
X0037332Y0333980D01*
X0037028Y0333969D01*
X0036725Y0333958D01*
X0036379Y0333943D01*
X0036064Y0333927D01*
X0035995Y0333913D01*
X0035927Y0333899D01*
X0035790Y0333871D01*
X0035516Y0333814D01*
X0035242Y0333758D01*
X0034973Y0333688D01*
X0034709Y0333606D01*
X0034445Y0333523D01*
X0034187Y0333428D01*
X0033935Y0333321D01*
X0033683Y0333214D01*
X0033437Y0333095D01*
X0033198Y0332964D01*
X0032959Y0332834D01*
X0032727Y0332693D01*
X0032502Y0332541D01*
X0032277Y0332389D01*
X0032061Y0332226D01*
X0031852Y0332054D01*
X0031643Y0331881D01*
X0031443Y0331699D01*
X0031252Y0331508D01*
X0031061Y0331317D01*
X0030879Y0331117D01*
X0030707Y0330908D01*
X0030534Y0330700D01*
X0030372Y0330483D01*
X0030220Y0330258D01*
X0030068Y0330034D01*
X0029926Y0329802D01*
X0029796Y0329563D01*
X0029666Y0329324D01*
X0029547Y0329078D01*
X0029440Y0328826D01*
X0029333Y0328574D01*
X0029237Y0328315D01*
X0029072Y0327788D01*
X0029003Y0327519D01*
X0028946Y0327245D01*
X0028890Y0326971D01*
X0028861Y0326834D01*
X0028847Y0326765D01*
X0028833Y0326697D01*
X0028817Y0326381D01*
X0028802Y0326035D01*
X0028791Y0325732D01*
X0028781Y0325429D01*
X0028774Y0325168D01*
X0028774Y0197833D01*
X0028694Y0192810D01*
X0028774Y0191333D01*
X0028826Y0190369D01*
X0031608Y0190195D01*
X0032537Y0190461D01*
X0033070Y0190613D01*
X0033340Y0191224D01*
X0031608Y0166329D02*
X0028755Y0165833D01*
X0028774Y0164849D01*
X0028813Y0162802D01*
X0028774Y0158065D01*
X0028774Y0077528D01*
X0028781Y0077267D01*
X0028791Y0076964D01*
X0028802Y0076661D01*
X0028817Y0076314D01*
X0028833Y0075999D01*
X0028847Y0075931D01*
X0028861Y0075862D01*
X0028890Y0075725D01*
X0028946Y0075451D01*
X0029003Y0075177D01*
X0029072Y0074908D01*
X0029237Y0074381D01*
X0029333Y0074122D01*
X0029440Y0073870D01*
X0029547Y0073618D01*
X0029666Y0073372D01*
X0029796Y0073133D01*
X0029926Y0072894D01*
X0030068Y0072662D01*
X0030220Y0072438D01*
X0030372Y0072213D01*
X0030534Y0071996D01*
X0030707Y0071788D01*
X0030879Y0071579D01*
X0031061Y0071379D01*
X0031252Y0071188D01*
X0031443Y0070997D01*
X0031643Y0070814D01*
X0031852Y0070642D01*
X0032061Y0070470D01*
X0032277Y0070307D01*
X0032502Y0070155D01*
X0032727Y0070003D01*
X0032959Y0069862D01*
X0033437Y0069601D01*
X0033683Y0069482D01*
X0033340Y0165241D02*
X0033060Y0165823D01*
X0032537Y0166005D01*
X0031608Y0166329D01*
D11*
X0047723Y0219333D03*
X0052841Y0219333D03*
X0052841Y0243333D03*
X0052841Y0248333D03*
X0047723Y0248333D03*
X0047723Y0243333D03*
X0089223Y0147333D03*
X0094341Y0147333D03*
X0138223Y0119833D03*
X0143341Y0119833D03*
X0167723Y0103333D03*
X0172841Y0103333D03*
X0184723Y0126333D03*
X0189841Y0126333D03*
X0206723Y0131333D03*
X0211841Y0131333D03*
X0114841Y0085333D03*
X0109723Y0085333D03*
X0109723Y0080333D03*
X0114841Y0080333D03*
X0072841Y0080333D03*
X0067723Y0080333D03*
X0067723Y0085333D03*
X0072841Y0085333D03*
D12*
X0136692Y0128774D03*
X0136692Y0133892D03*
X0158282Y0133892D03*
X0158282Y0128774D03*
X0183782Y0096892D03*
X0188782Y0096892D03*
X0188782Y0091774D03*
X0183782Y0091774D03*
X0151282Y0077892D03*
X0151282Y0072774D03*
X0143282Y0072774D03*
X0143282Y0077892D03*
X0223282Y0152774D03*
X0223282Y0157892D03*
X0237282Y0143892D03*
X0237282Y0138774D03*
X0237282Y0132892D03*
X0237282Y0127774D03*
X0257282Y0127774D03*
X0257282Y0132892D03*
X0257282Y0138774D03*
X0257282Y0143892D03*
X0223282Y0178774D03*
X0223282Y0183892D03*
X0223282Y0203774D03*
X0223282Y0208892D03*
X0223282Y0228774D03*
X0223282Y0233892D03*
X0223282Y0266774D03*
X0223282Y0271892D03*
X0146933Y0288917D03*
X0146933Y0294035D03*
D13*
X0115628Y0074333D03*
X0108935Y0074333D03*
X0073628Y0074333D03*
X0066935Y0074333D03*
D14*
X0077136Y0154534D03*
X0077136Y0167133D03*
X0077136Y0179534D03*
X0077136Y0192133D03*
X0077136Y0204534D03*
X0077136Y0217133D03*
X0077136Y0229534D03*
X0077136Y0242133D03*
X0077136Y0254534D03*
X0077136Y0267133D03*
X0096427Y0267133D03*
X0107136Y0267133D03*
X0107136Y0254534D03*
X0096427Y0254534D03*
X0096427Y0242133D03*
X0107136Y0242133D03*
X0107136Y0229534D03*
X0096427Y0229534D03*
X0096427Y0217133D03*
X0107136Y0217133D03*
X0107136Y0204534D03*
X0096427Y0204534D03*
X0096427Y0192133D03*
X0107136Y0192133D03*
X0107136Y0179534D03*
X0096427Y0179534D03*
X0096427Y0167133D03*
X0107136Y0167133D03*
X0107136Y0154534D03*
X0096427Y0154534D03*
X0126427Y0154534D03*
X0137136Y0154534D03*
X0137136Y0167133D03*
X0126427Y0167133D03*
X0126427Y0179534D03*
X0137136Y0179534D03*
X0137136Y0192133D03*
X0126427Y0192133D03*
X0126427Y0204534D03*
X0137136Y0204534D03*
X0137136Y0217133D03*
X0126427Y0217133D03*
X0126427Y0229534D03*
X0137136Y0229534D03*
X0137136Y0242133D03*
X0126427Y0242133D03*
X0126427Y0254534D03*
X0137136Y0254534D03*
X0137136Y0267133D03*
X0126427Y0267133D03*
X0156427Y0267133D03*
X0167136Y0267133D03*
X0167136Y0254534D03*
X0167136Y0242133D03*
X0156427Y0242133D03*
X0156427Y0254534D03*
X0156427Y0229534D03*
X0156427Y0217133D03*
X0167136Y0217133D03*
X0167136Y0229534D03*
X0186427Y0229534D03*
X0197136Y0229534D03*
X0197136Y0217133D03*
X0186427Y0217133D03*
X0186427Y0204534D03*
X0197136Y0204534D03*
X0197136Y0192133D03*
X0186427Y0192133D03*
X0186427Y0179534D03*
X0197136Y0179534D03*
X0197136Y0167133D03*
X0186427Y0167133D03*
X0186427Y0154534D03*
X0197136Y0154534D03*
X0216427Y0154534D03*
X0216427Y0167133D03*
X0216427Y0179534D03*
X0216427Y0192133D03*
X0216427Y0204534D03*
X0216427Y0217133D03*
X0216427Y0229534D03*
X0216427Y0242133D03*
X0216427Y0254534D03*
X0216427Y0267133D03*
X0197136Y0267133D03*
X0186427Y0267133D03*
X0186427Y0254534D03*
X0197136Y0254534D03*
X0197136Y0242133D03*
X0186427Y0242133D03*
X0167136Y0204534D03*
X0167136Y0192133D03*
X0156427Y0192133D03*
X0156427Y0204534D03*
X0156427Y0179534D03*
X0156427Y0167133D03*
X0167136Y0167133D03*
X0167136Y0179534D03*
X0167136Y0154534D03*
X0156427Y0154534D03*
D15*
X0243541Y0138664D03*
X0247282Y0138664D03*
X0251022Y0138664D03*
X0251022Y0130003D03*
X0243541Y0130003D03*
D16*
X0154171Y0112668D03*
X0152203Y0112668D03*
X0150234Y0112668D03*
X0148266Y0112668D03*
X0146297Y0112668D03*
X0144329Y0112668D03*
X0142360Y0112668D03*
X0140392Y0112668D03*
X0140392Y0091999D03*
X0142360Y0091999D03*
X0144329Y0091999D03*
X0146297Y0091999D03*
X0148266Y0091999D03*
X0150234Y0091999D03*
X0152203Y0091999D03*
X0154171Y0091999D03*
D17*
X0157616Y0095444D03*
X0157616Y0097412D03*
X0157616Y0099381D03*
X0157616Y0101349D03*
X0157616Y0103318D03*
X0157616Y0105286D03*
X0157616Y0107255D03*
X0157616Y0109223D03*
X0136947Y0109223D03*
X0136947Y0107255D03*
X0136947Y0105286D03*
X0136947Y0103318D03*
X0136947Y0101349D03*
X0136947Y0099381D03*
X0136947Y0097412D03*
X0136947Y0095444D03*
D18*
X0143197Y0098642D02*
X0143199Y0098681D01*
X0143205Y0098720D01*
X0143215Y0098758D01*
X0143228Y0098795D01*
X0143245Y0098830D01*
X0143265Y0098864D01*
X0143289Y0098895D01*
X0143316Y0098924D01*
X0143345Y0098950D01*
X0143377Y0098973D01*
X0143411Y0098993D01*
X0143447Y0099009D01*
X0143484Y0099021D01*
X0143523Y0099030D01*
X0143562Y0099035D01*
X0143601Y0099036D01*
X0143640Y0099033D01*
X0143679Y0099026D01*
X0143716Y0099015D01*
X0143753Y0099001D01*
X0143788Y0098983D01*
X0143821Y0098962D01*
X0143852Y0098937D01*
X0143880Y0098910D01*
X0143905Y0098880D01*
X0143927Y0098847D01*
X0143946Y0098813D01*
X0143961Y0098777D01*
X0143973Y0098739D01*
X0143981Y0098701D01*
X0143985Y0098662D01*
X0143985Y0098622D01*
X0143981Y0098583D01*
X0143973Y0098545D01*
X0143961Y0098507D01*
X0143946Y0098471D01*
X0143927Y0098437D01*
X0143905Y0098404D01*
X0143880Y0098374D01*
X0143852Y0098347D01*
X0143821Y0098322D01*
X0143788Y0098301D01*
X0143753Y0098283D01*
X0143716Y0098269D01*
X0143679Y0098258D01*
X0143640Y0098251D01*
X0143601Y0098248D01*
X0143562Y0098249D01*
X0143523Y0098254D01*
X0143484Y0098263D01*
X0143447Y0098275D01*
X0143411Y0098291D01*
X0143377Y0098311D01*
X0143345Y0098334D01*
X0143316Y0098360D01*
X0143289Y0098389D01*
X0143265Y0098420D01*
X0143245Y0098454D01*
X0143228Y0098489D01*
X0143215Y0098526D01*
X0143205Y0098564D01*
X0143199Y0098603D01*
X0143197Y0098642D01*
X0143197Y0102333D02*
X0143199Y0102372D01*
X0143205Y0102411D01*
X0143215Y0102449D01*
X0143228Y0102486D01*
X0143245Y0102521D01*
X0143265Y0102555D01*
X0143289Y0102586D01*
X0143316Y0102615D01*
X0143345Y0102641D01*
X0143377Y0102664D01*
X0143411Y0102684D01*
X0143447Y0102700D01*
X0143484Y0102712D01*
X0143523Y0102721D01*
X0143562Y0102726D01*
X0143601Y0102727D01*
X0143640Y0102724D01*
X0143679Y0102717D01*
X0143716Y0102706D01*
X0143753Y0102692D01*
X0143788Y0102674D01*
X0143821Y0102653D01*
X0143852Y0102628D01*
X0143880Y0102601D01*
X0143905Y0102571D01*
X0143927Y0102538D01*
X0143946Y0102504D01*
X0143961Y0102468D01*
X0143973Y0102430D01*
X0143981Y0102392D01*
X0143985Y0102353D01*
X0143985Y0102313D01*
X0143981Y0102274D01*
X0143973Y0102236D01*
X0143961Y0102198D01*
X0143946Y0102162D01*
X0143927Y0102128D01*
X0143905Y0102095D01*
X0143880Y0102065D01*
X0143852Y0102038D01*
X0143821Y0102013D01*
X0143788Y0101992D01*
X0143753Y0101974D01*
X0143716Y0101960D01*
X0143679Y0101949D01*
X0143640Y0101942D01*
X0143601Y0101939D01*
X0143562Y0101940D01*
X0143523Y0101945D01*
X0143484Y0101954D01*
X0143447Y0101966D01*
X0143411Y0101982D01*
X0143377Y0102002D01*
X0143345Y0102025D01*
X0143316Y0102051D01*
X0143289Y0102080D01*
X0143265Y0102111D01*
X0143245Y0102145D01*
X0143228Y0102180D01*
X0143215Y0102217D01*
X0143205Y0102255D01*
X0143199Y0102294D01*
X0143197Y0102333D01*
X0143197Y0106024D02*
X0143199Y0106063D01*
X0143205Y0106102D01*
X0143215Y0106140D01*
X0143228Y0106177D01*
X0143245Y0106212D01*
X0143265Y0106246D01*
X0143289Y0106277D01*
X0143316Y0106306D01*
X0143345Y0106332D01*
X0143377Y0106355D01*
X0143411Y0106375D01*
X0143447Y0106391D01*
X0143484Y0106403D01*
X0143523Y0106412D01*
X0143562Y0106417D01*
X0143601Y0106418D01*
X0143640Y0106415D01*
X0143679Y0106408D01*
X0143716Y0106397D01*
X0143753Y0106383D01*
X0143788Y0106365D01*
X0143821Y0106344D01*
X0143852Y0106319D01*
X0143880Y0106292D01*
X0143905Y0106262D01*
X0143927Y0106229D01*
X0143946Y0106195D01*
X0143961Y0106159D01*
X0143973Y0106121D01*
X0143981Y0106083D01*
X0143985Y0106044D01*
X0143985Y0106004D01*
X0143981Y0105965D01*
X0143973Y0105927D01*
X0143961Y0105889D01*
X0143946Y0105853D01*
X0143927Y0105819D01*
X0143905Y0105786D01*
X0143880Y0105756D01*
X0143852Y0105729D01*
X0143821Y0105704D01*
X0143788Y0105683D01*
X0143753Y0105665D01*
X0143716Y0105651D01*
X0143679Y0105640D01*
X0143640Y0105633D01*
X0143601Y0105630D01*
X0143562Y0105631D01*
X0143523Y0105636D01*
X0143484Y0105645D01*
X0143447Y0105657D01*
X0143411Y0105673D01*
X0143377Y0105693D01*
X0143345Y0105716D01*
X0143316Y0105742D01*
X0143289Y0105771D01*
X0143265Y0105802D01*
X0143245Y0105836D01*
X0143228Y0105871D01*
X0143215Y0105908D01*
X0143205Y0105946D01*
X0143199Y0105985D01*
X0143197Y0106024D01*
X0146888Y0106024D02*
X0146890Y0106063D01*
X0146896Y0106102D01*
X0146906Y0106140D01*
X0146919Y0106177D01*
X0146936Y0106212D01*
X0146956Y0106246D01*
X0146980Y0106277D01*
X0147007Y0106306D01*
X0147036Y0106332D01*
X0147068Y0106355D01*
X0147102Y0106375D01*
X0147138Y0106391D01*
X0147175Y0106403D01*
X0147214Y0106412D01*
X0147253Y0106417D01*
X0147292Y0106418D01*
X0147331Y0106415D01*
X0147370Y0106408D01*
X0147407Y0106397D01*
X0147444Y0106383D01*
X0147479Y0106365D01*
X0147512Y0106344D01*
X0147543Y0106319D01*
X0147571Y0106292D01*
X0147596Y0106262D01*
X0147618Y0106229D01*
X0147637Y0106195D01*
X0147652Y0106159D01*
X0147664Y0106121D01*
X0147672Y0106083D01*
X0147676Y0106044D01*
X0147676Y0106004D01*
X0147672Y0105965D01*
X0147664Y0105927D01*
X0147652Y0105889D01*
X0147637Y0105853D01*
X0147618Y0105819D01*
X0147596Y0105786D01*
X0147571Y0105756D01*
X0147543Y0105729D01*
X0147512Y0105704D01*
X0147479Y0105683D01*
X0147444Y0105665D01*
X0147407Y0105651D01*
X0147370Y0105640D01*
X0147331Y0105633D01*
X0147292Y0105630D01*
X0147253Y0105631D01*
X0147214Y0105636D01*
X0147175Y0105645D01*
X0147138Y0105657D01*
X0147102Y0105673D01*
X0147068Y0105693D01*
X0147036Y0105716D01*
X0147007Y0105742D01*
X0146980Y0105771D01*
X0146956Y0105802D01*
X0146936Y0105836D01*
X0146919Y0105871D01*
X0146906Y0105908D01*
X0146896Y0105946D01*
X0146890Y0105985D01*
X0146888Y0106024D01*
X0146888Y0102333D02*
X0146890Y0102372D01*
X0146896Y0102411D01*
X0146906Y0102449D01*
X0146919Y0102486D01*
X0146936Y0102521D01*
X0146956Y0102555D01*
X0146980Y0102586D01*
X0147007Y0102615D01*
X0147036Y0102641D01*
X0147068Y0102664D01*
X0147102Y0102684D01*
X0147138Y0102700D01*
X0147175Y0102712D01*
X0147214Y0102721D01*
X0147253Y0102726D01*
X0147292Y0102727D01*
X0147331Y0102724D01*
X0147370Y0102717D01*
X0147407Y0102706D01*
X0147444Y0102692D01*
X0147479Y0102674D01*
X0147512Y0102653D01*
X0147543Y0102628D01*
X0147571Y0102601D01*
X0147596Y0102571D01*
X0147618Y0102538D01*
X0147637Y0102504D01*
X0147652Y0102468D01*
X0147664Y0102430D01*
X0147672Y0102392D01*
X0147676Y0102353D01*
X0147676Y0102313D01*
X0147672Y0102274D01*
X0147664Y0102236D01*
X0147652Y0102198D01*
X0147637Y0102162D01*
X0147618Y0102128D01*
X0147596Y0102095D01*
X0147571Y0102065D01*
X0147543Y0102038D01*
X0147512Y0102013D01*
X0147479Y0101992D01*
X0147444Y0101974D01*
X0147407Y0101960D01*
X0147370Y0101949D01*
X0147331Y0101942D01*
X0147292Y0101939D01*
X0147253Y0101940D01*
X0147214Y0101945D01*
X0147175Y0101954D01*
X0147138Y0101966D01*
X0147102Y0101982D01*
X0147068Y0102002D01*
X0147036Y0102025D01*
X0147007Y0102051D01*
X0146980Y0102080D01*
X0146956Y0102111D01*
X0146936Y0102145D01*
X0146919Y0102180D01*
X0146906Y0102217D01*
X0146896Y0102255D01*
X0146890Y0102294D01*
X0146888Y0102333D01*
X0146888Y0098642D02*
X0146890Y0098681D01*
X0146896Y0098720D01*
X0146906Y0098758D01*
X0146919Y0098795D01*
X0146936Y0098830D01*
X0146956Y0098864D01*
X0146980Y0098895D01*
X0147007Y0098924D01*
X0147036Y0098950D01*
X0147068Y0098973D01*
X0147102Y0098993D01*
X0147138Y0099009D01*
X0147175Y0099021D01*
X0147214Y0099030D01*
X0147253Y0099035D01*
X0147292Y0099036D01*
X0147331Y0099033D01*
X0147370Y0099026D01*
X0147407Y0099015D01*
X0147444Y0099001D01*
X0147479Y0098983D01*
X0147512Y0098962D01*
X0147543Y0098937D01*
X0147571Y0098910D01*
X0147596Y0098880D01*
X0147618Y0098847D01*
X0147637Y0098813D01*
X0147652Y0098777D01*
X0147664Y0098739D01*
X0147672Y0098701D01*
X0147676Y0098662D01*
X0147676Y0098622D01*
X0147672Y0098583D01*
X0147664Y0098545D01*
X0147652Y0098507D01*
X0147637Y0098471D01*
X0147618Y0098437D01*
X0147596Y0098404D01*
X0147571Y0098374D01*
X0147543Y0098347D01*
X0147512Y0098322D01*
X0147479Y0098301D01*
X0147444Y0098283D01*
X0147407Y0098269D01*
X0147370Y0098258D01*
X0147331Y0098251D01*
X0147292Y0098248D01*
X0147253Y0098249D01*
X0147214Y0098254D01*
X0147175Y0098263D01*
X0147138Y0098275D01*
X0147102Y0098291D01*
X0147068Y0098311D01*
X0147036Y0098334D01*
X0147007Y0098360D01*
X0146980Y0098389D01*
X0146956Y0098420D01*
X0146936Y0098454D01*
X0146919Y0098489D01*
X0146906Y0098526D01*
X0146896Y0098564D01*
X0146890Y0098603D01*
X0146888Y0098642D01*
X0150579Y0098642D02*
X0150581Y0098681D01*
X0150587Y0098720D01*
X0150597Y0098758D01*
X0150610Y0098795D01*
X0150627Y0098830D01*
X0150647Y0098864D01*
X0150671Y0098895D01*
X0150698Y0098924D01*
X0150727Y0098950D01*
X0150759Y0098973D01*
X0150793Y0098993D01*
X0150829Y0099009D01*
X0150866Y0099021D01*
X0150905Y0099030D01*
X0150944Y0099035D01*
X0150983Y0099036D01*
X0151022Y0099033D01*
X0151061Y0099026D01*
X0151098Y0099015D01*
X0151135Y0099001D01*
X0151170Y0098983D01*
X0151203Y0098962D01*
X0151234Y0098937D01*
X0151262Y0098910D01*
X0151287Y0098880D01*
X0151309Y0098847D01*
X0151328Y0098813D01*
X0151343Y0098777D01*
X0151355Y0098739D01*
X0151363Y0098701D01*
X0151367Y0098662D01*
X0151367Y0098622D01*
X0151363Y0098583D01*
X0151355Y0098545D01*
X0151343Y0098507D01*
X0151328Y0098471D01*
X0151309Y0098437D01*
X0151287Y0098404D01*
X0151262Y0098374D01*
X0151234Y0098347D01*
X0151203Y0098322D01*
X0151170Y0098301D01*
X0151135Y0098283D01*
X0151098Y0098269D01*
X0151061Y0098258D01*
X0151022Y0098251D01*
X0150983Y0098248D01*
X0150944Y0098249D01*
X0150905Y0098254D01*
X0150866Y0098263D01*
X0150829Y0098275D01*
X0150793Y0098291D01*
X0150759Y0098311D01*
X0150727Y0098334D01*
X0150698Y0098360D01*
X0150671Y0098389D01*
X0150647Y0098420D01*
X0150627Y0098454D01*
X0150610Y0098489D01*
X0150597Y0098526D01*
X0150587Y0098564D01*
X0150581Y0098603D01*
X0150579Y0098642D01*
X0150579Y0102333D02*
X0150581Y0102372D01*
X0150587Y0102411D01*
X0150597Y0102449D01*
X0150610Y0102486D01*
X0150627Y0102521D01*
X0150647Y0102555D01*
X0150671Y0102586D01*
X0150698Y0102615D01*
X0150727Y0102641D01*
X0150759Y0102664D01*
X0150793Y0102684D01*
X0150829Y0102700D01*
X0150866Y0102712D01*
X0150905Y0102721D01*
X0150944Y0102726D01*
X0150983Y0102727D01*
X0151022Y0102724D01*
X0151061Y0102717D01*
X0151098Y0102706D01*
X0151135Y0102692D01*
X0151170Y0102674D01*
X0151203Y0102653D01*
X0151234Y0102628D01*
X0151262Y0102601D01*
X0151287Y0102571D01*
X0151309Y0102538D01*
X0151328Y0102504D01*
X0151343Y0102468D01*
X0151355Y0102430D01*
X0151363Y0102392D01*
X0151367Y0102353D01*
X0151367Y0102313D01*
X0151363Y0102274D01*
X0151355Y0102236D01*
X0151343Y0102198D01*
X0151328Y0102162D01*
X0151309Y0102128D01*
X0151287Y0102095D01*
X0151262Y0102065D01*
X0151234Y0102038D01*
X0151203Y0102013D01*
X0151170Y0101992D01*
X0151135Y0101974D01*
X0151098Y0101960D01*
X0151061Y0101949D01*
X0151022Y0101942D01*
X0150983Y0101939D01*
X0150944Y0101940D01*
X0150905Y0101945D01*
X0150866Y0101954D01*
X0150829Y0101966D01*
X0150793Y0101982D01*
X0150759Y0102002D01*
X0150727Y0102025D01*
X0150698Y0102051D01*
X0150671Y0102080D01*
X0150647Y0102111D01*
X0150627Y0102145D01*
X0150610Y0102180D01*
X0150597Y0102217D01*
X0150587Y0102255D01*
X0150581Y0102294D01*
X0150579Y0102333D01*
X0150579Y0106024D02*
X0150581Y0106063D01*
X0150587Y0106102D01*
X0150597Y0106140D01*
X0150610Y0106177D01*
X0150627Y0106212D01*
X0150647Y0106246D01*
X0150671Y0106277D01*
X0150698Y0106306D01*
X0150727Y0106332D01*
X0150759Y0106355D01*
X0150793Y0106375D01*
X0150829Y0106391D01*
X0150866Y0106403D01*
X0150905Y0106412D01*
X0150944Y0106417D01*
X0150983Y0106418D01*
X0151022Y0106415D01*
X0151061Y0106408D01*
X0151098Y0106397D01*
X0151135Y0106383D01*
X0151170Y0106365D01*
X0151203Y0106344D01*
X0151234Y0106319D01*
X0151262Y0106292D01*
X0151287Y0106262D01*
X0151309Y0106229D01*
X0151328Y0106195D01*
X0151343Y0106159D01*
X0151355Y0106121D01*
X0151363Y0106083D01*
X0151367Y0106044D01*
X0151367Y0106004D01*
X0151363Y0105965D01*
X0151355Y0105927D01*
X0151343Y0105889D01*
X0151328Y0105853D01*
X0151309Y0105819D01*
X0151287Y0105786D01*
X0151262Y0105756D01*
X0151234Y0105729D01*
X0151203Y0105704D01*
X0151170Y0105683D01*
X0151135Y0105665D01*
X0151098Y0105651D01*
X0151061Y0105640D01*
X0151022Y0105633D01*
X0150983Y0105630D01*
X0150944Y0105631D01*
X0150905Y0105636D01*
X0150866Y0105645D01*
X0150829Y0105657D01*
X0150793Y0105673D01*
X0150759Y0105693D01*
X0150727Y0105716D01*
X0150698Y0105742D01*
X0150671Y0105771D01*
X0150647Y0105802D01*
X0150627Y0105836D01*
X0150610Y0105871D01*
X0150597Y0105908D01*
X0150587Y0105946D01*
X0150581Y0105985D01*
X0150579Y0106024D01*
D19*
X0152006Y0127790D03*
X0152006Y0135270D03*
X0142951Y0135270D03*
X0142951Y0127790D03*
D20*
X0185541Y0109503D03*
X0193022Y0109503D03*
X0189282Y0118164D03*
D21*
X0201834Y0124333D03*
X0216834Y0124333D03*
X0216834Y0102333D03*
X0201834Y0102333D03*
D22*
X0197417Y0077930D03*
X0222220Y0077930D03*
D23*
X0247282Y0105003D03*
X0251022Y0113270D03*
X0243541Y0113270D03*
X0054022Y0226396D03*
X0046541Y0226396D03*
X0050282Y0234664D03*
D24*
X0193782Y0097680D03*
X0193782Y0090987D03*
D25*
X0161061Y0030546D03*
X0133502Y0030546D03*
D26*
X0143345Y0032514D03*
X0151219Y0032514D03*
D27*
X0152793Y0278333D03*
X0141770Y0278333D03*
D28*
X0204754Y0093333D03*
X0213809Y0093333D03*
M02*
